<?xml version="1.0" standalone="no"?>
<!DOCTYPE svg PUBLIC "-//W3C//DTD SVG 1.1//EN" "http://www.w3.org/Graphics/SVG/1.1/DTD/svg11.dtd" >
<svg xmlns="http://www.w3.org/2000/svg" xmlns:xlink="http://www.w3.org/1999/xlink" version="1.1">
<metadata>
Created by FontForge 20170731 at Thu May 10 11:56:17 2018
 By Aleksey,,,
Copyright c 2017 Sandoll Communications Inc. All rights reserved.;TrueType Hinting(ClearType) by YoonDesign Inc. All rights reserved.
</metadata>
<defs>
<font id="KyoboSemiBoldBold" horiz-adv-x="960" >
  <font-face 
    font-family="Kyobo SemiBold"
    font-weight="700"
    font-stretch="normal"
    units-per-em="1000"
    panose-1="2 11 6 0 0 1 1 1 1 1"
    ascent="800"
    descent="-200"
    x-height="509"
    cap-height="690"
    bbox="-95 -249 1383 800"
    underline-thickness="50"
    underline-position="-285"
    unicode-range="U+0020-FFE6"
  />
<missing-glyph horiz-adv-x="920" 
d="M860 -150h-800v900h800v-900zM460 271l-335 -385h670zM100 -83l334 384l-334 384v-768zM459 330l334 384h-667zM820 686l-334 -386l334 -384v770z" />
    <glyph glyph-name=".notdef" horiz-adv-x="920" 
d="M860 -150h-800v900h800v-900zM460 271l-335 -385h670zM100 -83l334 384l-334 384v-768zM459 330l334 384h-667zM820 686l-334 -386l334 -384v770z" />
    <glyph glyph-name=".null" horiz-adv-x="0" 
 />
    <glyph glyph-name="nonmarkingreturn" horiz-adv-x="265" 
 />
    <glyph glyph-name="space" unicode=" " horiz-adv-x="265" 
 />
    <glyph glyph-name="space" unicode="&#xa0;" horiz-adv-x="265" 
 />
    <glyph glyph-name="exclam" unicode="!" horiz-adv-x="316" 
d="M83 705h145l-16 -521h-112zM86 88h140v-135h-140v135z" />
    <glyph glyph-name="quotedbl" unicode="&#x22;" horiz-adv-x="426" 
d="M240 758h138l-17 -258h-104zM47 758h138l-16 -258h-105z" />
    <glyph glyph-name="numbersign" unicode="#" horiz-adv-x="626" 
d="M174 511l33 182h108l-33 -182h125l33 182h108l-33 -182h79v-94h-96l-29 -166h97v-94h-114l-34 -192h-108l34 192h-125l-34 -192h-108l34 192h-79v94h96l29 166h-97v94h114zM236 251h125l29 166h-125z" />
    <glyph glyph-name="dollar" unicode="$" horiz-adv-x="578" 
d="M483 568q-27 10 -65 17t-81 10v-208h1q43 -10 80 -26t64 -41t42.5 -61t15.5 -87q0 -86 -51.5 -141.5t-151.5 -70.5v-70h-99v66q-64 2 -118 15.5t-87 32.5l21 99q38 -14 86.5 -25.5t97.5 -13.5v222l-22 5q-78 20 -126.5 71.5t-48.5 142.5q0 78 50 130.5t147 65.5v64h99
v-62q57 -4 100.5 -15t70.5 -23zM412 163q0 35 -18.5 58t-56.5 38v-185q75 21 75 89zM168 513q0 -36 14.5 -61t55.5 -40v178q-33 -8 -51.5 -26.5t-18.5 -50.5z" />
    <glyph glyph-name="percent" unicode="%" horiz-adv-x="907" 
d="M606 715h123l-442 -775h-124zM387 495q0 -97 -46 -153.5t-126 -56.5q-79 0 -125.5 56.5t-46.5 153.5q0 98 46.5 154.5t125.5 56.5q80 0 126 -56.5t46 -154.5zM277 495q0 57 -14.5 86.5t-47.5 29.5t-47.5 -29.5t-14.5 -86.5t14.5 -86t47.5 -29t47.5 29t14.5 86zM864 165
q0 -97 -46 -153.5t-126 -56.5q-79 0 -125 56.5t-46 153.5q0 98 46 154.5t125 56.5q80 0 126 -56.5t46 -154.5zM754 165q0 57 -14.5 86.5t-47.5 29.5q-32 0 -46.5 -29.5t-14.5 -86.5t14.5 -86t46.5 -29q33 0 47.5 29t14.5 86z" />
    <glyph glyph-name="ampersand" unicode="&#x26;" horiz-adv-x="697" 
d="M497 14q-38 -27 -85.5 -43t-107.5 -16q-125 0 -196.5 53t-71.5 162q0 37 13 66t34.5 52t49.5 41.5t59 34.5l-15 18q-30 37 -49 73.5t-19 74.5q0 45 17 78t46 55t68 32.5t83 10.5q45 0 82.5 -11t64 -32t41.5 -51t15 -67t-14 -67.5t-37 -55t-52.5 -44t-59.5 -34.5l137 -159
q17 33 27 68t13 67h109q-3 -57 -20.5 -115t-52.5 -109l112 -129h-150zM307 57q35 0 65 10.5t54 27.5l-175 201q-18 -11 -33.5 -22t-27 -24.5t-18 -30t-6.5 -38.5q0 -60 35.5 -92t105.5 -32zM239 536q0 -29 13.5 -53t36.5 -53l15 -18q43 26 69 54t26 75q0 37 -19 57.5
t-57 20.5q-39 0 -61.5 -20t-22.5 -63z" />
    <glyph glyph-name="quotesingle" unicode="'" horiz-adv-x="233" 
d="M47 758h138l-16 -258h-105z" />
    <glyph glyph-name="parenleft" unicode="(" horiz-adv-x="348" 
d="M52 296q0 160 46 274t123 188h119q-36 -41 -65.5 -92t-50 -110t-31.5 -124.5t-11 -135.5t11 -135.5t31.5 -124.5t50 -110.5t65.5 -91.5h-119q-77 74 -123 188t-46 274z" />
    <glyph glyph-name="parenright" unicode=")" horiz-adv-x="348" 
d="M295 296q0 -160 -46 -274t-123 -188h-119q36 40 65.5 91.5t50 110.5t31.5 124.5t11 135.5t-11 135.5t-31.5 124.5t-50 110t-65.5 92h119q77 -74 123 -188t46 -274z" />
    <glyph glyph-name="asterisk" unicode="*" horiz-adv-x="411" 
d="M239 652l81 68l53 -89l-101 -38l101 -38l-51 -89l-83 67l18 -105h-105l18 105l-81 -67l-53 89l101 38l-101 38l51 89l83 -68l-18 106h105z" />
    <glyph glyph-name="plus" unicode="+" horiz-adv-x="536" 
d="M209 288h-167v101h167v194h120v-194h165v-101h-165v-194h-120v194z" />
    <glyph glyph-name="comma" unicode="," horiz-adv-x="279" 
d="M66 104h146v-111q0 -60 -31 -104.5t-102 -64.5l-22 55q69 25 69 88h-60v137z" />
    <glyph glyph-name="hyphen" unicode="-" horiz-adv-x="407" 
d="M42 389h323v-101h-323v101z" />
    <glyph glyph-name="period" unicode="." horiz-adv-x="279" 
d="M66 104h146v-139h-146v139z" />
    <glyph glyph-name="slash" unicode="/" horiz-adv-x="401" 
d="M270 716h123l-263 -862h-123z" />
    <glyph glyph-name="zero" unicode="0" horiz-adv-x="620" 
d="M310 -45q-55 0 -104 20t-86 64t-58.5 115.5t-21.5 175.5t21.5 175.5t58.5 116t86 64.5t104 20t104 -20t86 -64.5t58.5 -116t21.5 -175.5t-21.5 -175.5t-58.5 -115.5t-86 -64t-104 -20zM310 68q30 0 55.5 13t44 44t28.5 81t10 124t-10 124.5t-28.5 81t-44 44t-55.5 13.5
t-55.5 -13.5t-44 -44t-28.5 -81t-10 -124.5t10 -124t28.5 -81t44 -44t55.5 -13z" />
    <glyph glyph-name="one" unicode="1" horiz-adv-x="620" 
d="M274 -35v604l-167 -37v96l225 65h74v-728h-132z" />
    <glyph glyph-name="two" unicode="2" horiz-adv-x="620" 
d="M52 45l228 236q27 28 50.5 54.5t41.5 51.5t28 49t10 49q0 37 -11 58.5t-31.5 33t-50 15t-65.5 3.5q-41 0 -82.5 -10t-73.5 -25l-26 97q38 17 92 33t119 16q124 0 191.5 -57.5t67.5 -160.5q0 -40 -16 -77t-42 -72t-58.5 -70t-64.5 -70l-115 -125h306v-109h-498v80z" />
    <glyph glyph-name="three" unicode="3" horiz-adv-x="620" 
d="M269 -45q-32 0 -63.5 4t-60 10.5t-52 14.5t-39.5 17l21 100q16 -7 37 -14t44 -12t46 -8.5t44 -3.5q87 0 131.5 26t44.5 85t-47 86t-128 27h-74v110h67q72 0 116.5 27.5t44.5 78.5q0 54 -38.5 74.5t-101.5 20.5q-45 0 -81.5 -12.5t-71.5 -25.5l-26 97q18 9 43 17.5
t53.5 15.5t58 11.5t56.5 4.5q53 0 97 -12.5t75.5 -36t48.5 -57.5t17 -78q0 -68 -28.5 -108.5t-86.5 -61.5q66 -15 103.5 -56t37.5 -126q0 -50 -20 -89.5t-57.5 -67.5t-91 -43t-119.5 -15z" />
    <glyph glyph-name="four" unicode="4" horiz-adv-x="620" 
d="M372 213v272l-187 -272h187zM371 105h-339v88l357 500h109v-480h106v-108h-106v-140h-127v140z" />
    <glyph glyph-name="five" unicode="5" horiz-adv-x="620" 
d="M272 -45q-32 0 -63.5 4t-60 10.5t-52 14.5t-39.5 17l22 100q16 -8 37 -14.5t44 -12t47 -8.5t45 -3q85 0 130 34.5t45 97.5q0 33 -13 55t-36 36t-54.5 20t-69.5 6q-35 0 -72 -3.5t-79 -11.5l26 396h393v-109h-276l-12 -175q16 3 26.5 4t29.5 1q60 0 109.5 -12t85 -38.5
t55.5 -68t20 -101.5q0 -48 -20 -91.5t-57.5 -76t-91 -52t-119.5 -19.5z" />
    <glyph glyph-name="six" unicode="6" horiz-adv-x="620" 
d="M351 426q48 0 89.5 -15.5t72 -44.5t48.5 -70.5t18 -94.5q0 -54 -18 -99t-51.5 -77.5t-81 -51t-105.5 -18.5q-63 0 -113.5 20t-85 64.5t-53 116t-18.5 174.5q0 101 24 172.5t66 116.5t98 66t120 21q53 0 101.5 -13.5t78.5 -27.5l-27 -97q-28 12 -68 22.5t-75 10.5
q-41 0 -73.5 -10.5t-56 -36.5t-37 -69.5t-17.5 -109.5q28 19 65 35t99 16zM321 64q60 0 93.5 30.5t33.5 96.5q0 37 -9.5 62t-26.5 40.5t-40.5 22t-51.5 6.5q-44 0 -77 -16.5t-56 -37.5q3 -58 13 -97t27 -63t40.5 -34t53.5 -10z" />
    <glyph glyph-name="seven" unicode="7" horiz-adv-x="620" 
d="M403 582h-348v111h491v-79l-264 -649h-141z" />
    <glyph glyph-name="eight" unicode="8" horiz-adv-x="620" 
d="M308 -45q-63 0 -113.5 14t-86.5 40t-55 62t-19 80q0 34 13 63t34 53t48 42.5t56 30.5q-24 12 -46.5 28.5t-40 38.5t-28.5 48t-11 58q0 40 18 75.5t50.5 61.5t78.5 41t102 15t101.5 -13t77 -37.5t48.5 -58.5t17 -76q0 -28 -11 -53.5t-29 -47t-41 -40t-47 -32.5
q28 -13 56.5 -30.5t51.5 -40.5t38 -52t15 -63q0 -44 -19.5 -82t-56 -66t-87.5 -43.5t-114 -15.5zM158 159q0 -26 12 -44.5t32 -30.5t47.5 -18t58.5 -6q62 0 102.5 23t40.5 71q0 26 -12.5 46t-34 37t-50.5 31t-62 28q-25 -10 -49 -24t-43 -31.5t-30.5 -38.5t-11.5 -43z
M426 514q0 40 -30 63.5t-88 23.5q-52 0 -83.5 -21t-31.5 -63q0 -23 10.5 -40.5t28.5 -32.5t42 -27.5t50 -24.5q18 10 36.5 23.5t33 29.5t23.5 33.5t9 35.5z" />
    <glyph glyph-name="nine" unicode="9" horiz-adv-x="620" 
d="M269 227q-48 0 -89.5 15.5t-72 44.5t-48.5 72t-18 97q0 55 18 101t51.5 79t81 51.5t105.5 18.5q63 0 113.5 -20t85 -65t53 -116.5t18.5 -174.5q0 -101 -24 -172t-66 -116t-98 -66t-120 -21q-57 0 -106 13t-79 27l27 97q28 -11 69 -21.5t79 -10.5q40 0 72 10.5t55.5 35.5
t37 66.5t18.5 104.5q-14 -10 -30 -19t-35 -16t-43 -11t-55 -4zM299 596q-60 0 -93.5 -30.5t-33.5 -99.5q0 -39 9.5 -64.5t26.5 -41.5t40.5 -22.5t51.5 -6.5q43 0 76.5 16.5t56.5 37.5q-3 60 -13 100t-26.5 65t-40 35.5t-54.5 10.5z" />
    <glyph glyph-name="colon" unicode=":" horiz-adv-x="305" 
d="M79 601h146v-139h-146v139zM79 203h146v-139h-146v139z" />
    <glyph glyph-name="semicolon" unicode=";" horiz-adv-x="305" 
d="M79 601h146v-139h-146v139zM79 203h146v-111q0 -60 -31 -104.5t-102 -64.5l-22 55q69 25 69 88h-60v137z" />
    <glyph glyph-name="less" unicode="&#x3c;" horiz-adv-x="511" 
d="M47 290v98l412 231v-122l-284 -158l284 -157v-123z" />
    <glyph glyph-name="equal" unicode="=" horiz-adv-x="481" 
d="M42 490h405v-102h-405v102zM42 289h405v-102h-405v102z" />
    <glyph glyph-name="greater" unicode="&#x3e;" horiz-adv-x="511" 
d="M48 59v123l284 157l-284 158v122l411 -231v-98z" />
    <glyph glyph-name="question" unicode="?" horiz-adv-x="496" 
d="M133 216q-2 29 6.5 51t24.5 41t37.5 37.5t46.5 39.5q29 25 43.5 56.5t14.5 76.5q0 23 -9 38t-24 24t-34.5 13t-40.5 4q-42 0 -70.5 -7.5t-59.5 -17.5l-28 98q38 17 81.5 27.5t99.5 10.5q45 0 85 -10.5t70 -33t47.5 -57.5t17.5 -83q0 -68 -26.5 -119t-89.5 -99
q-20 -15 -33.5 -28t-22 -25t-13.5 -24.5t-6 -28.5l-2 -26h-112zM122 88h140v-135h-140v135z" />
    <glyph glyph-name="at" unicode="@" horiz-adv-x="958" 
d="M536 102q-23 -26 -54 -40t-72 -14q-35 0 -61 10t-45 27q-27 24 -35.5 62.5t-8.5 88.5q0 64 16.5 116.5t46 89.5t70.5 57.5t91 20.5q24 0 40.5 -5t27.5 -13.5t18.5 -19.5t12.5 -22l14 51h112l-63 -333q-4 -19 2.5 -36t33.5 -17q66 0 94.5 61t28.5 170q0 64 -17 116.5
t-51.5 90t-88.5 58.5t-127 21q-90 0 -158 -30.5t-114 -84t-69 -125.5t-23 -155q0 -146 79.5 -227.5t243.5 -81.5q34 0 69.5 3.5t67 9t58.5 12.5t45 14l8 -81q-51 -23 -113.5 -36t-135.5 -13q-101 0 -180 27t-134.5 78t-84.5 124.5t-29 167.5q0 93 31 181.5t91 156.5
t148 109.5t203 41.5q88 0 159 -28t121.5 -77.5t78 -117.5t27.5 -148q0 -74 -17 -132.5t-49 -99t-77 -62t-102 -21.5q-52 0 -80 13.5t-49 41.5zM489 434q-24 0 -44 -15t-34 -41t-21.5 -62.5t-7.5 -78.5q0 -50 15 -76.5t57 -26.5q31 0 53.5 24t27.5 54l24 126q3 16 0.5 33
t-11.5 31t-24 23t-35 9z" />
    <glyph glyph-name="A" unicode="A" horiz-adv-x="678" 
d="M456 163h-241l-64 -198h-139l264 728h128l262 -728h-142zM250 271h170l-87 255z" />
    <glyph glyph-name="B" unicode="B" horiz-adv-x="654" 
d="M82 693h252q114 0 182 -50t68 -155q0 -51 -21.5 -88.5t-63.5 -58.5q25 -8 47.5 -24.5t39 -38.5t26.5 -47t10 -51q0 -53 -18.5 -93t-52 -67t-80.5 -41t-104 -14h-285v728zM212 286v-212h138q25 0 50.5 4t45 15.5t32 32t12.5 54.5q0 32 -11.5 52.5t-30.5 32.5t-42 16.5
t-47 4.5h-147zM212 584v-192h105q25 0 49.5 2.5t43.5 12t30.5 29t11.5 52.5q0 34 -11.5 53t-30.5 28.5t-43.5 12t-49.5 2.5h-105z" />
    <glyph glyph-name="C" unicode="C" horiz-adv-x="617" 
d="M389 -45q-171 0 -259 91.5t-88 283.5q0 193 86.5 284.5t260.5 91.5q62 0 111.5 -12t76.5 -27l-27 -99q-44 16 -80.5 21t-79.5 5q-63 0 -104 -17.5t-64.5 -51t-33 -82.5t-9.5 -113t9 -113t33 -82.5t65 -50.5t104 -17q47 0 88 4.5t86 20.5l27 -98q-27 -15 -81.5 -27
t-120.5 -12z" />
    <glyph glyph-name="D" unicode="D" horiz-adv-x="719" 
d="M331 76q52 0 91.5 11.5t66.5 40.5t41 78t14 123q0 79 -14 128.5t-41 77.5t-66.5 37.5t-91.5 9.5h-119v-506h119zM82 693h241q84 0 150 -21t111 -65.5t68.5 -113.5t23.5 -164t-23.5 -164t-68.5 -113.5t-111 -65.5t-150 -21h-241v728z" />
    <glyph glyph-name="E" unicode="E" horiz-adv-x="615" 
d="M212 74h365v-109h-495v728h473v-109h-343v-191h304v-108h-304v-211z" />
    <glyph glyph-name="F" unicode="F" horiz-adv-x="601" 
d="M212 -35h-130v728h466v-109h-336v-197h297v-109h-297v-313z" />
    <glyph glyph-name="G" unicode="G" horiz-adv-x="716" 
d="M662 26q-12 -10 -34.5 -22t-55 -23t-74 -18.5t-91.5 -7.5q-189 0 -277 91.5t-88 283.5q0 96 21.5 166.5t67 117t117.5 69.5t173 23q75 0 130.5 -12.5t84.5 -28.5l-27 -99q-23 9 -44.5 14.5t-44 8.5t-46.5 4t-52 1q-78 0 -126 -17.5t-74.5 -51t-36 -82.5t-9.5 -113
t10 -113t35.5 -82t70.5 -50t115 -17q48 0 79.5 6.5t49.5 17.5v186h-163v111h289v-363z" />
    <glyph glyph-name="H" unicode="H" horiz-adv-x="735" 
d="M520 693h129v-728h-129v319h-308v-319h-130v728h130v-298h308v298z" />
    <glyph glyph-name="I" unicode="I" horiz-adv-x="301" 
d="M84 693h133v-728h-133v728z" />
    <glyph glyph-name="J" unicode="J" horiz-adv-x="465" 
d="M191 -37q-52 0 -93.5 7t-70.5 20l23 100q23 -8 56.5 -16t67.5 -8q47 0 65 31t18 76v525h131v-534q0 -40 -11 -76.5t-34.5 -64t-61 -44t-90.5 -16.5z" />
    <glyph glyph-name="K" unicode="K" horiz-adv-x="644" 
d="M211 -35h-129v728h129v-305l262 305h148l-282 -320l297 -408h-152l-220 323l-53 -60v-263z" />
    <glyph glyph-name="L" unicode="L" horiz-adv-x="572" 
d="M82 693h133v-617h324v-111h-457v728z" />
    <glyph glyph-name="M" unicode="M" horiz-adv-x="888" 
d="M82 693h181l185 -491l181 491h176v-728h-124v562l-177 -462h-121l-176 462v-562h-125v728z" />
    <glyph glyph-name="N" unicode="N" horiz-adv-x="731" 
d="M82 693h150l291 -503v503h126v-728h-126l-314 547v-547h-127v728z" />
    <glyph glyph-name="O" unicode="O" horiz-adv-x="750" 
d="M708 330q0 -184 -84 -279.5t-249 -95.5t-249 95.5t-84 279.5t84 280t249 96t249 -96t84 -280zM576 330q0 127 -48 195t-153 68t-153 -67.5t-48 -195.5t48 -195t153 -67q104 0 152.5 67t48.5 195z" />
    <glyph glyph-name="P" unicode="P" horiz-adv-x="639" 
d="M361 693q115 0 180 -62.5t65 -171.5t-65 -171.5t-180 -62.5h-149v-260h-130v728h279zM212 582v-246h132q25 0 48.5 6t41.5 20t29 38t11 59t-11 58.5t-29 38t-41.5 20.5t-48.5 6h-132z" />
    <glyph glyph-name="Q" unicode="Q" horiz-adv-x="750" 
d="M708 330q0 -153 -61 -246l106 -119h-148l-36 41q-38 -25 -86.5 -38t-107.5 -13q-165 0 -249 95.5t-84 279.5t84 280t249 96t249 -96t84 -280zM576 330q0 127 -48 195t-153 68t-153 -67.5t-48 -195.5t48 -195t153 -67q70 0 114 31l-131 151h141l55 -63q22 57 22 143z" />
    <glyph glyph-name="R" unicode="R" horiz-adv-x="647" 
d="M361 693q57 0 102.5 -16.5t77 -45.5t48.5 -70t17 -90q0 -85 -48.5 -142t-136.5 -72l215 -292h-154l-198 287h-72v-287h-130v728h279zM212 582v-222h132q25 0 48.5 6t41.5 19.5t29 34.5t11 51t-11 51t-29 34.5t-41.5 19.5t-48.5 6h-132z" />
    <glyph glyph-name="S" unicode="S" horiz-adv-x="582" 
d="M268 -45q-72 0 -133.5 14t-98.5 35l23 99q42 -15 95 -26.5t105 -11.5q74 0 113 24t39 74q0 45 -28.5 68.5t-90.5 40.5l-73 19q-39 11 -71.5 28.5t-55.5 44t-35.5 61.5t-12.5 81q0 44 16.5 81t49 63.5t79.5 41t109 14.5q71 0 126 -13t87 -27l-26 -98q-34 13 -83 20t-104 7
q-56 0 -89.5 -19t-33.5 -62q0 -42 18.5 -68t74.5 -40l73 -18q43 -11 80 -27t64 -41t42.5 -61t15.5 -87q0 -100 -69.5 -158.5t-205.5 -58.5z" />
    <glyph glyph-name="T" unicode="T" horiz-adv-x="595" 
d="M233 582h-211v111h551v-111h-209v-617h-131v617z" />
    <glyph glyph-name="U" unicode="U" horiz-adv-x="769" 
d="M687 280q0 -76 -20 -136t-58.5 -102t-95.5 -64.5t-131 -22.5q-75 0 -131 22.5t-93.5 64.5t-56.5 102t-19 136v413h130v-408q0 -101 39.5 -159t130.5 -58q90 0 132.5 58t42.5 159v408h130v-413z" />
    <glyph glyph-name="V" unicode="V" horiz-adv-x="660" 
d="M12 693h142l178 -542l177 542h139l-256 -728h-123z" />
    <glyph glyph-name="W" unicode="W" horiz-adv-x="922" 
d="M656 162l118 531h135l-196 -728h-120l-132 556l-131 -556h-120l-198 728h139l120 -531l126 531h131z" />
    <glyph glyph-name="X" unicode="X" horiz-adv-x="681" 
d="M343 451l157 242h144l-233 -347l247 -381h-151l-174 268l-165 -268h-146l242 375l-228 353h151z" />
    <glyph glyph-name="Y" unicode="Y" horiz-adv-x="634" 
d="M252 240l-240 453h148l158 -322l162 322h141l-238 -453v-275h-131v275z" />
    <glyph glyph-name="Z" unicode="Z" horiz-adv-x="604" 
d="M30 71l376 513h-349v109h501v-106l-374 -513h384v-109h-538v106z" />
    <glyph glyph-name="bracketleft" unicode="[" horiz-adv-x="383" 
d="M83 758h262v-100h-140v-722h140v-102h-262v924z" />
    <glyph glyph-name="backslash" unicode="\" horiz-adv-x="904" 
d="M27 412h74l-70 281h134l56 -281h106l62 281h128l62 -281h107l56 281h130l-70 -281h74v-89h-96l-88 -358h-118l-78 358h-88l-77 -358h-119l-89 358h-96v89zM635 157l33 166h-70zM272 157l36 166h-69zM427 412h50l-25 114z" />
    <glyph glyph-name="bracketright" unicode="]" horiz-adv-x="383" 
d="M292 -166h-261v102h140v722h-140v100h261v-924z" />
    <glyph glyph-name="asciicircum" unicode="^" horiz-adv-x="502" 
d="M203 758h97l155 -260h-117l-87 152l-87 -152h-117z" />
    <glyph glyph-name="underscore" unicode="_" horiz-adv-x="363" 
d="M2 -82h359v-102h-359v102z" />
    <glyph glyph-name="grave" unicode="`" horiz-adv-x="547" 
d="M110 758h145l84 -153h-119z" />
    <glyph glyph-name="a" unicode="a" horiz-adv-x="580" 
d="M395 214h-117q-22 0 -44.5 -3.5t-40.5 -12.5t-29.5 -24t-11.5 -39q0 -26 9.5 -42t25 -25t36 -12t43.5 -3q21 0 44 6t42 17t31 28t12 38v72zM517 -35h-112l-10 58q-23 -37 -60.5 -52.5t-79.5 -15.5q-45 0 -86 9t-71.5 29.5t-48.5 54t-18 82.5q0 50 21 84t54.5 54.5
t75 29.5t81.5 9h132v11q0 27 -10 47t-26.5 32.5t-38.5 18.5t-47 6q-39 0 -82.5 -9.5t-85.5 -24.5l-26 93q46 18 94.5 28.5t108.5 10.5q48 0 90.5 -10t74.5 -34t51 -64t19 -101v-346z" />
    <glyph glyph-name="b" unicode="b" horiz-adv-x="616" 
d="M315 58q63 0 101.5 45.5t38.5 133.5q0 89 -38.5 135t-101.5 46q-21 0 -43.5 -8.5t-40.5 -25t-29.5 -40.5t-11.5 -54v-114q0 -30 11.5 -52t29.5 -36.5t40.5 -22t43.5 -7.5zM330 -45q-38 0 -77.5 13t-62.5 48l-11 -51h-112v769h123v-283q23 35 62.5 52t77.5 17
q50 0 95.5 -18.5t80 -54t55 -88.5t20.5 -122t-20.5 -121.5t-55 -88.5t-80 -54t-95.5 -18z" />
    <glyph glyph-name="c" unicode="c" horiz-adv-x="508" 
d="M319 -45q-65 0 -117 18t-89.5 54t-57.5 88.5t-20 121.5t20 122t57.5 88.5t89.5 54t117 18.5q55 0 94.5 -10t68.5 -22l-25 -93q-23 8 -59.5 15.5t-78.5 7.5q-78 0 -118 -43.5t-40 -137.5q0 -93 40 -136t118 -43q46 0 86.5 7t65.5 16l25 -94q-30 -13 -71 -22.5t-106 -9.5z
" />
    <glyph glyph-name="d" unicode="d" horiz-adv-x="616" 
d="M426 299q0 30 -11.5 52t-30 36.5t-41 22t-43.5 7.5q-63 0 -101 -46t-38 -134q0 -89 38 -134.5t101 -45.5q21 0 43.5 8.5t41 25t30 40.5t11.5 54v114zM285 520q19 0 39.5 -3t39 -10t35 -19t27.5 -29v275h122v-769h-111l-11 59q-11 -20 -27.5 -33t-35 -21t-39 -11.5
t-39.5 -3.5q-50 0 -95.5 18t-80 54t-54.5 88.5t-20 121.5t20 122t54.5 88.5t80 54t95.5 18.5z" />
    <glyph glyph-name="e" unicode="e" horiz-adv-x="573" 
d="M318 -45q-140 0 -211.5 72.5t-71.5 209.5q0 66 18.5 118.5t53 89t83.5 56t110 19.5q51 0 94.5 -19t75.5 -55.5t50 -89t18 -119.5v-51h-377q3 -39 17 -64t37 -39t54.5 -19.5t67.5 -5.5q51 0 91.5 7t74.5 21l21 -96q-35 -16 -90 -25.5t-116 -9.5zM287 419q-23 0 -44.5 -7.5
t-39 -24.5t-29 -43.5t-13.5 -64.5h251q-2 38 -13.5 64.5t-28.5 43.5t-39 24.5t-44 7.5z" />
    <glyph glyph-name="f" unicode="f" horiz-adv-x="371" 
d="M110 413h-90v96h90v62q0 47 13.5 81t37.5 56t57.5 32.5t74.5 10.5q38 0 62 -4.5t41 -9.5l-18 -95q-31 7 -69 7t-57.5 -20.5t-19.5 -67.5v-52h127v-96h-127v-448h-122v448z" />
    <glyph glyph-name="g" unicode="g" horiz-adv-x="616" 
d="M426 299q0 30 -11.5 52t-30 36.5t-41 22t-43.5 7.5q-63 0 -101 -43.5t-38 -124.5t38 -125.5t101 -44.5q21 0 43.5 8.5t41 25t30 40.5t11.5 54v92zM426 51q-9 -20 -25 -34t-35.5 -23t-40.5 -13t-40 -4q-50 0 -95.5 18t-80 52.5t-54.5 85t-20 116.5t20 116.5t54.5 85t80 52
t95.5 17.5q19 0 39.5 -3t39 -10t35 -19t27.5 -29l11 50h111v-491q0 -137 -58 -202t-192 -65q-74 0 -125 12t-87 27q6 24 11 49t11 49q18 -7 36 -13t38.5 -10.5t44 -7.5t53.5 -3q39 0 67 6t45.5 23t25.5 47.5t8 79.5v41z" />
    <glyph glyph-name="h" unicode="h" horiz-adv-x="614" 
d="M189 -35h-122v769h122v-284q23 34 63.5 52t78.5 18q46 0 86.5 -13.5t69.5 -42t46 -72.5t17 -105v-322h-122v317q0 38 -7.5 64t-22 41.5t-35.5 22.5t-47 7q-21 0 -43.5 -8.5t-41 -25t-30.5 -40.5t-12 -54v-324z" />
    <glyph glyph-name="i" unicode="i" horiz-adv-x="262" 
d="M69 509h124v-544h-124v544zM67 704h128v-123h-128v123z" />
    <glyph glyph-name="j" unicode="j" horiz-adv-x="258" 
d="M64 704h128v-123h-128v123zM190 14q0 -62 -11 -111t-36 -82.5t-64 -51.5t-94 -18q-16 0 -26.5 0.5t-19 2t-16.5 3.5t-18 5l12 97q17 -4 26.5 -4.5t25.5 -0.5q20 0 37.5 6t31 22.5t21.5 46.5t8 78v502h123v-495z" />
    <glyph glyph-name="k" unicode="k" horiz-adv-x="559" 
d="M189 -35h-122v769h122v-437l207 212h142l-231 -232l246 -312h-145l-177 236l-42 -42v-194z" />
    <glyph glyph-name="l" unicode="l" horiz-adv-x="262" 
d="M69 734h124v-769h-124v769z" />
    <glyph glyph-name="m" unicode="m" horiz-adv-x="886" 
d="M188 -35h-121v544h109l11 -58q23 34 56.5 51.5t68.5 17.5q49 0 91 -20.5t68 -65.5q20 27 40.5 44t41 26t39.5 12.5t37 3.5q39 0 74.5 -13.5t62 -42t42 -72.5t15.5 -105v-322h-121v317q0 38 -6.5 64t-18.5 41.5t-28 22.5t-35 7t-38 -8t-34.5 -24t-25 -38.5t-10.5 -51.5v-8
v-322h-121v317q0 38 -6.5 64t-18.5 41.5t-28 22.5t-35 7q-20 0 -39 -8.5t-35 -25t-25.5 -40.5t-9.5 -54v-324z" />
    <glyph glyph-name="n" unicode="n" horiz-adv-x="614" 
d="M191 -35h-124v544h112l10 -58q23 34 63.5 51.5t78.5 17.5q46 0 86.5 -13.5t70 -42t46.5 -72.5t17 -105v-322h-123v317q0 38 -7.5 64t-22 41.5t-35.5 22.5t-47 7q-21 0 -43.5 -8.5t-40.5 -25t-29.5 -40.5t-11.5 -54v-324z" />
    <glyph glyph-name="o" unicode="o" horiz-adv-x="614" 
d="M307 58q67 0 106.5 43t39.5 136q0 94 -39.5 137.5t-106.5 43.5t-106.5 -43.5t-39.5 -137.5q0 -93 39.5 -136t106.5 -43zM307 -45q-59 0 -108.5 18t-86 54t-57 88.5t-20.5 121.5t20.5 122t57 89t86 54t108.5 18t109 -18t86 -54t56.5 -89t20.5 -122t-20.5 -121.5
t-56.5 -88.5t-86 -54t-109 -18z" />
    <glyph glyph-name="p" unicode="p" horiz-adv-x="616" 
d="M315 57q63 0 101 45.5t38 134.5q0 88 -38 134t-101 46q-21 0 -43.5 -8.5t-41 -25t-30 -40.5t-11.5 -54v-113q0 -30 11.5 -52t30 -37t41 -22.5t43.5 -7.5zM189 451q23 34 63 51.5t78 17.5q50 0 95.5 -18.5t80 -54t54.5 -88.5t20 -122t-20 -121.5t-54.5 -88.5t-80 -54
t-95.5 -18q-38 0 -78 13.5t-63 46.5v-253h-122v747h112z" />
    <glyph glyph-name="q" unicode="q" horiz-adv-x="616" 
d="M427 299q0 30 -11.5 52t-30 37t-41 22.5t-43.5 7.5q-63 0 -101.5 -46t-38.5 -135q0 -88 38.5 -133.5t101.5 -45.5q21 0 43.5 8.5t41 25t30 40.5t11.5 54v113zM427 24q-23 -39 -63 -54t-78 -15q-50 0 -95.5 18t-80 54t-55 88.5t-20.5 121.5t20.5 122t55 88.5t80 54
t95.5 18.5q38 0 78 -13t63 -47l10 49h112v-747h-122v262z" />
    <glyph glyph-name="r" unicode="r" horiz-adv-x="405" 
d="M316 520q30 0 48.5 -3t32.5 -8l-11 -107q-11 3 -26.5 5.5t-43.5 2.5q-24 0 -47 -8t-40 -23.5t-27.5 -40t-10.5 -57.5v-316h-124v544h112l11 -76q23 38 54 62.5t72 24.5z" />
    <glyph glyph-name="s" unicode="s" horiz-adv-x="508" 
d="M247 -45q-29 0 -59 2.5t-58.5 7.5t-53 11t-42.5 14l21 96q34 -13 81 -22t94 -9q37 0 61 4t38.5 11t20.5 17.5t6 24.5q0 29 -27.5 45t-72.5 27l-49 13q-31 8 -60.5 20t-52.5 31t-37 45.5t-14 64.5q0 34 12.5 64t39 51.5t68.5 34t102 12.5q55 0 106.5 -12t83.5 -23l-24 -95
q-12 5 -31 10t-40.5 9.5t-44 7.5t-42.5 3q-32 0 -53 -4t-33.5 -11.5t-17.5 -17.5t-5 -22q0 -26 22.5 -40t60.5 -22l47 -10q41 -9 75 -22.5t58.5 -33.5t38 -48.5t13.5 -68.5q0 -81 -59.5 -123t-172.5 -42z" />
    <glyph glyph-name="t" unicode="t" horiz-adv-x="403" 
d="M110 638h122v-129h139v-96h-139v-263q0 -92 69 -92q26 0 43.5 1.5t34.5 5.5l17 -96q-17 -5 -42.5 -9.5t-68.5 -4.5q-78 0 -126.5 46t-48.5 137v275h-90v96h90v129z" />
    <glyph glyph-name="u" unicode="u" horiz-adv-x="618" 
d="M427 509h123v-544h-111l-11 57q-23 -33 -63.5 -50.5t-78.5 -17.5q-47 0 -88 13.5t-71 42t-47.5 72t-17.5 104.5v323h124v-318q0 -38 8 -64t22.5 -42t36 -22.5t48.5 -6.5q21 0 43.5 8.5t41 25t30 40.5t11.5 54v325z" />
    <glyph glyph-name="v" unicode="v" horiz-adv-x="585" 
d="M363 -35h-141l-211 544h137l147 -404l148 404h130z" />
    <glyph glyph-name="w" unicode="w" horiz-adv-x="873" 
d="M677 -35h-132l-109 381l-108 -381h-132l-173 544h136l106 -397l110 397h130l110 -397l106 397h128z" />
    <glyph glyph-name="x" unicode="x" horiz-adv-x="575" 
d="M293 338l115 171h139l-188 -264l202 -280h-143l-135 187l-130 -187h-140l204 279l-190 265h144z" />
    <glyph glyph-name="y" unicode="y" horiz-adv-x="577" 
d="M144 -238l86 215l-219 532h133l150 -389l142 389h129l-292 -747h-129z" />
    <glyph glyph-name="z" unicode="z" horiz-adv-x="534" 
d="M37 62l302 348h-288v99h437v-95l-304 -350h314v-99h-461v97z" />
    <glyph glyph-name="braceleft" unicode="{" horiz-adv-x="403" 
d="M132 296q35 -7 57.5 -20.5t36 -30.5t19 -38t5.5 -43v-150q0 -39 21 -60.5t73 -21.5h31v-98h-25q-62 0 -104.5 13.5t-68.5 37t-37.5 55t-11.5 68.5v152q0 24 -6 40.5t-19.5 27t-35.5 16t-55 7.5v90q33 2 55 7.5t35.5 16t19.5 27t6 40.5v152q0 37 11.5 68.5t37.5 55
t68.5 37t104.5 13.5h25v-98h-31q-52 0 -73 -21.5t-21 -60.5v-150q0 -22 -5.5 -43t-19 -38t-36 -30.5t-57.5 -20.5z" />
    <glyph glyph-name="bar" unicode="|" horiz-adv-x="300" 
d="M90 758h120v-924h-120v924z" />
    <glyph glyph-name="braceright" unicode="}" horiz-adv-x="403" 
d="M271 296q-35 7 -57.5 20.5t-36 30.5t-19 38t-5.5 43v150q0 39 -21 60.5t-74 21.5h-31v98h25q62 0 104.5 -13.5t68.5 -37t37.5 -55t11.5 -68.5v-152q0 -24 6 -40.5t19.5 -27t35.5 -16t55 -7.5v-90q-33 -2 -55 -7.5t-35.5 -16t-19.5 -27t-6 -40.5v-152q0 -37 -11.5 -68.5
t-37.5 -55t-68.5 -37t-104.5 -13.5h-25v98h31q53 0 74 21.5t21 60.5v150q0 22 5.5 43t19 38t36 30.5t57.5 20.5z" />
    <glyph glyph-name="asciitilde" unicode="~" horiz-adv-x="691" 
d="M342 278q-33 20 -62 38t-58 18q-28 0 -47 -17t-38 -62l-100 33q12 46 31.5 76.5t44 49t52 26.5t55.5 8q38 0 68.5 -10.5t59.5 -27.5q37 -22 64.5 -39t56.5 -17q28 0 47 17t38 62l99 -33q-12 -46 -31.5 -76.5t-43.5 -49t-51.5 -26.5t-55.5 -8q-38 0 -68 10t-61 28z" />
    <glyph glyph-name="exclamdown" unicode="&#xa1;" horiz-adv-x="312" 
d="M84 705h140v-135h-140v135zM98 474h112l16 -521h-145z" />
    <glyph glyph-name="uniFFE0" unicode="&#xa2;" horiz-adv-x="500" 
d="M191 -8q-75 26 -116.5 88.5t-41.5 161.5q0 64 18 113t51.5 83.5t80.5 53t105 21.5l22 113h97l-23 -120q24 -5 43 -11t35 -13l-14 -46t-15 -46q-13 5 -30 9.5t-37 7.5l-63 -334h3q44 0 81 6.5t59 14.5q8 -23 15.5 -45.5t14.5 -45.5q-30 -13 -69.5 -21.5t-100.5 -8.5h-11
t-11 1l-19 -105h-97zM157 242q0 -104 54 -143l58 309q-57 -9 -84.5 -49.5t-27.5 -116.5z" />
    <glyph glyph-name="uniFFE0" unicode="&#xffe0;" horiz-adv-x="500" 
d="M191 -8q-75 26 -116.5 88.5t-41.5 161.5q0 64 18 113t51.5 83.5t80.5 53t105 21.5l22 113h97l-23 -120q24 -5 43 -11t35 -13l-14 -46t-15 -46q-13 5 -30 9.5t-37 7.5l-63 -334h3q44 0 81 6.5t59 14.5q8 -23 15.5 -45.5t14.5 -45.5q-30 -13 -69.5 -21.5t-100.5 -8.5h-11
t-11 1l-19 -105h-97zM157 242q0 -104 54 -143l58 309q-57 -9 -84.5 -49.5t-27.5 -116.5z" />
    <glyph glyph-name="uniFFE1" unicode="&#xa3;" horiz-adv-x="623" 
d="M54 387h74q-11 78 0 137.5t40 99t73 60t100 20.5q63 0 116 -14t86 -32l-30 -94q-12 7 -29.5 13t-37.5 10.5t-41.5 7t-40.5 2.5q-31 0 -56.5 -11t-42 -36t-22.5 -65t2 -98h186v-95h-173q3 -42 0 -74.5t-11.5 -58t-22 -46.5t-30.5 -40h377v-108h-519v82q24 25 42 50
t29 53.5t15.5 63t1.5 78.5h-86v95z" />
    <glyph glyph-name="uniFFE1" unicode="&#xffe1;" horiz-adv-x="623" 
d="M54 387h74q-11 78 0 137.5t40 99t73 60t100 20.5q63 0 116 -14t86 -32l-30 -94q-12 7 -29.5 13t-37.5 10.5t-41.5 7t-40.5 2.5q-31 0 -56.5 -11t-42 -36t-22.5 -65t2 -98h186v-95h-173q3 -42 0 -74.5t-11.5 -58t-22 -46.5t-30.5 -40h377v-108h-519v82q24 25 42 50
t29 53.5t15.5 63t1.5 78.5h-86v95z" />
    <glyph glyph-name="currency" unicode="&#xa4;" horiz-adv-x="920" 
d="M841 574l-119 -106q20 -36 32 -77t12 -87q0 -48 -14 -93.5t-39 -83.5l125 -112l-61 -70l-126 115q-42 -35 -93 -55t-110 -20q-54 0 -103 17t-91 49l-121 -106l-62 70l118 105q-26 38 -42 85t-16 99q0 92 49 170l-111 100l66 66l106 -94q42 34 95 54.5t112 20.5
q63 0 116 -22t97 -60l113 101zM679 304q0 48 -18 90t-49.5 73.5t-73.5 49.5t-90 18t-90 -18t-73.5 -49.5t-49.5 -73.5t-18 -90t18 -90t49.5 -73.5t73.5 -49.5t90 -18t90 18t73.5 49.5t49.5 73.5t18 90z" />
    <glyph glyph-name="uniFFE5" unicode="&#xa5;" horiz-adv-x="643" 
d="M83 377h147l-181 316h145l129 -250l130 250h141l-180 -316h146v-97h-173v-61h173v-97h-173v-157h-129v157h-175v97h175v61h-175v97z" />
    <glyph glyph-name="uniFFE5" unicode="&#xffe5;" horiz-adv-x="643" 
d="M83 377h147l-181 316h145l129 -250l130 250h141l-180 -316h146v-97h-173v-61h173v-97h-173v-157h-129v157h-175v97h175v61h-175v97z" />
    <glyph glyph-name="section" unicode="&#xa7;" horiz-adv-x="537" 
d="M250 -173q-60 0 -106.5 11t-82.5 31v95q37 -16 75 -27t97 -11q63 0 92 20t29 56q0 17 -3.5 29.5t-13 21.5t-26 16t-42.5 15l-86 25q-35 9 -65 23t-52 34.5t-34 49t-12 67.5q0 54 26 86.5t74 49.5q-24 20 -38 51.5t-14 76.5q0 40 14 72.5t42 55.5t69.5 36t97.5 13
q31 0 55.5 -3t44 -8.5t35.5 -12t30 -13.5v-93q-26 11 -65 21t-89 10q-53 0 -83 -17t-30 -52q0 -17 3.5 -29t11.5 -21t22 -16t35 -14l94 -28q41 -11 72.5 -24.5t53 -33t32.5 -47.5t11 -68q0 -58 -26 -90.5t-72 -49.5q28 -21 41.5 -51t13.5 -72q0 -91 -59.5 -138t-171.5 -47z
M228 372l-9 2q-39 -5 -59.5 -25.5t-20.5 -52.5q0 -34 19 -54t66 -33l83 -25l12 -4q42 8 62 28.5t20 51.5q0 18 -4.5 31t-15.5 23t-29 18.5t-45 16.5z" />
    <glyph glyph-name="dieresis" unicode="&#xa8;" horiz-adv-x="519" 
d="M298 718h105v-108h-105v108zM116 718h106v-108h-106v108z" />
    <glyph glyph-name="copyright" unicode="&#xa9;" horiz-adv-x="841" 
d="M436 127q-87 0 -140 50t-53 153v12q0 55 15.5 93.5t42.5 63t63 35.5t76 11q38 0 63.5 -6.5t42.5 -14.5v-79q-22 8 -44.5 13.5t-51.5 5.5q-45 0 -71.5 -26.5t-26.5 -86.5v-20q0 -62 24 -92.5t80 -30.5q33 0 54.5 7.5t38.5 15.5v-78q-20 -10 -47.5 -18t-65.5 -8zM425 15
q67 0 124 24t98.5 66.5t64.5 101.5t23 129t-23 129t-64.5 101t-98.5 65.5t-124 23.5q-68 0 -125 -23.5t-98 -65.5t-63.5 -101t-22.5 -129t22.5 -129t63.5 -101.5t98 -66.5t125 -24zM425 -39q-80 0 -148.5 29.5t-118.5 80.5t-78.5 119t-28.5 146t28.5 146t78.5 118.5
t118.5 80t148.5 29.5q79 0 148 -29.5t119 -80t79 -118.5t29 -146t-29 -146t-79 -119t-119 -80.5t-148 -29.5z" />
    <glyph glyph-name="ordfeminine" unicode="&#xaa;" horiz-adv-x="470" 
d="M62 180h354v-102h-354v102zM214 302q26 0 50 7.5t37 20.5v120l-88 -9q-36 -4 -54.5 -20.5t-18.5 -51.5q0 -36 20.5 -51.5t53.5 -15.5zM178 222q-33 0 -60.5 8.5t-47.5 25.5t-31.5 43.5t-11.5 61.5q0 68 43 102.5t117 43.5l114 13v21q0 49 -25 65.5t-87 16.5
q-35 0 -66.5 -5.5t-55.5 -10.5v79q35 13 76 20t92 7q84 0 132.5 -34.5t48.5 -111.5v-336h-96l-9 40h-5q-17 -21 -48.5 -35t-79.5 -14z" />
    <glyph glyph-name="uni226A" unicode="&#xab;" horiz-adv-x="920" 
d="M820 15l-33 -55l-490 319v47l481 330l41 -52l-442 -301zM610 11l-36 -55l-488 323v47l480 334l39 -54l-438 -304z" />
    <glyph glyph-name="uni226A" unicode="&#x226a;" horiz-adv-x="920" 
d="M820 15l-33 -55l-490 319v47l481 330l41 -52l-442 -301zM610 11l-36 -55l-488 323v47l480 334l39 -54l-438 -304z" />
    <glyph glyph-name="uniFFE2" unicode="&#xac;" horiz-adv-x="920" 
d="M889 -155h-72v256h-802v77h874v-333z" />
    <glyph glyph-name="uniFFE2" unicode="&#xffe2;" horiz-adv-x="920" 
d="M889 -155h-72v256h-802v77h874v-333z" />
    <glyph glyph-name="endash" unicode="&#xad;" horiz-adv-x="410" 
d="M355 277h-300v77h300v-77z" />
    <glyph glyph-name="endash" unicode="&#x2013;" horiz-adv-x="410" 
d="M355 277h-300v77h300v-77z" />
    <glyph glyph-name="degree" unicode="&#xb0;" horiz-adv-x="358" 
d="M179 673q-19 0 -34 -8t-25.5 -20.5t-16 -29t-5.5 -33.5q0 -36 23.5 -61.5t58.5 -25.5q36 0 59.5 26t23.5 64q0 15 -5 31t-15.5 28.5t-26 20.5t-36.5 8h-1zM182 734q35 0 63 -12t48 -32.5t31 -47.5t11 -56q0 -34 -13 -62t-34.5 -47.5t-49.5 -30.5t-58 -11q-34 0 -62 11.5
t-48.5 31.5t-32 46.5t-11.5 56.5q0 33 12 61t33 48.5t49.5 32t60.5 11.5h1z" />
    <glyph glyph-name="plusminus" unicode="&#xb1;" horiz-adv-x="600" 
d="M577 89v-83h-554v83h554zM345 637v-202h234v-84h-234v-208h-92v208h-233v84h233v202h92z" />
    <glyph glyph-name="twosuperior" unicode="&#xb2;" horiz-adv-x="333" 
d="M24 319l118 127q30 29 52.5 56.5t22.5 52.5q0 31 -20.5 39.5t-53.5 8.5q-20 0 -46.5 -7.5t-45.5 -18.5l-20 77q26 11 59 20.5t69 9.5q72 0 112 -33t40 -94q0 -20 -7.5 -38.5t-19.5 -37t-27 -36t-30 -33.5l-60 -68h148v-82h-291v57z" />
    <glyph glyph-name="threesuperior" unicode="&#xb3;" horiz-adv-x="332" 
d="M145 258q-37 0 -72.5 8.5t-56.5 20.5l15 78q23 -11 52.5 -19.5t49.5 -8.5q83 0 83 50q0 26 -22 37.5t-61 11.5h-50v81h48q34 0 54 13t20 35t-17.5 31.5t-45.5 9.5q-23 0 -49 -8.5t-43 -16.5l-19 73q12 6 27.5 11.5t32.5 9.5t35 6.5t33 2.5q63 0 101 -29t38 -81
q0 -28 -12.5 -51t-29.5 -37q29 -12 43.5 -35.5t14.5 -65.5q0 -59 -45.5 -93t-123.5 -34z" />
    <glyph glyph-name="acute" unicode="&#xb4;" horiz-adv-x="519" 
d="M295 744h125l-116 -161h-100z" />
    <glyph glyph-name="paragraph" unicode="&#xb6;" horiz-adv-x="605" 
d="M288 321h-44q-43 0 -81.5 12t-67 36t-45 59t-16.5 81q0 40 13 74.5t41.5 60.5t73.5 41t110 15h259v-855h-80v782h-84v-782h-79v476z" />
    <glyph glyph-name="uni30FB" unicode="&#xb7;" horiz-adv-x="322" 
d="M95 380h124v-124h-124v124z" />
    <glyph glyph-name="uni30FB" unicode="&#x30fb;" horiz-adv-x="322" 
d="M95 380h124v-124h-124v124z" />
    <glyph glyph-name="cedilla" unicode="&#xb8;" horiz-adv-x="519" 
d="M209 -126q56 5 80 13.5t24 23.5q0 16 -19.5 21.5t-61.5 5.5v106h70v-48q49 -4 75 -23.5t26 -54.5q0 -24 -10 -42.5t-33 -32t-60 -22t-91 -13.5v66z" />
    <glyph glyph-name="onesuperior" unicode="&#xb9;" horiz-adv-x="249" 
d="M86 586l-65 -13v74l106 31h55v-416h-96v324z" />
    <glyph glyph-name="ordmasculine" unicode="&#xba;" horiz-adv-x="524" 
d="M85 180h354v-102h-354v102zM263 311q55 0 84.5 32.5t29.5 110.5v26q0 46 -9 75t-25 45.5t-37.5 22t-45.5 5.5q-55 0 -84.5 -33t-29.5 -112v-24q0 -46 9 -75t25 -45t37.5 -22t45.5 -6zM261 226q-112 0 -172 59t-60 175v15q0 60 17 104.5t48 74t74 44.5t94 15
q112 0 173 -58t61 -176v-15q0 -60 -17.5 -104.5t-48.5 -74t-74 -44.5t-95 -15z" />
    <glyph glyph-name="guillemotright" unicode="&#xbb;" horiz-adv-x="920" 
d="M604 279l-491 -319l-33 55l442 287q-108 75 -220.5 151.5t-219.5 150.5l40 52l482 -330v-47zM814 279l-488 -323l-36 55l444 291q-108 75 -220 152t-219 152l39 54l480 -334v-47z" />
    <glyph glyph-name="guillemotright" unicode="&#x226b;" horiz-adv-x="920" 
d="M604 279l-491 -319l-33 55l442 287q-108 75 -220.5 151.5t-219.5 150.5l40 52l482 -330v-47zM814 279l-488 -323l-36 55l444 291q-108 75 -220 152t-219 152l39 54l480 -334v-47z" />
    <glyph glyph-name="onequarter" unicode="&#xbc;" horiz-adv-x="847" 
d="M557 705h124l-442 -775h-125zM638 102v118q-18 -26 -26 -37.5t-14 -20t-15 -21t-28 -39.5h83zM637 16h-203v66l219 309h81v-289h64v-86h-64v-84h-97v84zM123 593q-13 -3 -22 -5t-16.5 -3.5t-15.5 -3t-19 -3.5v79l117 34h57v-459h-101v361z" />
    <glyph glyph-name="onehalf" unicode="&#xbd;" horiz-adv-x="881" 
d="M557 705h124l-442 -775h-125zM511 -5l133 138q33 34 57.5 63.5t24.5 58.5q0 18 -6 29t-17 16.5t-26.5 7t-34.5 1.5q-24 0 -51.5 -7t-50.5 -18l-20 80q26 11 61.5 22.5t77.5 11.5q78 0 122 -37.5t44 -103.5q0 -23 -8 -43.5t-21 -40t-29.5 -38.5t-34.5 -38l-69 -78h168v-88
h-320v64zM123 593q-13 -3 -22 -5t-16.5 -3.5t-15.5 -3t-19 -3.5v79l117 34h57v-459h-101v361z" />
    <glyph glyph-name="threequarters" unicode="&#xbe;" horiz-adv-x="921" 
d="M625 705h124l-442 -775h-125zM709 16h-202v66q55 78 109 154t110 154h81v-288h64v-86h-64v-84h-98v84zM190 225q-39 0 -78.5 10.5t-62.5 23.5q5 20 9 40t9 40q22 -11 54 -19.5t56 -8.5q47 0 71.5 13.5t24.5 42.5q0 31 -25 44t-70 13h-55v87h51q37 0 60.5 14t25.5 38
q0 -5 2 -11v8q0 29 -19.5 40.5t-56.5 11.5q-26 0 -49.5 -8t-44.5 -17q-4 0 -7.5 9.5t-7 22t-6.5 25t-4 19.5q12 6 29.5 12t36 11.5t37.5 8.5t36 3q69 0 110.5 -32t41.5 -89q0 -33 -14.5 -58.5t-34.5 -41.5q29 -14 47.5 -40.5t18.5 -71.5q0 -64 -50.5 -102t-134.5 -38z
M711 102v118q-22 -32 -40.5 -58t-42.5 -60h83z" />
    <glyph glyph-name="questiondown" unicode="&#xbf;" horiz-adv-x="492" 
d="M372 583h-140v135h140v-135zM361 445q1 -29 -7 -51t-24 -41t-37.5 -37.5t-46.5 -39.5q-29 -25 -43.5 -56.5t-14.5 -76.5q0 -23 9 -38t24 -24t34.5 -13t40.5 -4q42 0 71 7.5t61 17.5l26 -98q-35 -14 -79.5 -26t-100.5 -12q-45 0 -85.5 10.5t-70.5 33t-47.5 57.5t-17.5 83
q0 68 26.5 119t89.5 99q19 15 33 27.5t22.5 24.5t13 25t6.5 29l2 26h113z" />
    <glyph glyph-name="AE" unicode="&#xc6;" horiz-adv-x="958" 
d="M273 264h179v338h-4zM385 703h520v-103h-325v-200h251v-102h-251v-220h331v-103h-459v190h-228l-99 -190h-127z" />
    <glyph glyph-name="Eth" unicode="&#xd0;" horiz-adv-x="698" 
d="M316 78q54 0 93 13.5t64.5 43t38 76.5t12.5 113v36q0 69 -14.5 115t-42 73.5t-68 39.5t-92.5 12h-102v-210h182v-100h-182v-212h111zM6 390h67v313h240q167 0 258.5 -83t91.5 -261v-23q0 -175 -86.5 -268t-261.5 -93h-242v315h-67v100z" />
    <glyph glyph-name="multiply" unicode="&#xd7;" horiz-adv-x="600" 
d="M25 521l60 61l214 -218q53 55 106.5 109t107.5 109l61 -61q-107 -109 -214 -220q54 -54 107.5 -108.5t107.5 -109.5l-60 -63l-216 220l-215 -220l-61 63l216 219z" />
    <glyph glyph-name="Oslash" unicode="&#xd8;" horiz-adv-x="733" 
d="M364 -37q-61 0 -114.5 16t-95.5 49l-44 -53h-104l94 112q-31 45 -47.5 105t-16.5 136v22q0 88 24 156.5t68 115t105.5 70.5t135.5 24q120 0 203 -63l40 50h103l-88 -106q33 -45 52 -106.5t19 -140.5v-22q0 -89 -24.5 -157t-68.5 -114.5t-105.5 -70t-135.5 -23.5zM367 63
q49 0 85.5 18t60.5 51t35.5 79.5t11.5 102.5v38q0 41 -4 76t-15 65l-314 -377q48 -53 140 -53zM172 328q0 -39 3 -73t13 -63l310 374q-24 23 -57 35.5t-78 13.5q-48 0 -84 -17.5t-59.5 -50.5t-35.5 -79t-12 -102v-38z" />
    <glyph glyph-name="Thorn" unicode="&#xde;" horiz-adv-x="607" 
d="M314 236q74 0 106 29t32 91q0 69 -32 96.5t-104 27.5h-112v-244h110zM72 703h132v-123h124q131 0 194 -55.5t63 -158.5q0 -112 -66.5 -169t-180.5 -57h-134v-165h-132v728z" />
    <glyph glyph-name="germandbls" unicode="&#xdf;" horiz-adv-x="614" 
d="M400 -35q-47 0 -80 6t-65 20v90q32 -10 59 -16.5t66 -6.5q46 0 68 16.5t22 44.5q0 23 -13.5 38.5t-46.5 32.5l-44 22q-53 26 -77 58t-24 85q0 40 22 72t48 59t48 52.5t22 54.5q0 38 -26.5 57t-72.5 19q-57 0 -90.5 -33t-33.5 -104v-557h-123v567q0 58 20.5 99t55 67.5
t79.5 39t94 12.5q106 0 162 -39.5t56 -116.5q0 -44 -23 -77t-51 -60t-51 -49t-23 -44q0 -23 13.5 -37t40.5 -30l49 -25q56 -28 83.5 -63.5t27.5 -92.5q0 -79 -52 -120t-140 -41z" />
    <glyph glyph-name="ae" unicode="&#xe6;" horiz-adv-x="839" 
d="M577 428q-20 0 -40 -4.5t-37 -18.5t-28.5 -39.5t-14.5 -67.5h230q0 39 -6.5 64t-20 40t-34.5 20.5t-49 5.5zM354 107q-19 51 -23 114l-99 -10q-42 -4 -62.5 -23.5t-20.5 -59.5q0 -42 23.5 -60t61.5 -18q35 0 65 15t55 42zM198 -35q-75 0 -122.5 38t-47.5 117
q0 76 47 112.5t129 47.5l129 16v32q0 28 -6.5 46t-21.5 28t-39 14t-59 4q-40 0 -74 -5t-60 -10v83q74 31 180 31q126 0 160 -76q58 76 170 76q120 0 174 -60.5t54 -192.5v-48h-354q6 -88 48 -122.5t120 -34.5q54 0 93.5 11t75.5 28v-84q-27 -19 -74.5 -35t-119.5 -16
t-125 21t-85 61q-35 -39 -80.5 -60.5t-111.5 -21.5z" />
    <glyph glyph-name="eth" unicode="&#xf0;" horiz-adv-x="575" 
d="M232 660q-26 23 -56 45.5t-62 45.5h154q17 -11 35.5 -23.5t37.5 -27.5l104 39l21 -60l-71 -28q30 -30 57.5 -67.5t48.5 -82.5t33 -98t12 -114v-29q0 -74 -18.5 -129.5t-52.5 -92.5t-82 -55t-107 -18q-126 0 -191.5 70.5t-65.5 200.5v17q0 66 18 117t49.5 86t75.5 53
t97 18q28 0 49 -6.5t38 -16.5h6q-15 29 -35 55.5t-43 50.5l-147 -54l-22 60zM418 278q0 36 -4 68.5t-13 61.5q-18 13 -44.5 21t-63.5 8q-69 0 -104 -42.5t-35 -131.5v-27q0 -53 10 -87.5t28 -55t42.5 -28.5t53.5 -8q61 0 95.5 45.5t34.5 147.5v28z" />
    <glyph glyph-name="divide" unicode="&#xf7;" horiz-adv-x="600" 
d="M298 40q-31 0 -50 20t-19 50q0 32 19 52.5t51 20.5t49.5 -20.5t18.5 -52.5q0 -30 -18 -50t-50 -20h-1zM298 424q-31 0 -50 20t-19 52t19 51.5t51 19.5t49.5 -19.5t18.5 -51.5q0 -32 -18 -52t-50 -20h-1zM20 261v85h559v-85h-559z" />
    <glyph glyph-name="oslash" unicode="&#xf8;" horiz-adv-x="575" 
d="M288 -35q-100 0 -165 47l-31 -37h-93l75 87q-45 67 -45 174v17q0 66 19 118t53.5 88t82 54.5t105.5 18.5q48 0 87.5 -11.5t70.5 -32.5l29 34h91l-71 -83q25 -34 38.5 -79.5t13.5 -101.5v-16q0 -66 -19 -117.5t-53.5 -87t-82.5 -54t-105 -18.5zM290 54q63 0 98 43.5
t35 133.5v30q0 49 -9 84l-223 -257q17 -19 42 -26.5t57 -7.5zM152 234q0 -45 6 -76l221 253q-17 16 -41 23t-51 7q-65 0 -100 -44t-35 -134v-29z" />
    <glyph glyph-name="thorn" unicode="&#xfe;" horiz-adv-x="587" 
d="M292 57q33 0 58.5 9t43 30t26.5 55t9 84v22q0 51 -8.5 84.5t-25.5 53.5t-41.5 28t-56.5 8q-39 0 -69 -9.5t-46 -22.5v-311q15 -12 44.5 -21.5t65.5 -9.5zM59 751h123v-271h5q24 21 63 36.5t90 15.5q43 0 82 -13.5t69 -44.5t48 -82.5t18 -126.5v-15q0 -77 -18 -131
t-50.5 -88.5t-78 -50t-101.5 -15.5q-45 0 -76.5 9.5t-50.5 20.5v-195h-123v951z" />
    <glyph glyph-name="dcroat" unicode="&#x111;" horiz-adv-x="587" 
d="M297 60q38 0 66 12t44 24v312q-15 13 -45 20.5t-66 7.5q-32 0 -58 -9t-44 -30t-27.5 -55t-9.5 -84v-22q0 -51 10 -85t28.5 -54t44 -28.5t57.5 -8.5zM257 664h150v87h122v-87h64v-70h-64v-619h-105l-10 43h-5q-26 -25 -64 -39t-91 -14q-41 0 -80.5 13.5t-71 45t-51 82.5
t-19.5 125v14q0 75 18 129.5t50.5 89.5t77 51.5t97.5 16.5q49 0 80.5 -10.5t51.5 -21.5v94h-150v70z" />
    <glyph glyph-name="Hbar" unicode="&#x126;" horiz-adv-x="718" 
d="M515 400v102h-311v-102h311zM15 579h57v124h132v-124h311v124h131v-124h57v-77h-57v-527h-131v324h-311v-324h-132v527h-57v77z" />
    <glyph glyph-name="hbar" unicode="&#x127;" horiz-adv-x="576" 
d="M59 594h-63v70h63v87h123v-87h148v-70h-148v-118h5q33 24 78.5 40t96.5 16q79 0 119 -35t40 -116v-406h-123v376q0 41 -19 60t-74 19q-32 0 -65.5 -9t-57.5 -22v-424h-123v619z" />
    <glyph glyph-name="dotlessi" unicode="&#x131;" horiz-adv-x="247" 
d="M62 522h123v-547h-123v547z" />
    <glyph glyph-name="IJ" unicode="&#x132;" horiz-adv-x="689" 
d="M279 88q20 -6 46 -10t56 -4q109 0 109 109v520h131v-530q0 -44 -12.5 -81.5t-38 -65t-65.5 -43t-95 -15.5q-45 0 -75 5.5t-55 15.5zM75 703h133v-728h-133v728z" />
    <glyph glyph-name="ij" unicode="&#x133;" horiz-adv-x="493" 
d="M309 724h123v-111h-123v111zM267 -200q-32 0 -52.5 5t-37.5 14v81q12 -2 26 -4t27 -2q38 0 59 17.5t21 58.5v552h121v-560q0 -36 -9 -65.5t-29 -51t-51 -33.5t-75 -12zM61 724h125v-111h-125v111zM62 522h123v-547h-123v547z" />
    <glyph glyph-name="kgreenlandic" unicode="&#x138;" horiz-adv-x="559" 
d="M389 -26l-194 283q2 3 16.5 23t34.5 48.5t43 60.5t43 60t34.5 48t16.5 23h127l-187 -256q2 -4 17.5 -25.5t37 -52.5t46.5 -66.5t46.5 -66.5t36.5 -53t17 -26h-135zM62 523h123v-549h-123v549z" />
    <glyph glyph-name="Ldot" unicode="&#x13f;" horiz-adv-x="534" 
d="M369 422h124v-123h-124v123zM72 703h132v-625h308v-103h-440v728z" />
    <glyph glyph-name="ldot" unicode="&#x140;" horiz-adv-x="330" 
d="M233 403h113v-110h-113v110zM62 751h123v-776h-123v776z" />
    <glyph glyph-name="Lslash" unicode="&#x141;" horiz-adv-x="541" 
d="M2 295l74 32v376h131v-325l204 86v-101l-204 -85v-200h307v-103h-438v250l-74 -31v101z" />
    <glyph glyph-name="lslash" unicode="&#x142;" horiz-adv-x="275" 
d="M7 369l68 38v344h124v-278l77 45v-103l-77 -45v-395h-124v329l-68 -37v102z" />
    <glyph glyph-name="napostrophe" unicode="&#x149;" horiz-adv-x="625" 
d="M107 522h117v-49h5q35 26 82.5 42.5t98.5 16.5q79 0 119 -35t40 -116v-406h-122v376q0 41 -19.5 60t-74.5 19q-32 0 -65.5 -9t-58.5 -22v-424h-122v547zM-31 703h125l-37 -206h-100z" />
    <glyph glyph-name="Eng" unicode="&#x14a;" horiz-adv-x="714" 
d="M448 -200q-42 0 -70 6.5t-52 17.5v86q19 -5 43 -9.5t53 -4.5q44 0 70 13.5t31 47.5l-331 568h-3v-550h-117v728h148l303 -514h3v514h116v-716q0 -41 -11 -75.5t-34 -59t-60 -38.5t-89 -14z" />
    <glyph glyph-name="eng" unicode="&#x14b;" horiz-adv-x="576" 
d="M268 -101q13 -2 26.5 -4t26.5 -2q37 0 57 17.5t20 59.5v381q0 41 -19 60t-74 19q-32 0 -65.5 -9t-57.5 -22v-424h-123v547h117v-49h6q34 26 81.5 42.5t98.5 16.5q79 0 119 -35t40 -116v-419q0 -36 -9 -65.5t-29 -51t-51 -33.5t-75 -12q-32 0 -52.5 5t-36.5 13v81z" />
    <glyph glyph-name="OE" unicode="&#x152;" horiz-adv-x="986" 
d="M380 -25q-82 0 -146 20.5t-108 63t-67 107.5t-23 154v21q0 177 85 269.5t257 92.5h555v-103h-324v-200h249v-102h-249v-220h329v-103h-558zM478 78v522h-100q-104 0 -153.5 -56.5t-49.5 -189.5v-35q0 -69 14.5 -115.5t42 -74t67 -39.5t90.5 -12h89z" />
    <glyph glyph-name="oe" unicode="&#x153;" horiz-adv-x="931" 
d="M668 440q-20 0 -40 -6.5t-37 -22.5t-29 -44t-15 -70h230q0 78 -27 110.5t-82 32.5zM290 57q62 0 96 43t34 131v28q0 53 -10.5 87.5t-28.5 55t-42 28.5t-52 8q-63 0 -98 -43t-35 -132v-27q0 -53 10.5 -87.5t28.5 -55t43 -28.5t54 -8zM287 -35q-125 0 -191.5 71.5
t-66.5 199.5v17q0 66 19 118t53 87.5t82 54t105 18.5q72 0 121 -24.5t78 -72.5q29 49 76.5 73t108.5 24q120 0 175 -67.5t55 -197.5v-50h-355q6 -87 48.5 -121t119.5 -34q54 0 93.5 11t74.5 28v-84q-26 -19 -73 -35t-115 -16q-79 0 -131 25.5t-81 73.5q-31 -49 -80.5 -74
t-115.5 -25z" />
    <glyph glyph-name="Tbar" unicode="&#x166;" horiz-adv-x="580" 
d="M84 415h140v185h-208v103h547v-103h-207v-185h141v-80h-141v-360h-132v360h-140v80z" />
    <glyph glyph-name="tbar" unicode="&#x167;" horiz-adv-x="374" 
d="M15 342h76v85h-76v95h76v128h121v-128h129v-95h-129v-85h129v-73h-129v-142q0 -35 15 -49t59 -14q15 0 31.5 2t31.5 5v-81q-17 -8 -40.5 -15t-62.5 -7q-71 0 -113 32t-42 110v159h-76v73z" />
    <glyph glyph-name="caron" unicode="&#x2c7;" horiz-adv-x="519" 
d="M409 743l3 -7l-39 -57q-16 -23 -33.5 -48.5t-34.5 -48.5h-93q-26 37 -55.5 75t-55.5 86h90q20 -26 36 -42t33 -34q17 19 33 37.5t32 38.5h84z" />
    <glyph glyph-name="uni2236" unicode="&#x2d0;" horiz-adv-x="920" 
d="M317 503l-93 -97l-92 97h185zM317 99h-185l92 96z" />
    <glyph glyph-name="uni2236" unicode="&#x2236;" horiz-adv-x="920" 
d="M317 503l-93 -97l-92 97h185zM317 99h-185l92 96z" />
    <glyph glyph-name="breve" unicode="&#x2d8;" horiz-adv-x="519" 
d="M259 589q-63 0 -102.5 39.5t-42.5 104.5h87q4 -29 17 -45t41 -16q29 0 42 16t18 45h85q-2 -65 -41.5 -104.5t-103.5 -39.5z" />
    <glyph glyph-name="dotaccent" unicode="&#x2d9;" horiz-adv-x="519" 
d="M203 720h113v-110h-113v110z" />
    <glyph glyph-name="ring" unicode="&#x2da;" horiz-adv-x="519" 
d="M259 630q22 0 33.5 12t11.5 32q0 21 -11.5 34.5t-33.5 13.5q-21 0 -32 -13.5t-11 -34.5q0 -20 11 -32t32 -12zM259 572q-23 0 -42.5 8.5t-33.5 22.5t-22.5 32.5t-8.5 38.5q0 22 8.5 41t22.5 33t33.5 22t42.5 8q47 0 77.5 -30t30.5 -74q0 -20 -8 -38.5t-22.5 -32.5
t-34.5 -22.5t-43 -8.5z" />
    <glyph glyph-name="ogonek" unicode="&#x2db;" horiz-adv-x="519" 
d="M268 -192q-56 0 -87 25.5t-31 68.5q0 22 8.5 41t22 34.5t30 27t31.5 19.5h89q-35 -27 -58.5 -55t-23.5 -53q0 -20 13 -26t33 -6q11 0 20.5 2t16.5 4v-71q-12 -5 -28 -8t-36 -3z" />
    <glyph glyph-name="tilde" unicode="&#x2dc;" horiz-adv-x="519" 
d="M94 603q6 65 37.5 94t69.5 29q20 0 37.5 -7t32.5 -15q12 -6 22 -10.5t18 -4.5q26 0 32 38h77q-3 -33 -13 -57t-25 -39.5t-33 -22.5t-36 -7q-20 0 -37 6.5t-32 14.5q-12 6 -22.5 10.5t-18.5 4.5q-26 0 -33 -38h-72z" />
    <glyph glyph-name="hungarumlaut" unicode="&#x2dd;" horiz-adv-x="519" 
d="M332 744h120l-77 -161h-95zM163 744h119l-75 -161h-97z" />
    <glyph glyph-name="Alpha" unicode="&#x391;" horiz-adv-x="673" 
d="M429 272l-62 186q-10 33 -19.5 69t-17.5 68h-2q-8 -32 -16.5 -68.5t-17.5 -68.5l-60 -186h195zM213 177l-65 -212h-131l237 732h161l240 -732h-137l-68 212h-237z" />
    <glyph glyph-name="Beta" unicode="&#x392;" horiz-adv-x="608" 
d="M198 57q14 -2 31 -2.5t40 -0.5q34 0 64.5 6.5t53.5 21.5t36.5 39t13.5 59q0 33 -13.5 56t-36.5 38t-54 21.5t-67 6.5h-68v-245zM198 396h71q72 0 109.5 30t37.5 78q0 55 -37.5 79t-103.5 24q-30 0 -48 -2t-29 -4v-205zM72 686q32 7 83.5 11.5t107.5 4.5q74 0 123 -11
t84 -37q34 -20 54.5 -54.5t20.5 -81.5q0 -51 -32 -94t-92 -63v-4q29 -8 56 -22.5t47.5 -37t33 -53t12.5 -68.5q0 -48 -18.5 -86t-49.5 -64q-75 -68 -269 -68q-55 0 -95 3t-66 6v719z" />
    <glyph glyph-name="Gamma" unicode="&#x393;" horiz-adv-x="495" 
d="M487 697v-107h-288v-625h-127v732h415z" />
    <glyph glyph-name="uni0394" unicode="&#x394;" horiz-adv-x="674" 
d="M508 69q-32 94 -62.5 179.5t-64.5 180.5q-15 47 -28.5 89.5t-21.5 69.5h-3q-8 -28 -20.5 -69t-23.5 -79q-17 -49 -33.5 -94.5t-32.5 -91l-32 -91t-34 -94.5h356zM16 31q31 87 61.5 169t60.5 163.5t60.5 164t63.5 169.5h149q32 -87 62.5 -169.5t60 -163.5t59 -163
t60.5 -169v-67h-637v66z" />
    <glyph glyph-name="Epsilon" unicode="&#x395;" horiz-adv-x="544" 
d="M477 293h-278v-223h310v-105h-436v732h420v-105h-294v-195h278v-104z" />
    <glyph glyph-name="Zeta" unicode="&#x396;" horiz-adv-x="601" 
d="M24 35l379 552v4h-347v106h511v-75l-374 -548v-3h380v-106h-549v70z" />
    <glyph glyph-name="Eta" unicode="&#x397;" horiz-adv-x="712" 
d="M198 697v-296h316v296h128v-732h-128v326h-316v-326h-127v732h127z" />
    <glyph glyph-name="Theta" unicode="&#x398;" horiz-adv-x="749" 
d="M505 391v-104h-263v104h263zM375 55q50 0 88.5 21.5t65 59t40.5 88.5t14 109q0 52 -13 101.5t-39 87t-65 60.5t-90 23q-53 0 -92.5 -22.5t-66 -60.5t-40 -88.5t-13.5 -105.5t14 -104.5t41 -87t66 -59.5t89 -22h1zM367 -47q-77 0 -139 27.5t-106 77t-68 118t-24 149.5
q0 85 25.5 155.5t71.5 121.5t110.5 79t141.5 28q79 0 142 -28.5t106.5 -78t67 -118t23.5 -147.5q0 -92 -26.5 -163.5t-73.5 -120.5t-111 -74.5t-139 -25.5h-1z" />
    <glyph glyph-name="Iota" unicode="&#x399;" horiz-adv-x="276" 
d="M202 697v-732h-127v732h127z" />
    <glyph glyph-name="Kappa" unicode="&#x39a;" horiz-adv-x="613" 
d="M72 697h125v-340h3q14 22 27.5 42t27.5 37l197 261h157l-255 -312l272 -420h-149l-213 339l-67 -78v-261h-125v732z" />
    <glyph glyph-name="Lambda" unicode="&#x39b;" horiz-adv-x="667" 
d="M518 -35l-150 473q-11 39 -20.5 75.5t-17.5 71.5h-3q-8 -35 -16 -72t-17 -75l-144 -473h-133l237 732h159l244 -732h-139z" />
    <glyph glyph-name="Mu" unicode="&#x39c;" horiz-adv-x="876" 
d="M688 268q-4 72 -7.5 153t-2.5 155h-3q-19 -67 -40.5 -138.5t-47.5 -141.5l-111 -324h-97l-101 319q-23 71 -42 143.5t-34 141.5h-3q-2 -72 -5 -154.5t-7 -158.5l-16 -298h-120l48 732h168l100 -304q20 -66 37.5 -129.5t31.5 -124.5h3q14 60 32.5 124.5t40.5 130.5
l107 303h164l44 -732h-124z" />
    <glyph glyph-name="Nu" unicode="&#x39d;" horiz-adv-x="717" 
d="M70 -35v732h145l196 -323q38 -62 70 -123.5t57 -120.5l2 1q-8 73 -10.5 145.5t-2.5 156.5v264h119v-732h-132l-199 330q-36 61 -69.5 125t-60.5 126l-5 -1q4 -71 6.5 -145t2.5 -166v-269h-119z" />
    <glyph glyph-name="Xi" unicode="&#x39e;" horiz-adv-x="592" 
d="M559 69v-104h-518v104h518zM510 394v-105h-421v105h421zM545 697v-104h-491v104h491z" />
    <glyph glyph-name="Omicron" unicode="&#x39f;" horiz-adv-x="748" 
d="M375 56q49 0 88 21.5t65 59t40 88t14 108.5q0 52 -13 101.5t-39 87t-65 60.5t-91 23t-91 -22.5t-65 -60.5t-39 -88t-13 -105t14 -104.5t40.5 -87t65 -59.5t88.5 -22h1zM367 -47q-77 0 -139 28t-105.5 77.5t-67.5 118t-24 149.5q0 84 25.5 154.5t71.5 121.5t110 79t141 28
q79 0 141.5 -28.5t106 -78t66.5 -117.5t23 -147q0 -92 -26.5 -164t-73 -121t-110.5 -74.5t-138 -25.5h-1z" />
    <glyph glyph-name="Pi" unicode="&#x3a0;" horiz-adv-x="691" 
d="M619 -35h-126v625h-295v-625h-126v732h547v-732z" />
    <glyph glyph-name="Rho" unicode="&#x3a1;" horiz-adv-x="591" 
d="M198 346q14 -5 29.5 -6t37.5 -1q77 0 121 36t44 103q0 61 -40.5 93t-112.5 32q-28 0 -48 -2t-31 -5v-250zM72 687q36 7 85 11t115 4q145 0 212 -59q34 -28 53.5 -68.5t19.5 -91.5q0 -53 -16 -94t-45 -70q-41 -40 -100.5 -60.5t-130.5 -20.5q-40 0 -67 7v-280h-126v722z
" />
    <glyph glyph-name="Sigma" unicode="&#x3a3;" horiz-adv-x="601" 
d="M188 70h386v-105h-549v73l236 290l-223 285v84h505v-105h-343v-4l200 -255l-212 -259v-4z" />
    <glyph glyph-name="Tau" unicode="&#x3a4;" horiz-adv-x="555" 
d="M213 590h-211v107h550v-107h-212v-625h-127v625z" />
    <glyph glyph-name="Upsilon" unicode="&#x3a5;" horiz-adv-x="644" 
d="M24 703q21 -1 46.5 -7.5t51.5 -18.5t51 -30t46 -42q41 -45 68.5 -109t36.5 -145h5q12 82 45 144.5t71 104.5q20 22 43.5 40t47.5 31.5t47 21.5t42 10l20 -106q-35 -11 -71.5 -37t-69.5 -65t-60 -91.5t-43 -115.5q-8 -34 -13.5 -71t-5.5 -79v-173h-126v175q0 41 -4 75.5
t-11 70.5q-27 134 -90 215t-147 98z" />
    <glyph glyph-name="Phi" unicode="&#x3a6;" horiz-adv-x="798" 
d="M458 83q33 4 65 21.5t57.5 48t41.5 74.5t16 103q0 60 -16 105.5t-41.5 76.5t-57.5 48t-65 21v-498zM338 581q-31 -4 -63 -21.5t-58 -49t-42.5 -76.5t-16.5 -105q0 -55 15.5 -98.5t41 -74.5t57.5 -49.5t66 -23.5v498zM457 -64h-120v57q-57 6 -112.5 29t-99 64t-70 100.5
t-26.5 140.5q0 83 28.5 145t73.5 104.5t100 65.5t108 29v54h120v-54q57 -6 112.5 -29.5t98.5 -65.5t69.5 -103t26.5 -141t-26 -140.5t-69.5 -102.5t-99 -66t-114.5 -30v-57z" />
    <glyph glyph-name="Chi" unicode="&#x3a7;" horiz-adv-x="628" 
d="M464 -35l-81 148q-25 43 -41.5 75t-32.5 64h-2q-14 -32 -30.5 -63.5t-40.5 -75.5l-74 -148h-146l217 370l-209 362h146l83 -154q18 -35 32.5 -63.5t28.5 -59.5h3q16 34 28.5 61t30.5 62l82 154h145l-214 -358l224 -374h-149z" />
    <glyph glyph-name="Psi" unicode="&#x3a8;" horiz-adv-x="758" 
d="M718 485q0 -77 -21.5 -133t-59 -94t-88.5 -57.5t-110 -22.5v-213h-118v213q-55 2 -105.5 18.5t-89.5 49.5t-62 84t-23 123v244h123v-223q0 -54 11.5 -91t32.5 -60t49.5 -33.5t63.5 -12.5v420h118v-421q31 2 59 13.5t49.5 37.5t34 68t12.5 105v197h124v-212z" />
    <glyph glyph-name="uni03A9" unicode="&#x3a9;" horiz-adv-x="770" 
d="M591 64h152v-99h-296v77q30 21 57.5 51.5t48.5 69t33 84.5t12 99q0 49 -13.5 95.5t-40 83t-65.5 58.5t-90 22t-91.5 -21.5t-68 -57.5t-42 -83t-14.5 -98q0 -48 12 -94t33 -86t48.5 -72t58.5 -51v-77h-299v99h152v3q-26 21 -50.5 50t-44 65.5t-31.5 81t-12 95.5
q0 75 26.5 139.5t73 111t111 73t141.5 26.5q79 0 141.5 -27.5t106 -74t66.5 -108t23 -130.5q0 -55 -12.5 -101t-32 -84t-44.5 -67t-49 -50v-3z" />
    <glyph glyph-name="alpha" unicode="&#x3b1;" horiz-adv-x="604" 
d="M162 224q0 -34 8.5 -64.5t24.5 -53.5t38.5 -36.5t51.5 -13.5q22 0 42 9.5t36 26t27 37.5t16 44q3 16 4 31t1 32q0 15 -0.5 27.5t-2.5 24.5q-5 25 -15 47t-25 38.5t-34.5 26t-41.5 9.5q-29 0 -53 -14t-41 -39t-26.5 -58.5t-9.5 -72.5v-1zM549 495q-2 -26 -5 -67.5t-5 -91
t-3.5 -103t-1.5 -101.5q0 -46 13 -64t37 -18l-8 -89q-6 -3 -18.5 -5.5t-25.5 -2.5q-41 0 -67.5 25t-34.5 82h-3q-26 -50 -71.5 -78.5t-104.5 -28.5q-47 0 -87 19t-69 54t-45.5 84.5t-16.5 110.5q0 65 20 118t53.5 90t76.5 57t89 20q53 0 93 -23t62 -69h4q2 24 4.5 44t6.5 37
h107z" />
    <glyph glyph-name="beta" unicode="&#x3b2;" horiz-adv-x="612" 
d="M189 11v-38q0 -48 2.5 -93.5t10.5 -79.5h-120q-9 25 -13 67t-4 99v460q0 58 7 100.5t18.5 73.5t26.5 52.5t31 37.5q29 26 69 43.5t96 17.5q46 0 83.5 -14.5t64.5 -41t41.5 -62t14.5 -77.5q0 -54 -26.5 -100t-66.5 -66v-5q30 -7 57.5 -23.5t49 -42.5t34.5 -60.5t13 -76.5
q0 -54 -18.5 -96.5t-50 -72t-73 -45t-86.5 -15.5q-101 0 -159 58h-2zM188 122q19 -27 52.5 -50t78.5 -23q30 0 54.5 10.5t41 29t25.5 43t9 52.5q0 33 -11.5 59t-31 44t-46.5 28.5t-58 12.5h-26v80l18 2q54 6 80 42.5t26 84.5q0 51 -26.5 82.5t-68.5 31.5q-56 0 -86.5 -49
t-30.5 -156v-324z" />
    <glyph glyph-name="gamma" unicode="&#x3b3;" horiz-adv-x="521" 
d="M189 -199q1 38 1.5 68.5t-1 59.5t-6 60t-13.5 70q-14 66 -37 130t-49 122t-52 105.5t-47 80.5h143q16 -24 36.5 -66t41 -93.5t38.5 -110.5t30 -118h4q15 31 33.5 72.5t34 87t26 94t10.5 93.5q0 15 -0.5 24t-0.5 17h121q2 -7 2 -17v-21q0 -51 -14.5 -108t-39.5 -117.5
t-59.5 -122t-73.5 -120.5q-5 -6 -5.5 -11.5t-0.5 -13.5q0 -20 0.5 -38.5t1 -37.5t1 -40.5t0.5 -48.5h-125z" />
    <glyph glyph-name="delta" unicode="&#x3b4;" horiz-adv-x="597" 
d="M295 421q-26 -14 -49.5 -33.5t-41.5 -45t-29 -57t-11 -69.5q0 -39 11.5 -71t31 -54.5t44.5 -34.5t52 -12q28 0 52.5 11.5t42.5 33.5t28 52.5t10 69.5q0 98 -87 167zM484 613q-8 6 -23 13.5t-33.5 13.5t-40 10.5t-43.5 4.5q-39 0 -57.5 -11t-18.5 -28t18.5 -34.5
t53.5 -43.5l89 -72q63 -49 99 -108t36 -136q0 -62 -21 -112t-57 -85.5t-85 -54.5t-105 -19q-54 0 -102 18t-83.5 52t-56.5 82.5t-21 110.5q0 51 16 92.5t42.5 74.5t61 58t71.5 42v5l-24 20q-8 7 -19 18t-20.5 25t-16 30.5t-6.5 35.5q0 24 12.5 48t37 43t61.5 31t86 12
q31 0 59 -5t52 -12.5t42.5 -17t30.5 -18.5z" />
    <glyph glyph-name="epsilon" unicode="&#x3b5;" horiz-adv-x="483" 
d="M159 251q-48 14 -73 43.5t-25 68.5q0 27 13.5 52.5t40.5 45.5t68 32.5t97 12.5q110 0 168 -38l-24 -83q-18 11 -54 21.5t-74 10.5q-50 0 -79 -18.5t-29 -48.5q0 -33 38 -48t98 -15h59v-86h-61q-32 0 -60 -4t-48 -12.5t-31.5 -22t-11.5 -33.5t10.5 -35t27.5 -25t40 -15
t48 -5q40 0 82 11t68 25l19 -83q-37 -24 -92 -36.5t-109 -12.5q-41 0 -82 8.5t-74 28t-53.5 50.5t-20.5 76q0 24 9.5 45.5t26 38.5t39.5 28.5t49 16.5v6z" />
    <glyph glyph-name="zeta" unicode="&#x3b6;" horiz-adv-x="452" 
d="M295 -171q5 9 10.5 24.5t10.5 32t8.5 32t3.5 26.5q-27 4 -60 11t-66 20q-34 12 -64 31t-53 48t-36.5 68.5t-13.5 92.5q0 55 17 112t48.5 112.5t77 106.5t103.5 93v5h-66q-38 0 -69 2t-55 10l12 82q27 -2 64 -2.5t78 -0.5h191l18 -86q-60 -29 -112.5 -75t-91.5 -101
t-61.5 -116t-22.5 -119q0 -38 8.5 -66.5t23.5 -49t36 -35t47 -24.5q37 -14 77.5 -22.5t78.5 -13.5q11 -2 11 -13q0 -26 -6.5 -55.5t-16.5 -58t-22.5 -54t-24.5 -42.5z" />
    <glyph glyph-name="eta" unicode="&#x3b7;" horiz-adv-x="608" 
d="M184 418q9 15 24.5 31t36.5 29t48.5 21.5t60.5 8.5q34 0 68 -11.5t61 -37.5t43.5 -69.5t16.5 -106.5v-291v-50t1 -53.5t3 -49.5t6 -39h-121q-6 11 -9.5 32.5t-5.5 47.5t-2.5 55t-0.5 55v278q0 29 -5.5 54t-18 43t-32.5 28.5t-48 10.5q-42 0 -70 -24t-39 -57
q-3 -8 -4.5 -19.5t-1.5 -22.5v-313h-128v373q0 47 -3 87t-13 69h113q8 -14 12.5 -35.5t4.5 -43.5h3z" />
    <glyph glyph-name="theta" unicode="&#x3b8;" horiz-adv-x="589" 
d="M159 313q0 -128 37.5 -199.5t100.5 -71.5q34 0 58.5 20t41 55.5t24.5 85.5t8 110h-270zM428 405q0 53 -8 99t-24.5 79.5t-42 53t-59.5 19.5q-32 0 -57.5 -20t-43 -54t-26.5 -80t-9 -97h270zM294 -49q-122 0 -192 101.5t-70 302.5q0 84 17 156t51 125t84 83t115 30
q66 0 114 -28.5t79.5 -80.5t47 -124.5t15.5 -160.5q0 -92 -15.5 -166.5t-48 -127t-81.5 -81.5t-116 -29z" />
    <glyph glyph-name="iota" unicode="&#x3b9;" horiz-adv-x="274" 
d="M198 111q0 -34 10.5 -48t39.5 -12l-7 -89q-8 -4 -24.5 -6t-30.5 -2q-26 0 -47.5 6.5t-36.5 22.5t-23.5 44t-8.5 72v396h128v-384z" />
    <glyph glyph-name="kappa" unicode="&#x3ba;" horiz-adv-x="553" 
d="M314 250q38 -10 75 -51.5t72 -93.5l91 -139h-146l-73 110q-35 51 -66 83t-63 34h-8v-227h-129v405q0 18 -0.5 37t-2 36t-4 30.5t-5.5 20.5h125q8 -8 12 -32.5t4 -59.5v-136h4q58 62 108 121.5t91 106.5h146v-5q-53 -54 -110.5 -113.5t-120.5 -122.5v-4z" />
    <glyph glyph-name="lambda" unicode="&#x3bb;" horiz-adv-x="526" 
d="M294 239q-10 25 -18 52t-16 61h-6q-5 -28 -13.5 -56t-16.5 -54l-91 -279h-133l190 489q3 10 4 16t1 11t-1 12t-5 15q-21 60 -52.5 99.5t-73.5 39.5h-10t-10 -1l12 97q7 3 19.5 4.5t23.5 1.5q42 0 74.5 -18t58 -51t47 -78t41.5 -99l201 -538h-135z" />
    <glyph glyph-name="uni03BC" unicode="&#x3bc;" horiz-adv-x="606" 
d="M424 46q-7 -15 -20 -30.5t-31 -28t-41.5 -20.5t-51.5 -8q-29 0 -55 11t-42 35v-37q0 -45 2 -90t10 -77h-113q-15 45 -15 164v532h127v-305q0 -57 24 -94.5t77 -37.5q41 0 69.5 23.5t39.5 50.5q3 9 5 20.5t2 22.5v320h127v-371q0 -40 10.5 -56t37.5 -16l-8 -91
q-9 -3 -20 -5t-26 -2q-41 0 -68.5 21.5t-36.5 68.5h-3z" />
    <glyph glyph-name="nu" unicode="&#x3bd;" horiz-adv-x="522" 
d="M134 495l86 -273q12 -35 21 -68t20 -68h4q16 33 36.5 77.5t37.5 93.5t29 98.5t12 93.5v24t-1 22h120q3 -17 3 -40q0 -56 -16.5 -117t-43.5 -123t-61.5 -125t-70.5 -124h-124l-189 529h137z" />
    <glyph glyph-name="xi" unicode="&#x3be;" horiz-adv-x="481" 
d="M405 349h-29q-104 0 -156 -42t-52 -105q0 -57 38.5 -92.5t118.5 -56.5q35 -10 70 -15.5t71 -10.5q7 -1 10 -4.5t3 -8.5q0 -23 -6 -52.5t-16.5 -58.5t-23.5 -55t-26 -42l-81 23q5 9 10 24.5t9.5 32t7.5 32t3 25.5q-52 8 -108.5 22t-104 41t-78.5 71.5t-31 113.5
q0 39 13 73t35.5 61.5t53 47t65.5 29.5v6q-58 20 -87.5 60t-29.5 94q0 36 15 69.5t44.5 60t74 42.5t103.5 16q49 0 83.5 -8t59.5 -21l-22 -86q-19 9 -46 15.5t-58 6.5q-63 0 -94 -32t-31 -75q0 -53 42 -80t106 -31q8 -1 20 -1h24v-89z" />
    <glyph glyph-name="omicron" unicode="&#x3bf;" horiz-adv-x="600" 
d="M300 46q30 0 55 13.5t42.5 38.5t27.5 59t10 76q0 31 -7.5 63.5t-23.5 58.5t-41.5 43t-61.5 17t-62 -16t-42.5 -42.5t-24 -59.5t-7.5 -66q0 -40 9.5 -74t27 -58.5t42 -38.5t55.5 -14h1zM296 -47q-55 0 -103 19t-83.5 54t-56 86t-20.5 116t20.5 116.5t56.5 87.5t86 55
t109 19t107 -19.5t82.5 -55t53.5 -85.5t19 -110q0 -74 -23.5 -127t-61.5 -88t-86.5 -51.5t-98.5 -16.5h-1z" />
    <glyph glyph-name="pi" unicode="&#x3c0;" horiz-adv-x="614" 
d="M515 397v-269q0 -61 4 -100.5t9 -61.5h-121q-8 14 -12.5 53t-4.5 97v281h-147q-1 -49 -7 -110.5t-15 -122.5t-20.5 -114t-24.5 -84h-122q13 39 25 93.5t21 113.5t14 117.5t6 106.5q-28 0 -54.5 -1.5t-47.5 -6.5l-14 75q18 15 57.5 23t110.5 8h425l-12 -98h-70z" />
    <glyph glyph-name="rho" unicode="&#x3c1;" horiz-adv-x="615" 
d="M190 176q0 -18 4 -34q11 -35 44 -61.5t77 -26.5q33 0 58.5 14t43 38t27 57t9.5 72q0 36 -8.5 66.5t-25 53t-41 35.5t-55.5 13q-26 0 -50 -11t-42.5 -33.5t-29.5 -56.5t-11 -81v-45zM190 21v-49q0 -47 1 -93.5t6 -78.5h-123q-7 23 -9.5 66.5t-2.5 101.5v217q0 54 7.5 94.5
t19.5 70.5t28 51t33 38q33 32 78 50.5t102 18.5t104 -19.5t80 -55t51 -85.5t18 -111q0 -70 -21 -123t-55.5 -88t-78 -53t-89.5 -18q-48 0 -87 17.5t-61 48.5h-1z" />
    <glyph glyph-name="sigma" unicode="&#x3c3;" horiz-adv-x="611" 
d="M298 46q29 0 53.5 13.5t42 38.5t27 59t9.5 75q0 32 -7 64.5t-23 59t-40.5 43t-59.5 16.5q-36 0 -61.5 -16t-42 -42.5t-24 -59.5t-7.5 -66q0 -40 9.5 -74t27 -58.5t42 -38.5t54.5 -14zM471 415q42 -32 64.5 -82.5t22.5 -101.5q0 -72 -23 -124.5t-60 -86.5t-84 -50.5
t-95 -16.5q-56 0 -104 18.5t-83.5 53.5t-56 85.5t-20.5 113.5q0 66 20.5 118t57.5 88.5t89 56t115 19.5h171h30.5h34.5h32h23l-5 -91q-19 0 -48.5 0.5t-79.5 3.5z" />
    <glyph glyph-name="tau" unicode="&#x3c4;" horiz-adv-x="461" 
d="M361 -35q-9 -5 -26.5 -8t-36.5 -3q-75 0 -106.5 43.5t-31.5 131.5v268h-52q-40 0 -63 -1.5t-40 -6.5l-17 76q7 6 19.5 11t31.5 9.5t46.5 7t66.5 2.5h303l-14 -98h-155v-263q0 -47 17.5 -63.5t41.5 -16.5h13t8 1z" />
    <glyph glyph-name="upsilon" unicode="&#x3c5;" horiz-adv-x="577" 
d="M496 495q14 -26 27 -81t13 -124q0 -60 -12 -120t-41.5 -108t-78.5 -78t-124 -30q-47 0 -87 13.5t-69.5 40.5t-46.5 68.5t-17 97.5v144q0 66 -2 110t-10 67h123q8 -9 12 -32.5t4 -67.5v-209q0 -34 8.5 -58t23 -39.5t33.5 -23t39 -7.5q31 0 53.5 16.5t37 45.5t21.5 70t7 91
q0 36 -3.5 70t-9 62.5t-11.5 49.5t-10 32h120z" />
    <glyph glyph-name="phi" unicode="&#x3c6;" horiz-adv-x="720" 
d="M419 45q66 10 106 61.5t40 135.5q0 37 -9.5 69.5t-25 56.5t-35 37.5t-38.5 13.5q-38 0 -38 -60v-314zM267 443q-19 -13 -38.5 -32t-35 -44.5t-25.5 -57.5t-10 -70q0 -74 37.5 -127t109.5 -66v290q0 46 13 79t34.5 54t49.5 30.5t58 8.5q43 -1 83.5 -19.5t72 -52.5t51 -82
t19.5 -108q0 -68 -23 -120t-60.5 -88t-85.5 -56.5t-98 -25.5v-155h-114v155q-52 4 -101 22.5t-87.5 52t-61.5 84.5t-23 122q0 57 18.5 103t46.5 80.5t60.5 57.5t60.5 33z" />
    <glyph glyph-name="chi" unicode="&#x3c7;" horiz-adv-x="511" 
d="M145 497l120 -239h4q9 23 20.5 47t25.5 50l72 142h123l-185 -324l189 -342l-120 -27l-144 273l-4 -1l-46 -97l-89 -175l-110 28l189 340l-181 325h136z" />
    <glyph glyph-name="psi" unicode="&#x3c8;" horiz-adv-x="734" 
d="M317 -46q-51 4 -98 19t-82 47.5t-56 85t-21 130.5v132q0 38 -1.5 71.5t-6.5 56.5h115q8 -9 11.5 -34.5t3.5 -65.5v-149q0 -56 11 -94t29.5 -61t43 -34t51.5 -13v590h115v-590q33 1 59.5 19.5t45 50t28.5 74t10 92.5q0 40 -4.5 75.5t-10.5 63.5t-12.5 47.5t-11.5 28.5h116
q17 -29 30.5 -81t13.5 -127q0 -60 -13.5 -117.5t-45 -104t-82 -77t-123.5 -35.5v-154h-115v154z" />
    <glyph glyph-name="omega" unicode="&#x3c9;" horiz-adv-x="760" 
d="M436 165q-1 -45 19.5 -74.5t54.5 -29.5q37 0 65.5 47.5t28.5 142.5q0 36 -5.5 72t-16 68t-25.5 59.5t-34 46.5v3h117q16 -14 32 -38.5t29 -57t20.5 -72.5t7.5 -85q0 -73 -17 -128t-46 -91.5t-67 -55t-80 -18.5q-48 0 -85 23.5t-54 65.5h-4q-22 -41 -58 -65t-85 -24
q-38 0 -74 16t-64.5 50.5t-46 88t-17.5 127.5q0 45 8 85.5t20.5 74t29 60t33.5 44.5h116v-3q-35 -42 -58.5 -109t-23.5 -147q0 -48 9 -82t22.5 -56t30 -32t31.5 -10q32 0 53 29.5t20 74.5l-1 202h118z" />
    <glyph glyph-name="uni0401" unicode="&#x401;" horiz-adv-x="543" 
d="M382 672q-26 0 -42 18t-16 43q0 27 17 45t43 18t43 -17.5t17 -45.5q0 -25 -16.5 -43t-44.5 -18h-1zM176 672q-26 0 -43 18t-17 43q0 27 17.5 45t43.5 18t42.5 -17.5t16.5 -45.5q0 -25 -16.5 -43t-42.5 -18h-1zM472 263h-273v-190h305v-101h-427v654h411v-101h-289v-162
h273v-100z" />
    <glyph glyph-name="uni0410" unicode="&#x410;" horiz-adv-x="672" 
d="M427 273l-61 184q-10 33 -19 67.5t-17 66.5h-2q-8 -32 -16 -67t-18 -67l-59 -184h192zM214 181l-64 -209h-127l234 718h154l237 -718h-133l-67 209h-234z" />
    <glyph glyph-name="uni0411" unicode="&#x411;" horiz-adv-x="608" 
d="M198 63q15 -3 33 -4t38 -1q38 0 73 11.5t58 35.5q18 18 28.5 42t10.5 54q0 36 -13.5 61t-36.5 41q-25 20 -57.5 27.5t-66.5 7.5q-15 0 -32.5 -1t-34.5 -3v-271zM511 690v-101h-313v-163q18 2 43.5 3.5t44.5 1.5q54 0 104 -12.5t89 -39.5q39 -26 64 -69.5t25 -105.5
q0 -51 -17.5 -90.5t-46.5 -68.5q-24 -22 -54.5 -37.5t-65.5 -25t-73 -13.5t-77 -4q-54 0 -93 3t-64 6v716h434z" />
    <glyph glyph-name="uni0412" unicode="&#x412;" horiz-adv-x="606" 
d="M198 61q14 -2 31 -2.5t40 -0.5q33 0 63 6.5t53 21t36.5 38.5t13.5 59q0 32 -13.5 55t-36.5 37.5t-53.5 21.5t-65.5 7h-68v-243zM198 394h71q70 0 107.5 29.5t37.5 77.5q0 54 -37.5 78.5t-101.5 24.5q-30 0 -48 -2t-29 -4v-204zM77 679q31 7 81.5 11.5t104.5 4.5
q72 0 120 -11t83 -36q32 -20 52 -54t20 -80q0 -50 -31 -92t-90 -62v-4q28 -7 54.5 -21.5t46.5 -36.5t32.5 -52t12.5 -67q0 -48 -18 -84.5t-49 -62.5q-38 -34 -101.5 -50.5t-160.5 -16.5q-54 0 -93 3t-64 6v705z" />
    <glyph glyph-name="uni0413" unicode="&#x413;" horiz-adv-x="487" 
d="M480 690v-101h-281v-617h-123v718h404z" />
    <glyph glyph-name="uni0414" unicode="&#x414;" horiz-adv-x="698" 
d="M284 471q0 -77 -8 -144t-27 -125q-11 -35 -25.5 -69t-28.5 -61h283v517h-194v-118zM601 690v-620l66 -3l-7 -267h-93l-8 172h-438l-8 -172h-94l-6 267l56 3q21 38 39 77t30 82q18 58 25 125.5t7 148.5v187h431z" />
    <glyph glyph-name="uni0415" unicode="&#x415;" horiz-adv-x="543" 
d="M472 295h-273v-222h305v-101h-427v718h411v-101h-289v-194h273v-100z" />
    <glyph glyph-name="uni0416" unicode="&#x416;" horiz-adv-x="887" 
d="M158 690l204 -310h22v310h119v-310h22l203 310h143l-250 -326q40 -5 69 -19.5t51 -38t37.5 -54.5t28.5 -68q18 -54 33.5 -107.5t38.5 -104.5h-125q-17 36 -30 81t-25 83q-11 33 -24 61t-32 48.5t-46 31.5t-66 11h-28v-316h-119v316h-29q-39 0 -66 -11t-46 -31.5
t-32.5 -48.5t-24.5 -61q-12 -38 -25 -83t-30 -81h-124q23 51 40 104.5t34 104.5q13 37 28.5 68t37 54.5t50.5 39t68 21.5l-250 326h143z" />
    <glyph glyph-name="uni0417" unicode="&#x417;" horiz-adv-x="547" 
d="M50 645q37 24 87 40.5t116 16.5q52 0 94 -13t72 -36t46 -56.5t16 -73.5q0 -34 -11 -62.5t-30.5 -50.5t-46.5 -37.5t-58 -22.5v-2q36 -5 67.5 -19t54.5 -36.5t36.5 -53t13.5 -67.5q0 -58 -24.5 -98t-63.5 -65.5t-88.5 -37t-98.5 -11.5q-52 0 -103.5 11.5t-96.5 37.5l29 95
q28 -15 73.5 -29.5t93.5 -14.5q72 0 111 32.5t39 86.5q0 35 -16 58t-41.5 36.5t-57 19t-61.5 5.5h-54v93h53q33 0 61 8t48.5 23t32 35.5t11.5 45.5q0 47 -32.5 72.5t-88.5 25.5q-41 0 -82 -13.5t-70 -29.5z" />
    <glyph glyph-name="uni0418" unicode="&#x418;" horiz-adv-x="715" 
d="M191 690v-264q0 -86 -2 -163.5t-7 -149.5l3 -1q29 59 61.5 121.5t68.5 124.5l199 332h125v-718h-114v265q0 86 2 156.5t9 139.5l-4 1q-26 -62 -60 -125t-68 -122l-192 -315h-135v718h114z" />
    <glyph glyph-name="uni0419" unicode="&#x419;" horiz-adv-x="715" 
d="M191 661v-254q0 -82 -2 -156.5t-7 -143.5l3 -1q29 57 61.5 116.5t68.5 119.5l199 319h125v-690h-114v255q0 82 2 150t9 134l-4 1q-26 -60 -60 -120t-68 -117l-192 -303h-135v690h114zM300 796q3 -27 14 -46.5t44 -19.5q31 0 43 18.5t15 47.5h88q-11 -122 -149 -122
q-68 0 -103 32t-40 90h88z" />
    <glyph glyph-name="uni041A" unicode="&#x41a;" horiz-adv-x="606" 
d="M198 690v-310h21l227 310h147l-262 -325q40 -7 69.5 -23t51 -39t37 -53t28.5 -65q20 -57 37.5 -109.5t41.5 -103.5h-131q-19 37 -32.5 80t-27.5 84q-11 33 -25.5 61t-34.5 48.5t-48.5 31.5t-68.5 11h-30v-316h-122v718h122z" />
    <glyph glyph-name="uni041B" unicode="&#x41b;" horiz-adv-x="656" 
d="M579 690v-718h-122v617h-206v-197q0 -63 -4 -123.5t-16 -112.5t-35 -93.5t-62 -66.5q-23 -14 -55 -24t-69 -10l-15 99q24 4 44 14.5t33 24.5q19 19 31 50t18.5 68.5t8.5 79.5t2 84v308h447z" />
    <glyph glyph-name="uni041C" unicode="&#x41c;" horiz-adv-x="875" 
d="M683 270q-4 71 -7.5 151t-2.5 152h-3q-18 -66 -39.5 -135.5t-46.5 -138.5l-110 -320h-94l-100 315q-23 70 -41.5 141t-32.5 138h-3q-2 -70 -5 -151.5t-8 -156.5l-16 -293h-115l47 718h161l100 -302q20 -64 37 -126t31 -122h3q14 58 32 121t40 128l106 301h158l43 -718
h-119z" />
    <glyph glyph-name="uni041D" unicode="&#x41d;" horiz-adv-x="711" 
d="M199 690v-291h313v291h123v-718h-123v321h-313v-321h-122v718h122z" />
    <glyph glyph-name="uni041E" unicode="&#x41e;" horiz-adv-x="747" 
d="M374 59q49 0 87 21.5t64.5 58.5t40 87t13.5 107q0 51 -13 99.5t-38.5 86t-64 60.5t-89.5 23t-90 -22.5t-64.5 -60t-38.5 -87t-13 -103.5t13.5 -103t40 -86t64.5 -59t87 -22h1zM367 -40q-75 0 -136 27.5t-103.5 76t-66 115.5t-23.5 147q0 83 25 152t70 119t107.5 77.5
t137.5 27.5q78 0 139 -28t103.5 -76.5t65 -115t22.5 -144.5q0 -90 -26 -160.5t-71.5 -119t-108 -73.5t-134.5 -25h-1z" />
    <glyph glyph-name="uni041F" unicode="&#x41f;" horiz-adv-x="698" 
d="M621 690v-718h-123v617h-299v-617h-122v718h544z" />
    <glyph glyph-name="uni0420" unicode="&#x420;" horiz-adv-x="589" 
d="M198 345q14 -5 30 -6t37 -1q76 0 119.5 35.5t43.5 101.5q0 62 -40.5 93.5t-110.5 31.5q-28 0 -48 -2t-31 -5v-248zM77 680q35 7 83 11t112 4q141 0 208 -58q32 -27 51 -67t19 -90q0 -102 -60 -160q-39 -39 -97.5 -59t-127.5 -20q-40 0 -67 7v-276h-121v708z" />
    <glyph glyph-name="uni0421" unicode="&#x421;" horiz-adv-x="624" 
d="M588 -7q-23 -11 -71.5 -21.5t-114.5 -10.5q-84 0 -151.5 25.5t-115 72.5t-73 113.5t-25.5 149.5q0 88 29 158t80 119t121 75t153 26q66 0 109.5 -10t63.5 -20l-27 -98q-26 11 -61 19t-80 8q-57 0 -104 -17.5t-81.5 -52t-53.5 -84.5t-19 -116q0 -61 17 -109.5t50 -83
t80.5 -53t108.5 -18.5q40 0 78.5 7t66.5 18z" />
    <glyph glyph-name="uni0422" unicode="&#x422;" horiz-adv-x="553" 
d="M214 587h-208v103h540v-103h-209v-615h-123v615z" />
    <glyph glyph-name="uni0423" unicode="&#x423;" horiz-adv-x="586" 
d="M142 690l125 -287q14 -34 26.5 -66t25.5 -64h3q8 25 18 58t23 74l98 285h130l-144 -363q-31 -78 -65 -152.5t-72 -125.5q-35 -45 -77.5 -68.5t-97.5 -23.5q-43 0 -64 10l10 99q8 -2 18.5 -3.5t24.5 -1.5q24 0 43 9.5t34.5 24t26.5 31.5t19 33q4 11 3 20t-6 20l-241 491
h139z" />
    <glyph glyph-name="uni0424" unicode="&#x424;" horiz-adv-x="801" 
d="M458 94q32 3 64.5 17t58 42t41.5 72t16 106q0 64 -16 108t-41.5 72t-57.5 41.5t-65 15.5v-474zM342 568q-30 -2 -62 -15.5t-58 -41.5t-43 -72.5t-17 -108.5q0 -59 16 -102t41.5 -71.5t57.5 -43.5t65 -19v474zM459 719v-64q57 -3 112 -22.5t97.5 -58t69 -98.5t26.5 -145
q0 -84 -26 -143.5t-69 -97.5t-98.5 -58t-113.5 -24v-66h-116v66q-57 4 -111.5 23t-97.5 56.5t-69 96.5t-26 143q0 87 28.5 147.5t72.5 99.5t98.5 58t106.5 23v64h116z" />
    <glyph glyph-name="uni0425" unicode="&#x425;" horiz-adv-x="627" 
d="M462 -28l-80 146q-25 42 -41.5 74t-32.5 63h-2q-14 -31 -30 -62.5t-39 -74.5l-74 -146h-141l214 363l-206 355h141l82 -152q18 -35 32 -63t28 -58h3q16 33 28.5 60t30.5 61l81 152h140l-210 -351l219 -367h-143z" />
    <glyph glyph-name="uni0426" unicode="&#x426;" horiz-adv-x="714" 
d="M199 690v-617h296v617h123v-620l66 -3l-7 -266h-93l-8 171h-499v718h122z" />
    <glyph glyph-name="uni0427" unicode="&#x427;" horiz-adv-x="656" 
d="M193 690v-223q0 -69 35 -104.5t103 -35.5q34 0 67 10t59 25v328h123v-724h-123v303h-2q-38 -20 -79.5 -30.5t-87.5 -10.5q-41 0 -80.5 11t-70 36.5t-49 67.5t-18.5 104v243h123z" />
    <glyph glyph-name="uni0428" unicode="&#x428;" horiz-adv-x="933" 
d="M197 690v-617h209v617h120v-617h210v617h120v-718h-779v718h120z" />
    <glyph glyph-name="uni0429" unicode="&#x429;" horiz-adv-x="952" 
d="M197 690v-617h209v617h120v-617h210v617h120v-620l66 -3l-6 -267h-95l-6 172h-738v718h120z" />
    <glyph glyph-name="uni042A" unicode="&#x42a;" horiz-adv-x="706" 
d="M309 63q14 -3 30 -4t37 -1q34 0 63.5 9t51.5 27t34.5 44.5t12.5 62.5q0 37 -13.5 63.5t-36 43t-51.5 24t-60 7.5q-17 0 -35 -1t-33 -3v-272zM309 690v-260q15 2 39 3.5t47 1.5q53 0 102 -13.5t87 -42t60.5 -71.5t22.5 -102q0 -51 -15.5 -89t-41.5 -65q-24 -25 -54 -41.5
t-64.5 -26.5t-72 -14.5t-76.5 -4.5q-52 0 -91.5 3t-64.5 6v615h-184v101h306z" />
    <glyph glyph-name="uni042B" unicode="&#x42b;" horiz-adv-x="843" 
d="M758 690v-718h-123v718h123zM198 61q23 -4 66 -4q34 0 64.5 9t53.5 27t36.5 45.5t13.5 63.5q0 37 -14.5 62.5t-38.5 42t-54 24t-61 7.5q-22 0 -39 -1t-27 -3v-273zM198 690v-262q16 3 40.5 4.5t43.5 1.5q55 0 105.5 -13.5t89 -41t61.5 -71t23 -103.5q0 -51 -15 -88.5
t-41 -64.5q-24 -25 -55.5 -41.5t-67.5 -26.5t-74.5 -14t-75.5 -4q-52 0 -91 2.5t-64 5.5v716h121z" />
    <glyph glyph-name="uni042C" unicode="&#x42c;" horiz-adv-x="607" 
d="M198 63q15 -3 32 -4t37 -1q35 0 66 8.5t54.5 26t37.5 44.5t14 64t-14 63.5t-37 43t-54.5 24t-65.5 7.5q-17 0 -35 -1t-35 -3v-272zM198 690v-261q17 3 42.5 4.5t45.5 1.5q57 0 108 -13.5t89.5 -41t61.5 -71t23 -103.5q0 -51 -15.5 -88.5t-41.5 -65.5q-24 -25 -55.5 -41.5
t-67.5 -26.5t-75.5 -14.5t-78.5 -4.5q-54 0 -93 3t-64 6v716h121z" />
    <glyph glyph-name="uni042D" unicode="&#x42d;" horiz-adv-x="613" 
d="M120 386h323q-4 45 -20.5 84.5t-45 68.5t-68.5 45.5t-91 16.5q-43 0 -80.5 -9.5t-69.5 -23.5l-26 93q35 15 82.5 28t102.5 13q88 0 153.5 -29.5t109 -80t64.5 -118.5t21 -144q0 -90 -28 -159t-76.5 -116t-113.5 -71t-140 -24q-55 0 -103.5 10t-82.5 25l23 96
q30 -13 70 -21.5t80 -8.5q54 0 96.5 17t73.5 47.5t48.5 72.5t20.5 91h-323v97z" />
    <glyph glyph-name="uni042E" unicode="&#x42e;" horiz-adv-x="948" 
d="M601 58q45 0 79.5 21.5t58 59t35.5 87.5t12 107q0 51 -11.5 100t-34.5 87t-57.5 61t-80.5 23q-47 0 -82.5 -22.5t-59 -60.5t-35.5 -88t-12 -104t12.5 -103.5t36 -86.5t58.5 -59t80 -22h1zM198 690v-297h98q9 70 34.5 127.5t65.5 97.5t93.5 62t116.5 22q72 0 129 -28
t96 -76.5t59.5 -115t20.5 -144.5q0 -92 -24 -162.5t-66.5 -118.5t-100 -72.5t-124.5 -24.5q-66 0 -120 23.5t-93 67t-62.5 104t-27.5 134.5h-95v-317h-122v718h122z" />
    <glyph glyph-name="uni042F" unicode="&#x42f;" horiz-adv-x="604" 
d="M407 594q-11 2 -31 4.5t-48 2.5q-31 0 -58.5 -6.5t-48 -20.5t-32.5 -36.5t-12 -55.5q0 -29 12 -51.5t33.5 -38t51 -23.5t63.5 -8h38.5t31.5 2v231zM13 -28q10 16 17.5 34t14.5 37q11 31 21 63t21.5 63t26.5 58.5t36 48.5q26 24 60 36v3q-32 6 -60.5 20t-49.5 36t-33.5 52
t-12.5 68q0 48 19 85.5t51 62.5q37 29 93 42.5t125 13.5q51 0 100 -4t86 -11v-708h-121v298h-57q-29 0 -51.5 -7.5t-39.5 -24.5q-18 -18 -31 -44t-23.5 -55t-19 -58.5t-17.5 -53.5q-5 -14 -10.5 -26.5t-13.5 -28.5h-131z" />
    <glyph glyph-name="uni0430" unicode="&#x430;" horiz-adv-x="535" 
d="M346 228q-36 0 -70 -4t-60.5 -15.5t-42.5 -31.5t-16 -51q0 -40 22.5 -58.5t54.5 -18.5q43 0 70.5 22.5t38.5 51.5q2 8 2.5 14.5t0.5 14.5v76zM465 97q0 -35 2 -67.5t7 -57.5h-111l-9 60h-4q-22 -31 -61.5 -51.5t-91.5 -20.5q-39 0 -69 13t-51 34.5t-31.5 49.5t-10.5 57
q0 97 81.5 146.5t226.5 48.5v8q0 13 -3.5 30t-15 32t-32.5 25t-57 10q-38 0 -75 -10.5t-63 -27.5l-26 81q30 17 77.5 30.5t107.5 13.5q61 0 101.5 -18t64.5 -48.5t33.5 -69.5t9.5 -81v-187z" />
    <glyph glyph-name="uni0431" unicode="&#x431;" horiz-adv-x="585" 
d="M422 228q0 28 -6 59t-21 56.5t-39.5 42t-61.5 16.5q-35 0 -60 -16t-39 -42q-13 -22 -20 -48.5t-7 -58.5q0 -30 7 -62.5t22.5 -60.5t39.5 -46t59 -18q34 0 58 15.5t39 40.5t22 57t7 64v1zM488 641q-21 -8 -54 -13.5t-60 -9.5q-60 -8 -104 -27.5t-72 -56.5
q-24 -31 -38.5 -73t-17.5 -80h4q25 51 72 80t104 29q50 0 91 -17.5t70.5 -50.5t46 -81t16.5 -108q0 -63 -17.5 -113.5t-50.5 -86t-79 -54.5t-103 -19q-68 0 -116.5 28t-79.5 75.5t-45.5 109.5t-14.5 131q0 95 23 170t71 130q38 48 92 73.5t129 36.5q33 5 72.5 11t66.5 14z
" />
    <glyph glyph-name="uni0432" unicode="&#x432;" horiz-adv-x="556" 
d="M190 47q17 -2 31.5 -2.5t34.5 -0.5q22 0 46 3.5t44.5 12.5t33.5 24.5t13 39.5q0 23 -11 38.5t-30.5 24.5t-46 13t-57.5 4h-58v-157zM191 279h57q25 0 48 3.5t40 12t27.5 22t10.5 33.5q0 33 -28.5 49.5t-89.5 16.5q-21 0 -35.5 -1t-29.5 -3v-133zM70 484q15 3 35.5 5
t45 3.5t51.5 2.5t53 1q33 0 74.5 -3.5t78 -17t62 -39.5t25.5 -70q0 -25 -9 -44.5t-23.5 -34t-33.5 -24t-40 -13.5v-2q57 -9 93.5 -40t36.5 -87q0 -35 -14 -60t-37.5 -42.5t-53.5 -27.5t-62 -15.5t-63.5 -7.5t-56.5 -2q-24 0 -48 1t-45.5 2t-39.5 2t-29 1v512z" />
    <glyph glyph-name="uni0433" unicode="&#x433;" horiz-adv-x="424" 
d="M407 490v-97h-214v-421h-123v518h337z" />
    <glyph glyph-name="uni0434" unicode="&#x434;" horiz-adv-x="592" 
d="M241 323q0 -43 -6.5 -85.5t-17.5 -81.5q-7 -25 -17 -48.5t-21 -43.5h209v334h-147v-75zM508 490v-429l54 -2l-6 -252h-94l-4 165h-344l-6 -165h-94l-4 251l45 3q17 25 30 52t21 55q14 46 20.5 93.5t6.5 97.5v131h375z" />
    <glyph glyph-name="uni0435" unicode="&#x435;" horiz-adv-x="546" 
d="M155 198q1 -38 15 -65t36 -44.5t51 -26t61 -8.5q48 0 81.5 7t62.5 17q5 -21 9.5 -42t9.5 -42q-32 -14 -77 -23.5t-103 -9.5q-62 0 -111 18.5t-83 53t-52 82.5t-18 107q0 55 16.5 105.5t48.5 89t79 61.5t108 23q63 0 105.5 -23.5t68 -60t36.5 -81t11 -85.5q0 -17 -1 -31
t-3 -22h-351zM393 284v3q0 19 -5 41.5t-17.5 42t-34.5 32.5t-55 13q-32 0 -54.5 -13t-37.5 -32.5t-23 -42.5t-11 -44h238z" />
    <glyph glyph-name="uni0436" unicode="&#x436;" horiz-adv-x="742" 
d="M146 490l149 -218h18v218h117v-218h17l148 218h139l-194 -232q52 -6 85.5 -41.5t53.5 -92.5q16 -39 30 -79t31 -73h-124q-12 22 -23 52.5t-23 65.5q-20 56 -51 78t-74 22h-15v-218h-117v218h-15q-48 0 -77.5 -22.5t-50.5 -77.5q-13 -37 -23.5 -66t-22.5 -52h-121
q18 34 32 73.5t28 78.5q21 57 54.5 92.5t85.5 41.5l-193 232h136z" />
    <glyph glyph-name="uni0437" unicode="&#x437;" horiz-adv-x="485" 
d="M118 279h59q55 0 86.5 20.5t31.5 49.5t-25.5 47t-70.5 18q-32 0 -65.5 -10t-61.5 -27l-27 74q42 26 91 37.5t97 11.5q32 0 66 -7t61.5 -23t45.5 -42t18 -64q0 -25 -10 -45t-26.5 -34.5t-37 -24t-40.5 -13.5v-3q26 -3 51 -12t44.5 -25t31 -38t11.5 -51q0 -44 -22 -74
t-56.5 -48.5t-77 -26.5t-82.5 -8q-49 0 -96.5 11.5t-85.5 33.5l28 80q28 -15 66 -25t76 -11q56 0 85.5 21t29.5 53q0 22 -10.5 36.5t-28.5 23.5t-42.5 12.5t-52.5 3.5h-60z" />
    <glyph glyph-name="uni0438" unicode="&#x438;" horiz-adv-x="610" 
d="M187 490v-192q0 -31 -0.5 -57.5t-1.5 -51.5t-2.5 -49.5t-2.5 -52.5h4q11 23 19.5 42.5t17 37.5t17.5 35.5t20 38.5l134 249h148v-518h-117v193q0 31 0.5 55.5t1.5 48.5t2 50.5t3 62.5h-3q-21 -47 -37 -80t-35 -71q-32 -59 -68 -126.5t-71 -132.5h-146v518h117z" />
    <glyph glyph-name="uni0439" unicode="&#x439;" horiz-adv-x="610" 
d="M244 702q2 -35 16.5 -57t43.5 -22q30 0 45 22t19 57h82q-4 -70 -43.5 -105t-105.5 -35q-35 0 -61 10.5t-43 29t-26 44.5t-10 56h83zM187 490v-192q0 -31 -0.5 -57.5t-1.5 -51.5t-2.5 -49.5t-2.5 -52.5h4q11 23 19.5 42.5t17 37.5t17.5 35.5t20 38.5l134 249h148v-518
h-117v193q0 31 0.5 55.5t1.5 48.5t2 50.5t3 62.5h-3q-21 -47 -37 -80t-35 -71q-32 -59 -68 -126.5t-71 -132.5h-146v518h117z" />
    <glyph glyph-name="uni043A" unicode="&#x43a;" horiz-adv-x="534" 
d="M195 490v-217h19l167 217h147l-211 -229q57 -8 93 -47t63 -104q12 -29 25.5 -66.5t31.5 -71.5h-127q-11 17 -22.5 45t-25.5 65q-23 55 -56 81.5t-87 26.5h-17v-218h-123v518h123z" />
    <glyph glyph-name="uni043B" unicode="&#x43b;" horiz-adv-x="557" 
d="M488 490v-518h-123v423h-150v-116q0 -104 -15 -171.5t-60 -105.5q-23 -19 -52.5 -29.5t-73.5 -10.5l-13 96q16 4 31 9.5t25 14.5q29 26 36.5 74t7.5 126v208h387z" />
    <glyph glyph-name="uni043C" unicode="&#x43c;" horiz-adv-x="717" 
d="M83 490h154l78 -233q4 -13 9.5 -30t11 -35t11 -37t10.5 -35h2q4 14 10.5 33.5t13.5 41.5t14.5 44.5t14.5 42.5l70 208h155l35 -518h-115l-11 230q-2 38 -4 87t-3 96h-3q-6 -21 -11.5 -38.5t-11.5 -36t-14 -41t-18 -52.5l-86 -240h-89l-79 235q-6 19 -12 41.5t-12.5 45.5
t-12.5 45t-11 40h-4q-1 -48 -3 -97t-4 -87l-11 -228h-111z" />
    <glyph glyph-name="uni043D" unicode="&#x43d;" horiz-adv-x="596" 
d="M193 490v-201h210v201h123v-518h-123v222h-210v-222h-123v518h123z" />
    <glyph glyph-name="uni043E" unicode="&#x43e;" horiz-adv-x="597" 
d="M299 50q29 0 53.5 13.5t42 37.5t27.5 57.5t10 74.5q0 31 -7.5 62.5t-23 57.5t-40.5 42.5t-61 16.5t-61.5 -16t-42 -41.5t-24 -58t-7.5 -65.5q0 -39 9.5 -72t26.5 -57.5t42 -38t55 -13.5h1zM295 -40q-54 0 -101 18t-81.5 52.5t-54.5 84.5t-20 113q0 64 20 114.5t55.5 85.5
t84 54t106.5 19q57 0 104 -19t80.5 -54t52 -84t18.5 -108q0 -72 -23 -124t-60 -85.5t-84.5 -50t-95.5 -16.5h-1z" />
    <glyph glyph-name="uni043F" unicode="&#x43f;" horiz-adv-x="592" 
d="M522 490v-518h-124v423h-205v-423h-123v518h452z" />
    <glyph glyph-name="uni0440" unicode="&#x440;" horiz-adv-x="619" 
d="M195 187q0 -10 0.5 -18.5t2.5 -17.5q9 -42 43 -69t78 -27q66 0 102 49t36 129q0 35 -8.5 66t-25.5 54.5t-42 37t-58 13.5q-43 0 -78 -27.5t-46 -73.5q-2 -8 -3 -16.5t-1 -17.5v-82zM72 318q0 51 -1 93t-3 79h108l6 -81h2q29 45 74 68.5t105 23.5q45 0 85 -18.5
t69.5 -52.5t46.5 -83t17 -109q0 -70 -20 -122.5t-53 -87t-75.5 -51.5t-87.5 -17q-49 0 -88 19.5t-60 52.5h-2v-232h-123v518z" />
    <glyph glyph-name="uni0441" unicode="&#x441;" horiz-adv-x="478" 
d="M450 -11q-20 -10 -59 -19t-89 -9q-60 0 -108.5 19t-83 53.5t-53.5 84t-19 109.5q0 58 19.5 108t56.5 87t90 58t120 21q38 0 72 -6.5t56 -17.5l-24 -93q-16 8 -40.5 14.5t-60.5 6.5q-39 0 -69.5 -13.5t-51.5 -36.5t-31.5 -55t-10.5 -68q0 -41 12.5 -73.5t34 -55t51.5 -34
t65 -11.5t60.5 7t44.5 15z" />
    <glyph glyph-name="uni0442" unicode="&#x442;" horiz-adv-x="460" 
d="M448 490v-95h-156v-423h-123v423h-156v95h435z" />
    <glyph glyph-name="uni0443" unicode="&#x443;" horiz-adv-x="526" 
d="M144 501l97 -272q8 -24 16.5 -50t14.5 -47h3q5 21 13 47t16 51l86 271h130l-132 -342q-26 -69 -46.5 -115.5t-38.5 -78.5t-36.5 -54t-40.5 -42q-14 -13 -32.5 -24t-37.5 -20t-37.5 -15.5t-33.5 -9.5l-39 86q17 5 38 14t41 23q18 13 38.5 29.5t34.5 45.5q3 7 5.5 12.5
t2.5 9.5q0 8 -7 25l-190 456h135z" />
    <glyph glyph-name="uni0444" unicode="&#x444;" horiz-adv-x="719" 
d="M414 64q35 6 62 22.5t45.5 41.5t28 56t9.5 67q0 72 -37.5 122.5t-107.5 63.5v-373zM304 437q-35 -6 -62 -22.5t-45.5 -41.5t-28 -56t-9.5 -67t9.5 -67.5t28.5 -56t45.5 -40.5t61.5 -22v373zM416 714v-51.5t-0.5 -46t-0.5 -46v-51.5q56 -5 104.5 -24.5t84.5 -53.5
t56.5 -81.5t20.5 -108.5q0 -64 -21 -112.5t-57.5 -82t-85 -52t-102.5 -22.5q0 -50 0.5 -91t0.5 -91h-115q0 50 0.5 91t0.5 91q-56 4 -104 23t-84 52.5t-56.5 81t-20.5 108.5q0 64 21 112.5t57 82t84.5 52.5t102.5 24v52t-0.5 46.5t-0.5 46v51.5h115z" />
    <glyph glyph-name="uni0445" unicode="&#x445;" horiz-adv-x="519" 
d="M150 490l64 -101q13 -20 25 -40t23 -40h2q12 21 23.5 41.5t24.5 40.5l60 99h134l-174 -249l177 -269h-139l-66 106q-14 22 -25.5 43t-22.5 44h-3q-12 -23 -23.5 -44t-25.5 -43l-63 -106h-135l180 265l-173 253h137z" />
    <glyph glyph-name="uni0446" unicode="&#x446;" horiz-adv-x="604" 
d="M193 490v-423h204v423h123v-429l56 -2l-6 -252h-94l-4 165h-402v518h123z" />
    <glyph glyph-name="uni0447" unicode="&#x447;" horiz-adv-x="569" 
d="M187 490v-170q0 -48 21 -73.5t74 -25.5q26 0 51 8t42 21v240h123v-525h-123v203h-1q-26 -17 -63.5 -26.5t-73.5 -9.5q-77 0 -124.5 43t-47.5 132v183h122z" />
    <glyph glyph-name="uni0448" unicode="&#x448;" horiz-adv-x="820" 
d="M192 490v-423h157v423h123v-423h156v423h122v-518h-680v518h122z" />
    <glyph glyph-name="uni0449" unicode="&#x449;" horiz-adv-x="834" 
d="M192 490v-423h157v423h123v-423h156v423h122v-429l55 -2l-6 -252h-94l-4 165h-631v518h122z" />
    <glyph glyph-name="uni044A" unicode="&#x44a;" horiz-adv-x="649" 
d="M289 55q13 -1 27.5 -2t36.5 -1q25 0 50 4.5t44 16t31 29.5t12 45q0 29 -13 48t-33.5 30t-46 15.5t-50.5 4.5q-30 0 -58 -6v-184zM290 490v-165q18 2 40 3.5t48 1.5q42 0 83.5 -9t75.5 -29.5t55 -55t21 -85.5q0 -44 -16.5 -74.5t-44.5 -51.5q-23 -18 -51 -29t-58.5 -17.5
t-61.5 -9t-60 -2.5q-42 0 -81 2t-73 5v421h-150v95h273z" />
    <glyph glyph-name="uni044B" unicode="&#x44b;" horiz-adv-x="759" 
d="M689 490v-518h-123v518h123zM192 55q25 -3 58 -3q24 0 47.5 5t42 16.5t30 30t11.5 45.5t-11 45t-29 29.5t-40.5 16t-44.5 4.5q-20 0 -35 -2t-29 -4v-183zM193 490v-167q15 3 36 5t47 2q42 0 83.5 -9.5t73.5 -30.5t52 -54.5t20 -82.5q0 -45 -17.5 -75.5t-44.5 -52.5
q-23 -18 -50 -29t-55.5 -17.5t-57.5 -9t-56 -2.5q-42 0 -81 2.5t-73 4.5v516h123z" />
    <glyph glyph-name="uni044C" unicode="&#x44c;" horiz-adv-x="556" 
d="M193 55q24 -3 62 -3q23 0 48 4.5t46 15.5t34.5 29.5t13.5 46.5q0 30 -14 48.5t-35.5 29.5t-47 15t-48.5 4q-32 0 -59 -6v-184zM194 490v-167q16 4 39 5.5t44 1.5q44 0 88 -8.5t78.5 -28.5t56 -54t21.5 -86q0 -45 -17.5 -75.5t-45.5 -52.5q-23 -18 -51.5 -29t-59.5 -17.5
t-62.5 -9t-60.5 -2.5q-42 0 -80.5 2t-73.5 5v516h124z" />
    <glyph glyph-name="uni044D" unicode="&#x44d;" horiz-adv-x="504" 
d="M95 274h246q-4 28 -15.5 53t-31 43.5t-48.5 29t-67 10.5q-39 0 -69 -9t-50 -19l-25 80q35 19 79 29t86 10q56 0 104.5 -17t84.5 -52q35 -35 55.5 -85.5t20.5 -116.5q0 -59 -19 -108.5t-55.5 -85.5t-89 -56t-119.5 -20q-43 0 -83 9t-71 26l20 86q17 -8 49.5 -17t75.5 -9
q69 0 113.5 37t52.5 102h-244v80z" />
    <glyph glyph-name="uni044E" unicode="&#x44e;" horiz-adv-x="781" 
d="M505 50q30 0 51.5 15.5t35.5 41t21 58.5t7 68q0 33 -7 65.5t-21 57.5t-35.5 40.5t-51.5 15.5t-52 -15.5t-37 -41t-22 -58.5t-7 -68t7 -67.5t21.5 -57t36.5 -39.5t52 -15h1zM192 490v-207h80q7 49 27 89.5t50.5 69t70.5 44t88 15.5q52 0 95.5 -19t74 -54t47.5 -83.5
t17 -108.5q0 -66 -19 -117t-52 -86.5t-76.5 -54t-92.5 -18.5q-47 0 -87.5 16t-71 46t-50 72.5t-24.5 96.5h-77v-219h-122v518h122z" />
    <glyph glyph-name="uni044F" unicode="&#x44f;" horiz-adv-x="555" 
d="M363 414q-15 2 -30 3t-38 1q-22 0 -43.5 -4t-39 -13t-28 -24.5t-10.5 -38.5q0 -21 11.5 -36.5t29.5 -25.5t39 -14.5t40 -4.5h40t29 1v156zM485 -28h-122v208h-54q-27 0 -47 -9t-34 -24q-13 -11 -22 -26.5t-16.5 -33.5t-13.5 -36.5t-13 -35.5q-5 -11 -10 -21.5t-11 -21.5
h-131q17 25 32 59q7 17 14.5 37.5t16.5 41t20 39t26 32.5q24 24 62 33v3q-24 2 -48 11t-43.5 25t-31.5 39.5t-12 53.5q0 44 21.5 72.5t55.5 45.5q32 17 80 25t101 8q52 0 98.5 -3.5t81.5 -8.5v-513z" />
    <glyph glyph-name="uni0451" unicode="&#x451;" horiz-adv-x="546" 
d="M155 198q1 -38 15 -65t36 -44.5t51 -26t61 -8.5q48 0 81.5 7t62.5 17q5 -21 9.5 -42t9.5 -42q-32 -14 -77 -23.5t-103 -9.5q-62 0 -111 18.5t-83 53t-52 82.5t-18 107q0 55 16.5 105.5t48.5 89t79 61.5t108 23q63 0 105.5 -23.5t68 -60t36.5 -81t11 -85.5q0 -17 -1 -31
t-3 -22h-351zM393 284v3q0 19 -5 41.5t-17.5 42t-34.5 32.5t-55 13q-32 0 -54.5 -13t-37.5 -32.5t-23 -42.5t-11 -44h238zM394 573q-26 0 -44 18.5t-18 45.5q0 26 18.5 43.5t45.5 17.5q26 0 43.5 -17.5t17.5 -43.5q0 -27 -17.5 -45.5t-43.5 -18.5h-2zM186 573
q-27 0 -44.5 18.5t-17.5 45.5q0 26 18 43.5t47 17.5q25 0 42 -17.5t17 -43.5q0 -27 -17 -45.5t-44 -18.5h-1z" />
    <glyph glyph-name="uni2010" unicode="&#x2010;" horiz-adv-x="438" 
d="M414 272h-390v79h390v-79z" />
    <glyph glyph-name="emdash" unicode="&#x2014;" horiz-adv-x="864" 
d="M860 280h-856v71h856v-71z" />
    <glyph glyph-name="emdash" unicode="&#x2015;" horiz-adv-x="864" 
d="M860 280h-856v71h856v-71z" />
    <glyph glyph-name="uni2016" unicode="&#x2016;" horiz-adv-x="900" 
d="M401 -176h-73v954h73v-954zM572 -176h-74v954h74v-954z" />
    <glyph glyph-name="quoteleft" unicode="&#x2018;" horiz-adv-x="229" 
d="M198 513h-142v94q0 72 33.5 116.5t95.5 61.5l22 -54q-65 -24 -69 -86h60v-132z" />
    <glyph glyph-name="quoteright" unicode="&#x2019;" horiz-adv-x="229" 
d="M31 758h142v-94q0 -72 -33.5 -116.5t-95.5 -61.5l-22 54q65 24 69 86h-60v132z" />
    <glyph glyph-name="quotedblleft" unicode="&#x201c;" horiz-adv-x="415" 
d="M195 513h-139v94q0 72 33.5 116.5t95.5 61.5l22 -54q-65 -24 -69 -86h57v-132zM386 513h-139v94q0 72 33.5 116.5t95.5 61.5l22 -54q-65 -24 -69 -86h57v-132z" />
    <glyph glyph-name="quotedblright" unicode="&#x201d;" horiz-adv-x="415" 
d="M220 758h139v-94q0 -72 -33.5 -116.5t-95.5 -61.5l-22 54q65 24 69 86h-57v132zM29 758h139v-94q0 -72 -33.5 -116.5t-94.5 -61.5l-23 54q66 24 69 86h-57v132z" />
    <glyph glyph-name="dagger" unicode="&#x2020;" horiz-adv-x="505" 
d="M199 406h-166v99h166v203h108v-203h165v-99h-165v-508h-108v508z" />
    <glyph glyph-name="daggerdbl" unicode="&#x2021;" horiz-adv-x="511" 
d="M36 318h166v88h-166v99h166v203h108v-203h164v-99h-164v-88h164v-98h-164v-322h-108v322h-166v98z" />
    <glyph glyph-name="bullet" unicode="&#x2022;" horiz-adv-x="920" 
d="M604 305q0 -29 -11.5 -55t-31 -45t-45.5 -30t-55 -11t-55 11t-45.5 30t-31 45t-11.5 55t11.5 55t31 45.5t45.5 30.5t55 11t55 -11t45.5 -30.5t31 -45.5t11.5 -55z" />
    <glyph glyph-name="twodotenleader" unicode="&#x2025;" horiz-adv-x="850" 
d="M547 379h124v-123h-124v123zM179 379h124v-123h-124v123z" />
    <glyph glyph-name="uni22EF" unicode="&#x2026;" horiz-adv-x="920" 
d="M400 380h123v-123h-123v123zM703 380h125v-123h-125v123zM91 380h125v-123h-125v123z" />
    <glyph glyph-name="uni22EF" unicode="&#x22ef;" horiz-adv-x="920" 
d="M400 380h123v-123h-123v123zM703 380h125v-123h-125v123zM91 380h125v-123h-125v123z" />
    <glyph glyph-name="perthousand" unicode="&#x2030;" horiz-adv-x="1195" 
d="M577 715h122l-436 -775h-123zM366 495q0 -48 -12 -87t-34 -66.5t-51.5 -42t-63.5 -14.5t-63.5 14.5t-51 42t-33.5 66.5t-12 87q0 49 12 88t33.5 66.5t51 42t63.5 14.5t63.5 -14.5t51.5 -42t34 -66.5t12 -88zM259 495q0 116 -54 116q-53 0 -53 -116q0 -115 53 -115
q54 0 54 115zM800 165q0 -48 -12 -87t-33.5 -66.5t-51 -42t-63.5 -14.5q-35 0 -64 14.5t-51 42t-34 66.5t-12 87q0 49 12 88t34 66.5t51 42t64 14.5q34 0 63.5 -14.5t51 -42t33.5 -66.5t12 -88zM693 165q0 116 -53 116q-54 0 -54 -116q0 -115 54 -115q53 0 53 115zM1151 165
q0 -48 -12 -87t-34 -66.5t-51.5 -42t-63.5 -14.5q-35 0 -64 14.5t-51 42t-34 66.5t-12 87q0 49 12 88t34 66.5t51 42t64 14.5q34 0 63.5 -14.5t51.5 -42t34 -66.5t12 -88zM1043 165q0 116 -53 116t-53 -116q0 -115 53 -115t53 115z" />
    <glyph glyph-name="minute" unicode="&#x2032;" horiz-adv-x="459" 
d="M196 741l131 1l-133 -278h-77z" />
    <glyph glyph-name="second" unicode="&#x2033;" horiz-adv-x="515" 
d="M139 741h130l-131 -277h-77zM318 741h132l-132 -277h-77z" />
    <glyph glyph-name="uni203B" unicode="&#x203b;" horiz-adv-x="920" 
d="M523 299l331 -315q-17 -17 -33.5 -33t-33.5 -32l-325 320q-81 -81 -162 -160.5t-163 -159.5l-67 65q84 78 166 157t165 158q-82 80 -164 158.5t-165 157.5l62 66q82 -81 163.5 -161.5t162.5 -161.5q83 81 165 161.5t164 161.5l62 -66zM247 298q0 -17 -7 -32t-19 -26.5
t-28.5 -18.5t-34.5 -7q-17 0 -33 7t-28.5 18.5t-20 26.5t-7.5 32q0 18 7.5 33.5t19.5 27t28 18.5t33 7q18 0 34 -7t28.5 -18.5t20 -27t7.5 -33.5zM549 602q0 -17 -7 -32t-19 -26.5t-28 -18.5t-34 -7t-34 7t-28 18.5t-19.5 26.5t-7.5 32q0 18 7 33.5t19 27t28 18t34 6.5
t34.5 -6.5t28.5 -18t19 -27t7 -33.5zM871 298q0 -17 -7 -32t-19 -26.5t-28 -18t-34 -6.5q-17 0 -33 6.5t-28 18t-19.5 26.5t-7.5 32q0 18 7 33.5t19 27.5t27.5 18.5t32.5 6.5q37 0 63.5 -25t26.5 -61zM548 -15q0 -34 -25 -58t-62 -24q-18 0 -34 6.5t-28 17.5t-19 26t-7 32
q0 35 25.5 59.5t61.5 24.5q18 0 34 -6.5t28 -18t19 -26.5t7 -33z" />
    <glyph glyph-name="uniFFE3" unicode="&#x203e;" horiz-adv-x="920" 
d="M256 684v59h403v-59h-403z" />
    <glyph glyph-name="uniFFE3" unicode="&#xffe3;" horiz-adv-x="920" 
d="M256 684v59h403v-59h-403z" />
    <glyph glyph-name="uni204E" unicode="&#x204e;" horiz-adv-x="920" 
d="M494 365l81 68l53 -89l-101 -38l101 -38l-51 -89l-83 67l18 -105h-105l18 105l-81 -67l-53 89l101 38l-101 38l51 89l83 -68l-18 106h105z" />
    <glyph glyph-name="uni2074" unicode="&#x2074;" horiz-adv-x="354" 
d="M199 418v97l-23 -28q-11 -17 -23.5 -34.5t-23.5 -34.5h70zM197 340h-182v60l198 278h78v-260h57v-78h-57v-78h-94v78z" />
    <glyph glyph-name="uni207F" unicode="&#x207f;" horiz-adv-x="365" 
d="M129 342h-96v330h90q0 -5 0.5 -8.5t0.5 -8.5q17 12 36 18t36 6q28 0 53 -8.5t44 -26t29.5 -44.5t10.5 -65v-193h-94v191q0 38 -14 51.5t-37 13.5q-21 0 -40 -16.5t-19 -45.5v-194z" />
    <glyph glyph-name="uni2081" unicode="&#x2081;" horiz-adv-x="249" 
d="M86 206l-65 -13v74l106 31h55v-415h-96v323z" />
    <glyph glyph-name="uni2082" unicode="&#x2082;" horiz-adv-x="333" 
d="M24 -61l118 127q30 29 52.5 56.5t22.5 52.5q0 31 -20.5 39.5t-53.5 8.5q-20 0 -46.5 -7.5t-45.5 -18.5l-20 77q26 11 59 20.5t69 9.5q72 0 112 -33t40 -94q0 -20 -7.5 -38.5t-19.5 -37t-27 -36t-30 -33.5l-60 -68h148v-82h-291v57z" />
    <glyph glyph-name="uni2083" unicode="&#x2083;" horiz-adv-x="332" 
d="M145 -122q-37 0 -72.5 8.5t-56.5 20.5l15 78q23 -11 52.5 -19.5t49.5 -8.5q83 0 83 50q0 26 -22 37.5t-61 11.5h-50v81h48q34 0 54 13t20 35t-17.5 31.5t-45.5 9.5q-23 0 -49 -8.5t-43 -16.5l-19 73q12 6 27.5 11.5t32.5 9.5t35 6.5t33 2.5q63 0 101 -29t38 -81
q0 -28 -12.5 -51t-29.5 -37q29 -12 43.5 -35.5t14.5 -65.5q0 -59 -45.5 -93t-123.5 -34z" />
    <glyph glyph-name="uni2084" unicode="&#x2084;" horiz-adv-x="354" 
d="M199 38v97q-19 -20 -37 -46t-33 -51h70zM197 -40h-182v60l198 278h78v-260h57v-78h-57v-77h-94v77z" />
    <glyph glyph-name="uni20A9" unicode="&#x20a9;" horiz-adv-x="920" 
d="M27 412h74l-70 281h134l56 -281h106l62 281h128l62 -281h107l56 281h130l-70 -281h74v-89h-96l-88 -358h-118l-78 358h-88l-77 -358h-119l-89 358h-96v89zM635 157l33 166h-70zM272 157l36 166h-69zM427 412h50l-25 114z" />
    <glyph glyph-name="uni2103" unicode="&#x2103;" horiz-adv-x="830" 
d="M612 -44q-168 0 -253.5 89.5t-85.5 278.5q0 187 85 277t254 90q61 0 109.5 -11.5t75.5 -25.5l-28 -97q-22 8 -41 13t-37.5 7.5t-37.5 3.5t-40 1q-62 0 -101.5 -17t-63 -50t-32.5 -81t-9 -110q0 -63 9 -111t32 -81t63 -50t102 -17q47 0 86.5 4.5t84.5 21.5l26 -97
q-13 -7 -33.5 -14t-46.5 -12t-56 -8.5t-62 -3.5zM97 607q0 -18 11.5 -29.5t29.5 -11.5t29.5 11.5t11.5 29.5t-11.5 29.5t-29.5 11.5t-29.5 -11.5t-11.5 -29.5zM14 607q0 25 9.5 46.5t26 36.5t39 23.5t49.5 8.5t49.5 -8.5t39 -23.5t25.5 -36.5t9 -46.5q0 -26 -9 -47
t-25.5 -36t-39 -23.5t-49.5 -8.5t-49.5 8.5t-39 23.5t-26 36t-9.5 47z" />
    <glyph glyph-name="uni2109" unicode="&#x2109;" horiz-adv-x="835" 
d="M455 -35h-127v714h457v-107h-330v-193h292v-107h-292v-307zM97 607q0 -18 11.5 -29.5t29.5 -11.5t29.5 11.5t11.5 29.5t-11.5 29.5t-29.5 11.5t-29.5 -11.5t-11.5 -29.5zM14 607q0 25 9.5 46.5t26 36.5t39 23.5t49.5 8.5t49.5 -8.5t39 -23.5t25.5 -36.5t9 -46.5
q0 -26 -9 -47t-25.5 -36t-39 -23.5t-49.5 -8.5t-49.5 8.5t-39 23.5t-26 36t-9.5 47z" />
    <glyph glyph-name="uni2113" unicode="&#x2113;" horiz-adv-x="494" 
d="M373 68q-30 -65 -64 -91.5t-79 -26.5h-1q-71 3 -100 74q-11 -9 -27.5 -20t-33.5 -22q-11 18 -22.5 36.5t-23.5 36.5q26 16 50 33t40 31q-2 24 -2 48v47q0 106 13 193.5t37.5 150.5t61.5 98t85 35q64 0 90 -45t26 -119q0 -47 -15.5 -105t-43.5 -118.5t-67 -118.5t-87 -105
q6 -42 30 -42q17 0 35 21t30 48zM234 460q-13 -59 -20 -123t-9 -127q25 34 46.5 73.5t37 79.5t24.5 79t9 73q0 42 -6 58t-16 16q-16 0 -34.5 -36t-31.5 -93z" />
    <glyph glyph-name="uni2116" unicode="&#x2116;" horiz-adv-x="1225" 
d="M85 693h115l216 -429v429h117v-728h-96l-235 473v-473h-117v728zM810 57q45 0 72 43t27 137t-27 137.5t-72 43.5q-44 0 -72.5 -44t-28.5 -137t28.5 -136.5t72.5 -43.5zM810 -45q-44 0 -83.5 18t-69 54t-46.5 88.5t-17 121.5t17 122t46.5 89t69 54t83.5 18t83 -18t68 -54
t46 -89t17 -122t-17 -121.5t-46 -88.5t-68 -54t-83 -18zM1048 104h112v-139h-112v139z" />
    <glyph glyph-name="uni2121" unicode="&#x2121;" horiz-adv-x="1286" 
d="M187 578h-162v115h453v-115h-161v-613h-130v613zM652 -45q-112 0 -173 72.5t-61 209.5q0 66 15.5 118.5t44 89t68.5 56t90 19.5q99 0 148.5 -74.5t49.5 -208.5v-51h-292q3 -36 13 -60.5t26.5 -39.5t38 -21.5t46.5 -6.5q37 0 72.5 8.5t68.5 28.5l21 -100
q-32 -19 -80 -29.5t-96 -10.5zM630 419q-29 0 -56.5 -33.5t-31.5 -106.5h168q-4 74 -27.5 107t-52.5 33zM911 734h120v-769h-120v769zM1110 104h111v-139h-111v139z" />
    <glyph glyph-name="trademark" unicode="&#x2122;" horiz-adv-x="802" 
d="M353 707h109l87 -218l85 218h108v-354h-86v207l-70 -182h-77l-71 182v-207h-85v354zM128 627h-103v80h291v-80h-98v-274h-90v274z" />
    <glyph glyph-name="Omega" unicode="&#x2126;" horiz-adv-x="724" 
d="M554 85h144v-92h-278v73q28 20 54 49t45.5 65t31 79t11.5 92q0 46 -13 89.5t-38 78t-61.5 55.5t-84.5 21t-85.5 -20t-63.5 -54t-40 -78.5t-14 -92.5q0 -45 11.5 -88.5t31 -81t45 -67t54.5 -47.5v-73h-280v92h143v3q-24 20 -47 47.5t-41.5 62t-29.5 76t-11 89.5
q0 71 24.5 131t68.5 104t104.5 69t132.5 25q74 0 133 -25.5t99.5 -69.5t62 -102t21.5 -122q0 -51 -11.5 -94.5t-30 -79.5t-42 -63.5t-46.5 -47.5v-3z" />
    <glyph glyph-name="uni212B" unicode="&#x212b;" horiz-adv-x="634" 
d="M194 656q0 25 9 46.5t25.5 36.5t39 23.5t49.5 8.5t49.5 -8.5t39 -23.5t26 -36.5t9.5 -46.5q0 -35 -17 -61t-46 -40l231 -590h-135l-56 158h-207l-56 -158h-130l231 590q-29 14 -45.5 40t-16.5 61zM248 226h133l-66 187zM276 656q0 -19 11.5 -30t29.5 -11t29.5 11t11.5 30
q0 18 -11.5 29t-29.5 11t-29.5 -11t-11.5 -29z" />
    <glyph glyph-name="onethird" unicode="&#x2153;" horiz-adv-x="874" 
d="M556 705h124l-442 -775h-125zM641 -73q-40 0 -79 10t-62 23q5 21 9 40t9 39q11 -5 25 -10t29 -8.5t29 -6t26 -2.5q96 0 96 56q0 30 -25 43t-70 13h-55v88h51q38 0 61 13.5t25 37.5q0 -5 2 -11v9q0 29 -20 40t-56 11q-26 0 -49.5 -8t-44.5 -17q-2 1 -3 2t-3 1l-19 73
q12 6 29.5 12t36 11.5t37.5 8.5t36 3q69 0 111 -31.5t42 -89.5q0 -33 -14.5 -58t-34.5 -41q29 -14 47 -40.5t18 -71.5q0 -64 -49.5 -101.5t-134.5 -37.5zM123 593q-17 -4 -38.5 -9t-35.5 -7v80l117 33h57v-459h-100v362z" />
    <glyph glyph-name="twothirds" unicode="&#x2154;" horiz-adv-x="995" 
d="M50 295l133 138q33 34 57.5 63.5t24.5 58.5q0 18 -6 29t-17 16.5t-26.5 7t-34.5 1.5q-24 0 -51.5 -7t-49.5 -18l-21 80q26 11 61.5 22.5t77.5 11.5q78 0 122 -37.5t44 -103.5q0 -23 -8 -43.5t-21 -40t-29.5 -38.5t-33.5 -38l-69 -78h167v-88h-320v64zM678 705h124
l-442 -775h-125zM695 212h51q39 0 62.5 14t23.5 40t-20 36.5t-54 10.5q-23 0 -45 -6t-55 -18l-19 75q12 6 29.5 12t36 11.5t37.5 8.5t36 3q69 0 111 -32t42 -90q0 -32 -15 -57.5t-35 -41.5q29 -14 47.5 -40.5t18.5 -71.5q0 -65 -49.5 -102.5t-134.5 -37.5q-40 0 -79.5 10.5
t-62.5 23.5l19 80q11 -5 25 -10t29 -9t29 -6.5t26 -2.5q96 0 96 56q0 30 -25 43.5t-70 13.5h-55v87z" />
    <glyph glyph-name="oneeighth" unicode="&#x215b;" horiz-adv-x="892" 
d="M607 274q0 -21 19.5 -35t45.5 -28q22 13 37.5 29t15.5 32q0 20 -15 31t-44 11q-27 0 -43 -10t-16 -30zM649 133q-23 -14 -43 -29t-20 -40q0 -29 21.5 -41.5t58.5 -12.5q32 0 53.5 11.5t21.5 34.5q0 3 3 9t8 10q-17 16 -44 29.5t-59 28.5zM666 -73q-81 0 -128 34.5
t-47 93.5q0 37 23.5 65.5t56.5 47.5q-26 16 -45.5 42t-19.5 61q0 27 11.5 50t32.5 40t50.5 27t65.5 10q72 0 114 -33.5t42 -88.5q0 -32 -19 -57.5t-46 -44.5q33 -17 59 -44t26 -69q0 -29 -12.5 -53.5t-35.5 -42.5t-55.5 -28t-72.5 -10zM556 705h124l-442 -775h-125zM123 593
q-17 -4 -38.5 -9t-35.5 -7v80l117 33h57v-459h-100v362z" />
    <glyph glyph-name="threeeighths" unicode="&#x215c;" horiz-adv-x="961" 
d="M580 271q0 27 11.5 50t32.5 40t50.5 27t65.5 10q72 0 113.5 -33.5t41.5 -88.5q0 -32 -19 -57.5t-45 -44.5q16 -8 31 -19t27 -25t19 -31t7 -38q0 -29 -12.5 -53.5t-35.5 -42.5t-55 -28t-72 -10q-81 0 -128 35t-47 93q0 37 23.5 65.5t56.5 47.5q-26 16 -45.5 42t-19.5 61z
M629 705h124l-442 -775h-125zM190 225q-39 0 -78.5 10.5t-62.5 23.5q5 20 9 40t9 40q22 -11 54 -19.5t56 -8.5q47 0 71.5 13.5t24.5 42.5q0 31 -25 44t-70 13h-55v87h51q37 0 60.5 14t25.5 38q0 -5 2 -11v8q0 29 -19.5 40.5t-56.5 11.5q-26 0 -49.5 -8t-44.5 -17
q-4 0 -7.5 9.5t-7 22t-6.5 25t-4 19.5q12 6 29.5 12t36 11.5t37.5 8.5t36 3q69 0 110.5 -32t41.5 -89q0 -33 -14.5 -58.5t-34.5 -41.5q29 -14 47.5 -40.5t18.5 -71.5q0 -64 -50.5 -102t-134.5 -38zM735 128q-31 -14 -53.5 -32.5t-22.5 -36.5q0 -26 24 -37.5t57 -11.5
q32 0 53.5 11.5t21.5 34.5q0 13 -7 23t-18.5 18.5t-25.5 16t-29 14.5zM740 314q-28 0 -44 -10t-16 -30q0 -21 19.5 -35t46.5 -28q21 13 37 29t16 32q0 20 -15 31t-44 11z" />
    <glyph glyph-name="fiveeighths" unicode="&#x215d;" horiz-adv-x="961" 
d="M190 225q-40 0 -79.5 10.5t-62.5 23.5q5 20 9.5 40t9.5 40q22 -11 54 -19.5t57 -8.5q45 0 69.5 18.5t24.5 50.5q0 34 -26 47t-66 13q-20 0 -46 -3t-56 -8l17 261h256v-87h-166q-2 -20 -4 -39t-4 -42q5 1 10.5 1h13.5q38 0 70 -7.5t55 -25t35.5 -45t12.5 -66.5
q0 -31 -13 -59t-37 -49t-58 -33.5t-76 -12.5zM736 314q-28 0 -44 -10t-16 -30q0 -21 19.5 -35t46.5 -28q21 13 37 29t16 32q0 20 -15 31t-44 11zM731 128q-31 -14 -53.5 -32.5t-22.5 -36.5q0 -26 24 -37.5t57 -11.5q32 0 53.5 11.5t21.5 34.5q0 13 -7 23t-18.5 18.5
t-25.5 16t-29 14.5zM576 271q0 27 11.5 50t32.5 40t50.5 27t65.5 10q72 0 113.5 -33.5t41.5 -88.5q0 -32 -19 -57.5t-45 -44.5q16 -8 31 -19t27 -25t19 -31t7 -38q0 -29 -12.5 -53.5t-35.5 -42.5t-55 -28t-72 -10q-81 0 -128 35t-47 93q0 37 23.5 65.5t56.5 47.5
q-26 16 -45.5 42t-19.5 61zM625 705h124l-442 -775h-125z" />
    <glyph glyph-name="seveneighths" unicode="&#x215e;" horiz-adv-x="923" 
d="M99 231q39 93 78.5 185.5t79.5 185.5h-197v88h308v-61q-41 -100 -81 -198.5t-80 -199.5h-108zM691 314q-28 0 -44 -10t-16 -30q0 -21 19.5 -35t46.5 -28q21 13 37 29t16 32q0 20 -15 31t-44 11zM686 128q-31 -14 -53.5 -32.5t-22.5 -36.5q0 -26 24 -37.5t57 -11.5
q32 0 53.5 11.5t21.5 34.5q0 13 -7 23t-18.5 18.5t-25.5 16t-29 14.5zM531 271q0 27 11.5 50t32.5 40t50.5 27t65.5 10q72 0 113.5 -33.5t41.5 -88.5q0 -32 -19 -57.5t-45 -44.5q16 -8 31 -19t27 -25t19 -31t7 -38q0 -29 -12.5 -53.5t-35.5 -42.5t-55 -28t-72 -10
q-81 0 -128 35t-47 93q0 37 23.5 65.5t56.5 47.5q-26 16 -45.5 42t-19.5 61zM580 705h124l-442 -775h-125z" />
    <glyph glyph-name="uni2160" unicode="&#x2160;" horiz-adv-x="921" 
d="M523 698v-732h-128v732h128z" />
    <glyph glyph-name="uni2161" unicode="&#x2161;" horiz-adv-x="921" 
d="M658 698v-732h-127v732h127zM387 698v-732h-127v732h127z" />
    <glyph glyph-name="uni2162" unicode="&#x2162;" horiz-adv-x="921" 
d="M743 698v-732h-122v732h122zM286 698v-732h-122v732h122zM509 698v-732h-121v732h121z" />
    <glyph glyph-name="uni2163" unicode="&#x2163;" horiz-adv-x="921" 
d="M242 697v-731h-121v731h121zM492 -34q-51 183 -101 365t-101 366h139q37 -152 75 -300.5t66 -302.5h2q11 68 26.5 136.5t32.5 134.5q21 84 42 166t43 166h136q-54 -184 -106 -366t-106 -365h-148z" />
    <glyph glyph-name="uni2164" unicode="&#x2164;" horiz-adv-x="921" 
d="M378 -34l-237 731h140q22 -76 46 -153.5t47.5 -154.5t44.5 -152t36 -146h2q15 71 36 145t46 150.5t51.5 154.5t51.5 156h136l-255 -731h-145z" />
    <glyph glyph-name="uni2165" unicode="&#x2165;" horiz-adv-x="921" 
d="M274 -34l-203 731h139q20 -85 41.5 -168t41.5 -168q16 -65 31 -133t26 -134h2q26 154 66 303t79 300h136l-212 -731h-147zM823 697v-731h-121v731h121z" />
    <glyph glyph-name="uni2166" unicode="&#x2166;" horiz-adv-x="921" 
d="M263 -34l-165 731h121q13 -74 28 -146.5t29 -146t27 -149.5t23 -157h4q5 68 17.5 137t24.5 133q16 83 30.5 164.5t29.5 164.5h119l-168 -731h-120zM901 697v-731h-113v731h113zM699 697v-731h-113v731h113z" />
    <glyph glyph-name="uni2167" unicode="&#x2167;" horiz-adv-x="921" 
d="M166 -34l-134 731h112l47 -328q7 -56 18 -127.5t16 -140.5h3q5 70 13 139t16 132q10 81 20 162.5t21 162.5h112l-131 -731h-113zM702 697v-731h-103v731h103zM857 697v-731h-102v731h102zM546 697v-731h-102v731h102z" />
    <glyph glyph-name="uni2168" unicode="&#x2168;" horiz-adv-x="921" 
d="M705 -34q-16 36 -33 73.5t-33 74t-31 71.5t-28 66h-2q-25 -64 -55.5 -138.5t-60.5 -146.5h-133q45 93 89.5 184.5t89.5 185.5l-172 361h133q31 -69 61.5 -137t56.5 -138h3q26 74 54 140t57 135h132q-44 -91 -88 -179.5t-88 -179.5q46 -94 91.5 -186.5t92.5 -185.5h-136z
M265 697v-731h-121v731h121z" />
    <glyph glyph-name="uni2169" unicode="&#x2169;" horiz-adv-x="921" 
d="M535 339q3 -5 19.5 -33t40.5 -68t51.5 -85.5t51 -85.5t40 -68.5t19.5 -32.5h-148l-81 148q-25 43 -41.5 75.5t-32.5 62.5h-2q-14 -30 -30 -62t-39 -76l-74 -148h-147q2 4 18.5 32t39.5 67.5t50 85t50 85t39.5 67l19.5 32.5l-209 363h147l83 -156q18 -35 32 -63t27 -59h3
q16 34 28.5 61t30.5 61l82 156h146q-3 -5 -19 -32t-39 -65t-49.5 -82.5t-49 -82.5t-39 -65.5t-18.5 -31.5z" />
    <glyph glyph-name="uni2170" unicode="&#x2170;" horiz-adv-x="921" 
d="M522 575h-127v120h127v-120zM396 -35v528h128v-528h-128z" />
    <glyph glyph-name="uni2171" unicode="&#x2171;" horiz-adv-x="921" 
d="M655 575h-126v120h126v-120zM387 575h-126v120h126v-120zM530 -34v527h126v-527h-126zM264 -34v527h126v-527h-126z" />
    <glyph glyph-name="uni2172" unicode="&#x2172;" horiz-adv-x="921" 
d="M740 575h-126v120h126v-120zM300 575h-125v120h125v-120zM521 575h-126v120h126v-120zM618 -34v527h122v-527h-122zM399 -34v527h121v-527h-121zM178 -34v527h122v-527h-122z" />
    <glyph glyph-name="uni2173" unicode="&#x2173;" horiz-adv-x="921" 
d="M488 493l72 -273q8 -32 16 -65.5t14 -67.5h3q18 102 45.5 203t53.5 203h131l-174 -527h-124l-174 527h137zM176 -34v527h122v-527h-122zM298 575h-126v120h126v-120z" />
    <glyph glyph-name="uni2174" unicode="&#x2174;" horiz-adv-x="921" 
d="M340 495q32 -102 67.5 -206t57.5 -200h4q8 41 22.5 90.5t31.5 102.5t35.5 107.5t35.5 105.5h134l-204 -527h-124q-51 132 -100 263t-99 264h139z" />
    <glyph glyph-name="uni2175" unicode="&#x2175;" horiz-adv-x="921" 
d="M236 493l72 -273q8 -32 16 -65.5t13 -67.5h3q18 101 45.5 203t54.5 203h131l-175 -527h-124l-172 527h136zM625 -34v527h121v-527h-121zM746 575h-126v120h126v-120z" />
    <glyph glyph-name="uni2176" unicode="&#x2176;" horiz-adv-x="921" 
d="M181 493q11 -51 21.5 -99.5t20 -97.5t18.5 -100.5t16 -108.5h2q18 109 37 206t39 200h117l-139 -527h-116l-141 527h125zM504 -34v527h113v-527h-113zM711 -34v527h113v-527h-113zM823 575h-115v120h115v-120zM618 575h-115v120h115v-120z" />
    <glyph glyph-name="uni2177" unicode="&#x2177;" horiz-adv-x="921" 
d="M158 493q8 -51 15 -98t13.5 -94.5t13 -99.5t14.5 -114h1q7 57 13.5 108t13 100.5t13.5 98t15 99.5h105l-113 -527h-101q-30 132 -59 263t-59 264h115zM412 -34v527h104v-527h-104zM578 -34v527h104v-527h-104zM744 -34v527h104v-527h-104zM683 575h-105v120h105v-120z
M515 575h-104v120h104v-120zM846 575h-104v120h104v-120z" />
    <glyph glyph-name="uni2178" unicode="&#x2178;" horiz-adv-x="921" 
d="M496 493q23 -47 47 -94.5t44 -95.5h2q22 50 44.5 96t45.5 94h132l-150 -257q38 -68 75.5 -135.5t75.5 -134.5h-139q-26 47 -49.5 93.5t-43.5 100.5h-3q-21 -52 -44 -99.5t-47 -94.5h-132l150 266q-36 66 -73 130.5t-74 130.5h139zM168 -34v527h122v-527h-122zM289 575
h-120v120h120v-120z" />
    <glyph glyph-name="uni2179" unicode="&#x2179;" horiz-adv-x="921" 
d="M537 241l180 -273h-145l-66 107q-14 23 -25.5 44t-22.5 44h-3q-11 -24 -23 -44.5t-26 -43.5l-63 -107h-141l183 269l-15 22.5t-32 47.5t-40.5 59.5t-40.5 59.5t-32.5 47.5t-15.5 22.5h143q1 -2 10.5 -17.5t21 -33.5t21 -33.5t10.5 -17.5q14 -20 26.5 -41t23.5 -41h2
q12 22 24 43t25 41q1 2 10 17t19.5 33t19.5 33t10 17h140z" />
    <glyph glyph-name="arrowleft" unicode="&#x2190;" horiz-adv-x="920" 
d="M908 313h-715l77 -129l-15 -17l-214 177l214 177l15 -17l-77 -130h715v-61z" />
    <glyph glyph-name="arrowup" unicode="&#x2191;" horiz-adv-x="586" 
d="M263 -106v673l-130 -77l-17 15l177 214l177 -214l-17 -15l-130 77v-673h-60z" />
    <glyph glyph-name="arrowright" unicode="&#x2192;" horiz-adv-x="920" 
d="M17 374h729l-77 130l16 17l213 -177l-213 -177l-16 17l77 129h-729v61z" />
    <glyph glyph-name="arrowdown" unicode="&#x2193;" horiz-adv-x="586" 
d="M323 767v-646l130 76l17 -15l-177 -214l-177 214l17 15l130 -76v646h60z" />
    <glyph glyph-name="arrowboth" unicode="&#x2194;" horiz-adv-x="920" 
d="M244 184l-16 -17l-214 177l214 177l16 -17l-78 -130h586l-77 130l16 17l213 -177l-213 -177l-16 17l77 129h-586z" />
    <glyph glyph-name="arrowupdn" unicode="&#x2195;" horiz-adv-x="586" 
d="M323 556v-424l129 74l17 -15l-176 -211l-176 211l17 15l129 -74v424l-129 -75l-17 15l176 211l176 -211l-17 -15z" />
    <glyph glyph-name="uni2196" unicode="&#x2196;" horiz-adv-x="805" 
d="M720 -17l-591 591l-37 -144l-24 -1l-25 273l273 -25l-1 -24l-144 -37l591 -590z" />
    <glyph glyph-name="uni2197" unicode="&#x2197;" horiz-adv-x="805" 
d="M43 26l591 590l-144 37l-1 24l273 25l-25 -273l-24 1l-37 144l-591 -591z" />
    <glyph glyph-name="uni2198" unicode="&#x2198;" horiz-adv-x="806" 
d="M85 704l591 -591l38 144l24 2l25 -274l-274 25l2 24l144 38l-592 590z" />
    <glyph glyph-name="uni2199" unicode="&#x2199;" horiz-adv-x="806" 
d="M763 662l-592 -590l144 -38l2 -24l-274 -25l25 274l24 -2l38 -144l591 591z" />
    <glyph glyph-name="arrowdblright" unicode="&#x21d2;" horiz-adv-x="921" 
d="M643 576l276 -277l-276 -279l-45 43l111 110h-708v63h769l65 63l-65 62h-769v63h707l-110 109z" />
    <glyph glyph-name="arrowdblboth" unicode="&#x21d4;" horiz-adv-x="921" 
d="M770 236l65 63l-65 62h-620l-65 -62l65 -63h620zM643 576l276 -277l-276 -279l-45 43l111 110h-498l111 -110l-45 -43l-277 279l277 277l45 -43l-110 -109h496l-110 109z" />
    <glyph glyph-name="universal" unicode="&#x2200;" horiz-adv-x="674" 
d="M149 693l64 -198h241l68 198h142l-262 -728h-128l-264 728h139zM418 387h-170l83 -255z" />
    <glyph glyph-name="partialdiff" unicode="&#x2202;" horiz-adv-x="550" 
d="M244 79q30 0 55 16t44 42.5t31 61t17 72.5q-6 16 -17 32t-26.5 28.5t-35.5 20t-44 7.5q-27 0 -51 -12t-41 -33t-27 -49.5t-10 -61.5q0 -59 30 -91.5t75 -32.5zM49 679q13 9 31.5 18.5t41.5 18t51.5 14t62.5 5.5q58 0 109.5 -24.5t90.5 -71t61.5 -114t22.5 -153.5
q0 -96 -23.5 -169t-63 -122t-92 -73.5t-109.5 -24.5q-54 0 -94 19.5t-66.5 50.5t-39 70t-12.5 79q0 52 16.5 97.5t46 79.5t70.5 53.5t90 19.5q31 0 57 -8t46 -20t34 -26.5t22 -28.5h1q1 6 1 13v13q0 57 -14 102.5t-38.5 77t-57 48t-69.5 16.5q-46 0 -80 -13t-60 -27z" />
    <glyph glyph-name="existential" unicode="&#x2203;" horiz-adv-x="611" 
d="M401 584h-366v109h495v-728h-473v109h344v191h-305v108h305v211z" />
    <glyph glyph-name="gradient" unicode="&#x2207;" horiz-adv-x="903" 
d="M668 504h-434l217 -345zM862 609l-411 -646l-411 646h822z" />
    <glyph glyph-name="element" unicode="&#x2208;" horiz-adv-x="920" 
d="M768 275h-600q11 -56 56.5 -92t134.5 -36h411v-90h-407q-76 0 -131 20.5t-91 56.5t-53.5 84t-17.5 102q0 51 16.5 96.5t52 79.5t90 54t130.5 20h411v-90h-411q-44 0 -76.5 -9t-55.5 -25t-37 -37t-20 -46h598v-88z" />
    <glyph glyph-name="suchthat" unicode="&#x220b;" horiz-adv-x="920" 
d="M113 364h596q-7 24 -21 45t-36.5 36.5t-54.5 24.5t-75 9h-410v91h410q76 0 130.5 -20t90 -54.5t52 -80t16.5 -95.5q0 -53 -17.5 -101t-53.5 -84t-91.5 -57t-131.5 -21h-405v91h410q87 0 132 36.5t57 90.5h-598v89z" />
    <glyph glyph-name="product" unicode="&#x220f;" horiz-adv-x="674" 
d="M572 586v-621h-120v621h-230v-621h-120v621h-99v104h667v-104h-98z" />
    <glyph glyph-name="summation" unicode="&#x2211;" horiz-adv-x="552" 
d="M5 -134v75q64 80 127 166t128 167l-241 332v84h509v-105h-348v-3l216 -303l-229 -303v-5h394v-105h-556z" />
    <glyph glyph-name="radical" unicode="&#x221a;" horiz-adv-x="570" 
d="M595 799q-58 -233 -116.5 -464t-117.5 -463h-80l-160 425l-76 -30l-25 58q40 17 79.5 32.5t78.5 32.5q35 -99 70 -196t68 -197h1q2 13 5.5 27.5t6.5 28.5q45 185 90.5 373t90.5 373h85z" />
    <glyph glyph-name="proportional" unicode="&#x221d;" horiz-adv-x="920" 
d="M305 194q29 0 52.5 11t42.5 28.5t33.5 39t26.5 42.5q-12 21 -26.5 42.5t-33.5 39t-42.5 29t-52.5 11.5q-54 0 -86 -33.5t-32 -87.5q0 -55 30.5 -88.5t87.5 -33.5zM771 407q-20 14 -41.5 23t-41.5 9q-51 0 -87 -33.5t-68 -90.5q31 -57 67.5 -90.5t87.5 -33.5q16 0 34.5 6
t38.5 17l35 -57q-27 -16 -55 -25t-53 -9q-33 0 -61 10t-52 27t-43.5 39.5t-35.5 48.5q-14 -22 -32.5 -44t-42.5 -40t-54 -29t-68 -11q-35 0 -68 11.5t-59 35.5t-42 60t-16 85q0 46 15.5 81.5t41.5 60t59 37t68 12.5q39 0 69.5 -11t54.5 -29t42 -40.5t32 -44.5
q16 25 35.5 47.5t43.5 39.5t52.5 27.5t60.5 10.5q29 0 59 -11.5t59 -31.5z" />
    <glyph glyph-name="infinity" unicode="&#x221e;" horiz-adv-x="733" 
d="M185 217q19 0 36.5 8t34 20.5t31.5 28.5t28 31q-11 13 -25 28.5t-30.5 29t-34.5 22.5t-37 9q-34 0 -57 -26.5t-23 -62.5q0 -38 22 -63t55 -25zM547 217q33 0 56.5 26t23.5 62q0 38 -22 63.5t-55 25.5q-19 0 -37 -8.5t-34.5 -21.5t-31.5 -28.5t-27 -29.5q14 -14 28 -29.5
t29.5 -29t32.5 -22t37 -8.5zM547 135q-28 0 -52.5 10t-46.5 26t-42 36t-38 40l-40 -40t-42.5 -36t-48.5 -26t-57 -10q-35 0 -63 12.5t-48.5 35t-31.5 54t-11 68.5q0 34 12 65t33 54.5t51 37t66 13.5q28 0 53 -10t47 -26.5t42 -36.5t38 -39q19 20 39 40t42.5 36t48 26
t57.5 10q34 0 62.5 -12.5t49 -35t31.5 -54t11 -68.5q0 -35 -12 -65.5t-33.5 -54t-51 -37t-65.5 -13.5z" />
    <glyph glyph-name="angle" unicode="&#x2220;" horiz-adv-x="920" 
d="M773 -6h-627v80l468 547l88 -72l-382 -444h453v-111z" />
    <glyph glyph-name="logicaland" unicode="&#x2227;" horiz-adv-x="920" 
d="M491 600l299 -578l-72 -35l-260 502q-61 -120 -128.5 -249.5t-129.5 -252.5l-72 35l299 578h64z" />
    <glyph glyph-name="logicalor" unicode="&#x2228;" horiz-adv-x="920" 
d="M718 610q18 -9 36 -17.5t36 -18.5l-299 -577h-64l-299 577l72 36l259 -503q63 119 130 248.5t129 254.5z" />
    <glyph glyph-name="intersection" unicode="&#x2229;" horiz-adv-x="656" 
d="M328 656q54 0 100 -17.5t80 -54t53 -92t19 -131.5v-406h-95v411q0 105 -43.5 153t-113.5 48t-114 -48t-44 -153v-411h-95v406q0 76 19.5 131.5t53 92t80 54t100.5 17.5z" />
    <glyph glyph-name="union" unicode="&#x222a;" horiz-adv-x="656" 
d="M169 654v-410q0 -53 12.5 -90.5t34 -61t49.5 -34.5t59 -11q35 0 64.5 11t51.5 35t34 61t12 90v410h95v-405q0 -76 -20.5 -131.5t-56 -91.5t-82.5 -53.5t-101 -17.5q-50 0 -95 16.5t-79 51.5t-53.5 89.5t-19.5 131.5v410h95z" />
    <glyph glyph-name="integral" unicode="&#x222b;" horiz-adv-x="335" 
d="M317 702q-8 2 -16.5 3t-17.5 1q-14 0 -26.5 -6.5t-20.5 -18.5q-14 -19 -20 -55t-6 -100q0 -114 6.5 -230.5t6.5 -238.5q0 -71 -11 -117.5t-28 -72.5q-21 -32 -50 -47t-63 -15q-19 0 -36.5 3.5t-25.5 8.5l13 74q8 -2 17.5 -4t20.5 -2q26 0 44 21q6 8 11.5 19.5t9 29t6 42
t2.5 58.5q0 124 -7 242.5t-7 236.5q0 80 14 127.5t43 79.5q20 21 46.5 31t55.5 10q16 0 29.5 -2t21.5 -6z" />
    <glyph glyph-name="uni222C" unicode="&#x222c;" horiz-adv-x="593" 
d="M559 701q-8 2 -16.5 3t-17.5 1q-31 0 -47 -25q-14 -19 -20 -55t-6 -100q0 -114 6.5 -230t6.5 -238q0 -71 -10.5 -117.5t-28.5 -72.5q-20 -32 -49.5 -47t-64.5 -15q-19 0 -36.5 3.5t-25.5 8.5l14 74q8 -2 17 -4t20 -2q27 0 45 21q6 8 11.5 19.5t9.5 29t6.5 42t2.5 58.5
q0 124 -7.5 242t-7.5 236q0 80 14.5 127.5t43.5 79.5q19 21 45.5 31t55.5 10q15 0 29 -2t22 -6zM315 701q-8 2 -16.5 3t-17.5 1q-31 0 -47 -25q-14 -19 -20 -55t-6 -100q0 -114 7 -230t7 -238q0 -71 -11 -117.5t-29 -72.5q-20 -32 -49.5 -47t-63.5 -15q-20 0 -37 3.5
t-26 8.5l14 74q8 -2 17 -4t20 -2q27 0 45 21q6 8 11.5 19.5t9.5 29t6.5 42t2.5 58.5q0 124 -7 242t-7 236q0 80 14 127.5t43 79.5q19 21 45.5 31t55.5 10q15 0 29 -2t22 -6z" />
    <glyph glyph-name="uni222E" unicode="&#x222e;" horiz-adv-x="900" 
d="M424 412q-32 -12 -53.5 -41.5t-25.5 -71.5q-4 -45 14 -75t53 -40q4 52 6 116q1 30 2.5 57.5t3.5 54.5zM563 299q4 43 -16.5 76t-60.5 41q-4 -52 -6 -116q-1 -32 -2.5 -61t-5.5 -56q38 9 62.5 40t28.5 76zM615 635q-8 19 -20.5 29.5t-30.5 10.5q-22 0 -42.5 -59.5
t-32.5 -168.5q27 -3 50.5 -14t41 -29.5t26.5 -45t6 -59.5q-3 -32 -15.5 -57.5t-32 -44.5t-44.5 -30t-52 -15q-14 -113 -43 -185q-17 -39 -41 -63t-54 -24q-63 0 -94 60l45 26q9 -19 21.5 -30t30.5 -11q22 0 43 59t32 169q-25 4 -47 15.5t-38 30t-24 43.5t-5 57
q3 31 14.5 55.5t29.5 42.5t41 30t48 17q14 115 44 189q17 39 40.5 63t54.5 24q65 0 96 -64z" />
    <glyph glyph-name="therefore" unicode="&#x2234;" horiz-adv-x="681" 
d="M423 488q0 -36 -23 -58t-60 -22q-36 0 -59.5 22t-23.5 58q0 35 23.5 56.5t59.5 21.5q37 0 60 -21.5t23 -56.5zM227 118q0 -36 -23 -57.5t-60 -21.5q-36 0 -59.5 21.5t-23.5 57.5t23.5 57t59.5 21q37 0 60 -21t23 -57zM618 118q0 -36 -23 -57.5t-59 -21.5t-59.5 21.5
t-23.5 57.5t23.5 57t59.5 21t59 -21t23 -57z" />
    <glyph glyph-name="uni2235" unicode="&#x2235;" horiz-adv-x="681" 
d="M423 117q0 -36 -23 -57t-60 -21q-36 0 -59.5 21t-23.5 57t23.5 57.5t59.5 21.5q37 0 60 -21.5t23 -57.5zM227 486q0 -35 -23 -56.5t-60 -21.5q-36 0 -59.5 21.5t-23.5 56.5q0 36 23.5 58t59.5 22q37 0 60 -22t23 -58zM618 486q0 -35 -23 -56.5t-59 -21.5t-59.5 21.5
t-23.5 56.5q0 36 23.5 58t59.5 22t59 -22t23 -58z" />
    <glyph glyph-name="uni301C" unicode="&#x223c;" horiz-adv-x="900" 
d="M741 341q-13 -19 -31 -37.5t-39 -32.5t-44 -23t-45 -9q-44 0 -74 9t-62 26q-26 14 -59.5 26t-68.5 12t-61.5 -17t-43.5 -46l-54 36q13 19 31 37.5t39 33t43.5 23.5t45.5 9q45 0 74.5 -9t61.5 -27q31 -17 62 -28.5t66 -11.5t61.5 18.5t43.5 46.5z" />
    <glyph glyph-name="uni301C" unicode="&#xff5e;" horiz-adv-x="900" 
d="M741 341q-13 -19 -31 -37.5t-39 -32.5t-44 -23t-45 -9q-44 0 -74 9t-62 26q-26 14 -59.5 26t-68.5 12t-61.5 -17t-43.5 -46l-54 36q13 19 31 37.5t39 33t43.5 23.5t45.5 9q45 0 74.5 -9t61.5 -27q31 -17 62 -28.5t66 -11.5t61.5 18.5t43.5 46.5z" />
    <glyph glyph-name="uni301C" unicode="&#x301c;" horiz-adv-x="900" 
d="M741 341q-13 -19 -31 -37.5t-39 -32.5t-44 -23t-45 -9q-44 0 -74 9t-62 26q-26 14 -59.5 26t-68.5 12t-61.5 -17t-43.5 -46l-54 36q13 19 31 37.5t39 33t43.5 23.5t45.5 9q45 0 74.5 -9t61.5 -27q31 -17 62 -28.5t66 -11.5t61.5 18.5t43.5 46.5z" />
    <glyph glyph-name="uni223D" unicode="&#x223d;" horiz-adv-x="920" 
d="M840 316q0 -39 -14 -74t-39 -61.5t-59.5 -42t-74.5 -15.5q-32 0 -63 11.5t-62 33.5l33 57q24 -17 46.5 -25.5t45.5 -8.5q25 0 46.5 9.5t37 26.5t24 39.5t8.5 49.5q0 24 -8.5 46t-23.5 39t-36.5 27.5t-46.5 10.5q-54 0 -90 -34.5t-70 -98.5q-12 -23 -30 -54.5t-45 -60
t-64.5 -48t-89.5 -19.5q-35 0 -68.5 12t-59.5 36t-42 60t-16 84q0 46 15.5 81.5t41.5 60t59 37t69 12.5q35 0 67 -12t61 -30l-34 -58q-47 30 -87 30q-54 0 -87 -33.5t-33 -87.5t31 -88t88 -34q36 0 63.5 16.5t48.5 41t36 51.5t26 48q16 30 36 58.5t45.5 50t57 34.5t69.5 13
q41 0 75.5 -16t59.5 -42t39 -61t14 -72z" />
    <glyph glyph-name="uni2252" unicode="&#x2252;" horiz-adv-x="660" 
d="M537 84q0 -26 -18 -44.5t-44 -18.5t-44 18.5t-18 44.5q0 25 18 43.5t44 18.5t44 -18.5t18 -43.5zM246 542q0 -26 -18.5 -44t-44.5 -18q-25 0 -43.5 18t-18.5 44t18.5 44.5t43.5 18.5q26 0 44.5 -18.5t18.5 -44.5zM603 360h-547v69h547v-69zM603 199h-547v69h547v-69z" />
    <glyph glyph-name="notequal" unicode="&#x2260;" horiz-adv-x="600" 
d="M260 152q-18 -29 -39.5 -62t-38.5 -62h-96l78 124h-132v85h186q16 23 33 48.5t35 53.5h-254v86h307q18 29 39.5 62t38.5 62h96l-78 -124h133v-86h-189q-18 -28 -31.5 -50t-33.5 -52h254v-85h-308z" />
    <glyph glyph-name="equivalence" unicode="&#x2261;" horiz-adv-x="660" 
d="M603 434h-547v71h547v-71zM603 278h-547v72h547v-72zM603 121h-547v72h547v-72z" />
    <glyph glyph-name="lessequal" unicode="&#x2264;" horiz-adv-x="600" 
d="M45 10v80h511v-80h-511zM556 133q-129 50 -256.5 100t-256.5 102v82q130 50 257 99.5t256 101.5v-93q-100 -38 -197.5 -75t-197.5 -74v-2q99 -38 197 -74.5t198 -74.5v-92z" />
    <glyph glyph-name="greaterequal" unicode="&#x2265;" horiz-adv-x="600" 
d="M556 334l-513 -203v93l118 44t118 45l159 60v2q-100 37 -197.5 74t-197.5 75v92q129 -52 256.5 -101t256.5 -99v-82zM43 10v80h511v-80h-511z" />
    <glyph glyph-name="propersubset" unicode="&#x2282;" horiz-adv-x="920" 
d="M769 471h-410q-53 0 -90 -12.5t-60 -33.5t-33.5 -49t-10.5 -59q0 -35 11 -64.5t34 -51t60 -34t89 -12.5h410v-90h-406q-76 0 -131 20t-91 54.5t-53.5 81t-17.5 99.5q0 50 16.5 94.5t52 77.5t90 52t130.5 19h410v-92z" />
    <glyph glyph-name="propersuperset" unicode="&#x2283;" horiz-adv-x="920" 
d="M112 563h409q76 0 131 -19t90.5 -52t52 -77.5t16.5 -94.5q0 -53 -17.5 -99.5t-54 -81t-92 -54.5t-131.5 -20h-404v90h409q52 0 89 12.5t60.5 34t34 51t10.5 64.5q0 31 -10 59t-33 49t-60 33.5t-91 12.5h-409v92z" />
    <glyph glyph-name="reflexsubset" unicode="&#x2286;" horiz-adv-x="920" 
d="M767 -52h-661v90h661v-90zM769 492h-410q-53 0 -90 -11t-60 -29.5t-33.5 -44t-10.5 -54.5q0 -33 11 -60t34 -46.5t60 -30t89 -10.5h410v-91h-406q-76 0 -131 18.5t-91 50.5t-53.5 76.5t-17.5 95.5q0 48 16.5 89t52 72t90 48.5t130.5 17.5h410v-91z" />
    <glyph glyph-name="reflexsuperset" unicode="&#x2287;" horiz-adv-x="920" 
d="M112 583h410q76 0 130.5 -17.5t90 -48.5t52 -72t16.5 -89q0 -51 -17.5 -95.5t-53.5 -76.5t-91.5 -50.5t-131.5 -18.5h-405v91h410q52 0 89 10.5t60 30t33.5 46.5t10.5 60q0 29 -10 54.5t-33 44t-60 29.5t-90 11h-410v91zM113 38h662v-90h-662v90z" />
    <glyph glyph-name="uni25C9" unicode="&#x2299;" horiz-adv-x="920" 
d="M875 299q0 -84 -32 -158t-86.5 -128.5t-128.5 -86.5t-158 -32q-83 0 -156.5 32t-129 86.5t-87.5 128.5t-32 158t32 158t87.5 128.5t129 86.5t156.5 32q84 0 158 -32t128.5 -86.5t86.5 -128.5t32 -158zM801 299q0 68 -26 128.5t-71 105.5t-105.5 71t-128.5 26t-128 -26
t-105 -71t-71 -105.5t-26 -128.5t26 -128t71 -105t105 -71t128 -26t128.5 26t105.5 71t71 105t26 128zM628 299q0 -33 -12.5 -62t-33.5 -50t-50 -33.5t-62 -12.5q-32 0 -61 12.5t-50.5 33.5t-34 50t-12.5 62t12.5 62t34 50t50.5 33.5t61 12.5q33 0 62 -12.5t50 -33.5
t33.5 -50t12.5 -62z" />
    <glyph glyph-name="uni25C9" unicode="&#x25c9;" horiz-adv-x="920" 
d="M875 299q0 -84 -32 -158t-86.5 -128.5t-128.5 -86.5t-158 -32q-83 0 -156.5 32t-129 86.5t-87.5 128.5t-32 158t32 158t87.5 128.5t129 86.5t156.5 32q84 0 158 -32t128.5 -86.5t86.5 -128.5t32 -158zM801 299q0 68 -26 128.5t-71 105.5t-105.5 71t-128.5 26t-128 -26
t-105 -71t-71 -105.5t-26 -128.5t26 -128t71 -105t105 -71t128 -26t128.5 26t105.5 71t71 105t26 128zM628 299q0 -33 -12.5 -62t-33.5 -50t-50 -33.5t-62 -12.5q-32 0 -61 12.5t-50.5 33.5t-34 50t-12.5 62t12.5 62t34 50t50.5 33.5t61 12.5q33 0 62 -12.5t50 -33.5
t33.5 -50t12.5 -62z" />
    <glyph glyph-name="perpendicular" unicode="&#x22a5;" horiz-adv-x="920" 
d="M787 -6h-655v112h270v483h117v-483h268v-112z" />
    <glyph glyph-name="uni2312" unicode="&#x2312;" horiz-adv-x="920" 
d="M611 574q-22 38 -61.5 60t-89.5 22t-90.5 -22t-61.5 -60h-125q20 39 47 71t61 55.5t75.5 36.5t92.5 13t93 -13t76 -36.5t60.5 -55.5t47.5 -71h-125z" />
    <glyph glyph-name="uni2460" unicode="&#x2460;" horiz-adv-x="920" 
d="M425 478q-16 -4 -26.5 -6t-20 -3.5t-19.5 -3t-26 -5.5v82l139 39h61v-554h-108v451zM15 306q0 93 34.5 174.5t94.5 141.5t141.5 94.5t174.5 34.5t174.5 -34.5t141.5 -94.5t94.5 -141.5t34.5 -174.5t-34.5 -174.5t-94.5 -141.5t-141.5 -94.5t-174.5 -34.5t-174.5 34.5
t-141.5 94.5t-94.5 141.5t-34.5 174.5zM99 306q0 -77 28 -143.5t76.5 -116t114.5 -78t142 -28.5t142 28.5t114.5 78t76.5 116t28 143.5q0 76 -28 143t-76.5 116.5t-114.5 78t-142 28.5t-142 -28.5t-114.5 -78t-76.5 -116.5t-28 -143z" />
    <glyph glyph-name="uni2461" unicode="&#x2461;" horiz-adv-x="920" 
d="M289 95q42 43 83 85.5t83 86.5q21 22 39.5 42t32.5 39t22.5 37.5t8.5 36.5q0 27 -8 42.5t-23 23.5t-36 10.5t-47 2.5q-30 0 -62 -8t-59 -20q-5 20 -10.5 41t-10.5 41q29 13 71.5 24.5t91.5 11.5q95 0 147 -43.5t52 -122.5q0 -26 -10.5 -52t-27 -50.5t-37.5 -48.5t-42 -47
q-25 -27 -50 -53.5t-50 -54.5h225v-91h-383v67zM14 306q0 93 34.5 174t94.5 141t141.5 94.5t175.5 34.5q93 0 174.5 -34.5t141.5 -94.5t94.5 -141t34.5 -174t-34.5 -174t-94.5 -141t-141.5 -94.5t-174.5 -34.5q-94 0 -175.5 34.5t-141.5 94.5t-94.5 141t-34.5 174zM98 306
q0 -77 28 -143.5t76.5 -116t114.5 -78t143 -28.5q76 0 142 28.5t114.5 78t76.5 116t28 143.5q0 76 -28 143t-76.5 116.5t-114.5 78t-142 28.5q-77 0 -143 -28.5t-114.5 -78t-76.5 -116.5t-28 -143z" />
    <glyph glyph-name="uni2462" unicode="&#x2462;" horiz-adv-x="920" 
d="M14 306q0 93 34.5 174t94.5 141t141.5 94.5t175.5 34.5q93 0 174.5 -34.5t141.5 -94.5t94.5 -141t34.5 -174t-34.5 -174t-94.5 -141t-141.5 -94.5t-174.5 -34.5q-94 0 -175.5 34.5t-141.5 94.5t-94.5 141t-34.5 174zM98 306q0 -77 28 -143.5t76.5 -116t114.5 -78
t143 -28.5q76 0 142 28.5t114.5 78t76.5 116t28 143.5q0 76 -28 143t-76.5 116.5t-114.5 78t-142 28.5q-77 0 -143 -28.5t-114.5 -78t-76.5 -116.5t-28 -143zM451 13q-49 0 -94.5 11t-71.5 25q5 20 9 41.5t9 41.5q12 -6 28.5 -11.5t34.5 -9.5t36 -6.5t33 -2.5q62 0 95 18.5
t33 60.5t-34 61.5t-93 19.5h-61v90h54q53 0 85 20.5t32 56.5q0 38 -27.5 52.5t-72.5 14.5q-35 0 -63.5 -10t-54.5 -21v-1h-1q-5 20 -10.5 41.5t-10.5 41.5q13 6 32.5 12.5t41.5 12t45 9t44 3.5q81 0 131.5 -36.5t50.5 -104.5q0 -49 -18.5 -79.5t-56.5 -47.5
q45 -13 70.5 -45.5t25.5 -92.5q0 -76 -59.5 -120.5t-161.5 -44.5z" />
    <glyph glyph-name="uni2463" unicode="&#x2463;" horiz-adv-x="920" 
d="M476 215v188l-130 -188h130zM476 127h-255v70l270 379h87v-361h79v-88h-79v-105h-102v105zM15 306q0 93 34.5 174.5t94.5 141.5t141.5 94.5t174.5 34.5t174.5 -34.5t141.5 -94.5t94.5 -141.5t34.5 -174.5t-34.5 -174.5t-94.5 -141.5t-141.5 -94.5t-174.5 -34.5
t-174.5 34.5t-141.5 94.5t-94.5 141.5t-34.5 174.5zM99 306q0 -77 28 -143.5t76.5 -116t114.5 -78t142 -28.5t142 28.5t114.5 78t76.5 116t28 143.5q0 76 -28 143t-76.5 116.5t-114.5 78t-142 28.5t-142 -28.5t-114.5 -78t-76.5 -116.5t-28 -143z" />
    <glyph glyph-name="uni2464" unicode="&#x2464;" horiz-adv-x="920" 
d="M436 8q-49 0 -94.5 11.5t-71.5 25.5l18 83q25 -12 64 -21.5t70 -9.5q60 0 93 25t33 70q0 47 -34.5 65t-89.5 18q-26 0 -55 -2.5t-64 -9.5l20 307h303v-91h-206l-10 -122q10 2 17.5 3t21.5 1q45 0 83 -9.5t65.5 -30t42.5 -52.5t15 -78q0 -37 -15.5 -70t-44 -58t-69.5 -40
t-92 -15zM15 306q0 93 34.5 174.5t94.5 141.5t141.5 94.5t174.5 34.5t174.5 -34.5t141.5 -94.5t94.5 -141.5t34.5 -174.5t-34.5 -174.5t-94.5 -141.5t-141.5 -94.5t-174.5 -34.5t-174.5 34.5t-141.5 94.5t-94.5 141.5t-34.5 174.5zM99 306q0 -77 28 -143.5t76.5 -116
t114.5 -78t142 -28.5t142 28.5t114.5 78t76.5 116t28 143.5q0 76 -28 143t-76.5 116.5t-114.5 78t-142 28.5t-142 -28.5t-114.5 -78t-76.5 -116.5t-28 -143z" />
    <glyph glyph-name="uni2465" unicode="&#x2465;" horiz-adv-x="920" 
d="M456 285q-30 0 -55 -11.5t-42 -28.5q3 -41 10.5 -69t19.5 -45t29 -24t39 -7q42 0 66 21.5t24 69.5q0 53 -26 73.5t-65 20.5zM494 494q-30 0 -53.5 -7.5t-40.5 -25.5t-27 -48.5t-13 -75.5q20 14 47 24.5t72 10.5q36 0 68 -11.5t55.5 -34t37 -55t13.5 -73.5t-14 -75
t-39.5 -59.5t-61.5 -39.5t-80 -14q-49 0 -87 15.5t-64.5 49.5t-40.5 88.5t-14 132.5q0 77 18.5 131t50 88.5t74.5 50t92 15.5q42 0 79 -10t60 -21l-21 -83q-23 10 -55 18.5t-56 8.5zM15 306q0 93 34.5 174.5t94.5 141.5t141.5 94.5t174.5 34.5t174.5 -34.5t141.5 -94.5
t94.5 -141.5t34.5 -174.5t-34.5 -174.5t-94.5 -141.5t-141.5 -94.5t-174.5 -34.5t-174.5 34.5t-141.5 94.5t-94.5 141.5t-34.5 174.5zM99 306q0 -77 28 -143.5t76.5 -116t114.5 -78t142 -28.5t142 28.5t114.5 78t76.5 116t28 143.5q0 76 -28 143t-76.5 116.5t-114.5 78
t-142 28.5t-142 -28.5t-114.5 -78t-76.5 -116.5t-28 -143z" />
    <glyph glyph-name="uni2466" unicode="&#x2466;" horiz-adv-x="920" 
d="M536 472h-251v91h369v-66l-200 -488h-115zM15 306q0 93 34.5 174.5t94.5 141.5t141.5 94.5t174.5 34.5t174.5 -34.5t141.5 -94.5t94.5 -141.5t34.5 -174.5t-34.5 -174.5t-94.5 -141.5t-141.5 -94.5t-174.5 -34.5t-174.5 34.5t-141.5 94.5t-94.5 141.5t-34.5 174.5z
M99 306q0 -77 28 -143.5t76.5 -116t114.5 -78t142 -28.5t142 28.5t114.5 78t76.5 116t28 143.5q0 76 -28 143t-76.5 116.5t-114.5 78t-142 28.5t-142 -28.5t-114.5 -78t-76.5 -116.5t-28 -143z" />
    <glyph glyph-name="uni2467" unicode="&#x2467;" horiz-adv-x="920" 
d="M14 306q0 93 34.5 174t94.5 141t141.5 94.5t175.5 34.5q93 0 174.5 -34.5t141.5 -94.5t94.5 -141t34.5 -174t-34.5 -174t-94.5 -141t-141.5 -94.5t-174.5 -34.5q-94 0 -175.5 34.5t-141.5 94.5t-94.5 141t-34.5 174zM98 306q0 -77 28 -143.5t76.5 -116t114.5 -78
t143 -28.5q76 0 142 28.5t114.5 78t76.5 116t28 143.5q0 76 -28 143t-76.5 116.5t-114.5 78t-142 28.5q-77 0 -143 -28.5t-114.5 -78t-76.5 -116.5t-28 -143zM460 13q-48 0 -86.5 11t-65.5 31t-41.5 47.5t-14.5 61.5q0 25 9 46.5t24 39t34.5 31.5t40.5 24q-17 10 -33 23
t-28.5 29.5t-20 36t-7.5 41.5q0 31 13.5 58t38.5 47.5t60 32t77 11.5q87 0 137 -39t50 -104q0 -21 -7.5 -39.5t-20 -34.5t-28.5 -30t-34 -26q20 -10 40.5 -23.5t37 -30.5t27 -38t10.5 -47q0 -34 -15 -63t-43 -50.5t-67 -33.5t-87 -12zM564 166q0 18 -9 32t-25 25.5t-37 22
t-46 21.5q-38 -16 -66 -42t-28 -55q0 -36 31 -53t76 -17q46 0 75 16.5t29 49.5zM378 438q0 -15 7.5 -27.5t20 -23t29.5 -19.5t35 -18q28 16 51.5 38.5t23.5 47.5q0 29 -21.5 45t-63.5 16q-36 0 -59 -15t-23 -44zM441 269l-5 3z" />
    <glyph glyph-name="uni2468" unicode="&#x2468;" horiz-adv-x="920" 
d="M471 305q28 0 52 11.5t43 28.5q-5 86 -29 119t-67 33t-66.5 -22.5t-23.5 -71.5q0 -28 7 -46.5t19 -30t28.5 -16.5t36.5 -5zM433 103q28 0 51 7t39.5 24.5t27 46t14.5 72.5q-21 -14 -48 -23.5t-70 -9.5q-36 0 -67.5 11.5t-55 34t-37 55.5t-13.5 75t13.5 77t39 60.5
t61.5 39.5t81 14q48 0 86.5 -15.5t65 -49t40.5 -88t14 -132.5q0 -77 -18.5 -131.5t-50.5 -89t-74.5 -50t-91.5 -15.5q-44 0 -82.5 9.5t-61.5 22.5l22 80q23 -9 54.5 -17t60.5 -8zM15 306q0 93 34.5 174.5t94.5 141.5t141.5 94.5t174.5 34.5t174.5 -34.5t141.5 -94.5
t94.5 -141.5t34.5 -174.5t-34.5 -174.5t-94.5 -141.5t-141.5 -94.5t-174.5 -34.5t-174.5 34.5t-141.5 94.5t-94.5 141.5t-34.5 174.5zM99 306q0 -77 28 -143.5t76.5 -116t114.5 -78t142 -28.5t142 28.5t114.5 78t76.5 116t28 143.5q0 76 -28 143t-76.5 116.5t-114.5 78
t-142 28.5t-142 -28.5t-114.5 -78t-76.5 -116.5t-28 -143z" />
    <glyph glyph-name="uni2469" unicode="&#x2469;" horiz-adv-x="920" 
d="M15 306q0 93 34.5 174.5t94.5 141.5t141.5 94.5t174.5 34.5t174.5 -34.5t141.5 -94.5t94.5 -141.5t34.5 -174.5t-34.5 -174.5t-94.5 -141.5t-141.5 -94.5t-174.5 -34.5t-174.5 34.5t-141.5 94.5t-94.5 141.5t-34.5 174.5zM99 306q0 -77 28 -143.5t76.5 -116t114.5 -78
t142 -28.5t142 28.5t114.5 78t76.5 116t28 143.5q0 76 -28 143t-76.5 116.5t-114.5 78t-142 28.5t-142 -28.5t-114.5 -78t-76.5 -116.5t-28 -143zM561 19q-33 0 -62.5 14.5t-51 47.5t-34 87t-12.5 132q0 79 12.5 132.5t34 86.5t51 47.5t62.5 14.5t62.5 -14.5t52 -47.5
t36 -86.5t13.5 -132.5q0 -78 -13.5 -132t-36 -87t-52 -47.5t-62.5 -14.5zM561 111q15 0 28.5 9t23 31t15 58.5t5.5 90.5t-5.5 90.5t-15 58t-23 31t-28.5 9.5q-16 0 -29 -9.5t-22 -31t-13.5 -58t-4.5 -90.5t4.5 -90.5t13.5 -58.5t22 -31t29 -9zM268 475l-69 -18v83l109 40h53
v-557h-93v452z" />
    <glyph glyph-name="uni246A" unicode="&#x246a;" horiz-adv-x="920" 
d="M306 475l-69 -18v83l109 40h57v-557h-97v452zM15 306q0 93 34.5 174.5t94.5 141.5t141.5 94.5t174.5 34.5t174.5 -34.5t141.5 -94.5t94.5 -141.5t34.5 -174.5t-34.5 -174.5t-94.5 -141.5t-141.5 -94.5t-174.5 -34.5t-174.5 34.5t-141.5 94.5t-94.5 141.5t-34.5 174.5z
M99 306q0 -77 28 -143.5t76.5 -116t114.5 -78t142 -28.5t142 28.5t114.5 78t76.5 116t28 143.5q0 76 -28 143t-76.5 116.5t-114.5 78t-142 28.5t-142 -28.5t-114.5 -78t-76.5 -116.5t-28 -143zM545 475l-70 -18v83l110 40h56v-557h-96v452z" />
    <glyph glyph-name="uni246B" unicode="&#x246b;" horiz-adv-x="920" 
d="M15 306q0 93 34.5 174.5t94.5 141.5t141.5 94.5t174.5 34.5t174.5 -34.5t141.5 -94.5t94.5 -141.5t34.5 -174.5t-34.5 -174.5t-94.5 -141.5t-141.5 -94.5t-174.5 -34.5t-174.5 34.5t-141.5 94.5t-94.5 141.5t-34.5 174.5zM407 92l127 174q15 20 29 40.5t25 40t17.5 39
t6.5 37.5q0 27 -6 42.5t-16.5 24t-25.5 11t-34 2.5q-21 0 -47 -9.5t-49 -23.5l-16 86q23 13 55.5 25.5t73.5 12.5q74 0 115.5 -44t41.5 -124q0 -27 -8.5 -53t-22 -52t-30.5 -50.5t-34 -48.5l-18 -26l-53 -79h158v-90q58 51 91.5 122.5t33.5 156.5q0 76 -28 143t-76.5 116.5
t-114.5 78t-142 28.5t-142 -28.5t-114.5 -78t-76.5 -116.5t-28 -143q0 -77 28 -143.5t76.5 -116t114.5 -78t142 -28.5q68 0 127.5 23t106.5 63h-287v66zM271 475l-70 -18v83l110 40h52v-557h-92v452z" />
    <glyph glyph-name="uni246C" unicode="&#x246c;" horiz-adv-x="920" 
d="M537 16q-38 0 -74.5 11.5t-55.5 25.5q5 22 8 43.5t7 42.5q22 -13 52 -23.5t51 -10.5q45 0 69 19.5t24 61.5t-24.5 61.5t-67.5 19.5h-50v90h46q38 0 60.5 21t22.5 57q0 38 -19.5 53t-51.5 15q-25 0 -45.5 -10t-40.5 -21q-3 -1 -5 -2t-4 -1q-5 21 -8.5 42t-7.5 42
q10 6 25.5 12.5t32.5 12.5t35 9.5t35 3.5q65 0 104.5 -36.5t39.5 -105.5q0 -43 -17.5 -75.5t-42.5 -52.5q35 -14 56 -46.5t21 -91.5q0 -78 -47 -122.5t-128 -44.5zM275 474l-69 -17v83l109 40h52v-557h-92v451zM14 306q0 93 34.5 174t94.5 141t141.5 94.5t175.5 34.5
q93 0 174.5 -34.5t141.5 -94.5t94.5 -141t34.5 -174t-34.5 -174t-94.5 -141t-141.5 -94.5t-174.5 -34.5q-94 0 -175.5 34.5t-141.5 94.5t-94.5 141t-34.5 174zM98 306q0 -77 28 -143.5t76.5 -116t114.5 -78t143 -28.5q76 0 142 28.5t114.5 78t76.5 116t28 143.5
q0 76 -28 143t-76.5 116.5t-114.5 78t-142 28.5q-77 0 -143 -28.5t-114.5 -78t-76.5 -116.5t-28 -143z" />
    <glyph glyph-name="uni246D" unicode="&#x246d;" horiz-adv-x="920" 
d="M588 214v174l-88 -174h88zM588 125h-194v69l207 384h75v-364h61v-89h-61v-106h-88v106zM271 475l-70 -18v83l110 40h52v-557h-92v452zM15 306q0 93 34.5 174.5t94.5 141.5t141.5 94.5t174.5 34.5t174.5 -34.5t141.5 -94.5t94.5 -141.5t34.5 -174.5t-34.5 -174.5
t-94.5 -141.5t-141.5 -94.5t-174.5 -34.5t-174.5 34.5t-141.5 94.5t-94.5 141.5t-34.5 174.5zM99 306q0 -77 28 -143.5t76.5 -116t114.5 -78t142 -28.5t142 28.5t114.5 78t76.5 116t28 143.5q0 76 -28 143t-76.5 116.5t-114.5 78t-142 28.5t-142 -28.5t-114.5 -78
t-76.5 -116.5t-28 -143z" />
    <glyph glyph-name="uni246E" unicode="&#x246e;" horiz-adv-x="920" 
d="M543 15q-40 0 -76.5 12.5t-56.5 26.5l15 86q22 -14 53 -24.5t54 -10.5q43 0 66.5 25t23.5 71q0 48 -25 66t-64 18q-17 0 -40.5 -3t-55.5 -12l16 311h236v-92h-152l-8 -120l10.5 1.5t13.5 0.5q36 0 66 -9.5t51 -30t33 -53t12 -78.5q0 -37 -12 -70.5t-34.5 -59t-54 -40.5
t-71.5 -15zM271 475l-70 -18v83l110 40h52v-557h-92v452zM15 306q0 93 34.5 174.5t94.5 141.5t141.5 94.5t174.5 34.5t174.5 -34.5t141.5 -94.5t94.5 -141.5t34.5 -174.5t-34.5 -174.5t-94.5 -141.5t-141.5 -94.5t-174.5 -34.5t-174.5 34.5t-141.5 94.5t-94.5 141.5
t-34.5 174.5zM99 306q0 -77 28 -143.5t76.5 -116t114.5 -78t142 -28.5t142 28.5t114.5 78t76.5 116t28 143.5q0 76 -28 143t-76.5 116.5t-114.5 78t-142 28.5t-142 -28.5t-114.5 -78t-76.5 -116.5t-28 -143z" />
    <glyph glyph-name="uni2474" unicode="&#x2474;" horiz-adv-x="920" 
d="M417 468q-17 -4 -27.5 -6t-20 -3.5t-19.5 -3t-26 -5.5v82l140 39h60v-554h-107v451zM910 286q0 -78 -11.5 -146t-32.5 -126t-49.5 -105.5t-62.5 -84.5h-91q33 41 60.5 92.5t46.5 110.5t29.5 124.5t10.5 134.5t-10.5 134t-29.5 124.5t-46.5 111t-60.5 92.5h91
q34 -37 62.5 -84.5t49.5 -105.5t32.5 -126t11.5 -146zM9 286q0 78 11.5 146t32.5 126t49.5 105.5t62.5 84.5h91q-33 -41 -60.5 -92.5t-46.5 -111t-29.5 -124.5t-10.5 -134t10.5 -134.5t29.5 -124.5t46.5 -110.5t60.5 -92.5h-91q-34 37 -62.5 84.5t-49.5 105.5t-32.5 126
t-11.5 146z" />
    <glyph glyph-name="uni2475" unicode="&#x2475;" horiz-adv-x="920" 
d="M260 81q42 44 83.5 86t82.5 86q21 22 39.5 42t32.5 39t22.5 37.5t8.5 36.5q0 27 -8 42.5t-23 23.5t-36 10.5t-47 2.5q-30 0 -62 -8t-59 -20q-5 20 -10.5 41t-10.5 41q29 13 71.5 24.5t91.5 11.5q95 0 147 -43.5t52 -122.5q0 -26 -10.5 -52t-27 -50.5t-37.5 -48.5t-42 -47
q-27 -24 -51 -53t-49 -55h225v-91h-383v67zM910 286q0 -78 -11.5 -146t-32.5 -126t-49.5 -105.5t-62.5 -84.5h-91q33 41 60.5 92.5t46.5 110.5t29.5 124.5t10.5 134.5t-10.5 134t-29.5 124.5t-46.5 111t-60.5 92.5h91q34 -37 62.5 -84.5t49.5 -105.5t32.5 -126t11.5 -146z
M9 286q0 78 11.5 146t32.5 126t49.5 105.5t62.5 84.5h91q-33 -41 -60.5 -92.5t-46.5 -111t-29.5 -124.5t-10.5 -134t10.5 -134.5t29.5 -124.5t46.5 -110.5t60.5 -92.5h-91q-34 37 -62.5 84.5t-49.5 105.5t-32.5 126t-11.5 146z" />
    <glyph glyph-name="uni2476" unicode="&#x2476;" horiz-adv-x="920" 
d="M426 8q-49 0 -94.5 11t-71.5 25q5 20 9 41t9 41q25 -11 63 -20.5t69 -9.5q62 0 95 19t33 61t-34 61t-93 19h-61v90h54q53 0 85 20.5t32 56.5q0 38 -27 52.5t-73 14.5q-34 0 -62.5 -10t-54.5 -21q0 -1 -1 -0.5t-1 -0.5q-5 20 -10.5 41.5t-10.5 41.5q13 6 32.5 13t41.5 12
t45 8.5t44 3.5q82 0 132.5 -36t50.5 -105q0 -49 -18.5 -79.5t-56.5 -47.5q44 -12 69.5 -44.5t25.5 -92.5q0 -77 -59 -121t-162 -44zM910 286q0 -78 -11.5 -146t-32.5 -126t-49.5 -105.5t-62.5 -84.5h-91q33 41 60.5 92.5t46.5 110.5t29.5 124.5t10.5 134.5t-10.5 134
t-29.5 124.5t-46.5 111t-60.5 92.5h91q34 -37 62.5 -84.5t49.5 -105.5t32.5 -126t11.5 -146zM9 286q0 78 11.5 146t32.5 126t49.5 105.5t62.5 84.5h91q-33 -41 -60.5 -92.5t-46.5 -111t-29.5 -124.5t-10.5 -134t10.5 -134.5t29.5 -124.5t46.5 -110.5t60.5 -92.5h-91
q-34 37 -62.5 84.5t-49.5 105.5t-32.5 126t-11.5 146z" />
    <glyph glyph-name="uni2477" unicode="&#x2477;" horiz-adv-x="920" 
d="M505 208v188l-130 -188h130zM505 120h-255v70l270 379h87v-361h79v-88h-79v-105h-102v105zM910 286q0 -78 -11.5 -146t-32.5 -126t-49.5 -105.5t-62.5 -84.5h-91q33 41 60.5 92.5t46.5 110.5t29.5 124.5t10.5 134.5t-10.5 134t-29.5 124.5t-46.5 111t-60.5 92.5h91
q34 -37 62.5 -84.5t49.5 -105.5t32.5 -126t11.5 -146zM9 286q0 78 11.5 146t32.5 126t49.5 105.5t62.5 84.5h91q-33 -41 -60.5 -92.5t-46.5 -111t-29.5 -124.5t-10.5 -134t10.5 -134.5t29.5 -124.5t46.5 -110.5t60.5 -92.5h-91q-34 37 -62.5 84.5t-49.5 105.5t-32.5 126
t-11.5 146z" />
    <glyph glyph-name="uni2478" unicode="&#x2478;" horiz-adv-x="920" 
d="M432 8q-49 0 -94.5 11.5t-71.5 25.5l18 83q25 -12 63.5 -21.5t70.5 -9.5q60 0 93 25t33 70q0 47 -35 65t-89 18q-27 0 -55.5 -2.5t-63.5 -9.5l20 307h302v-91h-206l-9 -122q9 2 17 3t22 1q45 0 83 -9.5t65.5 -30t42.5 -52.5t15 -78q0 -37 -15.5 -70t-44 -58t-69.5 -40
t-92 -15zM910 286q0 -78 -11.5 -146t-32.5 -126t-49.5 -105.5t-62.5 -84.5h-91q33 41 60.5 92.5t46.5 110.5t29.5 124.5t10.5 134.5t-10.5 134t-29.5 124.5t-46.5 111t-60.5 92.5h91q34 -37 62.5 -84.5t49.5 -105.5t32.5 -126t11.5 -146zM9 286q0 78 11.5 146t32.5 126
t49.5 105.5t62.5 84.5h91q-33 -41 -60.5 -92.5t-46.5 -111t-29.5 -124.5t-10.5 -134t10.5 -134.5t29.5 -124.5t46.5 -110.5t60.5 -92.5h-91q-34 37 -62.5 84.5t-49.5 105.5t-32.5 126t-11.5 146z" />
    <glyph glyph-name="uni2479" unicode="&#x2479;" horiz-adv-x="920" 
d="M466 285q-30 0 -54.5 -11.5t-42.5 -28.5q3 -41 10.5 -69t20 -45t29.5 -24t38 -7q43 0 66.5 21.5t23.5 69.5q0 53 -25.5 73.5t-65.5 20.5zM504 494q-30 0 -53.5 -7.5t-40.5 -25.5t-27 -48.5t-13 -75.5q20 14 47 24.5t72 10.5q36 0 68 -11.5t56 -34t37.5 -55t13.5 -73.5
t-14 -75t-40 -59.5t-62 -39.5t-80 -14q-49 0 -87 15.5t-64.5 49.5t-40.5 88.5t-14 132.5q0 77 18.5 131t50 88.5t74.5 50t92 15.5q42 0 79.5 -10t60.5 -21l-22 -83q-23 10 -54.5 18.5t-56.5 8.5zM910 286q0 -78 -11.5 -146t-32.5 -126t-49.5 -105.5t-62.5 -84.5h-91
q33 41 60.5 92.5t46.5 110.5t29.5 124.5t10.5 134.5t-10.5 134t-29.5 124.5t-46.5 111t-60.5 92.5h91q34 -37 62.5 -84.5t49.5 -105.5t32.5 -126t11.5 -146zM9 286q0 78 11.5 146t32.5 126t49.5 105.5t62.5 84.5h91q-33 -41 -60.5 -92.5t-46.5 -111t-29.5 -124.5t-10.5 -134
t10.5 -134.5t29.5 -124.5t46.5 -110.5t60.5 -92.5h-91q-34 37 -62.5 84.5t-49.5 105.5t-32.5 126t-11.5 146z" />
    <glyph glyph-name="uni247A" unicode="&#x247a;" horiz-adv-x="920" 
d="M521 486h-251v91h370v-66l-200 -488h-116zM910 286q0 -78 -11.5 -146t-32.5 -126t-49.5 -105.5t-62.5 -84.5h-91q33 41 60.5 92.5t46.5 110.5t29.5 124.5t10.5 134.5t-10.5 134t-29.5 124.5t-46.5 111t-60.5 92.5h91q34 -37 62.5 -84.5t49.5 -105.5t32.5 -126t11.5 -146z
M9 286q0 78 11.5 146t32.5 126t49.5 105.5t62.5 84.5h91q-33 -41 -60.5 -92.5t-46.5 -111t-29.5 -124.5t-10.5 -134t10.5 -134.5t29.5 -124.5t46.5 -110.5t60.5 -92.5h-91q-34 37 -62.5 84.5t-49.5 105.5t-32.5 126t-11.5 146z" />
    <glyph glyph-name="uni247B" unicode="&#x247b;" horiz-adv-x="920" 
d="M458 8q-48 0 -86.5 11t-66 31t-42 47.5t-14.5 61.5q0 25 9 46.5t24 39t34.5 31.5t40.5 24q-17 9 -33 22t-28.5 29.5t-20 36t-7.5 42.5q0 31 13.5 58t38.5 47t60 31.5t78 11.5q86 0 136 -39t50 -103q0 -42 -27.5 -74.5t-62.5 -55.5q20 -10 40.5 -23.5t37 -30.5t27 -38.5
t10.5 -46.5q0 -34 -15 -63t-43 -50.5t-66.5 -33.5t-86.5 -12zM9 286q0 78 11.5 146t32.5 126t49.5 105.5t62.5 84.5h91q-33 -41 -60.5 -92.5t-46.5 -111t-29.5 -124.5t-10.5 -134t10.5 -134.5t29.5 -124.5t46.5 -110.5t60.5 -92.5h-91q-34 37 -62.5 84.5t-49.5 105.5
t-32.5 126t-11.5 146zM910 286q0 -78 -11.5 -146t-32.5 -126t-49.5 -105.5t-62.5 -84.5h-91q33 41 60.5 92.5t46.5 110.5t29.5 124.5t10.5 134.5t-10.5 134t-29.5 124.5t-46.5 111t-60.5 92.5h91q34 -37 62.5 -84.5t49.5 -105.5t32.5 -126t11.5 -146zM562 161q0 18 -9 32
t-25 25.5t-37.5 21.5t-46.5 21q-38 -16 -66 -41.5t-28 -54.5q0 -37 31 -53.5t77 -16.5q45 0 74.5 16t29.5 50zM376 433q0 -31 27 -51.5t65 -37.5q27 16 50.5 39t23.5 48q0 28 -21.5 44t-62.5 16q-37 0 -59.5 -14.5t-22.5 -43.5zM438 263l-5 3z" />
    <glyph glyph-name="uni247C" unicode="&#x247c;" horiz-adv-x="920" 
d="M455 295q28 0 52 11.5t43 28.5q-5 86 -29 119t-67 33t-66.5 -22t-23.5 -72q0 -28 7 -46.5t19 -30t28.5 -16.5t36.5 -5zM417 93q28 0 51 7t39.5 24.5t27 46t14.5 72.5q-21 -14 -48 -23.5t-70 -9.5q-36 0 -67.5 11.5t-55 34t-37 55.5t-13.5 75t13.5 77t39 60.5t61.5 39.5
t81 14q48 0 86.5 -15t65 -49t40.5 -88.5t14 -132.5q0 -77 -18.5 -131t-50.5 -88.5t-74.5 -50.5t-91.5 -16q-44 0 -82.5 9.5t-61.5 22.5l22 81q23 -10 54.5 -18t60.5 -8zM910 286q0 -78 -11.5 -146t-32.5 -126t-49.5 -105.5t-62.5 -84.5h-91q33 41 60.5 92.5t46.5 110.5
t29.5 124.5t10.5 134.5t-10.5 134t-29.5 124.5t-46.5 111t-60.5 92.5h91q34 -37 62.5 -84.5t49.5 -105.5t32.5 -126t11.5 -146zM9 286q0 78 11.5 146t32.5 126t49.5 105.5t62.5 84.5h91q-33 -41 -60.5 -92.5t-46.5 -111t-29.5 -124.5t-10.5 -134t10.5 -134.5t29.5 -124.5
t46.5 -110.5t60.5 -92.5h-91q-34 37 -62.5 84.5t-49.5 105.5t-32.5 126t-11.5 146z" />
    <glyph glyph-name="uni247D" unicode="&#x247d;" horiz-adv-x="920" 
d="M555 19q-33 0 -62.5 14.5t-51 47.5t-34 87t-12.5 132q0 79 12.5 132.5t34 86.5t51 47.5t62.5 14.5t62.5 -14.5t52 -47.5t36 -86.5t13.5 -132.5q0 -78 -13.5 -132t-36 -87t-52 -47.5t-62.5 -14.5zM555 111q15 0 28.5 9t23.5 31t15.5 58.5t5.5 90.5t-5.5 90.5t-15.5 58
t-23.5 31t-28.5 9.5q-16 0 -28.5 -9.5t-21.5 -31t-14 -58t-5 -90.5t5 -90.5t14 -58.5t21.5 -31t28.5 -9zM261 475l-69 -18v83l109 40h52v-557h-92v452zM910 286q0 -78 -11.5 -146t-32.5 -126t-49.5 -105.5t-62.5 -84.5h-91q33 41 60.5 92.5t46.5 110.5t29.5 124.5
t10.5 134.5t-10.5 134t-29.5 124.5t-46.5 111t-60.5 92.5h91q34 -37 62.5 -84.5t49.5 -105.5t32.5 -126t11.5 -146zM9 286q0 78 11.5 146t32.5 126t49.5 105.5t62.5 84.5h91q-33 -41 -60.5 -92.5t-46.5 -111t-29.5 -124.5t-10.5 -134t10.5 -134.5t29.5 -124.5t46.5 -110.5
t60.5 -92.5h-91q-34 37 -62.5 84.5t-49.5 105.5t-32.5 126t-11.5 146z" />
    <glyph glyph-name="uni247E" unicode="&#x247e;" horiz-adv-x="920" 
d="M306 475l-69 -18v83l109 40h57v-557h-97v452zM545 475l-70 -18v83l110 40h56v-557h-96v452zM910 286q0 -78 -11.5 -146t-32.5 -126t-49.5 -105.5t-62.5 -84.5h-91q33 41 60.5 92.5t46.5 110.5t29.5 124.5t10.5 134.5t-10.5 134t-29.5 124.5t-46.5 111t-60.5 92.5h91
q34 -37 62.5 -84.5t49.5 -105.5t32.5 -126t11.5 -146zM9 286q0 78 11.5 146t32.5 126t49.5 105.5t62.5 84.5h91q-33 -41 -60.5 -92.5t-46.5 -111t-29.5 -124.5t-10.5 -134t10.5 -134.5t29.5 -124.5t46.5 -110.5t60.5 -92.5h-91q-34 37 -62.5 84.5t-49.5 105.5t-32.5 126
t-11.5 146z" />
    <glyph glyph-name="uni247F" unicode="&#x247f;" horiz-adv-x="920" 
d="M407 92l127 174q15 20 29 40.5t25 40t17.5 39t6.5 37.5q0 27 -6 42.5t-16.5 24t-25.5 11t-34 2.5q-21 0 -47 -9.5t-49 -23.5l-16 86q23 13 55.5 25.5t73.5 12.5q74 0 115.5 -44t41.5 -124q0 -27 -8.5 -53t-22 -52t-30.5 -50.5t-34 -48.5l-18 -26l-53 -79h158v-91h-289v66
zM271 475l-70 -18v83l110 40h52v-557h-92v452zM910 286q0 -78 -11.5 -146t-32.5 -126t-49.5 -105.5t-62.5 -84.5h-91q33 41 60.5 92.5t46.5 110.5t29.5 124.5t10.5 134.5t-10.5 134t-29.5 124.5t-46.5 111t-60.5 92.5h91q34 -37 62.5 -84.5t49.5 -105.5t32.5 -126t11.5 -146
zM9 286q0 78 11.5 146t32.5 126t49.5 105.5t62.5 84.5h91q-33 -41 -60.5 -92.5t-46.5 -111t-29.5 -124.5t-10.5 -134t10.5 -134.5t29.5 -124.5t46.5 -110.5t60.5 -92.5h-91q-34 37 -62.5 84.5t-49.5 105.5t-32.5 126t-11.5 146z" />
    <glyph glyph-name="uni2480" unicode="&#x2480;" horiz-adv-x="920" 
d="M537 20q-38 0 -74.5 11.5t-55.5 26.5q5 21 8 42.5t7 43.5q22 -14 52 -24.5t51 -10.5q45 0 69 19.5t24 61.5t-24.5 61.5t-67.5 19.5h-50v91h46q38 0 60.5 20.5t22.5 56.5q0 38 -19.5 53t-51.5 15q-25 0 -45.5 -10t-40.5 -21q-3 0 -5 -1.5t-4 -1.5l-16 84q10 6 25.5 13
t32.5 12.5t35 9t35 3.5q65 0 104.5 -36.5t39.5 -105.5q0 -43 -17.5 -75.5t-42.5 -52.5q35 -14 56 -46.5t21 -91.5q0 -78 -47 -122.5t-128 -44.5zM275 474l-69 -17v83l109 40h52v-557h-92v451zM910 286q0 -78 -11.5 -146t-32.5 -126t-49.5 -105.5t-62.5 -84.5h-91
q33 41 60.5 92.5t46.5 110.5t29.5 124.5t10.5 134.5t-10.5 134t-29.5 124.5t-46.5 111t-60.5 92.5h91q34 -37 62.5 -84.5t49.5 -105.5t32.5 -126t11.5 -146zM9 286q0 78 11.5 146t32.5 126t49.5 105.5t62.5 84.5h91q-33 -41 -60.5 -92.5t-46.5 -111t-29.5 -124.5t-10.5 -134
t10.5 -134.5t29.5 -124.5t46.5 -110.5t60.5 -92.5h-91q-34 37 -62.5 84.5t-49.5 105.5t-32.5 126t-11.5 146z" />
    <glyph glyph-name="uni2481" unicode="&#x2481;" horiz-adv-x="920" 
d="M588 214v174l-88 -174h88zM588 125h-194v69l207 384h75v-364h61v-89h-61v-106h-88v106zM271 475l-70 -18v83l110 40h52v-557h-92v452zM910 286q0 -78 -11.5 -146t-32.5 -126t-49.5 -105.5t-62.5 -84.5h-91q33 41 60.5 92.5t46.5 110.5t29.5 124.5t10.5 134.5t-10.5 134
t-29.5 124.5t-46.5 111t-60.5 92.5h91q34 -37 62.5 -84.5t49.5 -105.5t32.5 -126t11.5 -146zM9 286q0 78 11.5 146t32.5 126t49.5 105.5t62.5 84.5h91q-33 -41 -60.5 -92.5t-46.5 -111t-29.5 -124.5t-10.5 -134t10.5 -134.5t29.5 -124.5t46.5 -110.5t60.5 -92.5h-91
q-34 37 -62.5 84.5t-49.5 105.5t-32.5 126t-11.5 146z" />
    <glyph glyph-name="uni2482" unicode="&#x2482;" horiz-adv-x="920" 
d="M543 19q-40 0 -76.5 12.5t-56.5 26.5l15 86q22 -14 53 -24.5t54 -10.5q43 0 66.5 25.5t23.5 70.5q0 48 -25 66t-64 18q-17 0 -40.5 -3t-55.5 -12l16 312h236v-91h-152l-8 -122l10.5 1.5t13.5 0.5q36 0 66 -9.5t51 -30t33 -53t12 -78.5q0 -37 -12 -70.5t-34.5 -59
t-54 -40.5t-71.5 -15zM271 475l-70 -18v83l110 40h52v-557h-92v452zM9 286q0 78 11.5 146t32.5 126t49.5 105.5t62.5 84.5h91q-33 -41 -60.5 -92.5t-46.5 -111t-29.5 -124.5t-10.5 -134t10.5 -134.5t29.5 -124.5t46.5 -110.5t60.5 -92.5h-91q-34 37 -62.5 84.5t-49.5 105.5
t-32.5 126t-11.5 146zM910 286q0 -78 -11.5 -146t-32.5 -126t-49.5 -105.5t-62.5 -84.5h-91q33 41 60.5 92.5t46.5 110.5t29.5 124.5t10.5 134.5t-10.5 134t-29.5 124.5t-46.5 111t-60.5 92.5h91q34 -37 62.5 -84.5t49.5 -105.5t32.5 -126t11.5 -146z" />
    <glyph glyph-name="uni249C" unicode="&#x249c;" horiz-adv-x="920" 
d="M546 285h-83q-15 0 -31 -2.5t-29 -8.5t-21.5 -16.5t-8.5 -27.5q0 -18 6.5 -29.5t18 -17.5t26 -8t30.5 -2q15 0 31.5 4t30 12t22 19.5t8.5 26.5v50zM646 99h-92l-7 36q-17 -23 -44 -33.5t-57 -10.5q-35 0 -66 7t-54.5 23t-37 42t-13.5 64q0 39 16 65.5t41.5 42t57 22.5
t62.5 7h94v4q0 39 -25.5 56t-61.5 17q-29 0 -63 -6.5t-67 -18.5l-19 78q33 14 71 22t85 8q36 0 69 -7.5t57.5 -26.5t39 -50t14.5 -77v-264zM910 286q0 -78 -11.5 -146t-32.5 -126t-49.5 -105.5t-62.5 -84.5h-91q33 41 60.5 92.5t46.5 110.5t29.5 124.5t10.5 134.5t-10.5 134
t-29.5 124.5t-46.5 111t-60.5 92.5h91q34 -37 62.5 -84.5t49.5 -105.5t32.5 -126t11.5 -146zM9 286q0 78 11.5 146t32.5 126t49.5 105.5t62.5 84.5h91q-33 -41 -60.5 -92.5t-46.5 -111t-29.5 -124.5t-10.5 -134t10.5 -134.5t29.5 -124.5t46.5 -110.5t60.5 -92.5h-91
q-34 37 -62.5 84.5t-49.5 105.5t-32.5 126t-11.5 146z" />
    <glyph glyph-name="uni249D" unicode="&#x249d;" horiz-adv-x="920" 
d="M484 99q45 0 72.5 33t27.5 97t-27.5 97.5t-72.5 33.5q-15 0 -31.5 -6t-29.5 -18t-21.5 -29t-8.5 -39v-84q0 -21 8.5 -37t21.5 -26.5t29.5 -16t31.5 -5.5zM495 13q-29 0 -57.5 7.5t-45.5 33.5q-2 -12 -4 -17t-3 -16h-92v585h100v-206q19 23 47 34.5t55 11.5q38 0 72.5 -14
t61 -41.5t42.5 -68t16 -93.5t-16 -93.5t-42.5 -67.5t-61 -41t-72.5 -14zM910 286q0 -78 -11.5 -146t-32.5 -126t-49.5 -105.5t-62.5 -84.5h-91q33 41 60.5 92.5t46.5 110.5t29.5 124.5t10.5 134.5t-10.5 134t-29.5 124.5t-46.5 111t-60.5 92.5h91q34 -37 62.5 -84.5
t49.5 -105.5t32.5 -126t11.5 -146zM9 286q0 78 11.5 146t32.5 126t49.5 105.5t62.5 84.5h91q-33 -41 -60.5 -92.5t-46.5 -111t-29.5 -124.5t-10.5 -134t10.5 -134.5t29.5 -124.5t46.5 -110.5t60.5 -92.5h-91q-34 37 -62.5 84.5t-49.5 105.5t-32.5 126t-11.5 146z" />
    <glyph glyph-name="uni249E" unicode="&#x249e;" horiz-adv-x="920" 
d="M490 91q-99 0 -157.5 55t-58.5 161q0 53 15.5 93.5t43.5 68t68 41.5t89 14q43 0 73.5 -8t53.5 -17l-22 -78q-17 5 -45 11t-60 6q-57 0 -85.5 -31.5t-28.5 -99.5t28.5 -99t85.5 -31q35 0 65.5 5t51.5 13l19 -78q-25 -9 -56.5 -17.5t-79.5 -8.5zM910 286q0 -78 -11.5 -146
t-32.5 -126t-49.5 -105.5t-62.5 -84.5h-91q33 41 60.5 92.5t46.5 110.5t29.5 124.5t10.5 134.5t-10.5 134t-29.5 124.5t-46.5 111t-60.5 92.5h91q34 -37 62.5 -84.5t49.5 -105.5t32.5 -126t11.5 -146zM9 286q0 78 11.5 146t32.5 126t49.5 105.5t62.5 84.5h91
q-33 -41 -60.5 -92.5t-46.5 -111t-29.5 -124.5t-10.5 -134t10.5 -134.5t29.5 -124.5t46.5 -110.5t60.5 -92.5h-91q-34 37 -62.5 84.5t-49.5 105.5t-32.5 126t-11.5 146z" />
    <glyph glyph-name="uni249F" unicode="&#x249f;" horiz-adv-x="920" 
d="M537 265q0 21 -8.5 37t-21.5 26.5t-29 16t-31 5.5q-46 0 -73.5 -33.5t-27.5 -98.5q0 -64 27.5 -97t73.5 -33q15 0 31 6.5t29 18.5t21.5 29t8.5 38v85zM436 436q27 0 55 -9.5t46 -30.5v200h100v-585h-91q-2 8 -3.5 18t-3.5 19q-19 -28 -47 -36.5t-56 -8.5q-39 0 -73.5 14
t-61 41t-42 67t-15.5 93t15.5 93.5t42 68.5t61 42t73.5 14zM910 286q0 -78 -11.5 -146t-32.5 -126t-49.5 -105.5t-62.5 -84.5h-91q33 41 60.5 92.5t46.5 110.5t29.5 124.5t10.5 134.5t-10.5 134t-29.5 124.5t-46.5 111t-60.5 92.5h91q34 -37 62.5 -84.5t49.5 -105.5
t32.5 -126t11.5 -146zM9 286q0 78 11.5 146t32.5 126t49.5 105.5t62.5 84.5h91q-33 -41 -60.5 -92.5t-46.5 -111t-29.5 -124.5t-10.5 -134t10.5 -134.5t29.5 -124.5t46.5 -110.5t60.5 -92.5h-91q-34 37 -62.5 84.5t-49.5 105.5t-32.5 126t-11.5 146z" />
    <glyph glyph-name="uni24A0" unicode="&#x24a0;" horiz-adv-x="920" 
d="M484 91q-107 0 -162 56t-55 160q0 103 55 160t147 57q91 0 137 -57t46 -160v-41h-282q3 -27 13.5 -44.5t27 -27.5t39 -13.5t48.5 -3.5q36 0 67.5 6.5t58.5 17.5l19 -82q-29 -13 -71 -20.5t-88 -7.5zM463 440q-16 0 -31.5 -5.5t-28.5 -17t-22 -30t-11 -44.5h178
q-3 52 -28 74.5t-57 22.5zM910 286q0 -78 -11.5 -146t-32.5 -126t-49.5 -105.5t-62.5 -84.5h-91q33 41 60.5 92.5t46.5 110.5t29.5 124.5t10.5 134.5t-10.5 134t-29.5 124.5t-46.5 111t-60.5 92.5h91q34 -37 62.5 -84.5t49.5 -105.5t32.5 -126t11.5 -146zM9 286
q0 78 11.5 146t32.5 126t49.5 105.5t62.5 84.5h91q-33 -41 -60.5 -92.5t-46.5 -111t-29.5 -124.5t-10.5 -134t10.5 -134.5t29.5 -124.5t46.5 -110.5t60.5 -92.5h-91q-34 37 -62.5 84.5t-49.5 105.5t-32.5 126t-11.5 146z" />
    <glyph glyph-name="uni24A1" unicode="&#x24a1;" horiz-adv-x="920" 
d="M403 349h-66v80h66v43q0 72 40 105t103 33q32 0 51.5 -4.5t31.5 -7.5l-17 -80q-14 4 -27 5t-27 1q-27 0 -40.5 -14t-13.5 -46v-35h95v-80h-95v-336h-101v336zM910 286q0 -78 -11.5 -146t-32.5 -126t-49.5 -105.5t-62.5 -84.5h-91q33 41 60.5 92.5t46.5 110.5t29.5 124.5
t10.5 134.5t-10.5 134t-29.5 124.5t-46.5 111t-60.5 92.5h91q34 -37 62.5 -84.5t49.5 -105.5t32.5 -126t11.5 -146zM9 286q0 78 11.5 146t32.5 126t49.5 105.5t62.5 84.5h91q-33 -41 -60.5 -92.5t-46.5 -111t-29.5 -124.5t-10.5 -134t10.5 -134.5t29.5 -124.5t46.5 -110.5
t60.5 -92.5h-91q-34 37 -62.5 84.5t-49.5 105.5t-32.5 126t-11.5 146z" />
    <glyph glyph-name="uni24A2" unicode="&#x24a2;" horiz-adv-x="920" 
d="M546 407q0 21 -8.5 37t-21.5 26.5t-29 16t-31 5.5q-45 0 -73 -32t-28 -90q0 -60 28 -92t73 -32q15 0 31 6.5t29 18.5t21.5 29t8.5 38v69zM546 203q-16 -27 -44.5 -35t-56.5 -8q-39 0 -73.5 14t-61 40.5t-42 65.5t-15.5 90q0 50 15.5 88.5t42 64.5t61 39.5t73.5 13.5
q29 0 56.5 -7.5t46.5 -31.5q2 7 4 16.5t3 14.5h91v-372q0 -105 -44.5 -154t-147.5 -49q-57 0 -96.5 8t-67.5 21q5 20 9 40.5t9 40.5q29 -11 57.5 -19t75.5 -8q28 0 48 4.5t33 16.5t18.5 34.5t5.5 58.5v13zM910 286q0 -78 -11.5 -146t-32.5 -126t-49.5 -105.5t-62.5 -84.5
h-91q33 41 60.5 92.5t46.5 110.5t29.5 124.5t10.5 134.5t-10.5 134t-29.5 124.5t-46.5 111t-60.5 92.5h91q34 -37 62.5 -84.5t49.5 -105.5t32.5 -126t11.5 -146zM9 286q0 78 11.5 146t32.5 126t49.5 105.5t62.5 84.5h91q-33 -41 -60.5 -92.5t-46.5 -111t-29.5 -124.5
t-10.5 -134t10.5 -134.5t29.5 -124.5t46.5 -110.5t60.5 -92.5h-91q-34 37 -62.5 84.5t-49.5 105.5t-32.5 126t-11.5 146z" />
    <glyph glyph-name="uni24A3" unicode="&#x24a3;" horiz-adv-x="920" 
d="M382 27h-100v585h100v-206q18 25 46.5 35.5t56.5 10.5q36 0 66.5 -10.5t53 -32.5t35.5 -56t13 -80v-246h-100v242q0 55 -21 76t-58 21q-15 0 -31.5 -6t-30 -18t-22 -29t-8.5 -39v-247zM910 286q0 -78 -11.5 -146t-32.5 -126t-49.5 -105.5t-62.5 -84.5h-91
q33 41 60.5 92.5t46.5 110.5t29.5 124.5t10.5 134.5t-10.5 134t-29.5 124.5t-46.5 111t-60.5 92.5h91q34 -37 62.5 -84.5t49.5 -105.5t32.5 -126t11.5 -146zM9 286q0 78 11.5 146t32.5 126t49.5 105.5t62.5 84.5h91q-33 -41 -60.5 -92.5t-46.5 -111t-29.5 -124.5t-10.5 -134
t10.5 -134.5t29.5 -124.5t46.5 -110.5t60.5 -92.5h-91q-34 37 -62.5 84.5t-49.5 105.5t-32.5 126t-11.5 146z" />
    <glyph glyph-name="uni24A4" unicode="&#x24a4;" horiz-adv-x="920" 
d="M410 435h101v-416h-101v416zM408 582h104v-101h-104v101zM910 286q0 -78 -11.5 -146t-32.5 -126t-49.5 -105.5t-62.5 -84.5h-91q33 41 60.5 92.5t46.5 110.5t29.5 124.5t10.5 134.5t-10.5 134t-29.5 124.5t-46.5 111t-60.5 92.5h91q34 -37 62.5 -84.5t49.5 -105.5
t32.5 -126t11.5 -146zM9 286q0 78 11.5 146t32.5 126t49.5 105.5t62.5 84.5h91q-33 -41 -60.5 -92.5t-46.5 -111t-29.5 -124.5t-10.5 -134t10.5 -134.5t29.5 -124.5t46.5 -110.5t60.5 -92.5h-91q-34 37 -62.5 84.5t-49.5 105.5t-32.5 126t-11.5 146z" />
    <glyph glyph-name="uni24A5" unicode="&#x24a5;" horiz-adv-x="920" 
d="M410 603h104v-99h-104v99zM513 100q0 -95 -36 -147.5t-121 -52.5q-24 0 -35.5 1.5t-28.5 6.5l8 82q15 -4 22.5 -5t20.5 -1q15 0 27.5 4t22 16t15 34t5.5 57v363h100v-358zM910 286q0 -78 -11.5 -146t-32.5 -126t-49.5 -105.5t-62.5 -84.5h-91q33 41 60.5 92.5t46.5 110.5
t29.5 124.5t10.5 134.5t-10.5 134t-29.5 124.5t-46.5 111t-60.5 92.5h91q34 -37 62.5 -84.5t49.5 -105.5t32.5 -126t11.5 -146zM9 286q0 78 11.5 146t32.5 126t49.5 105.5t62.5 84.5h91q-33 -41 -60.5 -92.5t-46.5 -111t-29.5 -124.5t-10.5 -134t10.5 -134.5t29.5 -124.5
t46.5 -110.5t60.5 -92.5h-91q-34 37 -62.5 84.5t-49.5 105.5t-32.5 126t-11.5 146z" />
    <glyph glyph-name="uni24A6" unicode="&#x24a6;" horiz-adv-x="920" 
d="M910 286q0 -78 -11.5 -146t-32.5 -126t-49.5 -105.5t-62.5 -84.5h-91q33 41 60.5 92.5t46.5 110.5t29.5 124.5t10.5 134.5t-10.5 134t-29.5 124.5t-46.5 111t-60.5 92.5h91q34 -37 62.5 -84.5t49.5 -105.5t32.5 -126t11.5 -146zM9 286q0 78 11.5 146t32.5 126t49.5 105.5
t62.5 84.5h91q-33 -41 -60.5 -92.5t-46.5 -111t-29.5 -124.5t-10.5 -134t10.5 -134.5t29.5 -124.5t46.5 -110.5t60.5 -92.5h-91q-34 37 -62.5 84.5t-49.5 105.5t-32.5 126t-11.5 146zM401 37h-100v585h100v-331l151 162h116l-177 -181l188 -235h-119l-129 174l-30 -33v-141z
" />
    <glyph glyph-name="uni24A7" unicode="&#x24a7;" horiz-adv-x="920" 
d="M410 602h101v-585h-101v585zM910 286q0 -78 -11.5 -146t-32.5 -126t-49.5 -105.5t-62.5 -84.5h-91q33 41 60.5 92.5t46.5 110.5t29.5 124.5t10.5 134.5t-10.5 134t-29.5 124.5t-46.5 111t-60.5 92.5h91q34 -37 62.5 -84.5t49.5 -105.5t32.5 -126t11.5 -146zM9 286
q0 78 11.5 146t32.5 126t49.5 105.5t62.5 84.5h91q-33 -41 -60.5 -92.5t-46.5 -111t-29.5 -124.5t-10.5 -134t10.5 -134.5t29.5 -124.5t46.5 -110.5t60.5 -92.5h-91q-34 37 -62.5 84.5t-49.5 105.5t-32.5 126t-11.5 146z" />
    <glyph glyph-name="uni24A8" unicode="&#x24a8;" horiz-adv-x="920" 
d="M279 100h-99v417h91q2 -11 3 -20.5t3 -20.5q36 49 92 49q36 0 68 -15.5t53 -48.5q32 40 62 52t56 12q30 0 57.5 -10.5t48.5 -32.5t33.5 -56t12.5 -80v-246h-99v242q0 55 -18 76t-46 21q-14 0 -27.5 -6t-24.5 -18t-18 -29.5t-7 -39.5v-246h-99v242q0 55 -18 76t-46 21
q-14 0 -28 -6t-25 -18t-18 -29t-7 -39v-247zM9 286q0 78 11.5 146t32.5 126t49.5 105.5t62.5 84.5h91q-33 -41 -60.5 -92.5t-46.5 -111t-29.5 -124.5t-10.5 -134t10.5 -134.5t29.5 -124.5t46.5 -110.5t60.5 -92.5h-91q-34 37 -62.5 84.5t-49.5 105.5t-32.5 126t-11.5 146z
M910 286q0 -78 -11.5 -146t-32.5 -126t-49.5 -105.5t-62.5 -84.5h-91q33 41 60.5 92.5t46.5 110.5t29.5 124.5t10.5 134.5t-10.5 134t-29.5 124.5t-46.5 111t-60.5 92.5h91q34 -37 62.5 -84.5t49.5 -105.5t32.5 -126t11.5 -146z" />
    <glyph glyph-name="uni24A9" unicode="&#x24a9;" horiz-adv-x="920" 
d="M375 100h-101v416h91q2 -10 3.5 -19t3.5 -19q19 21 48.5 33.5t55.5 12.5q36 0 67 -10.5t54 -32t36 -55.5t13 -80v-246h-102v242q0 55 -21 76t-58 21q-15 0 -31 -6t-29 -18t-21.5 -29t-8.5 -39v-247zM910 286q0 -78 -11.5 -146t-32.5 -126t-49.5 -105.5t-62.5 -84.5h-91
q33 41 60.5 92.5t46.5 110.5t29.5 124.5t10.5 134.5t-10.5 134t-29.5 124.5t-46.5 111t-60.5 92.5h91q34 -37 62.5 -84.5t49.5 -105.5t32.5 -126t11.5 -146zM9 286q0 78 11.5 146t32.5 126t49.5 105.5t62.5 84.5h91q-33 -41 -60.5 -92.5t-46.5 -111t-29.5 -124.5t-10.5 -134
t10.5 -134.5t29.5 -124.5t46.5 -110.5t60.5 -92.5h-91q-34 37 -62.5 84.5t-49.5 105.5t-32.5 126t-11.5 146z" />
    <glyph glyph-name="uni24AA" unicode="&#x24aa;" horiz-adv-x="920" 
d="M460 176q48 0 76.5 31t28.5 99t-28.5 99.5t-76.5 31.5q-49 0 -77 -31.5t-28 -99.5t28 -99t77 -31zM460 90q-45 0 -83 14t-66 41t-43.5 67.5t-15.5 93.5t15.5 93.5t43.5 68t66 41.5t83 14t83 -14t66 -41.5t43.5 -68t15.5 -93.5t-15.5 -93.5t-43.5 -67.5t-66 -41t-83 -14z
M910 286q0 -78 -11.5 -146t-32.5 -126t-49.5 -105.5t-62.5 -84.5h-91q33 41 60.5 92.5t46.5 110.5t29.5 124.5t10.5 134.5t-10.5 134t-29.5 124.5t-46.5 111t-60.5 92.5h91q34 -37 62.5 -84.5t49.5 -105.5t32.5 -126t11.5 -146zM9 286q0 78 11.5 146t32.5 126t49.5 105.5
t62.5 84.5h91q-33 -41 -60.5 -92.5t-46.5 -111t-29.5 -124.5t-10.5 -134t10.5 -134.5t29.5 -124.5t46.5 -110.5t60.5 -92.5h-91q-34 37 -62.5 84.5t-49.5 105.5t-32.5 126t-11.5 146z" />
    <glyph glyph-name="uni24AB" unicode="&#x24ab;" horiz-adv-x="920" 
d="M495 235q45 0 73 33t28 97q0 65 -28 98t-73 33q-15 0 -31 -6t-29 -18t-21.5 -29t-8.5 -39v-85q0 -21 8.5 -36.5t21.5 -26t29 -16t31 -5.5zM396 573q2 -9 3.5 -19t3.5 -19q19 21 47.5 33.5t55.5 12.5q38 0 73 -14t61.5 -41t42 -67.5t15.5 -93.5t-15.5 -93.5t-42 -67.5
t-61.5 -41t-73 -14q-27 0 -55 9.5t-46 30.5v-183h-101v567h92zM910 286q0 -78 -11.5 -146t-32.5 -126t-49.5 -105.5t-62.5 -84.5h-91q33 41 60.5 92.5t46.5 110.5t29.5 124.5t10.5 134.5t-10.5 134t-29.5 124.5t-46.5 111t-60.5 92.5h91q34 -37 62.5 -84.5t49.5 -105.5
t32.5 -126t11.5 -146zM9 286q0 78 11.5 146t32.5 126t49.5 105.5t62.5 84.5h91q-33 -41 -60.5 -92.5t-46.5 -111t-29.5 -124.5t-10.5 -134t10.5 -134.5t29.5 -124.5t46.5 -110.5t60.5 -92.5h-91q-34 37 -62.5 84.5t-49.5 105.5t-32.5 126t-11.5 146z" />
    <glyph glyph-name="uni24AC" unicode="&#x24ac;" horiz-adv-x="920" 
d="M424 221q15 0 31.5 6t29.5 18t21.5 29t8.5 39v84q0 21 -8.5 37t-21.5 26.5t-29.5 16t-31.5 5.5q-45 0 -73 -33t-28 -98q0 -64 28 -97t73 -33zM516 528q2 7 4 16.5t3 14.5h92v-567h-100v187q-19 -29 -46 -36.5t-56 -7.5q-39 0 -73.5 14t-61 41t-42 67.5t-15.5 93.5
t15.5 93.5t42 67.5t61 41t73.5 14q29 0 56.5 -7.5t46.5 -31.5zM910 286q0 -78 -11.5 -146t-32.5 -126t-49.5 -105.5t-62.5 -84.5h-91q33 41 60.5 92.5t46.5 110.5t29.5 124.5t10.5 134.5t-10.5 134t-29.5 124.5t-46.5 111t-60.5 92.5h91q34 -37 62.5 -84.5t49.5 -105.5
t32.5 -126t11.5 -146zM9 286q0 78 11.5 146t32.5 126t49.5 105.5t62.5 84.5h91q-33 -41 -60.5 -92.5t-46.5 -111t-29.5 -124.5t-10.5 -134t10.5 -134.5t29.5 -124.5t46.5 -110.5t60.5 -92.5h-91q-34 37 -62.5 84.5t-49.5 105.5t-32.5 126t-11.5 146z" />
    <glyph glyph-name="uni24AD" unicode="&#x24ad;" horiz-adv-x="920" 
d="M554 504q27 0 42 -2t29 -6l-5 -84q-10 0 -27.5 2t-38.5 2q-41 0 -68.5 -24t-27.5 -71v-241h-100v416h91l7 -49q16 22 41 39.5t57 17.5zM910 286q0 -78 -11.5 -146t-32.5 -126t-49.5 -105.5t-62.5 -84.5h-91q33 41 60.5 92.5t46.5 110.5t29.5 124.5t10.5 134.5t-10.5 134
t-29.5 124.5t-46.5 111t-60.5 92.5h91q34 -37 62.5 -84.5t49.5 -105.5t32.5 -126t11.5 -146zM9 286q0 78 11.5 146t32.5 126t49.5 105.5t62.5 84.5h91q-33 -41 -60.5 -92.5t-46.5 -111t-29.5 -124.5t-10.5 -134t10.5 -134.5t29.5 -124.5t46.5 -110.5t60.5 -92.5h-91
q-34 37 -62.5 84.5t-49.5 105.5t-32.5 126t-11.5 146z" />
    <glyph glyph-name="uni24AE" unicode="&#x24ae;" horiz-adv-x="920" 
d="M452 91q-22 0 -45 2t-45 6t-41 9t-32 11l16 82q29 -11 65 -19t69 -8q53 0 72 11t19 28q0 21 -23 32.5t-56 19.5l-30 8q-23 7 -45.5 16.5t-40.5 23.5t-29 35t-11 50q0 27 9.5 50t30 40t53 26.5t78.5 9.5q41 0 81 -9.5t65 -19.5l-18 -78q-10 4 -24.5 8t-31 7.5t-34 6
t-32.5 2.5q-47 0 -63 -10.5t-16 -27.5t16 -27t44 -15l36 -9q30 -7 56 -17.5t44.5 -26t29 -37.5t10.5 -52q0 -63 -44.5 -95.5t-132.5 -32.5zM910 286q0 -78 -11.5 -146t-32.5 -126t-49.5 -105.5t-62.5 -84.5h-91q33 41 60.5 92.5t46.5 110.5t29.5 124.5t10.5 134.5t-10.5 134
t-29.5 124.5t-46.5 111t-60.5 92.5h91q34 -37 62.5 -84.5t49.5 -105.5t32.5 -126t11.5 -146zM9 286q0 78 11.5 146t32.5 126t49.5 105.5t62.5 84.5h91q-33 -41 -60.5 -92.5t-46.5 -111t-29.5 -124.5t-10.5 -134t10.5 -134.5t29.5 -124.5t46.5 -110.5t60.5 -92.5h-91
q-34 37 -62.5 84.5t-49.5 105.5t-32.5 126t-11.5 146z" />
    <glyph glyph-name="uni24AF" unicode="&#x24af;" horiz-adv-x="920" 
d="M381 557h100v-98h105v-79h-105v-194q0 -64 49 -64q38 0 60 7l16 -81q-14 -4 -34 -8t-54 -4q-60 0 -98.5 35.5t-38.5 106.5v202h-66v79h66v98zM910 286q0 -78 -11.5 -146t-32.5 -126t-49.5 -105.5t-62.5 -84.5h-91q33 41 60.5 92.5t46.5 110.5t29.5 124.5t10.5 134.5
t-10.5 134t-29.5 124.5t-46.5 111t-60.5 92.5h91q34 -37 62.5 -84.5t49.5 -105.5t32.5 -126t11.5 -146zM9 286q0 78 11.5 146t32.5 126t49.5 105.5t62.5 84.5h91q-33 -41 -60.5 -92.5t-46.5 -111t-29.5 -124.5t-10.5 -134t10.5 -134.5t29.5 -124.5t46.5 -110.5t60.5 -92.5
h-91q-34 37 -62.5 84.5t-49.5 105.5t-32.5 126t-11.5 146z" />
    <glyph glyph-name="uni24B0" unicode="&#x24b0;" horiz-adv-x="920" 
d="M534 497h100v-417h-92q-2 10 -3.5 19t-3.5 20q-19 -22 -48 -34.5t-56 -12.5q-36 0 -67 10.5t-54.5 32t-36.5 55.5t-13 81v246h100v-242q0 -56 22 -76.5t61 -20.5q15 0 31 6t29.5 18t22 29t8.5 39v247zM910 286q0 -78 -11.5 -146t-32.5 -126t-49.5 -105.5t-62.5 -84.5h-91
q33 41 60.5 92.5t46.5 110.5t29.5 124.5t10.5 134.5t-10.5 134t-29.5 124.5t-46.5 111t-60.5 92.5h91q34 -37 62.5 -84.5t49.5 -105.5t32.5 -126t11.5 -146zM9 286q0 78 11.5 146t32.5 126t49.5 105.5t62.5 84.5h91q-33 -41 -60.5 -92.5t-46.5 -111t-29.5 -124.5t-10.5 -134
t10.5 -134.5t29.5 -124.5t46.5 -110.5t60.5 -92.5h-91q-34 37 -62.5 84.5t-49.5 105.5t-32.5 126t-11.5 146z" />
    <glyph glyph-name="uni24B1" unicode="&#x24b1;" horiz-adv-x="920" 
d="M516 73h-113l-160 415h112l106 -296l108 296h107zM910 286q0 -78 -11.5 -146t-32.5 -126t-49.5 -105.5t-62.5 -84.5h-91q33 41 60.5 92.5t46.5 110.5t29.5 124.5t10.5 134.5t-10.5 134t-29.5 124.5t-46.5 111t-60.5 92.5h91q34 -37 62.5 -84.5t49.5 -105.5t32.5 -126
t11.5 -146zM9 286q0 78 11.5 146t32.5 126t49.5 105.5t62.5 84.5h91q-33 -41 -60.5 -92.5t-46.5 -111t-29.5 -124.5t-10.5 -134t10.5 -134.5t29.5 -124.5t46.5 -110.5t60.5 -92.5h-91q-34 37 -62.5 84.5t-49.5 105.5t-32.5 126t-11.5 146z" />
    <glyph glyph-name="uni24B2" unicode="&#x24b2;" horiz-adv-x="920" 
d="M643 69h-105l-78 273l-78 -273h-106l-132 416h111l77 -284l79 284h104l79 -287l76 287h106zM910 286q0 -78 -11.5 -146t-32.5 -126t-49.5 -105.5t-62.5 -84.5h-91q33 41 60.5 92.5t46.5 110.5t29.5 124.5t10.5 134.5t-10.5 134t-29.5 124.5t-46.5 111t-60.5 92.5h91
q34 -37 62.5 -84.5t49.5 -105.5t32.5 -126t11.5 -146zM9 286q0 78 11.5 146t32.5 126t49.5 105.5t62.5 84.5h91q-33 -41 -60.5 -92.5t-46.5 -111t-29.5 -124.5t-10.5 -134t10.5 -134.5t29.5 -124.5t46.5 -110.5t60.5 -92.5h-91q-34 37 -62.5 84.5t-49.5 105.5t-32.5 126
t-11.5 146z" />
    <glyph glyph-name="uni24B3" unicode="&#x24b3;" horiz-adv-x="920" 
d="M910 286q0 -78 -11.5 -146t-32.5 -126t-49.5 -105.5t-62.5 -84.5h-91q33 41 60.5 92.5t46.5 110.5t29.5 124.5t10.5 134.5t-10.5 134t-29.5 124.5t-46.5 111t-60.5 92.5h91q34 -37 62.5 -84.5t49.5 -105.5t32.5 -126t11.5 -146zM9 286q0 78 11.5 146t32.5 126t49.5 105.5
t62.5 84.5h91q-33 -41 -60.5 -92.5t-46.5 -111t-29.5 -124.5t-10.5 -134t10.5 -134.5t29.5 -124.5t46.5 -110.5t60.5 -92.5h-91q-34 37 -62.5 84.5t-49.5 105.5t-32.5 126t-11.5 146zM464 385l83 125h115l-143 -201l154 -215h-117l-99 138l-95 -138h-115l156 214l-145 202
h117z" />
    <glyph glyph-name="uni24B4" unicode="&#x24b4;" horiz-adv-x="920" 
d="M334 -33l86 206l-170 365h110l114 -251l107 251h108l-249 -571h-106zM9 286q0 78 11.5 146t32.5 126t49.5 105.5t62.5 84.5h91q-33 -41 -60.5 -92.5t-46.5 -111t-29.5 -124.5t-10.5 -134t10.5 -134.5t29.5 -124.5t46.5 -110.5t60.5 -92.5h-91q-34 37 -62.5 84.5
t-49.5 105.5t-32.5 126t-11.5 146zM910 286q0 -78 -11.5 -146t-32.5 -126t-49.5 -105.5t-62.5 -84.5h-91q33 41 60.5 92.5t46.5 110.5t29.5 124.5t10.5 134.5t-10.5 134t-29.5 124.5t-46.5 111t-60.5 92.5h91q34 -37 62.5 -84.5t49.5 -105.5t32.5 -126t11.5 -146z" />
    <glyph glyph-name="uni24B5" unicode="&#x24b5;" horiz-adv-x="920" 
d="M284 177l220 255h-211v82h336v-78l-223 -256h230v-81h-352v78zM910 286q0 -78 -11.5 -146t-32.5 -126t-49.5 -105.5t-62.5 -84.5h-91q33 41 60.5 92.5t46.5 110.5t29.5 124.5t10.5 134.5t-10.5 134t-29.5 124.5t-46.5 111t-60.5 92.5h91q34 -37 62.5 -84.5t49.5 -105.5
t32.5 -126t11.5 -146zM9 286q0 78 11.5 146t32.5 126t49.5 105.5t62.5 84.5h91q-33 -41 -60.5 -92.5t-46.5 -111t-29.5 -124.5t-10.5 -134t10.5 -134.5t29.5 -124.5t46.5 -110.5t60.5 -92.5h-91q-34 37 -62.5 84.5t-49.5 105.5t-32.5 126t-11.5 146z" />
    <glyph glyph-name="uni24D0" unicode="&#x24d0;" horiz-adv-x="920" 
d="M546 285h-83q-15 0 -31 -2.5t-29 -8.5t-21.5 -16.5t-8.5 -27.5q0 -18 6.5 -29.5t18 -17.5t26 -8t30.5 -2q15 0 31.5 4t30 12t22 19.5t8.5 26.5v50zM646 99h-92l-7 36q-17 -23 -44 -33.5t-57 -10.5q-35 0 -66 7t-54.5 23t-37 42t-13.5 64q0 39 16 65.5t41.5 42t57 22.5
t62.5 7h94v4q0 39 -25.5 56t-61.5 17q-29 0 -63 -6.5t-67 -18.5l-19 78q33 14 71 22t85 8q36 0 69 -7.5t57.5 -26.5t39 -50t14.5 -77v-264zM15 306q0 93 34.5 174.5t94.5 141.5t141.5 94.5t174.5 34.5t174.5 -34.5t141.5 -94.5t94.5 -141.5t34.5 -174.5t-34.5 -174.5
t-94.5 -141.5t-141.5 -94.5t-174.5 -34.5t-174.5 34.5t-141.5 94.5t-94.5 141.5t-34.5 174.5zM99 306q0 -77 28 -143.5t76.5 -116t114.5 -78t142 -28.5t142 28.5t114.5 78t76.5 116t28 143.5q0 76 -28 143t-76.5 116.5t-114.5 78t-142 28.5t-142 -28.5t-114.5 -78
t-76.5 -116.5t-28 -143z" />
    <glyph glyph-name="uni24D1" unicode="&#x24d1;" horiz-adv-x="920" 
d="M484 99q45 0 72.5 33t27.5 97t-27.5 97.5t-72.5 33.5q-15 0 -31.5 -6t-29.5 -18t-21.5 -29t-8.5 -39v-84q0 -21 8.5 -37t21.5 -26.5t29.5 -16t31.5 -5.5zM495 13q-29 0 -57.5 7.5t-45.5 33.5q-2 -12 -4 -17t-3 -16h-92v585h100v-206q19 23 47 34.5t55 11.5q38 0 72.5 -14
t61 -41.5t42.5 -68t16 -93.5t-16 -93.5t-42.5 -67.5t-61 -41t-72.5 -14zM15 306q0 93 34.5 174.5t94.5 141.5t141.5 94.5t174.5 34.5t174.5 -34.5t141.5 -94.5t94.5 -141.5t34.5 -174.5t-34.5 -174.5t-94.5 -141.5t-141.5 -94.5t-174.5 -34.5t-174.5 34.5t-141.5 94.5
t-94.5 141.5t-34.5 174.5zM99 306q0 -77 28 -143.5t76.5 -116t114.5 -78t142 -28.5t142 28.5t114.5 78t76.5 116t28 143.5q0 76 -28 143t-76.5 116.5t-114.5 78t-142 28.5t-142 -28.5t-114.5 -78t-76.5 -116.5t-28 -143z" />
    <glyph glyph-name="uni24D2" unicode="&#x24d2;" horiz-adv-x="920" 
d="M490 91q-99 0 -157.5 55t-58.5 161q0 53 15.5 93.5t43.5 68t68 41.5t89 14q43 0 73.5 -8t53.5 -17l-22 -78q-17 5 -45 11t-60 6q-57 0 -85.5 -31.5t-28.5 -99.5t28.5 -99t85.5 -31q35 0 65.5 5t51.5 13l19 -78q-25 -9 -56.5 -17.5t-79.5 -8.5zM15 306q0 93 34.5 174.5
t94.5 141.5t141.5 94.5t174.5 34.5t174.5 -34.5t141.5 -94.5t94.5 -141.5t34.5 -174.5t-34.5 -174.5t-94.5 -141.5t-141.5 -94.5t-174.5 -34.5t-174.5 34.5t-141.5 94.5t-94.5 141.5t-34.5 174.5zM99 306q0 -77 28 -143.5t76.5 -116t114.5 -78t142 -28.5t142 28.5t114.5 78
t76.5 116t28 143.5q0 76 -28 143t-76.5 116.5t-114.5 78t-142 28.5t-142 -28.5t-114.5 -78t-76.5 -116.5t-28 -143z" />
    <glyph glyph-name="uni24D3" unicode="&#x24d3;" horiz-adv-x="920" 
d="M537 265q0 21 -8.5 37t-21.5 26.5t-29 16t-31 5.5q-46 0 -73.5 -33.5t-27.5 -98.5q0 -64 27.5 -97t73.5 -33q15 0 31 6.5t29 18.5t21.5 29t8.5 38v85zM436 436q27 0 55 -9.5t46 -30.5v200h100v-585h-91q-2 8 -3.5 18t-3.5 19q-19 -28 -47 -36.5t-56 -8.5q-39 0 -73.5 14
t-61 41t-42 67t-15.5 93t15.5 93.5t42 68.5t61 42t73.5 14zM14 306q0 93 34.5 174t94.5 141t141.5 94.5t175.5 34.5q93 0 174.5 -34.5t141.5 -94.5t94.5 -141t34.5 -174t-34.5 -174t-94.5 -141t-141.5 -94.5t-174.5 -34.5q-94 0 -175.5 34.5t-141.5 94.5t-94.5 141
t-34.5 174zM98 306q0 -77 28 -143.5t76.5 -116t114.5 -78t143 -28.5q76 0 142 28.5t114.5 78t76.5 116t28 143.5q0 76 -28 143t-76.5 116.5t-114.5 78t-142 28.5q-77 0 -143 -28.5t-114.5 -78t-76.5 -116.5t-28 -143z" />
    <glyph glyph-name="uni24D4" unicode="&#x24d4;" horiz-adv-x="920" 
d="M484 91q-107 0 -162 56t-55 160q0 103 55 160t147 57q91 0 137 -57t46 -160v-41h-282q3 -27 13.5 -44.5t27 -27.5t39 -13.5t48.5 -3.5q36 0 67.5 6.5t58.5 17.5l19 -82q-29 -13 -71 -20.5t-88 -7.5zM463 440q-16 0 -31.5 -5.5t-28.5 -17t-22 -30t-11 -44.5h178
q-3 52 -28 74.5t-57 22.5zM15 306q0 93 34.5 174.5t94.5 141.5t141.5 94.5t174.5 34.5t174.5 -34.5t141.5 -94.5t94.5 -141.5t34.5 -174.5t-34.5 -174.5t-94.5 -141.5t-141.5 -94.5t-174.5 -34.5t-174.5 34.5t-141.5 94.5t-94.5 141.5t-34.5 174.5zM99 306q0 -77 28 -143.5
t76.5 -116t114.5 -78t142 -28.5t142 28.5t114.5 78t76.5 116t28 143.5q0 76 -28 143t-76.5 116.5t-114.5 78t-142 28.5t-142 -28.5t-114.5 -78t-76.5 -116.5t-28 -143z" />
    <glyph glyph-name="uni24D5" unicode="&#x24d5;" horiz-adv-x="920" 
d="M392 335h-66v80h66v43q0 72 39.5 105t102.5 33q32 0 52 -4.5t31 -7.5l-17 -80q-14 4 -26.5 5t-26.5 1q-27 0 -41 -14t-14 -46v-35h96v-80h-96v-336h-100v336zM15 306q0 93 34.5 174.5t94.5 141.5t141.5 94.5t174.5 34.5t174.5 -34.5t141.5 -94.5t94.5 -141.5t34.5 -174.5
t-34.5 -174.5t-94.5 -141.5t-141.5 -94.5t-174.5 -34.5t-174.5 34.5t-141.5 94.5t-94.5 141.5t-34.5 174.5zM99 306q0 -77 28 -143.5t76.5 -116t114.5 -78t142 -28.5t142 28.5t114.5 78t76.5 116t28 143.5q0 76 -28 143t-76.5 116.5t-114.5 78t-142 28.5t-142 -28.5
t-114.5 -78t-76.5 -116.5t-28 -143z" />
    <glyph glyph-name="uni24D6" unicode="&#x24d6;" horiz-adv-x="920" 
d="M546 407q0 21 -8.5 37t-21.5 26.5t-29 16t-31 5.5q-45 0 -73 -32t-28 -90q0 -60 28 -92t73 -32q15 0 31 6.5t29 18.5t21.5 29t8.5 38v69zM546 203q-16 -27 -44.5 -35t-56.5 -8q-39 0 -73.5 14t-61 40.5t-42 65.5t-15.5 90q0 50 15.5 88.5t42 64.5t61 39.5t73.5 13.5
q29 0 56.5 -7.5t46.5 -31.5q2 7 4 16.5t3 14.5h91v-372q0 -105 -44.5 -154t-147.5 -49q-57 0 -96.5 8t-67.5 21q5 20 9 40.5t9 40.5q29 -11 57.5 -19t75.5 -8q28 0 48 4.5t33 16.5t18.5 34.5t5.5 58.5v13zM14 306q0 93 34.5 174t94.5 141t141.5 94.5t175.5 34.5
q93 0 174.5 -34.5t141.5 -94.5t94.5 -141t34.5 -174t-34.5 -174t-94.5 -141t-141.5 -94.5t-174.5 -34.5q-94 0 -175.5 34.5t-141.5 94.5t-94.5 141t-34.5 174zM98 306q0 -77 28 -143.5t76.5 -116t114.5 -78t143 -28.5q76 0 142 28.5t114.5 78t76.5 116t28 143.5
q0 76 -28 143t-76.5 116.5t-114.5 78t-142 28.5q-77 0 -143 -28.5t-114.5 -78t-76.5 -116.5t-28 -143z" />
    <glyph glyph-name="uni24D7" unicode="&#x24d7;" horiz-adv-x="920" 
d="M382 27h-100v585h100v-206q18 25 46.5 35.5t56.5 10.5q36 0 66.5 -10.5t53 -32.5t35.5 -56t13 -80v-246h-100v242q0 55 -21 76t-58 21q-15 0 -31.5 -6t-30 -18t-22 -29t-8.5 -39v-247zM14 306q0 93 34.5 174t94.5 141t141.5 94.5t175.5 34.5q93 0 174.5 -34.5
t141.5 -94.5t94.5 -141t34.5 -174t-34.5 -174t-94.5 -141t-141.5 -94.5t-174.5 -34.5q-94 0 -175.5 34.5t-141.5 94.5t-94.5 141t-34.5 174zM98 306q0 -77 28 -143.5t76.5 -116t114.5 -78t143 -28.5q76 0 142 28.5t114.5 78t76.5 116t28 143.5q0 76 -28 143t-76.5 116.5
t-114.5 78t-142 28.5q-77 0 -143 -28.5t-114.5 -78t-76.5 -116.5t-28 -143z" />
    <glyph glyph-name="uni24D8" unicode="&#x24d8;" horiz-adv-x="920" 
d="M410 435h101v-416h-101v416zM408 582h104v-101h-104v101zM15 306q0 93 34.5 174.5t94.5 141.5t141.5 94.5t174.5 34.5t174.5 -34.5t141.5 -94.5t94.5 -141.5t34.5 -174.5t-34.5 -174.5t-94.5 -141.5t-141.5 -94.5t-174.5 -34.5t-174.5 34.5t-141.5 94.5t-94.5 141.5
t-34.5 174.5zM99 306q0 -77 28 -143.5t76.5 -116t114.5 -78t142 -28.5t142 28.5t114.5 78t76.5 116t28 143.5q0 76 -28 143t-76.5 116.5t-114.5 78t-142 28.5t-142 -28.5t-114.5 -78t-76.5 -116.5t-28 -143z" />
    <glyph glyph-name="uni24D9" unicode="&#x24d9;" horiz-adv-x="920" 
d="M428 613h103v-99h-103v99zM530 186q0 -95 -36 -147.5t-121 -52.5q-24 0 -35 1.5t-28 6.5l8 82q14 -4 22 -5t20 -1q15 0 28 4t22 16t14.5 34t5.5 57v287h100v-282zM15 306q0 93 34.5 174.5t94.5 141.5t141.5 94.5t174.5 34.5t174.5 -34.5t141.5 -94.5t94.5 -141.5
t34.5 -174.5t-34.5 -174.5t-94.5 -141.5t-141.5 -94.5t-174.5 -34.5t-174.5 34.5t-141.5 94.5t-94.5 141.5t-34.5 174.5zM99 306q0 -77 28 -143.5t76.5 -116t114.5 -78t142 -28.5t142 28.5t114.5 78t76.5 116t28 143.5q0 76 -28 143t-76.5 116.5t-114.5 78t-142 28.5
t-142 -28.5t-114.5 -78t-76.5 -116.5t-28 -143z" />
    <glyph glyph-name="uni24DA" unicode="&#x24da;" horiz-adv-x="920" 
d="M15 306q0 93 34.5 174.5t94.5 141.5t141.5 94.5t174.5 34.5t174.5 -34.5t141.5 -94.5t94.5 -141.5t34.5 -174.5t-34.5 -174.5t-94.5 -141.5t-141.5 -94.5t-174.5 -34.5t-174.5 34.5t-141.5 94.5t-94.5 141.5t-34.5 174.5zM99 306q0 -77 28 -143.5t76.5 -116t114.5 -78
t142 -28.5t142 28.5t114.5 78t76.5 116t28 143.5q0 76 -28 143t-76.5 116.5t-114.5 78t-142 28.5t-142 -28.5t-114.5 -78t-76.5 -116.5t-28 -143zM401 37h-100v585h100v-331l151 162h116l-177 -181l188 -235h-119l-129 174l-30 -33v-141z" />
    <glyph glyph-name="uni24DB" unicode="&#x24db;" horiz-adv-x="920" 
d="M410 602h101v-585h-101v585zM15 306q0 93 34.5 174.5t94.5 141.5t141.5 94.5t174.5 34.5t174.5 -34.5t141.5 -94.5t94.5 -141.5t34.5 -174.5t-34.5 -174.5t-94.5 -141.5t-141.5 -94.5t-174.5 -34.5t-174.5 34.5t-141.5 94.5t-94.5 141.5t-34.5 174.5zM99 306
q0 -77 28 -143.5t76.5 -116t114.5 -78t142 -28.5t142 28.5t114.5 78t76.5 116t28 143.5q0 76 -28 143t-76.5 116.5t-114.5 78t-142 28.5t-142 -28.5t-114.5 -78t-76.5 -116.5t-28 -143z" />
    <glyph glyph-name="uni24DC" unicode="&#x24dc;" horiz-adv-x="920" 
d="M14 306q0 93 34.5 174t94.5 141t141.5 94.5t175.5 34.5q93 0 174.5 -34.5t141.5 -94.5t94.5 -141t34.5 -174t-34.5 -174t-94.5 -141t-141.5 -94.5t-174.5 -34.5q-94 0 -175.5 34.5t-141.5 94.5t-94.5 141t-34.5 174zM98 306q0 -77 28 -143.5t76.5 -116t114.5 -78
t143 -28.5q76 0 142 28.5t114.5 78t76.5 116t28 143.5q0 76 -28 143t-76.5 116.5t-114.5 78t-142 28.5q-77 0 -143 -28.5t-114.5 -78t-76.5 -116.5t-28 -143zM282 100h-99v417h91l5 -41q37 49 92 49q36 0 67.5 -15.5t52.5 -47.5q31 39 60.5 51t55.5 12q30 0 57.5 -10.5
t48 -32.5t32.5 -56t12 -80v-246h-99v242q0 55 -17.5 76t-44.5 21q-28 0 -52 -24t-24 -69v-246h-99v242q0 55 -17.5 76t-44.5 21q-14 0 -27.5 -6t-24.5 -18t-18 -29t-7 -39v-247z" />
    <glyph glyph-name="uni24DD" unicode="&#x24dd;" horiz-adv-x="920" 
d="M375 100h-101v416h91q2 -10 3.5 -19t3.5 -19q19 21 48.5 33.5t55.5 12.5q36 0 67 -10.5t54 -32t36 -55.5t13 -80v-246h-102v242q0 55 -21 76t-58 21q-15 0 -31 -6t-29 -18t-21.5 -29t-8.5 -39v-247zM14 306q0 93 34.5 174t94.5 141t141.5 94.5t175.5 34.5
q93 0 174.5 -34.5t141.5 -94.5t94.5 -141t34.5 -174t-34.5 -174t-94.5 -141t-141.5 -94.5t-174.5 -34.5q-94 0 -175.5 34.5t-141.5 94.5t-94.5 141t-34.5 174zM98 306q0 -77 28 -143.5t76.5 -116t114.5 -78t143 -28.5q76 0 142 28.5t114.5 78t76.5 116t28 143.5
q0 76 -28 143t-76.5 116.5t-114.5 78t-142 28.5q-77 0 -143 -28.5t-114.5 -78t-76.5 -116.5t-28 -143z" />
    <glyph glyph-name="uni24DE" unicode="&#x24de;" horiz-adv-x="920" 
d="M460 176q48 0 76.5 31t28.5 99t-28.5 99.5t-76.5 31.5q-49 0 -77 -31.5t-28 -99.5t28 -99t77 -31zM460 90q-45 0 -83 14t-66 41t-43.5 67.5t-15.5 93.5t15.5 93.5t43.5 68t66 41.5t83 14t83 -14t66 -41.5t43.5 -68t15.5 -93.5t-15.5 -93.5t-43.5 -67.5t-66 -41t-83 -14z
M15 306q0 93 34.5 174.5t94.5 141.5t141.5 94.5t174.5 34.5t174.5 -34.5t141.5 -94.5t94.5 -141.5t34.5 -174.5t-34.5 -174.5t-94.5 -141.5t-141.5 -94.5t-174.5 -34.5t-174.5 34.5t-141.5 94.5t-94.5 141.5t-34.5 174.5zM99 306q0 -77 28 -143.5t76.5 -116t114.5 -78
t142 -28.5t142 28.5t114.5 78t76.5 116t28 143.5q0 76 -28 143t-76.5 116.5t-114.5 78t-142 28.5t-142 -28.5t-114.5 -78t-76.5 -116.5t-28 -143z" />
    <glyph glyph-name="uni24DF" unicode="&#x24df;" horiz-adv-x="920" 
d="M495 221q45 0 73 33t28 97q0 65 -28 98t-73 33q-15 0 -31 -5.5t-29 -16t-21.5 -26.5t-8.5 -37v-84q0 -22 8.5 -39t21.5 -29t29 -18t31 -6zM396 559q1 -5 3 -14.5t4 -16.5q19 24 46.5 31.5t56.5 7.5q39 0 73.5 -14t61 -41t42 -67.5t15.5 -93.5t-15.5 -93.5t-42 -67.5
t-61 -41t-73.5 -14q-29 0 -56 7.5t-45 36.5v-187h-101v567h92zM14 306q0 93 34.5 174t94.5 141t141.5 94.5t175.5 34.5q93 0 174.5 -34.5t141.5 -94.5t94.5 -141t34.5 -174t-34.5 -174t-94.5 -141t-141.5 -94.5t-174.5 -34.5q-94 0 -175.5 34.5t-141.5 94.5t-94.5 141
t-34.5 174zM98 306q0 -77 28 -143.5t76.5 -116t114.5 -78t143 -28.5q76 0 142 28.5t114.5 78t76.5 116t28 143.5q0 76 -28 143t-76.5 116.5t-114.5 78t-142 28.5q-77 0 -143 -28.5t-114.5 -78t-76.5 -116.5t-28 -143z" />
    <glyph glyph-name="uni24E0" unicode="&#x24e0;" horiz-adv-x="920" 
d="M424 221q15 0 31.5 6t29.5 18t21.5 29t8.5 39v84q0 21 -8.5 37t-21.5 26.5t-29.5 16t-31.5 5.5q-45 0 -73 -33t-28 -98q0 -64 28 -97t73 -33zM516 528q2 7 4 16.5t3 14.5h92v-567h-100v187q-19 -29 -46 -36.5t-56 -7.5q-39 0 -73.5 14t-61 41t-42 67.5t-15.5 93.5
t15.5 93.5t42 67.5t61 41t73.5 14q29 0 56.5 -7.5t46.5 -31.5zM905 306q0 -93 -34.5 -174t-94.5 -141t-141.5 -94.5t-174.5 -34.5q-94 0 -175.5 34.5t-141.5 94.5t-94.5 141t-34.5 174t34.5 174t94.5 141t141.5 94.5t175.5 34.5q93 0 174.5 -34.5t141.5 -94.5t94.5 -141
t34.5 -174zM821 306q0 76 -28 143t-76.5 116.5t-114.5 78t-142 28.5q-77 0 -143 -28.5t-114.5 -78t-76.5 -116.5t-28 -143q0 -77 28 -143.5t76.5 -116t114.5 -78t143 -28.5q76 0 142 28.5t114.5 78t76.5 116t28 143.5z" />
    <glyph glyph-name="uni24E1" unicode="&#x24e1;" horiz-adv-x="920" 
d="M554 504q27 0 42 -2t29 -7q-2 -21 -3.5 -41.5t-2.5 -42.5q-10 1 -27 3t-38 2q-42 0 -69.5 -24t-27.5 -71v-242h-100v417h92q2 -13 3.5 -24.5t3.5 -24.5q15 22 40.5 39.5t57.5 17.5zM905 306q0 -93 -34.5 -174t-94.5 -141t-141.5 -94.5t-174.5 -34.5q-94 0 -175.5 34.5
t-141.5 94.5t-94.5 141t-34.5 174t34.5 174t94.5 141t141.5 94.5t175.5 34.5q93 0 174.5 -34.5t141.5 -94.5t94.5 -141t34.5 -174zM821 306q0 76 -28 143t-76.5 116.5t-114.5 78t-142 28.5q-77 0 -143 -28.5t-114.5 -78t-76.5 -116.5t-28 -143q0 -77 28 -143.5t76.5 -116
t114.5 -78t143 -28.5q76 0 142 28.5t114.5 78t76.5 116t28 143.5z" />
    <glyph glyph-name="uni24E2" unicode="&#x24e2;" horiz-adv-x="920" 
d="M452 91q-45 0 -90.5 7.5t-73.5 20.5q4 20 8.5 40.5t8.5 41.5q29 -11 65 -19t69 -8q53 0 71.5 10.5t18.5 27.5q0 18 -17.5 28.5t-43.5 19t-56 17t-56 23t-43.5 37.5t-17.5 61q0 27 9.5 50t30 40t53 26.5t78.5 9.5q40 0 80.5 -10t65.5 -20q-5 -20 -9 -38.5t-9 -38.5
q-10 4 -24.5 8t-31 7.5t-34 6t-32.5 2.5q-47 0 -63 -10.5t-16 -27.5t16 -27t44 -15l36 -9q30 -8 55.5 -18t44.5 -26t29.5 -38t10.5 -52q0 -63 -44.5 -95t-132.5 -32zM905 306q0 -93 -34.5 -174t-94.5 -141t-141.5 -94.5t-174.5 -34.5q-94 0 -175.5 34.5t-141.5 94.5
t-94.5 141t-34.5 174t34.5 174t94.5 141t141.5 94.5t175.5 34.5q93 0 174.5 -34.5t141.5 -94.5t94.5 -141t34.5 -174zM821 306q0 76 -28 143t-76.5 116.5t-114.5 78t-142 28.5q-77 0 -143 -28.5t-114.5 -78t-76.5 -116.5t-28 -143q0 -77 28 -143.5t76.5 -116t114.5 -78
t143 -28.5q76 0 142 28.5t114.5 78t76.5 116t28 143.5z" />
    <glyph glyph-name="uni24E3" unicode="&#x24e3;" horiz-adv-x="920" 
d="M381 557h100v-98h104v-79h-104v-194q0 -65 49 -65q14 0 29.5 1t30.5 6q5 -20 8 -40t8 -40q-14 -4 -34.5 -8t-54.5 -4q-60 0 -98 35.5t-38 105.5v203h-66v79h66v98zM905 306q0 -93 -34.5 -174t-94.5 -141t-141.5 -94.5t-174.5 -34.5q-94 0 -175.5 34.5t-141.5 94.5
t-94.5 141t-34.5 174t34.5 174t94.5 141t141.5 94.5t175.5 34.5q93 0 174.5 -34.5t141.5 -94.5t94.5 -141t34.5 -174zM821 306q0 76 -28 143t-76.5 116.5t-114.5 78t-142 28.5q-77 0 -143 -28.5t-114.5 -78t-76.5 -116.5t-28 -143q0 -77 28 -143.5t76.5 -116t114.5 -78
t143 -28.5q76 0 142 28.5t114.5 78t76.5 116t28 143.5z" />
    <glyph glyph-name="uni24E4" unicode="&#x24e4;" horiz-adv-x="920" 
d="M534 497h100v-417h-92q-2 10 -3.5 19t-3.5 20q-19 -22 -48 -34.5t-56 -12.5q-36 0 -67 10.5t-54.5 32t-36.5 55.5t-13 81v246h100v-242q0 -56 22 -76.5t61 -20.5q15 0 31 6t29.5 18t22 29t8.5 39v247zM905 306q0 -93 -34.5 -174t-94.5 -141t-141.5 -94.5t-174.5 -34.5
q-94 0 -175.5 34.5t-141.5 94.5t-94.5 141t-34.5 174t34.5 174t94.5 141t141.5 94.5t175.5 34.5q93 0 174.5 -34.5t141.5 -94.5t94.5 -141t34.5 -174zM821 306q0 76 -28 143t-76.5 116.5t-114.5 78t-142 28.5q-77 0 -143 -28.5t-114.5 -78t-76.5 -116.5t-28 -143
q0 -77 28 -143.5t76.5 -116t114.5 -78t143 -28.5q76 0 142 28.5t114.5 78t76.5 116t28 143.5z" />
    <glyph glyph-name="uni24E5" unicode="&#x24e5;" horiz-adv-x="920" 
d="M515 68h-112l-161 415h113q26 -74 52.5 -147.5t53.5 -148.5q26 75 53.5 148.5t54.5 147.5h107zM905 306q0 -93 -34.5 -174t-94.5 -141t-141.5 -94.5t-174.5 -34.5q-94 0 -175.5 34.5t-141.5 94.5t-94.5 141t-34.5 174t34.5 174t94.5 141t141.5 94.5t175.5 34.5
q93 0 174.5 -34.5t141.5 -94.5t94.5 -141t34.5 -174zM821 306q0 76 -28 143t-76.5 116.5t-114.5 78t-142 28.5q-77 0 -143 -28.5t-114.5 -78t-76.5 -116.5t-28 -143q0 -77 28 -143.5t76.5 -116t114.5 -78t143 -28.5q76 0 142 28.5t114.5 78t76.5 116t28 143.5z" />
    <glyph glyph-name="uni24E6" unicode="&#x24e6;" horiz-adv-x="920" 
d="M767 489q-33 -103 -64.5 -205t-64.5 -205h-105q-19 68 -36.5 136t-36.5 136l-74 -272h-107l-127 410h111l73 -278l75 278h103q19 -71 38 -140.5t37 -140.5l72 281h106zM905 306q0 -93 -34.5 -174t-94.5 -141t-141.5 -94.5t-174.5 -34.5q-94 0 -175.5 34.5t-141.5 94.5
t-94.5 141t-34.5 174t34.5 174t94.5 141t141.5 94.5t175.5 34.5q93 0 174.5 -34.5t141.5 -94.5t94.5 -141t34.5 -174zM821 306q0 76 -28 143t-76.5 116.5t-114.5 78t-142 28.5q-77 0 -143 -28.5t-114.5 -78t-76.5 -116.5t-28 -143q0 -77 28 -143.5t76.5 -116t114.5 -78
t143 -28.5q76 0 142 28.5t114.5 78t76.5 116t28 143.5z" />
    <glyph glyph-name="uni24E7" unicode="&#x24e7;" horiz-adv-x="920" 
d="M905 306q0 -93 -34.5 -174t-94.5 -141t-141.5 -94.5t-174.5 -34.5q-94 0 -175.5 34.5t-141.5 94.5t-94.5 141t-34.5 174t34.5 174t94.5 141t141.5 94.5t175.5 34.5q93 0 174.5 -34.5t141.5 -94.5t94.5 -141t34.5 -174zM821 306q0 76 -28 143t-76.5 116.5t-114.5 78
t-142 28.5q-77 0 -143 -28.5t-114.5 -78t-76.5 -116.5t-28 -143q0 -77 28 -143.5t76.5 -116t114.5 -78t143 -28.5q76 0 142 28.5t114.5 78t76.5 116t28 143.5zM464 390l83 124h114q-35 -51 -71 -100.5t-72 -99.5l154 -215h-116q-26 35 -50.5 69t-49.5 69l-95 -138h-114
l155 213l-144 202h117z" />
    <glyph glyph-name="uni24E8" unicode="&#x24e8;" horiz-adv-x="920" 
d="M905 306q0 -93 -34.5 -174t-94.5 -141t-141.5 -94.5t-174.5 -34.5q-94 0 -175.5 34.5t-141.5 94.5t-94.5 141t-34.5 174t34.5 174t94.5 141t141.5 94.5t175.5 34.5q93 0 174.5 -34.5t141.5 -94.5t94.5 -141t34.5 -174zM821 306q0 76 -28 143t-76.5 116.5t-114.5 78
t-142 28.5q-77 0 -143 -28.5t-114.5 -78t-76.5 -116.5t-28 -143q0 -77 28 -143.5t76.5 -116t114.5 -78t143 -28.5q76 0 142 28.5t114.5 78t76.5 116t28 143.5zM420 173q-43 91 -85.5 182t-84.5 183h109q29 -63 57 -126t57 -126l108 252h108l-244 -557h-106z" />
    <glyph glyph-name="uni24E9" unicode="&#x24e9;" horiz-adv-x="920" 
d="M283 177q56 63 110.5 127t110.5 128h-211v81h336v-77l-223 -256h229v-82h-352v79zM905 306q0 -93 -34.5 -174t-94.5 -141t-141.5 -94.5t-174.5 -34.5q-94 0 -175.5 34.5t-141.5 94.5t-94.5 141t-34.5 174t34.5 174t94.5 141t141.5 94.5t175.5 34.5q93 0 174.5 -34.5
t141.5 -94.5t94.5 -141t34.5 -174zM821 306q0 76 -28 143t-76.5 116.5t-114.5 78t-142 28.5q-77 0 -143 -28.5t-114.5 -78t-76.5 -116.5t-28 -143q0 -77 28 -143.5t76.5 -116t114.5 -78t143 -28.5q76 0 142 28.5t114.5 78t76.5 116t28 143.5z" />
    <glyph glyph-name="SF100000" unicode="&#x2500;" horiz-adv-x="920" 
d="M920 286h-920v29h920v-29z" />
    <glyph glyph-name="uni2501" unicode="&#x2501;" horiz-adv-x="920" 
d="M920 271h-920v54h920v-54z" />
    <glyph glyph-name="SF110000" unicode="&#x2502;" horiz-adv-x="920" 
d="M475 -200h-29v1000h29v-1000z" />
    <glyph glyph-name="uni2503" unicode="&#x2503;" horiz-adv-x="920" 
d="M487 -200h-54v1000h54v-1000z" />
    <glyph glyph-name="SF010000" unicode="&#x250c;" horiz-adv-x="920" 
d="M920 286h-445v-486h-29v515h474v-29z" />
    <glyph glyph-name="uni250D" unicode="&#x250d;" horiz-adv-x="920" 
d="M920 264h-441v-464h-38v536h479v-72z" />
    <glyph glyph-name="uni250E" unicode="&#x250e;" horiz-adv-x="920" 
d="M920 282h-422v-482h-76v518h498v-36z" />
    <glyph glyph-name="uni250F" unicode="&#x250f;" horiz-adv-x="920" 
d="M920 271h-433v-471h-54v525h487v-54z" />
    <glyph glyph-name="SF030000" unicode="&#x2510;" horiz-adv-x="920" 
d="M475 -200h-29v486h-446v29h475v-515z" />
    <glyph glyph-name="uni2511" unicode="&#x2511;" horiz-adv-x="920" 
d="M479 -200h-38v464h-441v72h479v-536z" />
    <glyph glyph-name="uni2512" unicode="&#x2512;" horiz-adv-x="920" 
d="M498 -200h-76v482h-422v36h498v-518z" />
    <glyph glyph-name="uni2513" unicode="&#x2513;" horiz-adv-x="920" 
d="M487 -200h-54v471h-433v54h487v-525z" />
    <glyph glyph-name="SF020000" unicode="&#x2514;" horiz-adv-x="920" 
d="M920 286h-474v514h29v-485h445v-29z" />
    <glyph glyph-name="uni2515" unicode="&#x2515;" horiz-adv-x="920" 
d="M920 264h-479v536h38v-464h441v-72z" />
    <glyph glyph-name="uni2516" unicode="&#x2516;" horiz-adv-x="920" 
d="M920 282h-498v518h76v-482h422v-36z" />
    <glyph glyph-name="uni2517" unicode="&#x2517;" horiz-adv-x="920" 
d="M920 271h-487v529h54v-475h433v-54z" />
    <glyph glyph-name="SF040000" unicode="&#x2518;" horiz-adv-x="920" 
d="M475 286h-475v29h446v485h29v-514z" />
    <glyph glyph-name="uni2519" unicode="&#x2519;" horiz-adv-x="920" 
d="M479 264h-479v72h441v464h38v-536z" />
    <glyph glyph-name="uni251A" unicode="&#x251a;" horiz-adv-x="920" 
d="M498 282h-498v36h422v482h76v-518z" />
    <glyph glyph-name="uni251B" unicode="&#x251b;" horiz-adv-x="920" 
d="M487 271h-487v54h433v475h54v-529z" />
    <glyph glyph-name="SF080000" unicode="&#x251c;" horiz-adv-x="920" 
d="M920 286h-445v-486h-29v1000h29v-485h445v-29z" />
    <glyph glyph-name="uni251D" unicode="&#x251d;" horiz-adv-x="920" 
d="M920 264h-441v-464h-38v1000h38v-464h441v-72z" />
    <glyph glyph-name="uni251E" unicode="&#x251e;" horiz-adv-x="920" 
d="M920 282h-442l1 -482h-38v500h-19v500h76v-482h422v-36z" />
    <glyph glyph-name="uni251F" unicode="&#x251f;" horiz-adv-x="920" 
d="M920 282h-422v-482h-76v500h19v500h38v-482h441v-36z" />
    <glyph glyph-name="uni2520" unicode="&#x2520;" horiz-adv-x="920" 
d="M920 282h-423v-482h-76v1000h76v-482h423v-36z" />
    <glyph glyph-name="uni2521" unicode="&#x2521;" horiz-adv-x="920" 
d="M920 264h-441v-464h-38v500h-19v500h76v-464h422v-72z" />
    <glyph glyph-name="uni2522" unicode="&#x2522;" horiz-adv-x="920" 
d="M920 264h-422v-464h-76v500h19v500h38v-464h441v-72z" />
    <glyph glyph-name="uni2523" unicode="&#x2523;" horiz-adv-x="920" 
d="M920 271h-433v-471h-54v1000h54v-475h433v-54z" />
    <glyph glyph-name="SF090000" unicode="&#x2524;" horiz-adv-x="920" 
d="M475 -200h-29v486h-446v29h446v485h29v-1000z" />
    <glyph glyph-name="uni2525" unicode="&#x2525;" horiz-adv-x="920" 
d="M479 -200h-38v464h-441v72h441v464h38v-1000z" />
    <glyph glyph-name="uni2526" unicode="&#x2526;" horiz-adv-x="920" 
d="M498 300h-19v-500h-38v482h-441v36h422v482h76v-500z" />
    <glyph glyph-name="uni2527" unicode="&#x2527;" horiz-adv-x="920" 
d="M498 -200h-76v482h-422v36h441v482h38v-500h19v-500z" />
    <glyph glyph-name="uni2528" unicode="&#x2528;" horiz-adv-x="920" 
d="M498 -200h-76v482h-422v36h422v482h76v-1000z" />
    <glyph glyph-name="uni2529" unicode="&#x2529;" horiz-adv-x="920" 
d="M498 300h-19v-500h-38v464h-441v72h422v464h76v-500z" />
    <glyph glyph-name="uni252A" unicode="&#x252a;" horiz-adv-x="920" 
d="M498 -200h-76v464h-422v72h441v464h38v-500h19v-500z" />
    <glyph glyph-name="uni252B" unicode="&#x252b;" horiz-adv-x="920" 
d="M487 -200h-54v471h-433v54h433v475h54v-1000z" />
    <glyph glyph-name="SF060000" unicode="&#x252c;" horiz-adv-x="920" 
d="M920 286h-445v-486h-29v486h-446v29h920v-29z" />
    <glyph glyph-name="uni252D" unicode="&#x252d;" horiz-adv-x="920" 
d="M920 282h-441v-482h-38v464h-441v72h460v-18h460v-36z" />
    <glyph glyph-name="uni252E" unicode="&#x252e;" horiz-adv-x="920" 
d="M920 264h-441v-464h-38v482h-441v36h460v18h460v-72z" />
    <glyph glyph-name="uni252F" unicode="&#x252f;" horiz-adv-x="920" 
d="M920 264h-441v-464h-38v464h-441v72h920v-72z" />
    <glyph glyph-name="uni2530" unicode="&#x2530;" horiz-adv-x="920" 
d="M920 282h-422v-482h-76v482h-422v36h920v-36z" />
    <glyph glyph-name="uni2531" unicode="&#x2531;" horiz-adv-x="920" 
d="M920 282h-422v-482h-76v464h-422v72h460v-18h460v-36z" />
    <glyph glyph-name="uni2532" unicode="&#x2532;" horiz-adv-x="920" 
d="M920 264h-422v-464h-76v482h-422v36h460v18h460v-72z" />
    <glyph glyph-name="uni2533" unicode="&#x2533;" horiz-adv-x="920" 
d="M920 271h-433v-471h-54v471h-433v54h920v-54z" />
    <glyph glyph-name="SF070000" unicode="&#x2534;" horiz-adv-x="920" 
d="M920 286h-920v29h446v485h29v-485h445v-29z" />
    <glyph glyph-name="uni2535" unicode="&#x2535;" horiz-adv-x="920" 
d="M920 282h-460v-18h-460v72h441v464h38v-482h441v-36z" />
    <glyph glyph-name="uni2536" unicode="&#x2536;" horiz-adv-x="920" 
d="M920 264h-460v18h-460v36h441v482h38v-464h441v-72z" />
    <glyph glyph-name="uni2537" unicode="&#x2537;" horiz-adv-x="920" 
d="M920 264h-920v72h441v464h38v-464h441v-72z" />
    <glyph glyph-name="uni2538" unicode="&#x2538;" horiz-adv-x="920" 
d="M920 282h-920v36h422v482h76v-482h422v-36z" />
    <glyph glyph-name="uni2539" unicode="&#x2539;" horiz-adv-x="920" 
d="M920 282h-460v-18h-460v72h422v464h76v-482h422v-36z" />
    <glyph glyph-name="uni253A" unicode="&#x253a;" horiz-adv-x="920" 
d="M920 264h-460v18h-460v36h422v482h76v-464h422v-72z" />
    <glyph glyph-name="uni253B" unicode="&#x253b;" horiz-adv-x="920" 
d="M920 271h-920v54h433v475h54v-475h433v-54z" />
    <glyph glyph-name="SF050000" unicode="&#x253c;" horiz-adv-x="920" 
d="M920 285h-445v-485h-29v485h-446v29h446v486h29v-486h445v-29z" />
    <glyph glyph-name="uni253D" unicode="&#x253d;" horiz-adv-x="920" 
d="M920 282h-441v-482h-38v464h-441v76h441v460h38v-482h441v-36z" />
    <glyph glyph-name="uni253E" unicode="&#x253e;" horiz-adv-x="920" 
d="M920 264h-441v-464h-38v482h-441v36h441v482h38v-464h441v-72z" />
    <glyph glyph-name="uni253F" unicode="&#x253f;" horiz-adv-x="920" 
d="M920 264h-441v-464h-38v464h-441v72h441v464h38v-464h441v-72z" />
    <glyph glyph-name="uni2540" unicode="&#x2540;" horiz-adv-x="920" 
d="M920 282h-441v-482h-38v482h-441v36h422v482h76v-482h422v-36z" />
    <glyph glyph-name="uni2541" unicode="&#x2541;" horiz-adv-x="920" 
d="M920 282h-422v-482h-76v482h-422v36h441v482h38v-482h441v-36z" />
    <glyph glyph-name="uni2542" unicode="&#x2542;" horiz-adv-x="920" 
d="M920 282h-422v-482h-76v482h-422v36h422v482h76v-482h422v-36z" />
    <glyph glyph-name="uni2543" unicode="&#x2543;" horiz-adv-x="920" 
d="M920 282h-441v-482h-38v464h-441v72h422v464h76v-482h422v-36z" />
    <glyph glyph-name="uni2544" unicode="&#x2544;" horiz-adv-x="920" 
d="M920 264h-441v-464h-38v482h-441v36h422v482h76v-464h422v-72z" />
    <glyph glyph-name="uni2545" unicode="&#x2545;" horiz-adv-x="920" 
d="M920 282h-422v-482h-76v464h-422v72h441v464h38v-482h441v-36z" />
    <glyph glyph-name="uni2546" unicode="&#x2546;" horiz-adv-x="920" 
d="M920 264h-422v-464h-76v482h-422v36h441v482h38v-464h441v-72z" />
    <glyph glyph-name="uni2547" unicode="&#x2547;" horiz-adv-x="920" 
d="M920 264h-441v-464h-38v464h-441v72h422v464h76v-464h422v-72z" />
    <glyph glyph-name="uni2548" unicode="&#x2548;" horiz-adv-x="920" 
d="M920 264h-422v-464h-76v464h-422v72h441v464h38v-464h441v-72z" />
    <glyph glyph-name="uni2549" unicode="&#x2549;" horiz-adv-x="920" 
d="M920 282h-422v-482h-76v464h-422v72h422v464h76v-482h422v-36z" />
    <glyph glyph-name="uni254A" unicode="&#x254a;" horiz-adv-x="920" 
d="M920 264h-422v-464h-76v482h-422v36h422v482h76v-464h422v-72z" />
    <glyph glyph-name="uni254B" unicode="&#x254b;" horiz-adv-x="920" 
d="M920 271h-433v-471h-54v471h-433v54h433v475h54v-475h433v-54z" />
    <glyph glyph-name="shade" unicode="&#x2592;" horiz-adv-x="920" 
d="M848 -80h-756v755h756v-755zM815 -47v689h-690v-689h690zM782 586q0 -12 -7.5 -19t-18.5 -7q-26 0 -26 26q0 11 7 18.5t19 7.5q11 0 18.5 -7.5t7.5 -18.5zM686 586q0 -26 -25 -26t-25 26q0 11 7 18.5t18 7.5t18 -7.5t7 -18.5zM782 490q0 -10 -7.5 -17t-18.5 -7
q-12 0 -19 7t-7 17q0 11 7 18.5t19 7.5q11 0 18.5 -7.5t7.5 -18.5zM686 490q0 -10 -7 -17t-18 -7t-18 7t-7 17q0 11 7 18.5t18 7.5t18 -7.5t7 -18.5zM592 586q0 -12 -7.5 -19t-18.5 -7t-19 7t-8 19q0 11 8 18.5t19 7.5t18.5 -7.5t7.5 -18.5zM782 396q0 -11 -7.5 -19
t-18.5 -8q-12 0 -19 8t-7 19t7 18.5t19 7.5q11 0 18.5 -7.5t7.5 -18.5zM592 490q0 -10 -7.5 -17t-18.5 -7t-19 7t-8 17q0 11 8 18.5t19 7.5t18.5 -7.5t7.5 -18.5zM686 396q0 -11 -7 -19t-18 -8t-18 8t-7 19t7 18.5t18 7.5t18 -7.5t7 -18.5zM495 586q0 -26 -25 -26
q-10 0 -18 7t-8 19q0 11 8 18.5t18 7.5q11 0 18 -7.5t7 -18.5zM782 300q0 -10 -7.5 -17.5t-18.5 -7.5q-12 0 -19 7.5t-7 17.5q0 26 26 26q11 0 18.5 -7.5t7.5 -18.5zM495 490q0 -10 -7 -17t-18 -7q-10 0 -18 7t-8 17q0 11 8 18.5t18 7.5q11 0 18 -7.5t7 -18.5zM592 396
q0 -11 -7.5 -19t-18.5 -8t-19 8t-8 19t8 18.5t19 7.5t18.5 -7.5t7.5 -18.5zM686 300q0 -10 -7 -17.5t-18 -7.5t-18 7.5t-7 17.5q0 26 25 26t25 -26zM401 586q0 -12 -8 -19t-19 -7q-25 0 -25 26q0 11 7 18.5t18 7.5t19 -7.5t8 -18.5zM782 204q0 -11 -7.5 -18.5t-18.5 -7.5
q-12 0 -19 7.5t-7 18.5t7 19t19 8q11 0 18.5 -8t7.5 -19zM401 490q0 -10 -8 -17t-19 -7t-18 7t-7 17q0 11 7 18.5t18 7.5t19 -7.5t8 -18.5zM495 396q0 -11 -7 -19t-18 -8q-10 0 -18 8t-8 19t8 18.5t18 7.5q11 0 18 -7.5t7 -18.5zM592 300q0 -10 -7.5 -17.5t-18.5 -7.5
t-19 7.5t-8 17.5q0 11 8 18.5t19 7.5t18.5 -7.5t7.5 -18.5zM686 204q0 -11 -7 -18.5t-18 -7.5t-18 7.5t-7 18.5t7 19t18 8t18 -8t7 -19zM305 586q0 -12 -7.5 -19t-17.5 -7q-11 0 -18.5 7t-7.5 19q0 11 7.5 18.5t18.5 7.5q10 0 17.5 -7.5t7.5 -18.5zM782 110
q0 -11 -7.5 -18.5t-18.5 -7.5q-12 0 -19 7.5t-7 18.5q0 10 7 17t19 7q11 0 18.5 -7t7.5 -17zM210 586q0 -26 -25 -26q-11 0 -18.5 7t-7.5 19q0 11 7.5 18.5t18.5 7.5q12 0 18.5 -7.5t6.5 -18.5zM305 490q0 -10 -7.5 -17t-17.5 -7q-11 0 -18.5 7t-7.5 17q0 11 7.5 18.5
t18.5 7.5q10 0 17.5 -7.5t7.5 -18.5zM401 396q0 -11 -8 -19t-19 -8t-18 8t-7 19t7 18.5t18 7.5t19 -7.5t8 -18.5zM495 300q0 -10 -7 -17.5t-18 -7.5q-10 0 -18 7.5t-8 17.5q0 11 8 18.5t18 7.5q25 0 25 -26zM592 204q0 -11 -7.5 -18.5t-18.5 -7.5t-19 7.5t-8 18.5t8 19t19 8
t18.5 -8t7.5 -19zM686 110q0 -11 -7 -18.5t-18 -7.5t-18 7.5t-7 18.5q0 10 7 17t18 7t18 -7t7 -17zM782 14q0 -11 -7.5 -18.5t-18.5 -7.5q-12 0 -19 7.5t-7 18.5q0 26 26 26q11 0 18.5 -7t7.5 -19zM210 490q0 -10 -6.5 -17t-18.5 -7q-11 0 -18.5 7t-7.5 17q0 11 7.5 18.5
t18.5 7.5q12 0 18.5 -7.5t6.5 -18.5zM686 14q0 -11 -7 -18.5t-18 -7.5t-18 7.5t-7 18.5q0 26 25 26t25 -26zM305 396q0 -11 -7.5 -19t-17.5 -8q-11 0 -18.5 8t-7.5 19t7.5 18.5t18.5 7.5q10 0 17.5 -7.5t7.5 -18.5zM401 300q0 -10 -8 -17.5t-19 -7.5t-18 7.5t-7 17.5
q0 26 25 26q11 0 19 -7.5t8 -18.5zM495 204q0 -11 -7 -18.5t-18 -7.5q-10 0 -18 7.5t-8 18.5t8 19t18 8q11 0 18 -8t7 -19zM592 110q0 -11 -7.5 -18.5t-18.5 -7.5t-19 7.5t-8 18.5q0 10 8 17t19 7t18.5 -7t7.5 -17zM210 396q0 -11 -6.5 -19t-18.5 -8q-11 0 -18.5 8t-7.5 19
t7.5 18.5t18.5 7.5q12 0 18.5 -7.5t6.5 -18.5zM592 14q0 -11 -7.5 -18.5t-18.5 -7.5t-19 7.5t-8 18.5q0 12 8 19t19 7t18.5 -7t7.5 -19zM305 300q0 -10 -7.5 -17.5t-17.5 -7.5q-11 0 -18.5 7.5t-7.5 17.5q0 11 7.5 18.5t18.5 7.5q10 0 17.5 -7.5t7.5 -18.5zM401 204
q0 -11 -8 -18.5t-19 -7.5t-18 7.5t-7 18.5t7 19t18 8t19 -8t8 -19zM495 110q0 -11 -7 -18.5t-18 -7.5q-10 0 -18 7.5t-8 18.5q0 10 8 17t18 7q11 0 18 -7t7 -17zM210 300q0 -10 -6.5 -17.5t-18.5 -7.5q-11 0 -18.5 7.5t-7.5 17.5q0 11 7.5 18.5t18.5 7.5q25 0 25 -26z
M495 14q0 -11 -7 -18.5t-18 -7.5q-10 0 -18 7.5t-8 18.5q0 12 8 19t18 7q25 0 25 -26zM305 204q0 -11 -7.5 -18.5t-17.5 -7.5q-11 0 -18.5 7.5t-7.5 18.5t7.5 19t18.5 8q10 0 17.5 -8t7.5 -19zM401 110q0 -11 -8 -18.5t-19 -7.5t-18 7.5t-7 18.5q0 10 7 17t18 7t19 -7t8 -17
zM210 204q0 -11 -6.5 -18.5t-18.5 -7.5q-11 0 -18.5 7.5t-7.5 18.5t7.5 19t18.5 8q12 0 18.5 -8t6.5 -19zM401 14q0 -11 -8 -18.5t-19 -7.5t-18 7.5t-7 18.5q0 26 25 26q11 0 19 -7t8 -19zM305 110q0 -11 -7.5 -18.5t-17.5 -7.5q-11 0 -18.5 7.5t-7.5 18.5q0 10 7.5 17
t18.5 7q10 0 17.5 -7t7.5 -17zM210 110q0 -11 -6.5 -18.5t-18.5 -7.5q-11 0 -18.5 7.5t-7.5 18.5q0 10 7.5 17t18.5 7q12 0 18.5 -7t6.5 -17zM305 14q0 -11 -7.5 -18.5t-17.5 -7.5q-11 0 -18.5 7.5t-7.5 18.5q0 12 7.5 19t18.5 7q10 0 17.5 -7t7.5 -19zM210 14
q0 -11 -6.5 -18.5t-18.5 -7.5q-11 0 -18.5 7.5t-7.5 18.5q0 12 7.5 19t18.5 7q25 0 25 -26z" />
    <glyph glyph-name="filledbox" unicode="&#x25a0;" horiz-adv-x="920" 
d="M103 -58v713h714v-713h-714z" />
    <glyph glyph-name="H22073" unicode="&#x25a1;" horiz-adv-x="920" 
d="M195 563v-527h528v527h-528zM103 655h713v-713h-713v713z" />
    <glyph glyph-name="uni25A3" unicode="&#x25a3;" horiz-adv-x="920" 
d="M856 -88h-772v771h772v-771zM803 -35v665h-666v-665h666zM698 68h-457v457h457v-457z" />
    <glyph glyph-name="uni25A4" unicode="&#x25a4;" horiz-adv-x="920" 
d="M848 -80h-756v755h756v-755zM815 572v70h-690v-70h690zM815 466v74h-690v-74h690zM815 366v68h-690v-68h690zM815 261v73h-690v-73h690zM815 155v74h-690v-74h690zM815 54v69h-690v-69h690zM815 -47v69h-690v-69h690z" />
    <glyph glyph-name="uni25A5" unicode="&#x25a5;" horiz-adv-x="920" 
d="M848 -80h-756v755h756v-755zM815 -47v689h-70v-689h70zM713 -47v689h-69v-689h69zM612 -47v689h-74v-689h74zM506 -47v689h-73v-689h73zM401 -47v689h-68v-689h68zM301 -47v689h-74v-689h74zM195 -47v689h-70v-689h70z" />
    <glyph glyph-name="uni25A6" unicode="&#x25a6;" horiz-adv-x="920" 
d="M848 -80h-756v755h756v-755zM815 569v73h-73v-73h73zM815 467v72h-73v-72h73zM711 569v73h-72v-73h72zM815 364v73h-73v-73h73zM609 569v73h-73v-73h73zM711 467v72h-72v-72h72zM815 261v73h-73v-73h73zM506 569v73h-73v-73h73zM609 467v72h-73v-72h73zM711 364v73h-72
v-73h72zM815 158v73h-73v-73h73zM403 569v73h-73v-73h73zM506 467v72h-73v-72h73zM609 364v73h-73v-73h73zM711 261v73h-72v-73h72zM815 56v72h-73v-72h73zM300 569v73h-72v-73h72zM403 467v72h-73v-72h73zM506 364v73h-73v-73h73zM609 261v73h-73v-73h73zM711 158v73h-72
v-73h72zM815 -47v73h-73v-73h73zM198 569v73h-73v-73h73zM300 467v72h-72v-72h72zM403 364v73h-73v-73h73zM506 261v73h-73v-73h73zM609 158v73h-73v-73h73zM711 56v72h-72v-72h72zM711 -47v73h-72v-73h72zM198 467v72h-73v-72h73zM300 364v73h-72v-73h72zM403 261v73h-73
v-73h73zM506 158v73h-73v-73h73zM609 56v72h-73v-72h73zM609 -47v73h-73v-73h73zM198 364v73h-73v-73h73zM300 261v73h-72v-73h72zM403 158v73h-73v-73h73zM506 56v72h-73v-72h73zM506 -47v73h-73v-73h73zM198 261v73h-73v-73h73zM300 158v73h-72v-73h72zM403 56v72h-73v-72
h73zM403 -47v73h-73v-73h73zM198 158v73h-73v-73h73zM300 56v72h-72v-72h72zM300 -47v73h-72v-73h72zM198 56v72h-73v-72h73zM198 -47v73h-73v-73h73z" />
    <glyph glyph-name="uni25A7" unicode="&#x25a7;" horiz-adv-x="920" 
d="M848 -80h-756v755h756v-755zM815 485v157h-158zM815 315v122l-206 205h-122zM815 146v120l-377 376h-120zM815 -22v120l-545 544h-119zM790 -47l-665 665v-120l545 -545h120zM622 -47l-497 497v-120l377 -377h120zM453 -47l-328 328v-121l207 -207h121zM284 -47l-159 159
v-159h159z" />
    <glyph glyph-name="uni25A8" unicode="&#x25a8;" horiz-adv-x="920" 
d="M848 -80h-756v755h756v-755zM815 498v120l-665 -665h120zM815 330v120l-497 -497h120zM815 160v121l-328 -328h121zM815 -47v159l-159 -159h159zM283 642h-158v-157zM453 642h-122l-206 -205v-122zM622 642h-120l-377 -376v-120zM789 642h-119l-545 -544v-120z" />
    <glyph glyph-name="uni25A9" unicode="&#x25a9;" horiz-adv-x="920" 
d="M848 -80h-756v755h756v-755zM815 485v135l-69 -68zM788 642h-131l65 -66zM790 461l-67 68l-62 -61l68 -68zM697 552l-64 65l-61 -60l66 -66zM610 642h-123l62 -61zM815 314v123l-61 -61zM524 557l-61 60l-60 -60l60 -60zM614 468l-66 64l-61 -59l67 -65zM705 377l-67 67
l-60 -60l67 -69zM790 291l-61 60l-60 -60l61 -60zM438 642h-120l60 -60zM815 146v120l-60 -60zM622 291l-69 68l-60 -60l68 -67zM354 557l-61 61l-59 -60l60 -60zM528 384l-65 65l-59 -60l65 -65zM706 206l-61 60l-59 -59l60 -61zM790 122l-60 60l-60 -60l60 -60zM438 473
l-61 60l-59 -59l61 -61zM270 642h-119l59 -59zM815 -22v120l-60 -60zM790 -47l-60 60l-60 -60h120zM185 558l-60 60v-120zM537 206l-68 70l-60 -62l67 -67zM270 474l-60 60l-60 -60l60 -60zM354 390l-60 60l-60 -60l60 -60zM443 299l-65 66l-60 -60l66 -65zM622 122l-60 60
l-60 -60l60 -60zM706 38l-60 60l-60 -60l60 -60zM622 -47l-60 60l-60 -60h120zM185 390l-60 60v-120zM270 305l-60 60l-60 -60l60 -60zM359 215l-65 66l-60 -61l65 -65zM453 122l-69 69l-61 -60l68 -69zM537 38l-60 60l-60 -60l60 -60zM185 220l-60 61v-120zM453 -47l-61 60
l-61 -60h122zM275 131l-65 65l-60 -60l65 -64zM367 39l-68 68l-60 -60l69 -69zM190 47l-65 65v-130zM284 -47l-69 70l-68 -70h137z" />
    <glyph glyph-name="triagup" unicode="&#x25b2;" horiz-adv-x="920" 
d="M77 -58l383 758l383 -758h-766z" />
    <glyph glyph-name="uni25B3" unicode="&#x25b3;" horiz-adv-x="920" 
d="M684 38l-226 447l-226 -447h452zM75 -58l385 757l384 -757h-769z" />
    <glyph glyph-name="uni25B6" unicode="&#x25b6;" horiz-adv-x="920" 
d="M790 300l-640 -403v808z" />
    <glyph glyph-name="uni25B7" unicode="&#x25b7;" horiz-adv-x="920" 
d="M790 300l-640 -403v808zM668 300l-451 284v-566z" />
    <glyph glyph-name="triagdn" unicode="&#x25bc;" horiz-adv-x="920" 
d="M843 655l-383 -758l-383 758h766z" />
    <glyph glyph-name="uni25BD" unicode="&#x25bd;" horiz-adv-x="920" 
d="M234 566l226 -448l226 448h-452zM844 655l-384 -758l-385 758h769z" />
    <glyph glyph-name="uni25C0" unicode="&#x25c0;" horiz-adv-x="920" 
d="M790 -103l-640 403l640 405v-808z" />
    <glyph glyph-name="uni25C1" unicode="&#x25c1;" horiz-adv-x="920" 
d="M790 -103l-640 403l640 405v-808zM722 18v566l-451 -284z" />
    <glyph glyph-name="uni25C6" unicode="&#x25c6;" horiz-adv-x="920" 
d="M56 299l404 403l404 -404l-403 -404z" />
    <glyph glyph-name="uni25C7" unicode="&#x25c7;" horiz-adv-x="920" 
d="M460 559l-261 -260l261 -262l260 261zM460 702l403 -404l-403 -404l-404 404z" />
    <glyph glyph-name="uni25C8" unicode="&#x25c8;" horiz-adv-x="920" 
d="M921 298l-452 -451l-450 450l451 452zM852 298l-382 381l-384 -382l383 -383zM737 297l-267 -267l-268 267l268 267z" />
    <glyph glyph-name="circle" unicode="&#x25cb;" horiz-adv-x="920" 
d="M170 299q0 -60 22.5 -112.5t62 -92t92 -62t112.5 -22.5q61 0 114 22.5t92 62t61.5 92t22.5 112.5t-22.5 113t-61.5 92t-92 62t-114 23q-60 0 -112.5 -23t-92 -62t-62 -92t-22.5 -113zM88 299q0 77 29 144.5t79 118t118 80t145 29.5q78 0 145.5 -29.5t118 -80t79.5 -118
t29 -144.5t-29 -145t-79.5 -118.5t-118 -79.5t-145.5 -29q-77 0 -145 29t-118 79.5t-79 118.5t-29 145z" />
    <glyph glyph-name="uni25CE" unicode="&#x25ce;" horiz-adv-x="920" 
d="M308 298q0 -31 12 -58.5t32.5 -48t48 -32.5t58.5 -12t59 12t48.5 32.5t32.5 48t12 58.5t-12 58.5t-32.5 48.5t-48.5 33t-59 12t-58.5 -12t-48 -33t-32.5 -48.5t-12 -58.5zM241 298q0 45 17 84.5t46.5 69.5t69.5 47t85 17t85 -17t69.5 -47t46.5 -69.5t17 -84.5t-17 -85
t-46.5 -69.5t-69.5 -46.5t-85 -17t-85 17t-69.5 46.5t-46.5 69.5t-17 85zM167 298q0 -60 23 -113.5t62.5 -93t93 -62.5t113.5 -23q61 0 114.5 23t93 62.5t62.5 93t23 113.5t-23 113.5t-62.5 93t-93 63t-114.5 23.5q-60 0 -113.5 -23.5t-93 -63t-62.5 -93t-23 -113.5zM85 298
q0 77 29.5 145.5t80 119.5t118.5 80.5t146 29.5t146 -29.5t119 -80.5t80 -119.5t29 -145.5q0 -78 -29 -146t-80 -119t-119 -80t-146 -29t-146 29t-118.5 80t-80 119t-29.5 146z" />
    <glyph glyph-name="H18533" unicode="&#x25cf;" horiz-adv-x="920" 
d="M88 299q0 77 29 144.5t79 118t118 80t145 29.5q78 0 145.5 -29.5t118 -80t79.5 -118t29 -144.5t-29 -145t-79.5 -118.5t-118 -79.5t-145.5 -29q-77 0 -145 29t-118 79.5t-79 118.5t-29 145z" />
    <glyph glyph-name="uni25D0" unicode="&#x25d0;" horiz-adv-x="920" 
d="M867 299q0 -82 -31 -154.5t-85 -126.5t-126.5 -85t-154.5 -31q-81 0 -153 31t-126.5 85t-86 126.5t-31.5 154.5t31.5 154.5t86 126.5t126.5 85t153 31q82 0 154.5 -31t126.5 -85t85 -126.5t31 -154.5zM827 299q0 73 -28.5 138t-77 113.5t-113.5 77t-138 28.5v-713
q73 0 138 28t113.5 76.5t77 113.5t28.5 138z" />
    <glyph glyph-name="uni25D1" unicode="&#x25d1;" horiz-adv-x="920" 
d="M867 299q0 -82 -31.5 -154.5t-86 -126.5t-126.5 -85t-153 -31q-82 0 -154.5 31t-126.5 85t-85 126.5t-31 154.5t31 154.5t85 126.5t126.5 85t154.5 31q81 0 153 -31t126.5 -85t86 -126.5t31.5 -154.5zM470 656q-73 0 -138 -28.5t-113.5 -77t-77 -113.5t-28.5 -138
t28.5 -138t77 -113.5t113.5 -76.5t138 -28v713z" />
    <glyph glyph-name="uni2605" unicode="&#x2605;" horiz-adv-x="920" 
d="M574 433h350l-283 -211l106 -334l-285 202l-290 -202l109 334l-285 211h355l111 331z" />
    <glyph glyph-name="uni2606" unicode="&#x2606;" horiz-adv-x="920" 
d="M461 557l-62 -189h-203l162 -121l-63 -189l166 115l161 -115l-58 189l160 121h-200zM574 433h350l-283 -211l106 -334l-285 202l-290 -202l109 334l-285 211h355l111 331z" />
    <glyph glyph-name="uni260E" unicode="&#x260e;" horiz-adv-x="920" 
d="M900 329q-6 -11 -20 -13.5t-33 -0.5t-40 7t-40 10q-32 9 -57.5 22.5t-29.5 32.5q-2 7 0.5 18t6.5 22.5t7 22t2 17.5q-4 20 -20 27t-35 10q-3 -23 -3 -51.5t14 -76.5q7 -27 16.5 -46t21.5 -34t25.5 -27.5t29.5 -25.5q26 -21 40.5 -45t21.5 -47t8.5 -43.5t1.5 -35.5
q8 -3 12.5 -12.5t7 -21.5t2.5 -25t-1 -23q-1 -9 -10 -12.5t-24 -3.5h-668q-15 0 -24 3.5t-10 12.5q-1 10 -1 23t2.5 25t7 21.5t12.5 12.5q0 15 1.5 35.5t8.5 43.5t21.5 47t40.5 45q16 13 29.5 25.5t25.5 27.5t21.5 34t16.5 46q13 48 13.5 76.5t-2.5 51.5q-19 -3 -35 -10
t-20 -27q-2 -7 1 -17.5t7 -22t7 -22.5t1 -18q-4 -19 -29.5 -32.5t-57.5 -22.5q-20 -5 -40.5 -10t-39.5 -7t-33 0.5t-20 13.5q-6 10 -8 29.5t1.5 42t12 45.5t22.5 41q25 32 68 55.5t97 38.5t115 22t122 7t122 -7t115 -22t97 -38.5t68 -55.5q14 -18 22.5 -41t12 -45.5t1.5 -42
t-8 -29.5zM550 442v65q-15 -4 -36 -7t-44 -3t-44 3t-36 7v-65h160zM620 206q0 31 -12 58.5t-32 47.5t-47.5 32t-58.5 12t-58.5 -12t-47.5 -32t-32 -47.5t-12 -58.5t12 -58t32 -47t47.5 -31.5t58.5 -11.5t58.5 11.5t47.5 31.5t32 47t12 58z" />
    <glyph glyph-name="uni260F" unicode="&#x260f;" horiz-adv-x="920" 
d="M900 329q-6 -11 -20 -13.5t-33 -0.5t-40 7t-40 10q-32 9 -57.5 22.5t-29.5 32.5q-2 7 0 18t5 22.5t5.5 22t1.5 17.5q-4 20 -18 23t-33 4q-2 -12 -3 -23t0 -24t4 -30t10 -41q7 -27 16.5 -46t21.5 -34t25.5 -27.5t29.5 -25.5q26 -21 40.5 -45t21.5 -47t8.5 -43.5t1.5 -35.5
q8 -3 12.5 -12.5t7 -21.5t2.5 -25t-1 -23q-1 -9 -10 -12.5t-24 -3.5h-668q-15 0 -24 3.5t-10 12.5q-1 10 -1 23t2.5 25t7 21.5t12.5 12.5q0 15 1.5 35.5t8.5 43.5t21.5 47t40.5 45q16 13 29.5 25.5t25.5 27.5t21.5 34t16.5 46q6 24 9.5 41t4 30t-0.5 24t-2 23q-19 -1 -33 -4
t-18 -23q-2 -7 0.5 -17.5t6 -22t5.5 -22.5t0 -18q-4 -19 -29.5 -32.5t-57.5 -22.5q-20 -5 -40.5 -10t-39.5 -7t-33 0.5t-20 13.5q-6 10 -8 29t1.5 41.5t12 45.5t22.5 41q25 32 68 55.5t97 38.5t115 22.5t122 7.5t122 -7.5t115 -22.5t97 -38.5t68 -55.5q14 -18 22.5 -41
t12 -45.5t1.5 -41.5t-8 -29zM532 435v55q-25 -10 -62 -10t-62 10v-55h124zM859 356q6 0 9 15t-2 36.5t-19.5 47t-42.5 46.5q-22 17 -62.5 31t-87.5 24t-96 15.5t-88 5.5q-51 0 -102 -5.5t-95.5 -15.5t-80 -24t-57.5 -31q-29 -21 -43 -46t-18.5 -47t-2 -37t8.5 -15
q19 -2 39.5 0.5t38.5 8t33 13t24 16.5q6 5 4 15t-5.5 23.5t-5 28.5t5.5 29q9 19 45.5 30t102.5 11q11 0 21.5 -2.5t24.5 -4.5q17 -4 31 -6.5t31 -2.5t31.5 2.5t31.5 6.5q13 2 23.5 4.5t21.5 2.5q66 0 102 -10.5t46 -30.5q7 -14 5.5 -29t-5 -28.5t-5.5 -23.5t4 -15
q9 -8 24 -16t33 -13.5t38 -8t39 -0.5zM783 16q3 0 4.5 7.5t0.5 17.5t-4.5 20.5t-10.5 15.5q0 11 -2.5 28t-7.5 36t-14 36.5t-22 28.5q-21 21 -37 36t-27 28.5t-19.5 26.5t-14.5 30q-17 48 -21.5 90.5t-2.5 73.5h-35v-90h-200v90h-36q3 -31 -1.5 -73.5t-21.5 -90.5
q-6 -17 -14.5 -30t-20 -26.5t-27 -28.5t-36.5 -36q-13 -11 -22 -28.5t-14 -36.5t-7.5 -36t-2.5 -28q-8 -5 -11.5 -15.5t-4 -20.5t1 -17.5t4.5 -7.5h626zM626 202q0 -32 -12.5 -60t-33.5 -49.5t-49.5 -34t-60.5 -12.5t-60.5 12.5t-49.5 34t-33.5 49.5t-12.5 60t12.5 60.5
t33.5 49.5t49.5 33.5t60.5 12.5t60.5 -12.5t49.5 -33.5t33.5 -49.5t12.5 -60.5zM583 202q0 24 -9 44.5t-24 35.5t-35.5 24t-44.5 9t-44.5 -9t-35.5 -24t-24 -35.5t-9 -44.5t9 -44.5t24 -35.5t35.5 -23.5t44.5 -8.5t44.5 8.5t35.5 23.5t24 35.5t9 44.5z" />
    </font>
</defs>
</svg>
