<?xml version="1.0" standalone="no"?>
<!DOCTYPE svg PUBLIC "-//W3C//DTD SVG 1.1//EN" "http://www.w3.org/Graphics/SVG/1.1/DTD/svg11.dtd" >
<svg xmlns="http://www.w3.org/2000/svg" xmlns:xlink="http://www.w3.org/1999/xlink" version="1.1">
<metadata>
Created by FontForge 20170731 at Thu May 10 11:55:44 2018
 By Aleksey,,,
Copyright c 2017 Sandoll Communications Inc. All rights reserved.;TrueType Hinting(ClearType) by YoonDesign Inc. All rights reserved.
</metadata>
<defs>
<font id="KyoboLightBold" horiz-adv-x="960" >
  <font-face 
    font-family="Kyobo Light"
    font-weight="700"
    font-stretch="normal"
    units-per-em="1000"
    panose-1="2 11 6 0 0 1 1 1 1 1"
    ascent="800"
    descent="-200"
    x-height="507"
    cap-height="690"
    bbox="-92 -249 1346 800"
    underline-thickness="50"
    underline-position="-285"
    unicode-range="U+0020-FFE6"
  />
<missing-glyph horiz-adv-x="920" 
d="M860 -150h-800v900h800v-900zM460 271l-335 -385h670zM100 -83l334 384l-334 384v-768zM459 330l334 384h-667zM820 686l-334 -386l334 -384v770z" />
    <glyph glyph-name=".notdef" horiz-adv-x="920" 
d="M860 -150h-800v900h800v-900zM460 271l-335 -385h670zM100 -83l334 384l-334 384v-768zM459 330l334 384h-667zM820 686l-334 -386l334 -384v770z" />
    <glyph glyph-name=".null" horiz-adv-x="0" 
 />
    <glyph glyph-name="nonmarkingreturn" horiz-adv-x="265" 
 />
    <glyph glyph-name="space" unicode=" " horiz-adv-x="265" 
 />
    <glyph glyph-name="space" unicode="&#xa0;" horiz-adv-x="265" 
 />
    <glyph glyph-name="exclam" unicode="!" horiz-adv-x="294" 
d="M86 705h122l-14 -530h-94zM86 72h122v-119h-122v119z" />
    <glyph glyph-name="quotedbl" unicode="&#x22;" horiz-adv-x="392" 
d="M224 758h118l-14 -244h-90zM50 758h118l-14 -244h-90z" />
    <glyph glyph-name="numbersign" unicode="#" horiz-adv-x="618" 
d="M583 505v-82h-95l-32 -178h99v-82h-114l-35 -198h-95l35 198h-135l-35 -198h-95l35 198h-81v82h96l32 178h-100v82h114l34 188h95l-34 -188h135l34 188h95l-34 -188h81zM226 245h135l32 178h-135z" />
    <glyph glyph-name="dollar" unicode="$" horiz-adv-x="574" 
d="M474 580q-28 11 -64.5 18.5t-79.5 10.5v-231l7 -2q42 -11 77 -26.5t60.5 -39.5t40 -57.5t14.5 -80.5q0 -87 -50.5 -142t-148.5 -70v-70h-89v66q-63 2 -116.5 15t-88.5 33l20 87q38 -15 87.5 -27t97.5 -14v243l-22 6q-38 10 -70 27t-55.5 42t-36.5 59t-13 78
q0 78 51.5 131t145.5 65v64h89v-62q56 -3 98 -14.5t69 -23.5zM419 163q0 40 -22 63.5t-67 40.5v-209q89 25 89 105zM153 513q0 -43 21.5 -69.5t66.5 -41.5v203q-41 -9 -64.5 -32t-23.5 -60z" />
    <glyph glyph-name="percent" unicode="%" horiz-adv-x="899" 
d="M610 715h107l-442 -775h-108zM382 495q0 -97 -44.5 -153.5t-123.5 -56.5t-123.5 56.5t-44.5 153.5t44.5 153.5t123.5 56.5t123.5 -56.5t44.5 -153.5zM286 495q0 62 -17 94.5t-55 32.5t-55 -32.5t-17 -94.5t17 -94.5t55 -32.5t55 32.5t17 94.5zM853 165
q0 -97 -44.5 -153.5t-123.5 -56.5t-123.5 56.5t-44.5 153.5t44.5 153.5t123.5 56.5t123.5 -56.5t44.5 -153.5zM757 165q0 62 -17 94.5t-55 32.5t-55 -32.5t-17 -94.5t17 -94.5t55 -32.5t55 32.5t17 94.5z" />
    <glyph glyph-name="ampersand" unicode="&#x26;" horiz-adv-x="687" 
d="M182 382q-31 37 -50.5 73t-19.5 75q0 45 16.5 78t44.5 54.5t65.5 32t79.5 10.5q43 0 79 -11t61.5 -32t40 -50.5t14.5 -66.5t-13 -67.5t-35.5 -55.5t-52 -45t-62.5 -35l146 -170q20 36 30.5 74.5t14.5 73.5h95q-4 -56 -21.5 -115t-52.5 -110l111 -128h-130l-48 54
q-38 -30 -86.5 -48t-109.5 -18q-122 0 -191 53t-69 157q0 38 12.5 67.5t34.5 53.5t51 42.5t61 35.5zM149 176q0 -63 38 -97t115 -34q40 0 72.5 13t58.5 35l-182 210q-21 -11 -39.5 -23.5t-32.5 -27.5t-22 -33.5t-8 -42.5zM405 541q0 39 -22 62t-65 23q-45 0 -70.5 -22.5
t-25.5 -67.5q0 -30 17.5 -56.5t40.5 -55.5l17 -20q50 27 79 58.5t29 78.5z" />
    <glyph glyph-name="quotesingle" unicode="'" horiz-adv-x="218" 
d="M50 758h118l-14 -244h-90z" />
    <glyph glyph-name="parenleft" unicode="(" horiz-adv-x="335" 
d="M55 296q0 160 46 274t123 188h101q-36 -41 -65.5 -92t-50 -110t-31.5 -124.5t-11 -135.5t11 -135.5t31.5 -124.5t50 -110.5t65.5 -91.5h-101q-77 74 -123 188t-46 274z" />
    <glyph glyph-name="parenright" unicode=")" horiz-adv-x="335" 
d="M280 296q0 -160 -46 -274t-123 -188h-101q36 40 65.5 91.5t50 110.5t31.5 124.5t11 135.5t-11 135.5t-31.5 124.5t-50 110t-65.5 92h101q77 -74 123 -188t46 -274z" />
    <glyph glyph-name="asterisk" unicode="*" horiz-adv-x="407" 
d="M232 643l90 72l46 -79l-107 -43l107 -43l-45 -79l-91 71l16 -114h-91l16 114l-90 -71l-46 79l107 43l-107 43l45 79l91 -71l-16 114h91z" />
    <glyph glyph-name="plus" unicode="+" horiz-adv-x="526" 
d="M211 294h-166v89h166v193h103v-193h167v-89h-167v-193h-103v193z" />
    <glyph glyph-name="comma" unicode="," horiz-adv-x="266" 
d="M69 90h128v-101q0 -61 -30 -103t-90 -59l-20 50q35 13 50.5 35.5t15.5 54.5h-54v123z" />
    <glyph glyph-name="hyphen" unicode="-" horiz-adv-x="397" 
d="M45 383h307v-89h-307v89z" />
    <glyph glyph-name="period" unicode="." horiz-adv-x="266" 
d="M69 90h128v-125h-128v125z" />
    <glyph glyph-name="slash" unicode="/" horiz-adv-x="390" 
d="M273 716h107l-263 -862h-107z" />
    <glyph glyph-name="zero" unicode="0" horiz-adv-x="620" 
d="M310 -45q-54 0 -101.5 20t-83.5 64.5t-57 116t-21 174.5t21 174.5t57 116t83.5 64.5t101.5 20t101.5 -20t83.5 -64.5t57 -116t21 -174.5t-21 -174.5t-57 -116t-83.5 -64.5t-101.5 -20zM310 53q33 0 60.5 14.5t47.5 47.5t31 86t11 129t-11 129t-31 86t-47.5 47.5
t-60.5 14.5t-60.5 -14.5t-47.5 -47.5t-31 -86t-11 -129t11 -129t31 -86t47.5 -47.5t60.5 -14.5z" />
    <glyph glyph-name="one" unicode="1" horiz-adv-x="620" 
d="M283 -35v620l-171 -41v84l215 65h69v-728h-113z" />
    <glyph glyph-name="two" unicode="2" horiz-adv-x="620" 
d="M60 39l224 234q27 28 52 55.5t43.5 53.5t30 51.5t11.5 51.5q0 39 -11 63t-32 37.5t-51.5 18.5t-70.5 5q-42 0 -82 -11t-73 -26l-23 85q38 17 89.5 32.5t113.5 15.5q124 0 188 -57t64 -160q0 -41 -16 -78t-42 -72t-58.5 -69.5t-65.5 -69.5l-130 -139h322v-95h-483v74z" />
    <glyph glyph-name="three" unicode="3" horiz-adv-x="620" 
d="M269 -45q-32 0 -62.5 4t-57 10.5t-49 14.5t-38.5 17l20 87q16 -8 36.5 -15t43.5 -12t46 -8.5t43 -3.5q184 0 184 125q0 31 -13.5 54t-38 37.5t-58.5 21.5t-74 7h-70v95h63q36 0 66.5 7.5t53 22t35.5 36t13 48.5q0 60 -38 84t-108 24q-44 0 -81 -12.5t-72 -26.5l-23 85
q18 9 41.5 17.5t50.5 15t55.5 11t55.5 4.5q107 0 169 -48t62 -135q0 -66 -29 -107.5t-88 -63.5q67 -15 105 -57t38 -124q0 -49 -19 -88.5t-55 -67.5t-88.5 -43.5t-118.5 -15.5z" />
    <glyph glyph-name="four" unicode="4" horiz-adv-x="620" 
d="M380 207v304l-212 -304h212zM379 113h-339v79l355 501h93v-486h108v-94h-108v-148h-109v148z" />
    <glyph glyph-name="five" unicode="5" horiz-adv-x="620" 
d="M272 -45q-32 0 -62.5 4t-57 10.5t-49 14.5t-38.5 17l20 87q16 -8 36.5 -15t43.5 -12t46 -8.5t43 -3.5q92 0 138.5 38t46.5 108q0 36 -14 59.5t-38.5 38t-57.5 20t-71 5.5q-35 0 -70 -3.5t-77 -11.5l26 390h378v-95h-278l-13 -195q18 3 33.5 4t36.5 1q57 0 104.5 -12
t82 -38t53.5 -66.5t19 -97.5q0 -50 -19 -93.5t-55 -75.5t-88.5 -51t-118.5 -19z" />
    <glyph glyph-name="six" unicode="6" horiz-adv-x="620" 
d="M349 419q46 0 86.5 -15t70.5 -43t47.5 -68.5t17.5 -91.5q0 -52 -17 -97t-49 -78t-78 -52t-104 -19q-63 0 -112 20.5t-82.5 65.5t-50.5 116t-17 173q0 99 23 170t63 116.5t95 67t119 21.5q54 0 98 -13t74 -27l-24 -85q-28 12 -66.5 22.5t-74.5 10.5q-40 0 -74 -12
t-59.5 -40.5t-41 -75.5t-18.5 -116q15 10 32 19t37.5 16t46 11t58.5 4zM321 50q63 0 100.5 34.5t37.5 106.5q0 39 -10.5 65.5t-29.5 42t-44 22.5t-55 7q-47 0 -83.5 -16.5t-61.5 -38.5q3 -62 14 -104.5t29.5 -69t44 -38t58.5 -11.5z" />
    <glyph glyph-name="seven" unicode="7" horiz-adv-x="620" 
d="M418 597h-355v96h476v-73l-270 -655h-120z" />
    <glyph glyph-name="eight" unicode="8" horiz-adv-x="620" 
d="M308 -45q-62 0 -111 14t-83.5 40t-53 62t-18.5 80q0 34 13.5 63.5t35.5 53.5t50.5 42.5t57.5 30.5q-26 13 -49.5 30t-42 38.5t-29.5 47.5t-11 57q0 41 17 76t48.5 60.5t76 40t99.5 14.5q110 0 173 -49t63 -134q0 -29 -11.5 -55t-30 -48t-42.5 -40.5t-49 -32.5
q29 -14 58.5 -31t53.5 -39.5t39 -50.5t15 -63q0 -44 -19 -82t-54 -66t-85 -43.5t-111 -15.5zM149 159q0 -27 12 -48t33.5 -35.5t50.5 -21.5t63 -7q68 0 111.5 28t43.5 79q0 27 -13 47.5t-36 37.5t-54 31.5t-67 29.5q-27 -10 -52.5 -24.5t-46 -32.5t-33 -39t-12.5 -45z
M436 515q0 44 -32 71t-96 27q-58 0 -92.5 -24t-34.5 -71q0 -24 11.5 -42.5t31 -34t45 -29t54.5 -26.5q20 11 40.5 25t36.5 30.5t26 35t10 38.5z" />
    <glyph glyph-name="nine" unicode="9" horiz-adv-x="620" 
d="M271 233q-46 0 -86.5 15t-70.5 43.5t-47.5 69.5t-17.5 94q0 54 17 99.5t49 79t78 52.5t104 19q63 0 112 -20.5t82.5 -65.5t50.5 -116t17 -173q0 -99 -23 -170t-63 -116.5t-95 -67t-119 -21.5q-57 0 -102 13t-75 27l24 85q28 -12 67 -22.5t79 -10.5q39 0 72.5 11.5
t58.5 39t41 72.5t20 112q-15 -10 -32 -19t-37.5 -15.5t-46 -10.5t-57.5 -4zM299 610q-63 0 -100.5 -35t-37.5 -110q0 -41 10.5 -68t29.5 -43t44 -23t55 -7q46 0 83 16.5t62 38.5q-3 64 -14 108t-29 71.5t-44 39.5t-59 12z" />
    <glyph glyph-name="colon" unicode=":" horiz-adv-x="292" 
d="M82 591h128v-125h-128v125zM82 199h128v-125h-128v125z" />
    <glyph glyph-name="semicolon" unicode=";" horiz-adv-x="292" 
d="M82 591h128v-125h-128v125zM82 199h128v-101q0 -61 -30 -103t-90 -59l-20 50q35 13 50.5 35.5t15.5 54.5h-54v123z" />
    <glyph glyph-name="less" unicode="&#x3c;" horiz-adv-x="503" 
d="M50 295v88l398 231v-108l-290 -167l290 -166v-109z" />
    <glyph glyph-name="equal" unicode="=" horiz-adv-x="477" 
d="M45 483h387v-89h-387v89zM45 283h387v-89h-387v89z" />
    <glyph glyph-name="greater" unicode="&#x3e;" horiz-adv-x="503" 
d="M55 64v109l290 166l-290 167v108l398 -231v-88z" />
    <glyph glyph-name="question" unicode="?" horiz-adv-x="480" 
d="M141 221q-1 28 6.5 49t22 40t35 37t46.5 39q34 29 48 60.5t14 76.5q0 52 -32.5 72.5t-85.5 20.5q-40 0 -70.5 -8t-62.5 -19l-24 85q37 17 80.5 27.5t96.5 10.5q43 0 82 -10.5t67.5 -32.5t45.5 -56.5t17 -83.5q0 -34 -6 -62t-19 -52.5t-33.5 -47.5t-49.5 -47
q-19 -16 -33.5 -29t-24.5 -25.5t-15.5 -27t-6.5 -33.5l-2 -35h-94zM129 72h122v-119h-122v119z" />
    <glyph glyph-name="at" unicode="@" horiz-adv-x="954" 
d="M545 106q-25 -26 -57 -41t-77 -15q-38 0 -64 11t-44 29q-25 25 -32.5 63t-7.5 84q0 63 16.5 115t46.5 89t70.5 57t88.5 20q24 0 41.5 -5.5t30.5 -14.5t22 -20t14 -22l15 53h95l-63 -333q-5 -24 3 -40t37 -16q66 0 99 62.5t33 173.5q0 65 -18 119t-54 92.5t-91 60
t-130 21.5q-91 0 -160.5 -31.5t-117 -85.5t-71.5 -127.5t-24 -157.5q0 -150 83 -233t249 -83q36 0 70.5 3.5t66 9.5t57.5 13t45 14l8 -71q-50 -23 -113 -36t-135 -13q-100 0 -178.5 26t-133 76.5t-83 123.5t-28.5 167q0 93 30.5 180.5t89.5 155t146.5 108.5t201.5 41
q87 0 157.5 -27.5t120.5 -76t77 -116t27 -147.5q0 -74 -16.5 -132.5t-48 -98.5t-76 -61t-100.5 -21q-49 0 -75 14.5t-43 42.5zM490 442q-27 0 -49.5 -15.5t-39 -42.5t-25.5 -64.5t-9 -81.5q0 -56 17.5 -84t63.5 -28q16 0 32 7t29.5 18.5t23.5 27t13 33.5l24 126
q4 19 -0.5 37.5t-15 33.5t-27 24t-37.5 9z" />
    <glyph glyph-name="A" unicode="A" horiz-adv-x="666" 
d="M15 -35l264 728h110l262 -728h-120l-72 208h-257l-70 -208h-117zM329 550l-96 -283h193z" />
    <glyph glyph-name="B" unicode="B" horiz-adv-x="644" 
d="M85 -35v728h238q114 0 181.5 -49t67.5 -152q0 -53 -23 -91.5t-68 -58.5q27 -8 50.5 -24.5t41 -38.5t27.5 -48.5t10 -54.5q0 -52 -18.5 -91.5t-51.5 -66t-80 -40t-104 -13.5h-271zM339 60q34 0 63 5.5t50 19t33 36t12 55.5q0 32 -11.5 54.5t-31.5 36.5t-47 20t-59 6h-152
v-233h143zM306 385q34 0 62 4t48 16t31.5 33t11.5 54t-11.5 54t-31.5 32.5t-48 15.5t-62 4h-110v-213h110z" />
    <glyph glyph-name="C" unicode="C" horiz-adv-x="607" 
d="M382 -45q-163 0 -250 91.5t-87 283.5t86.5 283.5t250.5 91.5q60 0 107.5 -12t74.5 -27l-24 -86q-44 16 -79 22t-78 6q-61 0 -103.5 -18t-68.5 -53t-38 -87t-12 -120t12 -120t38 -87t68.5 -53t103.5 -18q47 0 86.5 5.5t84.5 22.5l24 -86q-27 -15 -80 -27t-116 -12z" />
    <glyph glyph-name="D" unicode="D" horiz-adv-x="708" 
d="M322 61q56 0 99 14t71.5 45.5t43 83t14.5 125.5q0 79 -14.5 131t-43 82.5t-71.5 42.5t-99 12h-126v-536h126zM85 693h229q169 0 259 -87t90 -277q0 -95 -23 -164t-67 -113.5t-109.5 -65.5t-149.5 -21h-229v728z" />
    <glyph glyph-name="E" unicode="E" horiz-adv-x="604" 
d="M196 60h368v-95h-479v728h457v-95h-346v-212h307v-94h-307v-232z" />
    <glyph glyph-name="F" unicode="F" horiz-adv-x="597" 
d="M196 -35h-111v728h450v-95h-339v-217h300v-95h-300v-321z" />
    <glyph glyph-name="G" unicode="G" horiz-adv-x="706" 
d="M649 26q-13 -11 -35.5 -23.5t-53.5 -23t-70.5 -17.5t-87.5 -7q-182 0 -269.5 91.5t-87.5 283.5t88 283.5t281 91.5q73 0 126.5 -12.5t82.5 -28.5l-24 -86q-23 9 -44 14.5t-43 9t-45.5 5t-51.5 1.5q-76 0 -125.5 -18t-78.5 -53t-40.5 -87t-11.5 -120t12 -120t40 -87
t74.5 -52.5t116.5 -17.5q50 0 83.5 7.5t55.5 21.5v203h-174v96h282v-355z" />
    <glyph glyph-name="H" unicode="H" horiz-adv-x="720" 
d="M525 693h111v-728h-111v327h-329v-327h-111v728h111v-305h329v305z" />
    <glyph glyph-name="I" unicode="I" horiz-adv-x="287" 
d="M87 693h113v-728h-113v728z" />
    <glyph glyph-name="J" unicode="J" horiz-adv-x="458" 
d="M188 -37q-48 0 -88 7t-69 20l20 87q23 -8 55.5 -15.5t64.5 -7.5q54 0 74.5 29.5t20.5 85.5v529h112v-536q0 -42 -10.5 -78.5t-33 -63t-59 -42t-87.5 -15.5z" />
    <glyph glyph-name="K" unicode="K" horiz-adv-x="634" 
d="M85 693h111v-324l284 324h129l-284 -320l299 -408h-133l-232 333l-63 -71v-262h-111v728z" />
    <glyph glyph-name="L" unicode="L" horiz-adv-x="561" 
d="M85 693h113v-632h328v-96h-441v728z" />
    <glyph glyph-name="M" unicode="M" horiz-adv-x="875" 
d="M85 693h159l197 -503l193 503h156v-728h-107v590l-194 -490h-103l-194 490v-590h-107v728z" />
    <glyph glyph-name="N" unicode="N" horiz-adv-x="720" 
d="M85 693h131l311 -539v539h109v-728h-115l-327 571v-571h-109v728z" />
    <glyph glyph-name="O" unicode="O" horiz-adv-x="740" 
d="M695 330q0 -183 -82.5 -279t-242.5 -96t-242.5 96t-82.5 279t82.5 279t242.5 96t242.5 -96t82.5 -279zM582 330q0 133 -51.5 205t-160.5 72t-160.5 -72t-51.5 -205t51.5 -205t160.5 -72q108 0 160 72t52 205z" />
    <glyph glyph-name="P" unicode="P" horiz-adv-x="629" 
d="M196 -35h-111v728h265q115 0 179.5 -60t64.5 -169t-64.5 -169t-179.5 -60h-154v-270zM333 331q67 0 107.5 31t40.5 102t-40.5 102t-107.5 31h-137v-266h137z" />
    <glyph glyph-name="Q" unicode="Q" horiz-adv-x="740" 
d="M695 330q0 -152 -61 -247l106 -118h-128l-43 48q-78 -58 -199 -58q-160 0 -242.5 96t-82.5 279t82.5 279t242.5 96t242.5 -96t82.5 -279zM582 330q0 133 -51.5 205t-160.5 72t-160.5 -72t-51.5 -205t51.5 -205t160.5 -72q80 0 129 40l-136 157h123l69 -78q27 63 27 158z
" />
    <glyph glyph-name="R" unicode="R" horiz-adv-x="637" 
d="M196 -35h-111v728h265q57 0 102 -15.5t76.5 -44t48.5 -68.5t17 -89q0 -86 -50 -141.5t-140 -69.5l220 -300h-133l-206 296h-89v-296zM333 355q68 0 108 30t40 91t-40 91t-108 30h-137v-242h137z" />
    <glyph glyph-name="S" unicode="S" horiz-adv-x="574" 
d="M266 -45q-70 0 -129.5 14t-97.5 35l20 87q42 -16 95.5 -28t104.5 -12q78 0 119 29t41 83q0 48 -30.5 73t-93.5 42l-73 20q-38 10 -70 27.5t-55.5 42.5t-36.5 59t-13 78t17 81t49 63.5t78 41t105 14.5q69 0 120.5 -13t83.5 -27l-23 -85q-34 13 -80 21t-101 8
q-61 0 -99 -24t-38 -72t25.5 -75t82.5 -42l73 -19q42 -11 77 -27t60.5 -40t40 -57.5t14.5 -80.5q0 -100 -67.5 -158.5t-198.5 -58.5z" />
    <glyph glyph-name="T" unicode="T" horiz-adv-x="585" 
d="M237 597h-212v96h535v-96h-211v-632h-112v632z" />
    <glyph glyph-name="U" unicode="U" horiz-adv-x="758" 
d="M673 280q0 -76 -18.5 -136t-56 -102t-93 -64.5t-128.5 -22.5q-74 0 -128.5 22.5t-91 64.5t-54.5 102t-18 136v413h111v-408q0 -110 43 -171t138 -61q96 0 140.5 61t44.5 171v408h111v-413z" />
    <glyph glyph-name="V" unicode="V" horiz-adv-x="648" 
d="M15 693h120l191 -569l190 569h117l-256 -728h-105z" />
    <glyph glyph-name="W" unicode="W" horiz-adv-x="909" 
d="M647 134l133 559h114l-196 -728h-107l-136 578l-136 -578h-107l-197 728h117l134 -559l133 559h114z" />
    <glyph glyph-name="X" unicode="X" horiz-adv-x="668" 
d="M643 -35h-129l-187 286l-177 -286h-125l243 377l-229 351h128l169 -259l169 259h124l-234 -349z" />
    <glyph glyph-name="Y" unicode="Y" horiz-adv-x="621" 
d="M255 239l-240 454h124l173 -342l175 342h119l-239 -454v-274h-112v274z" />
    <glyph glyph-name="Z" unicode="Z" horiz-adv-x="593" 
d="M33 57l382 541h-355v95h485v-92l-381 -541h391v-95h-522v92z" />
    <glyph glyph-name="bracketleft" unicode="[" horiz-adv-x="372" 
d="M86 758h246v-88h-141v-747h141v-89h-246v924z" />
    <glyph glyph-name="backslash" unicode="\" horiz-adv-x="891" 
d="M30 408h75l-71 285h113l61 -285h121l62 285h112l63 -285h120l61 285h110l-71 -285h75v-80h-94l-90 -363h-105l-79 363h-95l-78 -363h-105l-90 363h-95v80zM268 130l43 198h-86zM627 130l42 198h-86zM416 408h60l-30 140z" />
    <glyph glyph-name="bracketright" unicode="]" horiz-adv-x="372" 
d="M286 -166h-246v89h141v747h-141v88h246v-924z" />
    <glyph glyph-name="asciicircum" unicode="^" horiz-adv-x="494" 
d="M203 758h88l153 -260h-103l-94 168l-94 -168h-103z" />
    <glyph glyph-name="underscore" unicode="_" horiz-adv-x="359" 
d="M0 -93h359v-89h-359v89z" />
    <glyph glyph-name="grave" unicode="`" horiz-adv-x="533" 
d="M113 758h126l84 -153h-102z" />
    <glyph glyph-name="a" unicode="a" horiz-adv-x="569" 
d="M399 219h-126q-24 0 -48 -3.5t-43.5 -12.5t-31.5 -25.5t-12 -42.5q0 -29 9.5 -47t26.5 -28.5t39 -14.5t48 -4q22 0 46.5 7t45 20.5t33.5 33.5t13 45v72zM504 -35h-96l-9 62q-23 -37 -62 -54.5t-87 -17.5q-44 0 -83 9.5t-68.5 30.5t-47 54t-17.5 81q0 49 19.5 82t51.5 53
t72 28.5t81 8.5h141v15q0 61 -37 87.5t-94 26.5q-39 0 -80.5 -9t-83.5 -24l-22 82q46 17 92 27.5t103 10.5q47 0 88.5 -10.5t72 -34.5t48.5 -64t18 -99v-345z" />
    <glyph glyph-name="b" unicode="b" horiz-adv-x="606" 
d="M308 45q69 0 110.5 47t41.5 144t-41.5 144.5t-110.5 47.5q-21 0 -44.5 -9t-43 -26.5t-32.5 -42.5t-13 -58v-118q0 -32 13 -56t32.5 -40.5t43 -24.5t44.5 -8zM323 -45q-43 0 -84 15.5t-64 50.5l-9 -56h-96v769h105v-289q23 35 64 54t84 19q50 0 94.5 -18t78 -54t53 -88.5
t19.5 -121.5t-19.5 -121.5t-53 -88t-78 -53.5t-94.5 -18z" />
    <glyph glyph-name="c" unicode="c" horiz-adv-x="498" 
d="M312 -45q-61 0 -111.5 18t-86.5 53.5t-56 88t-20 121.5t20 121.5t56 88.5t86.5 54t111.5 18q52 0 90 -10t67 -22l-22 -82q-23 8 -58 16t-77 8q-79 0 -122.5 -47.5t-43.5 -144.5t43.5 -144t122.5 -47q46 0 85 7.5t64 16.5l22 -82q-30 -13 -70.5 -22.5t-100.5 -9.5z" />
    <glyph glyph-name="d" unicode="d" horiz-adv-x="606" 
d="M431 299q0 32 -13 56t-32.5 40.5t-43 24.5t-44.5 8q-69 0 -110.5 -47.5t-41.5 -144.5t41.5 -144t110.5 -47q21 0 44.5 9t43 26.5t32.5 42.5t13 58v118zM431 28q-23 -39 -64 -56t-84 -17q-50 0 -94.5 18t-78 53.5t-53 88t-19.5 121.5t19.5 121.5t53 88.5t78 54t94.5 18
q43 0 84 -15.5t64 -50.5v282h105v-769h-96z" />
    <glyph glyph-name="e" unicode="e" horiz-adv-x="563" 
d="M311 -45q-133 0 -203 72t-70 209q0 67 17.5 119.5t50.5 88.5t79.5 55t105.5 19q50 0 93 -19t74.5 -55t49 -88.5t17.5 -119.5v-46h-379q3 -42 17 -69.5t38 -44.5t56.5 -24t72.5 -7q48 0 88 7.5t74 21.5l19 -84q-35 -16 -88.5 -25.5t-111.5 -9.5zM282 429q-54 0 -93 -38
t-43 -118h271q-4 80 -42.5 118t-92.5 38z" />
    <glyph glyph-name="f" unicode="f" horiz-adv-x="363" 
d="M114 422h-91v85h91v64q0 46 13 79.5t36 55.5t54.5 33t69.5 11q35 0 58 -4.5t40 -9.5l-15 -83q-17 4 -33 6t-36 2q-38 0 -60 -23t-22 -77v-54h129v-85h-129v-457h-105v457z" />
    <glyph glyph-name="g" unicode="g" horiz-adv-x="606" 
d="M298 428q-69 0 -110.5 -45t-41.5 -135t41.5 -135.5t110.5 -45.5q21 0 44.5 9t43 26.5t32.5 42.5t13 58v96q0 32 -13 56t-32.5 40.5t-43 24.5t-44.5 8zM431 55q-10 -20 -26.5 -35t-36.5 -24.5t-42 -14t-43 -4.5q-50 0 -94.5 17.5t-78 52t-53 85t-19.5 116.5t19.5 116
t53 84.5t78 52t94.5 17.5q43 0 84 -15.5t64 -50.5l9 55h96v-489q0 -138 -57.5 -202.5t-185.5 -64.5q-70 0 -119 11.5t-85 27.5l20 85q37 -14 75.5 -24t93.5 -10q38 0 67 6.5t48 25t28.5 51.5t9.5 86v45z" />
    <glyph glyph-name="h" unicode="h" horiz-adv-x="601" 
d="M70 734h105v-290q23 35 64 54.5t84 19.5q45 0 84 -13t67.5 -40.5t44.5 -70.5t16 -104v-325h-105v320q0 42 -8.5 69.5t-24 44t-38.5 23t-51 6.5q-21 0 -44.5 -9t-43 -26.5t-32.5 -42.5t-13 -58v-327h-105v769z" />
    <glyph glyph-name="i" unicode="i" horiz-adv-x="250" 
d="M72 507h106v-542h-106v542zM70 693h110v-110h-110v110z" />
    <glyph glyph-name="j" unicode="j" horiz-adv-x="246" 
d="M67 693h110v-110h-110v110zM175 8q0 -131 -44.5 -194t-142.5 -63q-30 0 -45 2.5t-35 8.5l11 85q17 -4 28 -5t26 -1q21 0 38.5 6t30.5 23.5t20.5 49t7.5 82.5v505h105v-499z" />
    <glyph glyph-name="k" unicode="k" horiz-adv-x="549" 
d="M70 734h105v-454l227 227h124l-234 -233l249 -309h-127l-189 242l-50 -49v-193h-105v769z" />
    <glyph glyph-name="l" unicode="l" horiz-adv-x="250" 
d="M72 734h106v-769h-106v769z" />
    <glyph glyph-name="m" unicode="m" horiz-adv-x="873" 
d="M70 507h94l9 -62q23 35 56.5 54t74.5 19q49 0 90.5 -21.5t66.5 -68.5q35 52 77 71t83 19q38 0 72 -13t59.5 -40.5t40.5 -70.5t15 -104v-325h-104v320q0 42 -7.5 69.5t-20.5 44t-31 23t-39 6.5q-19 0 -39 -8.5t-36.5 -25t-27.5 -41t-12 -55.5v-333h-104v320
q0 42 -7.5 69.5t-20.5 44t-31 23t-39 6.5q-20 0 -40 -9t-37 -26.5t-27.5 -42.5t-10.5 -58v-327h-104v542z" />
    <glyph glyph-name="n" unicode="n" horiz-adv-x="601" 
d="M70 507h96l9 -62q23 35 64 54t84 19q45 0 84 -13t67.5 -40.5t45 -70.5t16.5 -104v-325h-106v320q0 42 -8.5 69.5t-24 44t-38.5 23t-51 6.5q-21 0 -44.5 -9t-43 -26.5t-32 -42.5t-12.5 -58v-327h-106v542z" />
    <glyph glyph-name="o" unicode="o" horiz-adv-x="604" 
d="M302 45q72 0 114 47t42 144t-42 144.5t-114 47.5t-114 -47.5t-42 -144.5t42 -144t114 -47zM302 -45q-57 0 -105.5 18t-84 53.5t-55 88t-19.5 121.5t19.5 121.5t55 88.5t84 54t105.5 18t105.5 -18t84 -54t55 -88.5t19.5 -121.5t-19.5 -121.5t-55 -88t-84 -53.5t-105.5 -18
z" />
    <glyph glyph-name="p" unicode="p" horiz-adv-x="606" 
d="M175 -238h-105v745h96l9 -62q23 35 64 54t84 19q50 0 94.5 -18t78 -54t53 -88.5t19.5 -121.5t-19.5 -121.5t-53 -88t-78 -53.5t-94.5 -18q-43 0 -84 15.5t-64 50.5v-259zM308 45q69 0 110.5 47t41.5 144t-41.5 144.5t-110.5 47.5q-21 0 -44.5 -9t-43 -26.5t-32.5 -42.5
t-13 -58v-118q0 -32 13 -56t32.5 -40.5t43 -24.5t44.5 -8z" />
    <glyph glyph-name="q" unicode="q" horiz-adv-x="606" 
d="M431 299q0 32 -13 56t-32.5 40.5t-43 24.5t-44.5 8q-69 0 -110.5 -47.5t-41.5 -144.5t41.5 -144t110.5 -47q21 0 44.5 9t43 26.5t32.5 42.5t13 58v118zM431 28q-23 -39 -64 -56t-84 -17q-50 0 -94.5 18t-78 53.5t-53 88t-19.5 121.5t19.5 121.5t53 88.5t78 54t94.5 18
q43 0 84 -15.5t64 -50.5l9 55h96v-745h-105v266z" />
    <glyph glyph-name="r" unicode="r" horiz-adv-x="395" 
d="M307 518q29 0 46 -3t32 -8l-11 -93q-11 3 -26 5.5t-41 2.5q-24 0 -47.5 -8.5t-42 -26t-30 -43.5t-11.5 -61v-318h-106v542h96l9 -77q23 38 57 63t75 25z" />
    <glyph glyph-name="s" unicode="s" horiz-adv-x="498" 
d="M242 -45q-27 0 -56 2.5t-56 7t-51 11t-42 14.5l19 84q34 -13 79 -22t92 -9q72 0 102.5 17t30.5 51q0 35 -31 51.5t-78 28.5l-49 13q-30 8 -58 19.5t-49.5 29.5t-35 43.5t-13.5 61.5q0 34 12.5 63.5t38.5 51t66.5 33.5t96.5 12q52 0 101 -12t81 -23l-21 -83q-13 5 -31 10
t-38.5 9.5t-42 7.5t-41.5 3q-65 0 -91.5 -17.5t-26.5 -47.5q0 -32 25 -46.5t67 -24.5l47 -11q40 -9 72.5 -22t55.5 -31.5t36 -45.5t13 -65q0 -81 -59 -122.5t-165 -41.5z" />
    <glyph glyph-name="t" unicode="t" horiz-adv-x="395" 
d="M114 638h105v-131h141v-85h-141v-278q0 -54 19 -76.5t55 -22.5q26 0 43 2t34 6l15 -84q-17 -5 -41.5 -9.5t-64.5 -4.5q-74 0 -119.5 43.5t-45.5 135.5v288h-91v85h91v131z" />
    <glyph glyph-name="u" unicode="u" horiz-adv-x="605" 
d="M535 -35h-96l-9 62q-23 -35 -64 -54t-84 -19q-46 0 -85.5 13t-69 40.5t-46 70.5t-16.5 104v325h106v-320q0 -42 8.5 -69.5t25 -44t40 -23t52.5 -6.5q21 0 44.5 9t43 26.5t32 42.5t12.5 58v327h106v-542z" />
    <glyph glyph-name="v" unicode="v" horiz-adv-x="571" 
d="M345 -35h-119l-212 542h117l157 -419l157 419h112z" />
    <glyph glyph-name="w" unicode="w" horiz-adv-x="860" 
d="M664 -35h-119l-115 403l-115 -403h-119l-170 542h115l117 -419l117 419h115l117 -419l117 419h110z" />
    <glyph glyph-name="x" unicode="x" horiz-adv-x="562" 
d="M546 -35h-124l-145 200l-140 -200h-121l204 279l-190 263h124l132 -183l125 183h121l-189 -263z" />
    <glyph glyph-name="y" unicode="y" horiz-adv-x="563" 
d="M14 507h115l159 -406l149 406h112l-292 -745h-112l86 215z" />
    <glyph glyph-name="z" unicode="z" horiz-adv-x="523" 
d="M40 51l307 369h-293v87h421v-84l-309 -371h319v-87h-445v86z" />
    <glyph glyph-name="braceleft" unicode="{" horiz-adv-x="392" 
d="M123 296q35 -7 57 -20.5t34.5 -30.5t17 -38t4.5 -43v-150q0 -45 23 -69.5t72 -24.5h31v-86h-25q-56 0 -95.5 13t-64 36.5t-35.5 55t-11 69.5v152q0 49 -25.5 69t-90.5 25v84q33 2 55 8t35.5 17t19.5 28t6 41v152q0 37 11 69t35.5 55.5t64 36.5t95.5 13h25v-86h-31
q-49 0 -72 -24.5t-23 -69.5v-150q0 -22 -4.5 -43t-17 -38t-34.5 -30.5t-57 -20.5z" />
    <glyph glyph-name="bar" unicode="|" horiz-adv-x="289" 
d="M93 758h103v-924h-103v924z" />
    <glyph glyph-name="braceright" unicode="}" horiz-adv-x="392" 
d="M269 296q-35 7 -57 20.5t-34.5 30.5t-17 38t-4.5 43v150q0 45 -23 69.5t-72 24.5h-31v86h25q56 0 95.5 -13t64 -36.5t35.5 -55.5t11 -69v-152q0 -24 6 -41t19.5 -28t35.5 -17t55 -8v-84q-65 -5 -90.5 -25t-25.5 -69v-152q0 -38 -11 -69.5t-35.5 -55t-64 -36.5t-95.5 -13
h-25v86h31q49 0 72 24.5t23 69.5v150q0 22 4.5 43t17 38t34.5 30.5t57 20.5z" />
    <glyph glyph-name="asciitilde" unicode="~" horiz-adv-x="678" 
d="M336 288q-33 20 -60 37t-58 17q-32 0 -52 -17.5t-40 -62.5l-86 30q15 44 34.5 73t42.5 45.5t48 23t51 6.5q37 0 67 -11.5t59 -28.5q35 -21 61 -37.5t57 -16.5q32 0 52 17.5t40 62.5l86 -30q-15 -44 -34.5 -73t-42.5 -45.5t-48 -23t-51 -6.5q-37 0 -67 11t-59 29z" />
    <glyph glyph-name="exclamdown" unicode="&#xa1;" horiz-adv-x="294" 
d="M86 705h122v-119h-122v119zM100 483h94l14 -530h-122z" />
    <glyph glyph-name="uniFFE0" unicode="&#xa2;" horiz-adv-x="495" 
d="M168 -131l23 123q-71 26 -112 88.5t-41 161.5q0 64 18 114t51 84t79 52.5t102 20.5l22 113h86l-23 -120q24 -5 43.5 -11t36.5 -13l-24 -80q-14 5 -32 10t-40 8l-67 -359h12q44 0 80.5 7t59.5 15l25 -80q-30 -13 -69 -21.5t-96 -8.5q-8 0 -14.5 0.5t-14.5 0.5l-19 -105
h-86zM144 242q0 -114 64 -157l63 337q-61 -9 -94 -53t-33 -127z" />
    <glyph glyph-name="uniFFE0" unicode="&#xffe0;" horiz-adv-x="495" 
d="M168 -131l23 123q-71 26 -112 88.5t-41 161.5q0 64 18 114t51 84t79 52.5t102 20.5l22 113h86l-23 -120q24 -5 43.5 -11t36.5 -13l-24 -80q-14 5 -32 10t-40 8l-67 -359h12q44 0 80.5 7t59.5 15l25 -80q-30 -13 -69 -21.5t-96 -8.5q-8 0 -14.5 0.5t-14.5 0.5l-19 -105
h-86zM144 242q0 -114 64 -157l63 337q-61 -9 -94 -53t-33 -127z" />
    <glyph glyph-name="uniFFE1" unicode="&#xa3;" horiz-adv-x="605" 
d="M52 383h80q-12 80 -2.5 140.5t37 100.5t71 60t99.5 20q60 0 109 -13t83 -31l-26 -82q-28 14 -67 23t-78 9q-35 0 -62.5 -12t-44 -39t-21.5 -70t4 -106h195v-85h-184q4 -48 1.5 -84.5t-12 -65t-25 -50t-35.5 -39.5h381v-94h-505v75q27 25 46.5 50.5t31.5 55.5t15.5 67
t-0.5 85h-91v85z" />
    <glyph glyph-name="uniFFE1" unicode="&#xffe1;" horiz-adv-x="605" 
d="M52 383h80q-12 80 -2.5 140.5t37 100.5t71 60t99.5 20q60 0 109 -13t83 -31l-26 -82q-28 14 -67 23t-78 9q-35 0 -62.5 -12t-44 -39t-21.5 -70t4 -106h195v-85h-184q4 -48 1.5 -84.5t-12 -65t-25 -50t-35.5 -39.5h381v-94h-505v75q27 25 46.5 50.5t31.5 55.5t15.5 67
t-0.5 85h-91v85z" />
    <glyph glyph-name="currency" unicode="&#xa4;" horiz-adv-x="882" 
d="M813 575l-118 -105q21 -35 33 -76.5t12 -87.5q0 -48 -14 -93t-40 -83q4 -3 22.5 -19.5t40 -35.5t40 -36t21.5 -20l-55 -62l-124 113q-41 -35 -92.5 -55t-108.5 -20q-54 0 -103 17.5t-90 49.5q-3 -3 -21 -19t-39 -34t-39 -33.5t-21 -18.5l-55 62l117 104
q-27 38 -43.5 84.5t-16.5 98.5q0 47 13 89.5t37 80.5q-3 3 -19.5 17.5t-35 32t-35 32t-19.5 17.5l59 59l105 -94q41 35 94 56t112 21q62 0 115 -23t96 -61q3 3 19.5 18t36 32.5t36.5 32.5t20 18zM662 306q0 48 -18.5 90.5t-50 74t-73.5 49.5t-90 18t-90.5 -18t-74 -49.5
t-49.5 -74t-18 -90.5t18 -90.5t49.5 -74t74 -49.5t90.5 -18t90 18t73.5 49.5t50 74t18.5 90.5z" />
    <glyph glyph-name="uniFFE5" unicode="&#xa5;" horiz-adv-x="621" 
d="M76 214h180v69h-180v85h154l-185 325h122l145 -270l145 270h119l-185 -325h154v-85h-179v-69h179v-86h-179v-163h-110v163h-180v86z" />
    <glyph glyph-name="uniFFE5" unicode="&#xffe5;" horiz-adv-x="621" 
d="M76 214h180v69h-180v85h154l-185 325h122l145 -270l145 270h119l-185 -325h154v-85h-179v-69h179v-86h-179v-163h-110v163h-180v86z" />
    <glyph glyph-name="section" unicode="&#xa7;" horiz-adv-x="524" 
d="M306 351q-25 8 -48.5 14.5t-48.5 15.5q-41 -7 -61.5 -29.5t-20.5 -54.5q0 -27 10 -44t31.5 -29t55 -22t79.5 -24q3 -2 6.5 -2t6.5 -2q42 8 63 30.5t21 54.5q0 37 -20.5 56.5t-73.5 35.5zM244 -164q-57 0 -100.5 11t-78.5 30v84q18 -8 35.5 -14.5t37 -11.5t42.5 -8t52 -3
q63 0 93 21t30 60q0 18 -3.5 31t-13.5 22t-27 16.5t-44 15.5q-48 15 -91.5 28.5t-76.5 33.5t-52.5 52t-19.5 83q0 53 25 85t73 49q-23 19 -37 49t-14 74q0 38 13.5 70t40 54.5t66 35t92.5 12.5q58 0 93 -11.5t62 -24.5v-83q-25 11 -63 21.5t-87 10.5q-54 0 -85 -19t-31 -56
q0 -18 3 -31t11.5 -22.5t22.5 -16.5t36 -14q61 -20 108.5 -34.5t80.5 -34.5t50 -50.5t17 -81.5q0 -56 -26 -88t-71 -49q54 -38 54 -119q0 -85 -56.5 -131t-160.5 -46z" />
    <glyph glyph-name="dieresis" unicode="&#xa8;" horiz-adv-x="519" 
d="M118 718h99v-100h-99v100zM303 718h98v-100h-98v100z" />
    <glyph glyph-name="copyright" unicode="&#xa9;" horiz-adv-x="837" 
d="M428 128q-86 0 -137.5 50t-51.5 153v13q0 54 15.5 92t42 62t61.5 35t75 11q36 0 61.5 -6.5t40.5 -14.5v-72q-23 9 -46 14t-54 5q-45 0 -72 -27.5t-27 -90.5v-21q0 -65 24.5 -98t82.5 -33q35 0 57.5 9t39.5 17v-70q-20 -11 -47.5 -19.5t-64.5 -8.5zM418 14q67 0 124 24
t98.5 66.5t64.5 101.5t23 130t-23 130t-64.5 101t-98.5 65.5t-124 23.5q-68 0 -124.5 -23.5t-97.5 -65.5t-64 -101t-23 -130t23 -130t64 -101.5t97.5 -66.5t124.5 -24zM418 -39q-80 0 -148.5 29.5t-118.5 80.5t-78 119t-28 146t28 146t78 118.5t118.5 80t148.5 29.5
q79 0 148 -29.5t119 -80t79 -118.5t29 -146t-29 -146t-79 -119t-119 -80.5t-148 -29.5z" />
    <glyph glyph-name="ordfeminine" unicode="&#xaa;" horiz-adv-x="462" 
d="M64 183h340v-90h-340v90zM209 297q29 0 54.5 8t39.5 22v127l-96 -11q-38 -4 -57.5 -21t-19.5 -55t21.5 -54t57.5 -16zM180 224q-33 0 -60.5 8.5t-47.5 25.5t-31.5 43t-11.5 61q0 66 40.5 100.5t112.5 43.5l121 14v24q0 27 -6 43.5t-20 26.5t-36 13.5t-53 3.5
q-35 0 -65.5 -5t-53.5 -10v70q35 13 73 19.5t84 6.5q85 0 131.5 -34t46.5 -110v-335h-83l-9 41h-5q-17 -22 -48 -36t-79 -14z" />
    <glyph glyph-name="uni226A" unicode="&#xab;" horiz-adv-x="920" 
d="M818 13l-32 -54l-492 320v47l483 330l39 -51l-444 -302zM606 9l-35 -54l-489 324v47l481 335l39 -53l-442 -306z" />
    <glyph glyph-name="uni226A" unicode="&#x226a;" horiz-adv-x="920" 
d="M818 13l-32 -54l-492 320v47l483 330l39 -51l-444 -302zM606 9l-35 -54l-489 324v47l481 335l39 -53l-442 -306z" />
    <glyph glyph-name="uniFFE2" unicode="&#xac;" horiz-adv-x="920" 
d="M886 -157h-66v258h-806v64h872v-322z" />
    <glyph glyph-name="uniFFE2" unicode="&#xffe2;" horiz-adv-x="920" 
d="M886 -157h-66v258h-806v64h872v-322z" />
    <glyph glyph-name="endash" unicode="&#xad;" horiz-adv-x="410" 
d="M353 280h-296v69h296v-69z" />
    <glyph glyph-name="endash" unicode="&#x2013;" horiz-adv-x="410" 
d="M353 280h-296v69h296v-69z" />
    <glyph glyph-name="degree" unicode="&#xb0;" horiz-adv-x="343" 
d="M172 666q-20 0 -35 -8t-25 -21t-15.5 -29.5t-5.5 -33.5q0 -36 23.5 -61t58.5 -25q36 0 59.5 26t23.5 64q0 15 -5 30.5t-15 28.5t-26 21t-37 8h-1zM175 722q34 0 61 -12t46 -32t29 -45.5t10 -53.5q0 -33 -12.5 -60.5t-33.5 -46.5t-47.5 -29.5t-54.5 -10.5q-33 0 -60 11.5
t-46.5 31t-30 45t-10.5 54.5q0 31 11.5 58.5t31.5 47t47 31t58 11.5h1z" />
    <glyph glyph-name="plusminus" unicode="&#xb1;" horiz-adv-x="625" 
d="M588 92v-73h-551v73h551zM351 631v-202h237v-72h-237v-208h-78v208h-236v72h236v202h78z" />
    <glyph glyph-name="twosuperior" unicode="&#xb2;" horiz-adv-x="325" 
d="M24 316l123 131q29 29 51 56t22 52q0 35 -20.5 46t-58.5 11q-21 0 -45.5 -7.5t-46.5 -18.5l-18 68q25 11 57 20.5t67 9.5q72 0 109.5 -33t37.5 -94q0 -20 -7 -39t-19 -37t-27 -35.5t-31 -33.5l-18 -20l-53 -57h160v-72h-283v53z" />
    <glyph glyph-name="threesuperior" unicode="&#xb3;" horiz-adv-x="323" 
d="M141 258q-37 0 -70.5 9t-54.5 21l15 68q22 -11 51 -19t49 -8q89 0 89 58q0 29 -25 41.5t-64 12.5h-48v72h45q35 0 57.5 13.5t22.5 38.5q0 26 -18 37.5t-50 11.5q-19 0 -40.5 -7t-51.5 -19l-17 66q23 11 58 20.5t66 9.5q63 0 99 -29t36 -80q0 -29 -12.5 -52.5t-32.5 -37.5
q29 -12 44.5 -35.5t15.5 -64.5q0 -58 -43 -92.5t-121 -34.5z" />
    <glyph glyph-name="acute" unicode="&#xb4;" horiz-adv-x="519" 
d="M297 744h116l-111 -153h-92z" />
    <glyph glyph-name="paragraph" unicode="&#xb6;" horiz-adv-x="600" 
d="M289 327h-48q-42 0 -79.5 12t-66 35.5t-45.5 58.5t-17 81q0 39 12.5 73t41 60t74.5 41t112 15h248v-854h-73v789h-86v-789h-73v478z" />
    <glyph glyph-name="uni30FB" unicode="&#xb7;" horiz-adv-x="322" 
d="M98 375h118v-116h-118v116z" />
    <glyph glyph-name="uni30FB" unicode="&#x30fb;" horiz-adv-x="322" 
d="M98 375h118v-116h-118v116z" />
    <glyph glyph-name="cedilla" unicode="&#xb8;" horiz-adv-x="519" 
d="M212 -139q57 5 81.5 14.5t24.5 26.5q0 20 -20 26.5t-63 6.5v98h62v-49q49 -3 76 -21.5t27 -53.5q0 -47 -42 -72.5t-146 -33.5v58z" />
    <glyph glyph-name="onesuperior" unicode="&#xb9;" horiz-adv-x="240" 
d="M89 596l-25 -6l-43 -9v66l100 31h52v-415h-84v333z" />
    <glyph glyph-name="ordmasculine" unicode="&#xba;" horiz-adv-x="516" 
d="M84 183h340v-90h-340v90zM259 304q60 0 91.5 35t31.5 115v27q0 48 -10 78t-27 47t-40 23.5t-49 6.5q-60 0 -91.5 -36t-31.5 -116v-25q0 -48 10 -78t27 -47t40 -23.5t49 -6.5zM257 228q-109 0 -167.5 58.5t-58.5 174.5v15q0 58 16.5 102t46.5 74t71.5 45t92.5 15
q109 0 169 -58t60 -174v-16q0 -59 -17 -103t-47 -73.5t-72.5 -44.5t-93.5 -15z" />
    <glyph glyph-name="guillemotright" unicode="&#xbb;" horiz-adv-x="920" 
d="M815 279l-489 -324l-35 54l446 293l-441 306l38 53l481 -335v-47zM603 279l-492 -320l-32 54l446 289l-444 303l39 51l483 -330v-47z" />
    <glyph glyph-name="guillemotright" unicode="&#x226b;" horiz-adv-x="920" 
d="M815 279l-489 -324l-35 54l446 293l-441 306l38 53l481 -335v-47zM603 279l-492 -320l-32 54l446 289l-444 303l39 51l483 -330v-47z" />
    <glyph glyph-name="onequarter" unicode="&#xbc;" horiz-adv-x="834" 
d="M556 705h107l-442 -775h-108zM634 98v140q-26 -37 -49 -69t-50 -71h99zM633 22h-203v60l218 308h71v-292h65v-76h-65v-89h-86v89zM126 603q-18 -4 -39 -9t-37 -8v71l110 33h54v-457h-88v370z" />
    <glyph glyph-name="onehalf" unicode="&#xbd;" horiz-adv-x="863" 
d="M556 705h107l-442 -775h-108zM503 -9l137 144q32 32 56 62t24 58q0 40 -23 52t-66 12q-24 0 -50.5 -7.5t-49.5 -18.5l-19 71q26 11 60 22t74 11q78 0 119.5 -37t41.5 -103q0 -23 -8 -43.5t-21 -40t-29.5 -38.5t-34.5 -38h1l-20 -21l-61 -66h179v-77h-310v58zM126 603
q-18 -4 -39 -9t-37 -8v71l110 33h54v-457h-88v370z" />
    <glyph glyph-name="threequarters" unicode="&#xbe;" horiz-adv-x="903" 
d="M625 705h107l-442 -775h-108zM703 98v140q-26 -37 -49 -69t-50 -71h99zM702 22h-203v60l218 308h71v-292h65v-76h-65v-89h-86v89zM186 227q-40 0 -76.5 10t-59.5 23l17 71q11 -5 25 -10t28.5 -9t28.5 -6.5t26 -2.5q101 0 101 65q0 33 -28 47.5t-73 14.5h-52v77h48
q39 0 65 15t26 44q0 30 -20 42.5t-58 12.5q-23 0 -44 -7t-41 -15l-14 -2l-18 66q25 12 63 23t71 11q69 0 108.5 -31.5t39.5 -88.5q0 -33 -14.5 -58.5t-37.5 -41.5q30 -14 49 -40.5t19 -70.5q0 -63 -47 -101t-132 -38z" />
    <glyph glyph-name="questiondown" unicode="&#xbf;" horiz-adv-x="480" 
d="M351 598h-122v119h122v-119zM339 444q1 -28 -6.5 -49t-22 -40t-35.5 -37t-46 -39q-34 -29 -48 -60.5t-14 -76.5q0 -52 32.5 -72.5t85.5 -20.5q40 0 71 8t63 19l23 -85q-35 -14 -79.5 -26t-97.5 -12q-44 0 -82.5 10.5t-67 32.5t-45.5 56.5t-17 83.5q0 34 6 62t19 52.5
t33.5 47.5t49.5 47q19 16 33.5 29t24.5 25.5t15.5 27t6.5 33.5l2 35h94z" />
    <glyph glyph-name="AE" unicode="&#xc6;" horiz-adv-x="947" 
d="M259 265h190v353h-4zM390 703h499v-91h-331v-217h256v-91h-256v-238h338v-91h-447v202h-235l-106 -202h-109z" />
    <glyph glyph-name="Eth" unicode="&#xd0;" horiz-adv-x="690" 
d="M310 66q115 0 169 60.5t54 197.5v36q0 72 -15.5 120t-45.5 77.5t-73.5 42t-99.5 12.5h-110v-227h196v-90h-196v-229h121zM7 385h72v318h227q166 0 256.5 -84t90.5 -259v-23q0 -172 -84 -267t-261 -95h-229v320h-72v90z" />
    <glyph glyph-name="multiply" unicode="&#xd7;" horiz-adv-x="625" 
d="M89 582l223 -227l224 227l52 -53l-223 -228l223 -227l-52 -55l-224 228l-223 -228l-52 55l223 227l-223 228z" />
    <glyph glyph-name="Oslash" unicode="&#xd8;" horiz-adv-x="726" 
d="M361 -37q-63 0 -115.5 17t-94.5 52l-46 -57h-98l94 113q-30 45 -46.5 105t-16.5 136v21q0 86 23 154t65.5 115t103 72t135.5 25q123 0 203 -65l42 52h97l-88 -106q33 -46 51 -107.5t18 -140.5v-21q0 -86 -23 -154t-65.5 -115t-103 -71.5t-135.5 -24.5zM364 50
q52 0 91 19.5t65 55t38.5 83.5t12.5 105v37q0 46 -5.5 86t-18.5 72l-333 -400q26 -28 62.5 -43t87.5 -15zM154 330q0 -45 5 -82.5t16 -69.5l329 397q-26 24 -61 38t-83 15q-53 0 -91.5 -19t-64 -54t-38 -83t-12.5 -105v-37z" />
    <glyph glyph-name="Thorn" unicode="&#xde;" horiz-adv-x="593" 
d="M307 231q79 0 113.5 31t34.5 97q0 71 -34 100.5t-112 29.5h-121v-258h119zM78 703h110v-125h132q125 0 186.5 -55t61.5 -156q0 -55 -17.5 -96.5t-49 -69.5t-75.5 -42t-98 -14h-140v-170h-110v728z" />
    <glyph glyph-name="germandbls" unicode="&#xdf;" horiz-adv-x="597" 
d="M387 -35q-46 0 -77 6t-63 20v82q32 -11 59 -18t66 -7q48 0 72 18.5t24 48.5q0 24 -14.5 41t-48.5 36l-47 25q-51 27 -76 57.5t-25 82.5q0 40 23 72t50.5 59.5t50.5 54t23 55.5q0 40 -28.5 60.5t-76.5 20.5q-60 0 -95.5 -34.5t-35.5 -107.5v-562h-105v571q0 57 20 97.5
t53.5 66.5t76 38t87.5 12q99 0 153 -39.5t54 -114.5q0 -44 -23.5 -77.5t-52 -60.5t-52 -50t-23.5 -46q0 -26 14 -41t43 -32l52 -28q52 -28 79 -62t27 -88q0 -77 -50 -116.5t-134 -39.5z" />
    <glyph glyph-name="ae" unicode="&#xe6;" horiz-adv-x="831" 
d="M573 434q-21 0 -42.5 -5t-40 -19.5t-31 -42t-15.5 -72.5h249q0 40 -7.5 67t-22.5 43t-37.5 22.5t-52.5 6.5zM359 102q-11 27 -16.5 57t-6.5 64l-113 -12q-45 -5 -65.5 -25t-20.5 -63q0 -42 23.5 -61.5t65.5 -19.5q76 0 133 60zM199 -35q-37 0 -68 9.5t-53.5 28.5t-35 48
t-12.5 68q0 73 45 110t124 48l137 16v37q0 30 -7 49t-22.5 30t-40 15t-60.5 4q-40 0 -73 -5t-58 -10v73q38 15 79 23t92 8q126 0 162 -82q60 82 169 82q115 0 169.5 -59.5t54.5 -189.5v-48h-358q2 -47 14.5 -79.5t34.5 -52.5t53 -28.5t71 -8.5q54 0 92.5 11.5t74.5 28.5v-74
q-25 -18 -71 -35t-115 -17q-140 0 -206 84q-35 -39 -80.5 -61.5t-111.5 -22.5z" />
    <glyph glyph-name="eth" unicode="&#xf0;" horiz-adv-x="566" 
d="M236 661q-26 22 -55.5 44.5t-61.5 45.5h135q18 -11 37.5 -24t38.5 -29l101 40l23 -57l-73 -29q30 -30 57.5 -68t48 -83t33 -98.5t12.5 -115.5v-30q0 -73 -18 -128t-51 -91.5t-79.5 -54.5t-103.5 -18q-121 0 -185 70.5t-64 198.5v18q0 64 17.5 115t49.5 86.5t76.5 54
t98.5 18.5q28 0 50 -6.5t39 -17.5h8q-17 30 -38 58t-47 54l-145 -57l-23 57zM423 277q0 76 -16 134q-21 14 -50 23t-69 9q-73 0 -111 -45.5t-38 -135.5v-29q0 -54 11 -90t30.5 -57t46 -30t56.5 -9q66 0 103 48.5t37 154.5v27z" />
    <glyph glyph-name="divide" unicode="&#xf7;" horiz-adv-x="625" 
d="M311 53q-27 0 -44 18.5t-17 44.5q0 29 17 47.5t45 18.5q29 0 45 -18.5t17 -47.5q0 -26 -16.5 -44.5t-45.5 -18.5h-1zM37 267v75h551v-75h-551zM311 427q-27 0 -44 18.5t-17 47.5q0 27 17 45.5t45 18.5q29 0 45 -18.5t17 -45.5q0 -29 -16.5 -47.5t-45.5 -18.5h-1z" />
    <glyph glyph-name="oslash" unicode="&#xf8;" horiz-adv-x="565" 
d="M283 -35q-100 0 -164 49l-33 -39h-87l76 89q-44 65 -44 170v7q0 65 18.5 116t51.5 86.5t79.5 54.5t103.5 19q47 0 85.5 -12.5t70.5 -34.5l30 36h87l-71 -83q23 -34 35.5 -78.5t12.5 -100.5v-4q0 -65 -18.5 -116t-51.5 -86.5t-79.5 -54t-101.5 -18.5zM285 45
q67 0 104 46.5t37 137.5v19q0 55 -11 94l-237 -261q20 -20 46 -28t61 -8zM138 232q0 -50 9 -87l233 258q-19 17 -44 24.5t-54 7.5q-69 0 -106.5 -47t-37.5 -137v-19z" />
    <glyph glyph-name="thorn" unicode="&#xfe;" horiz-adv-x="577" 
d="M288 47q35 0 62.5 9.5t46.5 31.5t29 57.5t10 87.5v22q0 54 -9.5 89.5t-27.5 56.5t-45 29.5t-61 8.5q-42 0 -75 -10.5t-50 -24.5v-323q17 -13 49 -23.5t71 -10.5zM63 751h105v-274h5q24 20 62.5 35.5t88.5 15.5q44 0 84 -13.5t70.5 -44.5t48.5 -82t18 -126v-15
q0 -75 -17.5 -128.5t-49.5 -87.5t-77 -50t-101 -16q-45 0 -78 10t-54 22v-195h-105v949z" />
    <glyph glyph-name="dcroat" unicode="&#x111;" horiz-adv-x="577" 
d="M292 48q42 0 71.5 13.5t46.5 26.5v323q-16 14 -48.5 22t-70.5 8q-35 0 -62.5 -9.5t-47 -31.5t-29.5 -57.5t-10 -87.5v-22q0 -53 11 -88.5t30.5 -57t47.5 -30.5t61 -9zM258 660h152v91h105v-91h66v-67h-66v-618h-89l-10 43h-5q-24 -24 -62.5 -38.5t-92.5 -14.5
q-40 0 -79.5 13.5t-71 44.5t-51.5 81.5t-20 124.5v14q0 75 18 128.5t50.5 88.5t76.5 51.5t96 16.5q50 0 82.5 -11t52.5 -22v98h-152v67z" />
    <glyph glyph-name="Hbar" unicode="&#x126;" horiz-adv-x="710" 
d="M522 395v107h-334v-107h334zM19 574h59v129h110v-129h334v129h110v-129h61v-72h-61v-527h-110v330h-334v-330h-110v527h-59v72z" />
    <glyph glyph-name="hbar" unicode="&#x127;" horiz-adv-x="567" 
d="M63 593h-65v67h65v91h105v-91h151v-67h-151v-121h5q33 23 80 39.5t97 16.5q80 0 118.5 -35t38.5 -114v-404h-105v379q0 22 -4 38t-15 26.5t-30.5 15t-49.5 4.5q-35 0 -71 -10t-64 -24v-429h-105v618z" />
    <glyph glyph-name="dotlessi" unicode="&#x131;" horiz-adv-x="255" 
d="M72 -21v509h110v-509h-110z" />
    <glyph glyph-name="IJ" unicode="&#x132;" horiz-adv-x="669" 
d="M268 75q21 -7 47.5 -11.5t59.5 -4.5q59 0 85 29.5t26 85.5v529h111v-536q0 -42 -12 -78.5t-37 -63t-64 -42t-92 -15.5q-40 0 -68.5 5t-54.5 14zM81 703h111v-728h-111v728z" />
    <glyph glyph-name="ij" unicode="&#x133;" horiz-adv-x="475" 
d="M304 720h106v-102h-106v102zM253 -198q-29 0 -49 4.5t-36 13.5v72q14 -3 28 -5t27 -2q38 0 60 18.5t22 60.5v553h104v-560q0 -68 -37 -111.5t-119 -43.5zM65 720h107v-102h-107v102zM66 517h105v-542h-105v542z" />
    <glyph glyph-name="kgreenlandic" unicode="&#x138;" horiz-adv-x="510" 
d="M184 255l193 262h112l-192 -255l207 -287h-118zM63 517h105v-542h-105v542z" />
    <glyph glyph-name="Ldot" unicode="&#x13f;" horiz-adv-x="527" 
d="M370 417h113v-115h-113v115zM78 703h110v-637h316v-91h-426v728z" />
    <glyph glyph-name="ldot" unicode="&#x140;" horiz-adv-x="309" 
d="M222 398h102v-102h-102v102zM66 751h105v-776h-105v776z" />
    <glyph glyph-name="Lslash" unicode="&#x141;" horiz-adv-x="532" 
d="M1 287l79 34v382h110v-337l210 89v-89l-210 -89v-211h315v-91h-425v255l-79 -33v90z" />
    <glyph glyph-name="lslash" unicode="&#x142;" horiz-adv-x="266" 
d="M8 368l72 40v343h105v-284l82 47v-92l-82 -47v-400h-105v343l-72 -41v91z" />
    <glyph glyph-name="napostrophe" unicode="&#x149;" horiz-adv-x="603" 
d="M-28 703h112l-36 -200h-88zM99 506h101v-47h5q34 24 82 41t99 17q80 0 119 -35t39 -114v-393h-105v368q0 45 -20 64.5t-80 19.5q-35 0 -71 -10t-64 -24v-418h-105v531z" />
    <glyph glyph-name="Eng" unicode="&#x14a;" horiz-adv-x="706" 
d="M443 -198q-40 0 -67.5 6.5t-51.5 17.5v78q20 -7 45 -11t54 -4q46 0 72.5 13.5t31.5 54.5l-346 595h-4v-577h-99v728h127l321 -544h3v544h99v-732q0 -78 -43.5 -123.5t-141.5 -45.5z" />
    <glyph glyph-name="eng" unicode="&#x14b;" horiz-adv-x="567" 
d="M352 -198q-29 0 -49 4.5t-36 13.5v72q14 -3 28.5 -5t27.5 -2q38 0 58.5 18.5t20.5 60.5v378q0 22 -4 38t-15 26.5t-30.5 15t-49.5 4.5q-35 0 -71 -10t-64 -24v-417h-105v530h101v-47h5q34 24 82.5 41t98.5 17q80 0 118.5 -35t38.5 -114v-410q0 -68 -36.5 -111.5
t-118.5 -43.5z" />
    <glyph glyph-name="OE" unicode="&#x152;" horiz-adv-x="983" 
d="M378 -25q-162 0 -251 84t-89 260v21q0 173 83 268t255 95h550v-91h-331v-217h255v-91h-255v-238h336v-91h-553zM484 66v546h-109q-113 0 -166 -60.5t-53 -197.5v-35q0 -72 15.5 -121t45.5 -78t73 -41.5t97 -12.5h97z" />
    <glyph glyph-name="oe" unicode="&#x153;" horiz-adv-x="923" 
d="M665 433q-22 0 -44 -5.5t-40.5 -21t-31 -44t-15.5 -74.5h249q0 42 -7.5 69.5t-22 44.5t-36.5 24t-52 7zM285 47q66 0 103 43t37 134v29q0 54 -11 88.5t-30.5 54.5t-45.5 28t-56 8q-69 0 -106 -42t-37 -133v-29q0 -54 11.5 -89t31 -55.5t46.5 -28.5t57 -8zM282 -35
q-121 0 -186 67.5t-65 196.5v18q0 64 18.5 114.5t51.5 84.5t79.5 52t102.5 18q72 0 121.5 -26.5t76.5 -77.5q30 54 79 79t109 25q115 0 168.5 -61.5t53.5 -191.5v-50h-357q3 -47 15.5 -78t34 -50t52.5 -26.5t71 -7.5q54 0 93 11.5t75 28.5v-74q-26 -18 -71.5 -35t-112.5 -17
q-81 0 -132 27t-80 78q-29 -51 -78.5 -78t-118.5 -27z" />
    <glyph glyph-name="Tbar" unicode="&#x166;" horiz-adv-x="570" 
d="M86 416h145v196h-213v91h535v-91h-212v-196h143v-72h-143v-369h-110v369h-145v72z" />
    <glyph glyph-name="tbar" unicode="&#x167;" horiz-adv-x="365" 
d="M16 342h77v91h-77v84h77v128h105v-128h131v-84h-131v-91h131v-67h-131v-155q0 -37 15.5 -52t59.5 -15q17 0 34 2t33 5v-70q-17 -8 -38 -14.5t-59 -6.5q-68 0 -109 31t-41 105v170h-77v67z" />
    <glyph glyph-name="caron" unicode="&#x2c7;" horiz-adv-x="519" 
d="M411 743q-27 -38 -53.5 -76t-53.5 -76h-90q-27 38 -53.5 76t-53.5 76h81q18 -20 36 -39.5t36 -38.5l69 78h82z" />
    <glyph glyph-name="uni2236" unicode="&#x2d0;" horiz-adv-x="920" 
d="M317 503l-93 -97l-92 97h185zM317 99h-185l92 96z" />
    <glyph glyph-name="uni2236" unicode="&#x2236;" horiz-adv-x="920" 
d="M317 503l-93 -97l-92 97h185zM317 99h-185l92 96z" />
    <glyph glyph-name="breve" unicode="&#x2d8;" horiz-adv-x="519" 
d="M259 597q-63 0 -101.5 37.5t-41.5 98.5h79q4 -29 19 -45t45 -16q32 0 46.5 16t19.5 45h77q-2 -61 -41 -98.5t-102 -37.5z" />
    <glyph glyph-name="dotaccent" unicode="&#x2d9;" horiz-adv-x="519" 
d="M206 720h107v-102h-107v102z" />
    <glyph glyph-name="ring" unicode="&#x2da;" horiz-adv-x="519" 
d="M259 580q-22 0 -41 8t-33 21.5t-22 31.5t-8 38q0 42 29.5 71t74.5 29q23 0 42 -8t33 -21.5t22 -31.5t8 -39q0 -20 -8 -38t-22 -31.5t-33 -21.5t-42 -8zM259 629q23 0 37 13.5t14 36.5t-14 37.5t-37 14.5t-36 -14.5t-13 -37.5t13 -36.5t36 -13.5z" />
    <glyph glyph-name="ogonek" unicode="&#x2db;" horiz-adv-x="519" 
d="M268 -196q-54 0 -84.5 24t-30.5 66q0 22 8.5 40.5t22 33.5t29.5 26.5t31 19.5h76q-32 -26 -54 -52t-22 -53q0 -23 15 -30t37 -7q11 0 19.5 1t13.5 3v-62q-11 -4 -26 -7t-35 -3z" />
    <glyph glyph-name="tilde" unicode="&#x2dc;" horiz-adv-x="519" 
d="M96 607q6 63 37 91t67 28q17 0 32.5 -6t29.5 -12.5t26.5 -12.5t23.5 -6q31 0 37 38h69q-3 -31 -13 -53.5t-24.5 -36.5t-31.5 -21t-35 -7q-17 0 -32.5 5.5t-29.5 12.5t-26.5 12.5t-23.5 5.5q-30 0 -37 -38h-69z" />
    <glyph glyph-name="hungarumlaut" unicode="&#x2dd;" horiz-adv-x="519" 
d="M337 744h109l-73 -153h-86zM165 744h109l-72 -153h-87z" />
    <glyph glyph-name="Alpha" unicode="&#x391;" horiz-adv-x="663" 
d="M429 272l-101 326h-3l-98 -326h202zM206 188l-68 -216h-114l239 718h135l241 -718h-118l-72 216h-243z" />
    <glyph glyph-name="Beta" unicode="&#x392;" horiz-adv-x="594" 
d="M187 53q14 -3 32.5 -3.5t41.5 -0.5q34 0 65.5 6.5t55.5 22t38.5 41t14.5 62.5q0 34 -14 58t-38 39.5t-56 23t-68 7.5h-72v-256zM187 390h77q72 0 110.5 31.5t38.5 81.5q0 58 -40 83.5t-106 25.5q-32 0 -50.5 -2t-29.5 -4v-216zM78 679q31 7 79.5 11.5t99.5 4.5
q72 0 119.5 -11.5t80.5 -37.5q31 -21 49.5 -53.5t18.5 -77.5q0 -51 -32 -93t-90 -62v-4q27 -7 53.5 -21t47.5 -36t33.5 -52t12.5 -69q0 -48 -17.5 -84t-46.5 -62q-74 -67 -256 -67q-51 0 -89 3t-63 6v705z" />
    <glyph glyph-name="Gamma" unicode="&#x393;" horiz-adv-x="488" 
d="M475 690v-93h-287v-625h-110v718h397z" />
    <glyph glyph-name="uni0394" unicode="&#x394;" horiz-adv-x="667" 
d="M24 31q15 41 34.5 94t42 112.5t45.5 122.5t45.5 122.5t42.5 113t35 94.5h128l242 -658v-60h-615v59zM515 62l-135 373l-29 87t-22 71h-3q-8 -27 -20.5 -67.5t-24.5 -77.5l-139 -386h373z" />
    <glyph glyph-name="Epsilon" unicode="&#x395;" horiz-adv-x="535" 
d="M463 301h-275v-238h308v-91h-418v718h402v-91h-292v-208h275v-90z" />
    <glyph glyph-name="Zeta" unicode="&#x396;" horiz-adv-x="595" 
d="M30 34l384 560v4h-351v92h493v-66l-380 -558v-3h386v-91h-532v62z" />
    <glyph glyph-name="Eta" unicode="&#x397;" horiz-adv-x="704" 
d="M188 690v-296h328v296h110v-718h-110v327h-328v-327h-110v718h110z" />
    <glyph glyph-name="Theta" unicode="&#x398;" horiz-adv-x="742" 
d="M506 385v-90h-272v90h272zM371 48q52 0 92.5 22.5t68 61t41.5 90.5t14 111q0 52 -13.5 102.5t-40 89.5t-67 63t-94.5 24q-55 0 -96 -23.5t-68.5 -63t-41 -91t-13.5 -107.5t14.5 -106.5t42 -88.5t68 -61t92.5 -23h1zM365 -40q-74 0 -134 27t-103.5 75t-67 115t-23.5 148
q0 84 25 153.5t70 119t107 77t136 27.5q76 0 136.5 -27.5t103.5 -76t66 -115.5t23 -146q0 -91 -26.5 -161.5t-72 -118.5t-107.5 -72.5t-132 -24.5h-1z" />
    <glyph glyph-name="Iota" unicode="&#x399;" horiz-adv-x="266" 
d="M188 690v-718h-110v718h110z" />
    <glyph glyph-name="Kappa" unicode="&#x39a;" horiz-adv-x="596" 
d="M78 690h109v-339h3q29 43 55 76l206 263h135l-254 -306l273 -412h-130l-220 342l-68 -78v-264h-109v718z" />
    <glyph glyph-name="Lambda" unicode="&#x39b;" horiz-adv-x="658" 
d="M521 -28l-156 478q-22 73 -37 141h-4q-14 -69 -33 -141l-151 -478h-116l239 718h135l242 -718h-119z" />
    <glyph glyph-name="Mu" unicode="&#x39c;" horiz-adv-x="867" 
d="M684 277q-2 36 -4 75t-3.5 79t-2.5 78.5t-1 73.5h-2q-19 -64 -40.5 -132.5t-47.5 -140.5l-117 -332h-84l-107 326q-24 73 -43.5 143t-34.5 136h-3q-1 -34 -2 -72.5t-3 -78.5t-4 -81t-4 -80l-17 -299h-104l48 718h143l110 -322q21 -65 38 -126t31 -119h4q14 57 32 118.5
t41 127.5l116 321h141l43 -718h-107z" />
    <glyph glyph-name="Nu" unicode="&#x39d;" horiz-adv-x="709" 
d="M78 -28v718h123l210 -339q38 -62 69.5 -120.5t56.5 -115.5l2 1q-7 72 -9 142t-2 153v279h103v-718h-113l-211 343q-36 60 -70 121.5t-61 120.5l-3 -1q4 -68 5.5 -139t1.5 -161v-284h-102z" />
    <glyph glyph-name="Xi" unicode="&#x39e;" horiz-adv-x="584" 
d="M546 62v-90h-500v90h500zM499 388v-91h-406v91h406zM533 690v-90h-475v90h475z" />
    <glyph glyph-name="Omicron" unicode="&#x39f;" horiz-adv-x="741" 
d="M371 49q52 0 92 22.5t67.5 61t41.5 90t14 110.5q0 52 -13.5 102.5t-40 89.5t-67 63t-94.5 24t-95 -23.5t-68 -62.5t-40.5 -90.5t-13.5 -107.5t14.5 -106.5t42 -88.5t68 -61t91.5 -23h1zM364 -40q-73 0 -133 27t-103 75.5t-66.5 115.5t-23.5 147q0 84 25 153.5t69.5 119
t106.5 77t136 27.5q76 0 136.5 -27.5t103 -76t65 -115t22.5 -145.5q0 -91 -26 -161.5t-72 -118.5t-107.5 -73t-131.5 -25h-1z" />
    <glyph glyph-name="Pi" unicode="&#x3a0;" horiz-adv-x="684" 
d="M605 -28h-110v625h-307v-625h-110v718h527v-718z" />
    <glyph glyph-name="Rho" unicode="&#x3a1;" horiz-adv-x="579" 
d="M187 341q14 -5 31.5 -6.5t40.5 -1.5q79 0 124.5 37.5t45.5 106.5q0 66 -43 99t-116 33q-29 0 -50 -2t-33 -5v-261zM78 680q35 7 81.5 11t106.5 4q71 0 122 -15t83 -44q32 -26 50 -65.5t18 -88.5q0 -98 -59 -157q-38 -39 -95.5 -59t-126.5 -20q-43 0 -71 7v-281h-109v708z
" />
    <glyph glyph-name="Sigma" unicode="&#x3a3;" horiz-adv-x="595" 
d="M170 63h394v-91h-535v64l240 292l-227 289v73h489v-91h-349v-4l207 -263l-219 -265v-4z" />
    <glyph glyph-name="Tau" unicode="&#x3a4;" horiz-adv-x="543" 
d="M215 597h-212v93h536v-93h-213v-625h-111v625z" />
    <glyph glyph-name="Upsilon" unicode="&#x3a5;" horiz-adv-x="636" 
d="M29 696q20 -1 44 -8t48.5 -19t48 -29.5t43.5 -39.5q40 -45 68 -109.5t38 -146.5h4q13 83 47.5 146.5t72.5 105.5q19 21 41 38.5t44.5 30.5t44.5 21t40 10l18 -91q-32 -11 -67.5 -36t-69 -64t-61.5 -91.5t-45 -118.5q-8 -32 -13.5 -68.5t-5.5 -78.5v-176h-110v178
q0 40 -3.5 74.5t-10.5 69.5q-15 68 -39 122.5t-55 94t-67 64t-74 32.5z" />
    <glyph glyph-name="Phi" unicode="&#x3a6;" horiz-adv-x="782" 
d="M443 78q35 4 69 21.5t60.5 49t43 76.5t16.5 105q0 61 -16.5 107.5t-43 78t-60.5 49t-69 21.5v-508zM338 586q-32 -3 -65.5 -21t-61 -50t-45 -78.5t-17.5 -107.5q0 -57 16 -101.5t42.5 -76t60.5 -50t70 -23.5v508zM442 -56h-105v56q-55 5 -109 27t-96.5 62t-68.5 99
t-26 139q0 82 28 143t71.5 102.5t97.5 64t105 27.5v53h105v-53q56 -5 109.5 -28t95.5 -64.5t68 -101.5t26 -139t-25.5 -138.5t-68 -100.5t-96.5 -64t-111 -28v-56z" />
    <glyph glyph-name="Chi" unicode="&#x3a7;" horiz-adv-x="619" 
d="M467 -28l-163 290h-2l-152 -290h-126l216 363l-208 355h126l151 -281h2l150 281h126l-213 -351l221 -367h-128z" />
    <glyph glyph-name="Psi" unicode="&#x3a8;" horiz-adv-x="744" 
d="M696 482q0 -73 -20.5 -127t-56.5 -90.5t-86 -56t-109 -22.5v-214h-102v214q-53 2 -102.5 17.5t-87.5 47.5t-60.5 81.5t-22.5 120.5v237h106v-219q0 -54 12.5 -91t34.5 -60.5t52.5 -34.5t67.5 -13v418h102v-419q33 2 63 14t53 38t36.5 67.5t13.5 103.5v196h106v-208z" />
    <glyph glyph-name="uni03A9" unicode="&#x3a9;" horiz-adv-x="761" 
d="M575 58h153v-86h-281v68q31 21 59 52t49 70t33.5 85t12.5 99q0 48 -14 96t-41.5 85.5t-68 61t-93.5 23.5t-94.5 -22.5t-70 -59.5t-43.5 -85.5t-15 -99.5q0 -49 12.5 -95.5t33.5 -86.5t49 -72t58 -51v-68h-282v86h152v3q-26 21 -50.5 51t-44 67t-31.5 81.5t-12 95.5
q0 75 25.5 138.5t71.5 109.5t108 72t136 26q76 0 136.5 -27t103 -72.5t65 -107t22.5 -130.5q0 -54 -12 -100.5t-32 -84.5t-45 -68t-50 -51v-3z" />
    <glyph glyph-name="alpha" unicode="&#x3b1;" horiz-adv-x="586" 
d="M149 226q0 -34 8.5 -65t25 -55t40 -38t53.5 -14q22 0 42.5 10t37 26.5t28.5 38.5t17 45q4 17 4.5 32t0.5 34q0 14 -0.5 27t-2.5 25q-5 25 -15.5 47t-26 39t-35.5 27t-43 10q-30 0 -54.5 -14.5t-42.5 -39.5t-27.5 -59.5t-9.5 -74.5v-1zM524 488q-2 -23 -4 -63t-4 -89
t-3.5 -102.5t-1.5 -101.5q0 -45 12 -63.5t37 -18.5l-8 -77q-5 -3 -15.5 -4.5t-21.5 -1.5q-37 0 -62 24t-31 81h-3q-26 -47 -69.5 -76t-102.5 -29q-45 0 -83.5 18t-66 51.5t-43.5 81t-16 105.5q0 63 19 114t51 87t73.5 55.5t85.5 19.5q53 0 92.5 -24.5t60.5 -70.5h4
q2 26 4 46t5 38h91z" />
    <glyph glyph-name="beta" unicode="&#x3b2;" horiz-adv-x="594" 
d="M178 27v-68q0 -45 2 -85.5t10 -72.5h-103q-8 24 -12 59.5t-4 89.5v477q0 55 6.5 96t18 70t25.5 49.5t29 35.5q29 25 66 41t89 16q42 0 76.5 -13.5t60 -38.5t39.5 -59t14 -74q0 -56 -26.5 -99.5t-64.5 -62.5v-5q29 -6 56 -21.5t48 -40.5t34 -59t13 -76q0 -52 -18 -93
t-48.5 -69t-70 -42.5t-82.5 -14.5q-98 0 -156 60h-2zM177 126q9 -14 22.5 -27.5t30.5 -24t37.5 -17.5t44.5 -7q30 0 55 10.5t42 29.5t26.5 43.5t9.5 53.5q0 35 -11.5 61.5t-32 45t-48 28t-59.5 11.5h-26v71q5 0 9 0.5t9 1.5q54 5 81.5 42t27.5 85q0 53 -27.5 84.5
t-70.5 31.5q-58 0 -89 -50.5t-31 -156.5v-316z" />
    <glyph glyph-name="gamma" unicode="&#x3b3;" horiz-adv-x="501" 
d="M189 -199q1 37 1.5 69t-1 63.5t-6 63.5t-13.5 70q-14 63 -36 125.5t-47.5 118t-50.5 101t-45 76.5h123q16 -25 36.5 -66.5t41.5 -93t39 -109.5t30 -115h3q16 31 35 72t35.5 87t27.5 94t11 93v38h103q2 -7 2 -16.5v-20.5q0 -48 -14 -103t-38 -113t-57 -116.5t-70 -114.5
q-5 -6 -5.5 -11.5t-0.5 -13.5l3 -178h-107z" />
    <glyph glyph-name="delta" unicode="&#x3b4;" horiz-adv-x="580" 
d="M288 431q-27 -15 -52 -34.5t-44 -45.5t-30.5 -57.5t-11.5 -70.5q0 -41 12 -73t32 -55t46 -35t54 -12t53.5 11.5t44 33.5t29.5 54t11 72q0 98 -90 169zM467 613q-8 6 -22.5 13t-33 13.5t-39.5 10.5t-42 4q-40 0 -59 -12t-19 -30t18.5 -35.5t53.5 -44.5l85 -68
q63 -48 97.5 -105t34.5 -132q0 -59 -19.5 -107t-54 -82t-80.5 -52.5t-99 -18.5q-51 0 -96 17t-79.5 50t-54.5 80t-20 107q0 49 15.5 89t41.5 72.5t60 57t71 42.5v5l-23 19q-9 7 -19.5 18t-20 24t-16 29t-6.5 34q0 22 11.5 44.5t34.5 40t57.5 28.5t80.5 11q57 0 103.5 -16.5
t69.5 -34.5z" />
    <glyph glyph-name="epsilon" unicode="&#x3b5;" horiz-adv-x="468" 
d="M162 254q-48 12 -72.5 40.5t-24.5 66.5q0 25 12.5 50t38 44.5t64.5 31.5t91 12q103 0 159 -38l-22 -72q-17 11 -52 21.5t-73 10.5q-51 0 -80.5 -19t-29.5 -50q0 -35 38.5 -51t97.5 -16h58v-75h-60q-33 0 -60.5 -4t-48 -13.5t-32 -24t-11.5 -35.5t10.5 -37t28 -26.5
t40.5 -15.5t49 -5q40 0 81.5 11.5t65.5 25.5l18 -73q-33 -21 -85.5 -33.5t-104.5 -12.5q-39 0 -78 8t-70.5 26.5t-51 48.5t-19.5 73q0 47 34.5 81.5t88.5 44.5v5z" />
    <glyph glyph-name="zeta" unicode="&#x3b6;" horiz-adv-x="437" 
d="M292 -152q5 9 11 24t10.5 31.5t8 31.5t3.5 25q-26 4 -58 11t-64 19q-33 11 -63 29.5t-52.5 46.5t-35.5 66.5t-13 89.5q0 53 16.5 109.5t48 111t77.5 104.5t104 91v4h-68q-36 0 -67 2t-54 9l10 71q26 -2 61 -2.5t72 -0.5h180l16 -74q-60 -30 -112 -76t-90 -100t-60 -113.5
t-22 -116.5q0 -39 8.5 -67.5t24.5 -49.5t37.5 -35t48.5 -24q36 -14 74 -21t75 -12q10 -2 10 -12q0 -24 -6 -51.5t-15.5 -54t-21 -50t-23.5 -38.5z" />
    <glyph glyph-name="eta" unicode="&#x3b7;" horiz-adv-x="590" 
d="M173 408q9 16 24 32.5t36 29.5t47.5 21t58.5 8q30 0 61.5 -10.5t58 -35t43.5 -66.5t17 -105v-324q0 -45 1 -84t9 -71h-103q-10 23 -13 62.5t-3 90.5v314q0 29 -6 54.5t-19 44.5t-33.5 30t-49.5 11q-42 0 -72.5 -25.5t-41.5 -60.5q-3 -8 -4.5 -19t-1.5 -22v-304h-109v364
q0 42 -3 79.5t-12 65.5h97q8 -14 11.5 -35.5t3.5 -44.5h3z" />
    <glyph glyph-name="theta" unicode="&#x3b8;" horiz-adv-x="570" 
d="M147 321q0 -131 38.5 -203t102.5 -72q34 0 60 20t42.5 56.5t25 87t8.5 111.5h-277zM423 401q0 53 -8.5 99t-25.5 80.5t-43 54.5t-61 20q-33 0 -59 -20.5t-43.5 -55t-27 -81t-9.5 -97.5h277zM285 -33q-115 0 -181.5 97.5t-66.5 291.5q0 81 16.5 150t48.5 120t79 80t109 29
t107.5 -27.5t75 -77.5t44 -119.5t14.5 -154.5q0 -88 -15 -160t-45 -123t-76 -78.5t-109 -27.5h-1z" />
    <glyph glyph-name="iota" unicode="&#x3b9;" horiz-adv-x="259" 
d="M182 111q0 -33 10 -47.5t39 -12.5l-6 -77q-8 -3 -21.5 -5t-26.5 -2q-23 0 -42 6t-33 21t-21.5 40.5t-7.5 65.5v388h109v-377z" />
    <glyph glyph-name="kappa" unicode="&#x3ba;" horiz-adv-x="531" 
d="M288 252q18 -5 37 -18.5t37.5 -32.5t37 -43t36.5 -49l89 -130h-125l-75 107q-35 50 -68 81.5t-66 33.5h-8v-222h-110v393q0 16 -0.5 34t-2 33.5t-4 28.5t-5.5 20h107q7 -8 11 -31.5t4 -56.5v-135h4q62 63 112.5 120.5t92.5 102.5h126v-5q-52 -51 -109.5 -108t-120.5 -119
v-4z" />
    <glyph glyph-name="lambda" unicode="&#x3bb;" horiz-adv-x="507" 
d="M284 256q-9 25 -17 51t-16 58h-6q-5 -26 -13.5 -53.5t-16.5 -52.5l-96 -280h-113l183 470q3 10 4 15.5t1 10.5q0 9 -6 26q-11 31 -24 57.5t-28.5 46t-34 30.5t-39.5 11h-9.5t-9.5 -1l11 83q6 3 17 4t21 1q39 0 69 -17t54 -48.5t44.5 -75t40.5 -96.5l194 -517h-116z" />
    <glyph glyph-name="uni03BC" unicode="&#x3bc;" horiz-adv-x="588" 
d="M416 56q-7 -15 -19.5 -30.5t-30.5 -27.5t-41 -20t-50 -8q-31 0 -58.5 11.5t-43.5 37.5v-57q0 -43 2 -85t10 -74h-97q-8 23 -11.5 59t-3.5 96v530h109v-297q0 -29 6 -53.5t18.5 -42.5t32.5 -28.5t48 -10.5q21 0 39 7t32.5 18t24.5 25t16 28q3 10 5 21t2 23v310h109v-362
q0 -41 10 -57.5t37 -17.5l-8 -78q-8 -3 -16 -4.5t-22 -1.5q-37 0 -63 21t-34 68h-3z" />
    <glyph glyph-name="nu" unicode="&#x3bd;" horiz-adv-x="503" 
d="M119 488l90 -273q11 -35 20.5 -67t20.5 -65h4q16 32 36.5 76t39 92.5t31.5 98t13 92.5v24t-1 22h102q3 -17 3 -38q0 -54 -16.5 -112.5t-42.5 -118.5t-60 -121t-68 -119h-105l-183 509h116z" />
    <glyph glyph-name="xi" unicode="&#x3be;" horiz-adv-x="464" 
d="M387 358h-27q-53 0 -91.5 -11.5t-64.5 -32t-38.5 -48t-12.5 -58.5q0 -59 39 -94.5t117 -56.5q35 -9 69 -14.5t68 -10.5q5 0 8 -3.5t3 -8.5q0 -21 -6 -48.5t-15 -54.5t-21 -51t-24 -39l-70 21q5 9 10 24t9.5 31.5t8 31.5t3.5 25q-51 7 -106 20.5t-101.5 40t-76.5 69.5
t-30 109q0 37 13 70.5t35 59.5t51.5 45t63.5 28v5q-57 19 -86 58t-29 91q0 33 14 65.5t42 57.5t70.5 40.5t98.5 15.5q45 0 77.5 -8t55.5 -20l-20 -74q-17 9 -43.5 15.5t-58.5 6.5t-55.5 -9t-39 -24t-23.5 -34.5t-8 -40.5q0 -26 11 -46t30.5 -34t46 -22t57.5 -10h46v-77z" />
    <glyph glyph-name="omicron" unicode="&#x3bf;" horiz-adv-x="583" 
d="M291 48q31 0 56.5 13.5t44.5 38.5t29.5 59t10.5 76q0 31 -7.5 63.5t-24.5 59.5t-43.5 44t-63.5 17q-38 0 -65 -16.5t-44 -43t-25 -59.5t-8 -67q0 -40 10 -74t28.5 -58.5t44 -38.5t56.5 -14h1zM287 -33q-52 0 -97.5 18t-79 52t-53 82.5t-19.5 110.5q0 63 19.5 113t54 84.5
t82 53t102.5 18.5q56 0 101.5 -19t78 -53.5t50.5 -82.5t18 -106q0 -71 -22.5 -122t-58.5 -84t-82 -49t-93 -16h-1z" />
    <glyph glyph-name="pi" unicode="&#x3c0;" horiz-adv-x="593" 
d="M490 404v-271q0 -60 4 -97t9 -57h-104q-8 13 -12.5 49t-4.5 94v282h-152q-2 -49 -7.5 -110t-14.5 -121t-21 -111.5t-25 -82.5h-104q13 38 25 91t21 111t14.5 116.5t6.5 106.5q-29 0 -54.5 -2t-45.5 -7l-13 64q17 14 53 21.5t101 7.5h403l-11 -84h-68z" />
    <glyph glyph-name="rho" unicode="&#x3c1;" horiz-adv-x="597" 
d="M177 179q0 -19 4 -35q6 -19 18 -35.5t28.5 -29t36.5 -20t43 -7.5q34 0 60.5 14t44.5 38.5t27.5 58.5t9.5 74q0 36 -9 67t-26 54.5t-42 37t-57 13.5q-27 0 -51.5 -11t-44 -34t-31 -58t-11.5 -84v-43zM177 35v-77q0 -45 1 -84t6 -71h-105q-6 23 -8.5 58.5t-2.5 92.5v236
q0 51 6.5 88.5t17.5 65.5t25.5 48t29.5 36q32 32 75 51.5t100 19.5q54 0 98 -19t75 -53t48 -82t17 -106q0 -68 -20 -118.5t-52.5 -85t-74.5 -51.5t-87 -17q-48 0 -86.5 18t-60.5 50h-2z" />
    <glyph glyph-name="sigma" unicode="&#x3c3;" horiz-adv-x="591" 
d="M290 48q29 0 54 14t43.5 39t29 59.5t10.5 75.5q0 31 -7.5 63.5t-24 59t-42.5 43.5t-62 17q-37 0 -63.5 -16.5t-43.5 -43t-25 -59.5t-8 -67q0 -40 10 -74t28.5 -58.5t44 -38.5t55.5 -14h1zM447 419q43 -32 65.5 -81t22.5 -103q0 -70 -21.5 -120.5t-57 -83.5t-80 -48.5
t-89.5 -15.5q-53 0 -98 18t-79 51.5t-53 82t-19 109.5q0 63 19.5 113.5t54.5 85.5t84 53.5t109 18.5h274l-3 -80q-19 0 -48 0.5t-80 3.5z" />
    <glyph glyph-name="tau" unicode="&#x3c4;" horiz-adv-x="444" 
d="M343 -23q-8 -4 -23.5 -7t-32.5 -3q-68 0 -97 40.5t-29 123.5v273h-53q-39 0 -61.5 -2.5t-38.5 -5.5l-15 64q14 11 47 19.5t102 8.5h292l-12 -84h-153v-269q0 -24 4.5 -40t12.5 -25.5t18.5 -13t21.5 -3.5h12.5t8.5 1z" />
    <glyph glyph-name="upsilon" unicode="&#x3c5;" horiz-adv-x="559" 
d="M474 488q13 -25 25.5 -79t12.5 -119q0 -57 -11 -114.5t-38.5 -104t-74 -75.5t-116.5 -29q-43 0 -80.5 13t-65.5 39t-44 65t-16 92v141q0 64 -2 106t-9 65h104q8 -9 12 -31.5t4 -64.5v-204q0 -35 9 -60t24 -41t34.5 -23.5t39.5 -7.5q31 0 54 16t38.5 45.5t23 71t7.5 92.5
q0 35 -3.5 68t-8.5 60.5t-11 48t-10 30.5h102z" />
    <glyph glyph-name="phi" unicode="&#x3c6;" horiz-adv-x="692" 
d="M397 45q69 10 110 62t41 137q0 37 -10 69t-25.5 56t-35.5 37.5t-41 13.5q-18 0 -28.5 -15.5t-10.5 -47.5v-312zM257 443q-19 -13 -38.5 -32t-35.5 -44.5t-26 -57t-10 -70.5q0 -36 9.5 -68.5t28.5 -58t47 -43t66 -23.5v292q0 43 11.5 73.5t31 50t45 28t53.5 8.5
q39 0 77.5 -18t68.5 -50.5t48.5 -79t18.5 -104.5q0 -65 -22 -115t-57.5 -84.5t-81.5 -54t-94 -24.5v-166h-99v166q-48 4 -95 21t-83.5 49.5t-59 81.5t-22.5 117q0 55 17.5 99.5t44 77.5t57.5 55t58 33z" />
    <glyph glyph-name="chi" unicode="&#x3c7;" horiz-adv-x="492" 
d="M132 488l122 -251h4l120 251h106l-178 -333l183 -327l-103 -26l-144 263l-4 -1l-136 -262l-94 27l182 325l-174 334h116z" />
    <glyph glyph-name="psi" unicode="&#x3c8;" horiz-adv-x="706" 
d="M311 -33q-49 3 -93.5 17.5t-78 45t-53 80.5t-19.5 125v132q0 35 -1.5 67.5t-6.5 53.5h99q14 -17 14 -96v-147q0 -55 11.5 -92t30.5 -60.5t44 -34t53 -12.5v575h99v-575q33 1 60 18.5t46 48.5t29.5 73.5t10.5 93.5q0 39 -4 73.5t-9.5 61.5t-12 46t-11.5 27h100
q16 -26 28.5 -77.5t12.5 -123.5q0 -57 -13 -112.5t-42.5 -100.5t-77.5 -74t-117 -33v-165h-99v165z" />
    <glyph glyph-name="omega" unicode="&#x3c9;" horiz-adv-x="738" 
d="M417 166q-1 -46 21 -77t57 -31q19 0 36.5 12t31 36.5t22 61t8.5 84.5q0 36 -6 71t-16.5 66t-25.5 57.5t-33 44.5v2h101q16 -14 32 -37.5t28 -55t19.5 -70.5t7.5 -82q0 -71 -16.5 -123.5t-44 -87.5t-63.5 -52.5t-74 -17.5q-47 0 -82 23t-51 65h-4q-20 -40 -54 -64t-82 -24
q-35 0 -69 15.5t-61 48.5t-44 84t-17 123q0 43 7.5 82t20 72t28 58.5t32.5 42.5h100v-2q-35 -40 -58 -105t-23 -144q0 -50 9 -84.5t23.5 -57t31.5 -32.5t34 -10q33 0 55 31t21 76l-1 198h101z" />
    <glyph glyph-name="uni0401" unicode="&#x401;" horiz-adv-x="535" 
d="M377 678q-25 0 -40 17.5t-15 40.5q0 26 15.5 43t40.5 17t41 -17t16 -43q0 -23 -15.5 -40.5t-41.5 -17.5h-1zM174 678q-24 0 -40 17.5t-16 40.5q0 26 16.5 43t40.5 17q25 0 40.5 -17t15.5 -43q0 -23 -15 -40.5t-41 -17.5h-1zM463 273h-275v-210h308v-91h-418v659h402v-91
h-292v-177h275v-90z" />
    <glyph glyph-name="uni0410" unicode="&#x410;" horiz-adv-x="663" 
d="M429 272l-65 193q-11 35 -19.5 68t-16.5 65h-3q-8 -32 -16 -66t-18 -66l-64 -194h202zM206 188l-68 -216h-114l239 718h135l241 -718h-118l-72 216h-243z" />
    <glyph glyph-name="uni0411" unicode="&#x411;" horiz-adv-x="596" 
d="M187 54q16 -3 34 -4t40 -1q40 0 78 12.5t62 38.5q18 19 28.5 43.5t10.5 56.5q0 38 -14.5 64.5t-39.5 43.5q-26 20 -59.5 28t-69.5 8q-15 0 -34 -1t-36 -3v-286zM499 690v-91h-312v-176q18 2 44 3.5t44 1.5q53 0 102.5 -12t87.5 -38q40 -26 65.5 -69.5t25.5 -105.5
q0 -51 -17 -90t-46 -68q-46 -44 -116.5 -62t-146.5 -18q-51 0 -89 3t-63 6v716h421z" />
    <glyph glyph-name="uni0412" unicode="&#x412;" horiz-adv-x="594" 
d="M187 53q14 -3 32.5 -3.5t41.5 -0.5q34 0 65.5 6.5t55.5 22t38.5 41t14.5 62.5q0 34 -14 58t-38 39.5t-56 23t-68 7.5h-72v-256zM187 390h77q72 0 110.5 31.5t38.5 81.5q0 58 -40 83.5t-106 25.5q-32 0 -50.5 -2t-29.5 -4v-216zM78 679q31 7 79.5 11.5t99.5 4.5
q72 0 119.5 -11.5t80.5 -37.5q31 -21 49.5 -53.5t18.5 -77.5q0 -51 -32 -93t-90 -62v-4q27 -7 53.5 -21t47.5 -36t33.5 -52t12.5 -69q0 -48 -17.5 -84t-46.5 -62q-74 -67 -256 -67q-51 0 -89 3t-63 6v705z" />
    <glyph glyph-name="uni0413" unicode="&#x413;" horiz-adv-x="476" 
d="M472 690v-91h-284v-627h-110v718h394z" />
    <glyph glyph-name="uni0414" unicode="&#x414;" horiz-adv-x="686" 
d="M272 474q0 -81 -8 -150.5t-28 -129.5q-11 -36 -26 -70.5t-30 -61.5h298v537h-206v-125zM588 690v-630l65 -2l-7 -256h-84l-7 170h-444l-8 -170h-85l-6 256l56 2q20 38 38.5 77t30.5 82q19 60 26 129.5t7 156.5v185h418z" />
    <glyph glyph-name="uni0415" unicode="&#x415;" horiz-adv-x="535" 
d="M463 301h-275v-238h308v-91h-418v718h402v-91h-292v-208h275v-90z" />
    <glyph glyph-name="uni0416" unicode="&#x416;" horiz-adv-x="872" 
d="M146 690l212 -314h25v314h106v-314h25l211 314h128l-252 -328q41 -5 71 -19.5t52 -38.5t38 -55.5t29 -68.5q18 -53 33.5 -105t38.5 -103h-113q-17 36 -30 81.5t-26 84.5q-12 34 -25.5 63t-33 49t-47.5 31.5t-69 11.5h-30v-321h-106v321h-31q-41 0 -69 -11.5t-47.5 -31.5
t-33.5 -49t-26 -63q-12 -39 -25.5 -84.5t-30.5 -81.5h-111q23 51 39.5 103t33.5 103q13 37 29 68.5t37.5 55t51 39t70.5 21.5l-252 328h128z" />
    <glyph glyph-name="uni0417" unicode="&#x417;" horiz-adv-x="537" 
d="M51 646q37 24 85.5 40t111.5 16q50 0 90.5 -12.5t69.5 -35.5t45 -56t16 -74q0 -33 -11 -62t-31 -51.5t-47 -38t-58 -22.5v-2q37 -5 68.5 -19t55 -36.5t37 -53t13.5 -68.5q0 -57 -23.5 -97t-62 -65.5t-86.5 -37t-97 -11.5q-51 0 -101 11t-94 37l27 85q29 -16 73.5 -29.5
t91.5 -13.5q75 0 115.5 34.5t40.5 91.5q0 37 -17 61.5t-43.5 39t-59 20.5t-64.5 6h-49v84h48q34 0 63.5 9t51 25t33.5 38t12 48q0 51 -33.5 77.5t-90.5 26.5q-42 0 -82 -13.5t-69 -30.5z" />
    <glyph glyph-name="uni0418" unicode="&#x418;" horiz-adv-x="709" 
d="M181 690v-281q0 -85 -2 -161t-7 -148l3 -1q28 58 60.5 119t70.5 124l213 348h112v-718h-103v282q0 87 2 156.5t8 137.5l-4 1q-26 -60 -60.5 -122t-69.5 -122l-206 -333h-119v718h102z" />
    <glyph glyph-name="uni0419" unicode="&#x419;" horiz-adv-x="709" 
d="M294 797q3 -26 14.5 -46t46.5 -20q33 0 45.5 19.5t15.5 46.5h81q-5 -57 -40.5 -88t-104.5 -31q-67 0 -101 32t-38 87h81zM181 644v-235q0 -85 -2 -161t-7 -148l3 -1l344 545h112v-672h-103v282q0 43 0.5 74.5t1.5 59t3 54t5 60.5l-4 1l-336 -531h-119v672h102z" />
    <glyph glyph-name="uni041A" unicode="&#x41a;" horiz-adv-x="593" 
d="M187 690v-314h24l235 314h132l-266 -327q42 -6 72.5 -22t53 -40t38 -54.5t29.5 -65.5q20 -57 37.5 -108.5t40.5 -100.5h-117q-19 37 -33.5 80.5l-28.5 85.5q-12 34 -27 63t-36.5 49t-51.5 31.5t-72 11.5h-30v-321h-109v718h109z" />
    <glyph glyph-name="uni041B" unicode="&#x41b;" horiz-adv-x="646" 
d="M567 690v-718h-109v627h-220v-206q0 -61 -3.5 -121t-15 -112.5t-33.5 -95t-60 -68.5q-22 -13 -53 -23t-66 -10l-13 88q23 4 43 14.5t33 24.5q21 20 33 52.5t18 72t8 83.5t2 86v306h436z" />
    <glyph glyph-name="uni041C" unicode="&#x41c;" horiz-adv-x="867" 
d="M684 277q-2 36 -4 75t-3.5 79t-2.5 78.5t-1 73.5h-2q-19 -64 -40.5 -132.5t-47.5 -140.5l-117 -332h-84l-107 326q-24 73 -43.5 143t-34.5 136h-3q-1 -34 -2 -72.5t-3 -78.5t-4 -81t-4 -80l-17 -299h-104l48 718h143l110 -322q21 -65 38 -126t31 -119h4q14 57 32 118.5
t41 127.5l116 321h141l43 -718h-107z" />
    <glyph glyph-name="uni041D" unicode="&#x41d;" horiz-adv-x="704" 
d="M188 690v-296h328v296h110v-718h-110v327h-328v-327h-110v718h110z" />
    <glyph glyph-name="uni041E" unicode="&#x41e;" horiz-adv-x="741" 
d="M371 49q52 0 92 22.5t67.5 61t41.5 90t14 110.5q0 52 -13.5 102.5t-40 89.5t-67 63t-94.5 24t-95 -23.5t-68 -62.5t-40.5 -90.5t-13.5 -107.5t14.5 -106.5t42 -88.5t68 -61t91.5 -23h1zM364 -40q-73 0 -133 27t-103 75.5t-66.5 115.5t-23.5 147q0 84 25 153.5t69.5 119
t106.5 77t136 27.5q76 0 136.5 -27.5t103 -76t65 -115t22.5 -145.5q0 -91 -26 -161.5t-72 -118.5t-107.5 -73t-131.5 -25h-1z" />
    <glyph glyph-name="uni041F" unicode="&#x41f;" horiz-adv-x="690" 
d="M612 690v-718h-111v627h-313v-627h-110v718h534z" />
    <glyph glyph-name="uni0420" unicode="&#x420;" horiz-adv-x="579" 
d="M187 341q14 -5 31.5 -6.5t40.5 -1.5q79 0 124.5 37.5t45.5 106.5q0 66 -43 99t-116 33q-29 0 -50 -2t-33 -5v-261zM78 680q35 7 81.5 11t106.5 4q71 0 122 -15t83 -44q32 -26 50 -65.5t18 -88.5q0 -98 -59 -157q-38 -39 -95.5 -59t-126.5 -20q-43 0 -71 7v-281h-109v708z
" />
    <glyph glyph-name="uni0421" unicode="&#x421;" horiz-adv-x="621" 
d="M585 -6q-24 -12 -72.5 -22.5t-114.5 -10.5q-81 0 -147.5 24.5t-114 71t-73.5 114t-26 152.5q0 87 28.5 156.5t79 118.5t120 75.5t152.5 26.5q66 0 109.5 -10.5t62.5 -19.5l-25 -89q-26 12 -62 20t-81 8q-59 0 -108.5 -18.5t-84.5 -54t-54.5 -88t-19.5 -120.5
q0 -63 18 -113.5t51.5 -86.5t82.5 -55t112 -19q41 0 80 7.5t68 19.5z" />
    <glyph glyph-name="uni0422" unicode="&#x422;" horiz-adv-x="543" 
d="M215 597h-212v93h536v-93h-213v-625h-111v625z" />
    <glyph glyph-name="uni0423" unicode="&#x423;" horiz-adv-x="572" 
d="M127 690l132 -296q14 -33 27 -65t26 -63h3l42 130l104 294h116l-147 -366q-15 -38 -31 -76.5t-33 -74.5t-34.5 -68t-36.5 -57q-35 -45 -76.5 -67.5t-93.5 -22.5q-40 0 -59 8l10 89q7 -2 16.5 -3t22.5 -1q25 0 46 10.5t37 26.5t28 35t20 36q5 12 3.5 21t-6.5 21l-240 489
h124z" />
    <glyph glyph-name="uni0424" unicode="&#x424;" horiz-adv-x="788" 
d="M446 86q35 3 69.5 17.5t61.5 44t44 74.5t17 109q0 66 -17 111.5t-44 74.5t-61.5 43t-69.5 16v-490zM342 576q-32 -2 -66 -16t-62 -42.5t-46 -74.5t-18 -113q0 -62 16.5 -106t43.5 -73.5t61.5 -45t70.5 -19.5v490zM447 719v-65q57 -3 111.5 -22t97 -57.5t69 -98.5
t26.5 -145q0 -84 -26 -143.5t-69 -98t-98 -58t-113 -23.5v-66h-104v66q-57 4 -111.5 23t-97 56.5t-69 96.5t-26.5 143q0 87 28.5 147.5t72.5 99.5t98.5 58t106.5 22v65h104z" />
    <glyph glyph-name="uni0425" unicode="&#x425;" horiz-adv-x="619" 
d="M467 -28l-163 290h-2l-152 -290h-126l216 363l-208 355h126l151 -281h2l150 281h126l-213 -351l221 -367h-128z" />
    <glyph glyph-name="uni0426" unicode="&#x426;" horiz-adv-x="706" 
d="M188 690v-627h310v627h110v-630l65 -2l-7 -255h-84l-7 169h-497v718h110z" />
    <glyph glyph-name="uni0427" unicode="&#x427;" horiz-adv-x="647" 
d="M182 690v-227q0 -71 36 -108.5t108 -37.5q36 0 71.5 11t61.5 27v335h110v-723h-110v304h-2q-38 -20 -80.5 -31t-88.5 -11q-39 0 -77.5 10t-69.5 34.5t-50 66.5t-19 106v244h110z" />
    <glyph glyph-name="uni0428" unicode="&#x428;" horiz-adv-x="920" 
d="M186 690v-627h220v627h107v-627h220v627h108v-718h-763v718h108z" />
    <glyph glyph-name="uni0429" unicode="&#x429;" horiz-adv-x="938" 
d="M186 690v-627h220v627h107v-627h220v627h108v-630l65 -2l-6 -255h-86l-6 169h-730v718h108z" />
    <glyph glyph-name="uni042A" unicode="&#x42a;" horiz-adv-x="691" 
d="M294 54q14 -3 31 -4t39 -1q36 0 67.5 9.5t54.5 28t36.5 47t13.5 66.5q0 39 -14.5 66.5t-38.5 45t-54.5 25.5t-63.5 8q-18 0 -36.5 -1t-34.5 -3v-287zM294 690v-264q16 2 40 3.5t46 1.5q52 0 101 -13.5t87 -41t60.5 -70.5t22.5 -102q0 -51 -15 -88.5t-41 -64.5
q-47 -49 -116 -67.5t-144 -18.5q-50 0 -88 3t-62 6v625h-185v91h294z" />
    <glyph glyph-name="uni042B" unicode="&#x42b;" horiz-adv-x="822" 
d="M737 690v-718h-110v718h110zM187 53q14 -3 30.5 -4t39.5 -1q36 0 68 9.5t56 28.5t38.5 47.5t14.5 67.5t-15.5 66t-40.5 44t-57 25t-65 8q-23 0 -41.5 -1t-27.5 -3v-287zM187 690v-265q16 2 41.5 3.5t43.5 1.5q55 0 105.5 -13t88.5 -40.5t61 -70.5t23 -103
q0 -50 -15 -87.5t-41 -64.5q-23 -24 -53.5 -40.5t-65.5 -26.5t-72.5 -14t-74.5 -4q-50 0 -87.5 2.5t-62.5 5.5v716h109z" />
    <glyph glyph-name="uni042C" unicode="&#x42c;" horiz-adv-x="595" 
d="M187 54q16 -3 33 -4t39 -1q37 0 69.5 9t57.5 27.5t39.5 47t14.5 67.5t-14.5 66.5t-39.5 45t-57.5 25.5t-68.5 8q-17 0 -36.5 -1t-36.5 -3v-287zM187 690v-265q17 3 43 4.5t45 1.5q56 0 107 -13t89.5 -40.5t61.5 -70.5t23 -103q0 -51 -15.5 -88t-41.5 -65
q-23 -24 -53.5 -40.5t-65.5 -26.5t-73 -14.5t-77 -4.5q-51 0 -89 3t-63 6v716h109z" />
    <glyph glyph-name="uni042D" unicode="&#x42d;" horiz-adv-x="609" 
d="M125 382h327q-4 48 -21 90t-46.5 73t-71 48.5t-94.5 17.5q-44 0 -81.5 -10t-70.5 -24l-24 84q36 15 82.5 27.5t100.5 12.5q87 0 151.5 -29t107.5 -79.5t64.5 -118t21.5 -144.5q0 -89 -27.5 -158t-75.5 -116t-112.5 -71.5t-137.5 -24.5q-54 0 -102.5 9.5t-84.5 26.5l22 86
q31 -14 71.5 -22.5t80.5 -8.5q56 0 101 18.5t76.5 51t49.5 77t21 96.5h-328v88z" />
    <glyph glyph-name="uni042E" unicode="&#x42e;" horiz-adv-x="937" 
d="M592 48q47 0 83.5 22.5t61 61.5t37.5 90.5t13 110.5q0 52 -12 102.5t-36 90.5t-60.5 64t-85.5 24q-50 0 -87.5 -23.5t-62 -63.5t-37 -91.5t-12.5 -107.5t13 -106.5t38 -89t62 -61.5t84 -23h1zM187 690v-303h102q8 72 33.5 130.5t65 99.5t93 63t116.5 22q71 0 127.5 -27.5
t95.5 -76t59.5 -115t20.5 -145.5q0 -92 -24.5 -162.5t-66.5 -118.5t-99 -72.5t-123 -24.5t-119.5 24t-92.5 67.5t-62 105t-27 137.5h-99v-322h-109v718h109z" />
    <glyph glyph-name="uni042F" unicode="&#x42f;" horiz-adv-x="593" 
d="M406 603q-11 2 -32.5 4.5t-50.5 2.5q-32 0 -61 -6.5t-51 -21.5t-34.5 -39t-12.5 -58q0 -31 12.5 -54.5t35 -39.5t53.5 -24.5t67 -8.5h40.5t33.5 1v244zM14 -28q9 15 16.5 32.5t14.5 35.5q11 31 21 63.5t21.5 64t26.5 59.5t37 50q25 23 60 36v3q-32 6 -60.5 20t-50 36.5
t-34 52.5t-12.5 67q0 48 18.5 85t49.5 62q36 29 90 42.5t123 13.5q49 0 96.5 -4t83.5 -11v-708h-109v303h-62q-31 0 -54.5 -7.5t-41.5 -25.5t-31.5 -44.5t-24 -56.5t-19.5 -60t-18 -55q-5 -14 -10.5 -26.5t-12.5 -27.5h-118z" />
    <glyph glyph-name="uni0430" unicode="&#x430;" horiz-adv-x="526" 
d="M347 231q-37 0 -73 -4t-64.5 -16t-46 -33t-17.5 -55q0 -43 24 -62.5t57 -19.5q47 0 76.5 24.5t40.5 54.5q2 8 2.5 14.5t0.5 14.5v82zM454 96q0 -35 2 -66.5t7 -57.5h-100l-8 62h-4q-22 -31 -61.5 -52.5t-93.5 -21.5q-39 0 -69 13t-50 34t-30.5 48t-10.5 56
q0 96 80.5 145.5t228.5 48.5v9q0 15 -3.5 33.5t-15.5 35t-34 27.5t-59 11q-38 0 -74 -10.5t-63 -28.5l-24 74q31 18 77.5 31t101.5 13q60 0 99.5 -18.5t62.5 -48.5t32 -68.5t9 -79.5v-189z" />
    <glyph glyph-name="uni0431" unicode="&#x431;" horiz-adv-x="575" 
d="M424 227q0 30 -6.5 62t-22 58.5t-41.5 44t-65 17.5q-38 0 -64.5 -17.5t-41.5 -46.5q-13 -22 -20 -49t-7 -59q0 -30 7.5 -64.5t24 -64t42 -48.5t61.5 -19t61.5 16.5t41.5 42.5t23 59.5t7 66.5v1zM479 650q-20 -8 -52.5 -13.5t-58.5 -9.5q-62 -9 -106.5 -30t-73.5 -60
q-24 -32 -38 -76.5t-18 -83.5h4q25 54 73 83t104 29q49 0 90 -17t70 -50t45.5 -80.5t16.5 -108.5q0 -63 -17 -113.5t-48.5 -86t-76.5 -54.5t-102 -19q-68 0 -115.5 28.5t-77.5 76.5t-43.5 110t-13.5 129q0 92 21.5 165.5t66.5 128.5q37 51 91.5 77t129.5 38q32 5 70 11.5
t64 14.5z" />
    <glyph glyph-name="uni0432" unicode="&#x432;" horiz-adv-x="546" 
d="M179 41q18 -2 33.5 -2.5t36.5 -0.5q22 0 47.5 3.5t47.5 12.5t36 25.5t14 42.5q0 25 -12 41.5t-32.5 26t-48.5 13t-60 3.5h-62v-165zM180 275h62q25 0 49 4t43 13t30 23.5t11 35.5q0 70 -127 70q-23 0 -38 -1t-30 -3v-142zM72 483q29 5 77.5 8.5t98.5 3.5q33 0 73.5 -4
t76.5 -17.5t60.5 -39t24.5 -69.5q0 -49 -32 -78t-74 -38v-2q56 -9 93 -40.5t37 -87.5q0 -51 -29.5 -81.5t-72.5 -46.5t-91.5 -20.5t-86.5 -4.5q-46 0 -89.5 2.5t-65.5 3.5v511z" />
    <glyph glyph-name="uni0433" unicode="&#x433;" horiz-adv-x="418" 
d="M400 489v-88h-218v-429h-110v517h328z" />
    <glyph glyph-name="uni0434" unicode="&#x434;" horiz-adv-x="580" 
d="M230 326q0 -47 -6.5 -91.5t-18.5 -86.5q-8 -26 -18 -49t-21 -44h221v350h-157v-79zM495 489v-436l53 -2l-6 -243h-85l-4 164h-349l-6 -164h-85l-4 242l45 3q32 49 51 106q15 48 21.5 97t6.5 101v132h362z" />
    <glyph glyph-name="uni0435" unicode="&#x435;" horiz-adv-x="541" 
d="M397 282v1v9t-2 10q-2 19 -8 40t-19.5 39t-35.5 29.5t-54 11.5q-33 0 -57 -13.5t-40 -34t-25 -45.5t-12 -47h253zM144 204q1 -42 15 -72t37 -49.5t53 -28.5t63 -9q49 0 82.5 7.5t61.5 17.5q5 -19 9 -38t9 -38q-29 -13 -73 -23t-104 -10q-61 0 -109 18.5t-81.5 53t-51 82
t-17.5 106.5q0 56 16.5 106.5t48 89t78 61t105.5 22.5q63 0 105 -24t66.5 -61t35 -80t10.5 -82q0 -34 -4 -49h-355z" />
    <glyph glyph-name="uni0436" unicode="&#x436;" horiz-adv-x="728" 
d="M135 489l159 -221h18v221h105v-221h17l158 221h126l-198 -233q54 -6 89 -41t56 -95q15 -38 28.5 -77t30.5 -71h-111q-12 23 -23 53t-23 65q-22 59 -55.5 81.5t-79.5 22.5h-15v-222h-105v222h-16q-51 0 -82.5 -23t-54.5 -82q-13 -35 -23.5 -64.5t-22.5 -52.5h-109
q18 32 31.5 71t27.5 77q23 60 57.5 95t88.5 41l-197 233h123z" />
    <glyph glyph-name="uni0437" unicode="&#x437;" horiz-adv-x="474" 
d="M119 276h53q57 0 90.5 22t33.5 54q0 31 -26.5 50t-71.5 19q-32 0 -65 -10t-61 -27l-25 67q41 25 87 36.5t93 11.5q31 0 64 -7t60 -23t44 -42t17 -63q0 -25 -10 -45t-26.5 -35t-37 -24.5t-41.5 -13.5v-2q27 -3 52 -12.5t44.5 -25.5t31 -38.5t11.5 -51.5q0 -43 -21 -72.5
t-54.5 -48t-75 -26.5t-81.5 -8q-48 0 -93.5 11.5t-81.5 31.5l26 73q28 -15 65 -25t75 -11q57 0 88 23t31 58q0 24 -11.5 39.5t-30.5 24.5t-44.5 13t-53.5 4h-55v73z" />
    <glyph glyph-name="uni0438" unicode="&#x438;" horiz-adv-x="601" 
d="M177 489v-203q0 -31 -0.5 -57t-1 -51t-2 -49.5t-2.5 -52.5h3q11 23 20 42.5t18 37.5t18.5 36.5t21.5 39.5l146 257h131v-517h-105v204q0 31 0.5 55.5t1.5 48.5t2 50t3 60h-3q-11 -24 -21 -44l-19 -38t-18.5 -36t-19.5 -37l-148 -263h-130v517h105z" />
    <glyph glyph-name="uni0439" unicode="&#x439;" horiz-adv-x="601" 
d="M177 489v-203q0 -31 -0.5 -57t-1 -51t-2 -49.5t-2.5 -52.5h3q11 23 20 42.5t18 37.5t18.5 36.5t21.5 39.5l146 257h131v-517h-105v204q0 31 0.5 55.5t1.5 48.5t2 50t3 60h-3q-11 -24 -21 -44l-19 -38t-18.5 -36t-19.5 -37l-148 -263h-130v517h105zM236 700
q2 -35 17.5 -57.5t45.5 -22.5q32 0 48 22.5t20 57.5h76q-4 -69 -43 -103t-103 -34q-35 0 -60.5 10.5t-42 29t-25.5 43.5t-10 54h77z" />
    <glyph glyph-name="uni043A" unicode="&#x43a;" horiz-adv-x="524" 
d="M185 489v-220h20l178 220h133l-217 -231q60 -8 97.5 -47t66.5 -106q11 -28 24.5 -64.5t31.5 -68.5h-114q-11 17 -23 45t-26 63q-24 58 -59.5 86t-94.5 28h-17v-222h-111v517h111z" />
    <glyph glyph-name="uni043B" unicode="&#x43b;" horiz-adv-x="549" 
d="M478 489v-517h-110v431h-162v-123q0 -106 -15 -176t-64 -104q-20 -18 -47 -27.5t-67 -9.5l-12 86q15 4 29.5 9.5t23.5 14.5q33 25 41 76.5t8 132.5v207h375z" />
    <glyph glyph-name="uni043C" unicode="&#x43c;" horiz-adv-x="701" 
d="M83 489h137l85 -245q4 -14 10 -31t12 -36t11.5 -37.5t10.5 -34.5h2q4 14 11 34.5t14.5 43.5t16 46.5t15.5 44.5l75 215h138l36 -517h-104l-12 237q-2 40 -4 88t-3 95h-4q-5 -19 -10.5 -36.5t-12 -36.5t-14.5 -41.5t-19 -52.5l-91 -249h-80l-84 244q-6 18 -12.5 40.5
t-13.5 45.5t-13 45t-11 40h-4q-1 -47 -3 -95.5t-4 -88.5l-12 -235h-101z" />
    <glyph glyph-name="uni043D" unicode="&#x43d;" horiz-adv-x="589" 
d="M182 489v-205h225v205h110v-517h-110v227h-225v-227h-110v517h110z" />
    <glyph glyph-name="uni043E" unicode="&#x43e;" horiz-adv-x="591" 
d="M296 42q31 0 57.5 14t45.5 39t29.5 60t10.5 77q0 31 -8 64.5t-25 60.5t-44 44.5t-65 17.5t-65.5 -16.5t-45 -43.5t-26 -61t-8.5 -68q0 -41 10 -75t29 -59.5t45.5 -39.5t58.5 -14h1zM292 -40q-53 0 -99.5 18.5t-80.5 53t-53.5 84t-19.5 111.5q0 64 20 114.5t55 86t83 54
t104 18.5q57 0 103.5 -19t79.5 -54t51 -84t18 -108q0 -72 -23 -123.5t-60 -85.5t-83.5 -50t-93.5 -16h-1z" />
    <glyph glyph-name="uni043F" unicode="&#x43f;" horiz-adv-x="585" 
d="M513 489v-517h-111v431h-220v-431h-110v517h441z" />
    <glyph glyph-name="uni0440" unicode="&#x440;" horiz-adv-x="613" 
d="M184 185q0 -21 4 -37q11 -45 47 -73.5t82 -28.5q34 0 61.5 13.5t46 38.5t28.5 59t10 76q0 37 -9.5 69.5t-27.5 57t-44.5 38.5t-60.5 14q-45 0 -82.5 -28.5t-49.5 -78.5q-2 -8 -3.5 -17t-1.5 -18v-85zM74 318q0 51 -1 92.5t-3 78.5h98l5 -84h2q29 45 74 70t107 25
q46 0 86 -18.5t69 -53t46 -83t17 -108.5q0 -70 -20 -122t-52.5 -86.5t-75 -51.5t-87.5 -17q-51 0 -90.5 20.5t-62.5 55.5h-2v-236h-110v518z" />
    <glyph glyph-name="uni0441" unicode="&#x441;" horiz-adv-x="477" 
d="M448 -10q-20 -10 -58.5 -19.5t-89.5 -9.5q-59 0 -107 19t-82.5 53.5t-53 83.5t-18.5 109q0 58 19.5 108.5t56 87t88.5 57.5t118 21q39 0 74 -7.5t55 -18.5l-23 -83q-17 8 -42 15t-62 7q-41 0 -73 -14t-54 -39t-33 -58t-11 -71q0 -43 13 -76.5t35.5 -57t53.5 -36t68 -12.5
q36 0 62.5 7.5t46.5 15.5z" />
    <glyph glyph-name="uni0442" unicode="&#x442;" horiz-adv-x="450" 
d="M438 489v-86h-158v-431h-110v431h-158v86h426z" />
    <glyph glyph-name="uni0443" unicode="&#x443;" horiz-adv-x="516" 
d="M130 496q43 -106 68.5 -170t39.5 -100.5t19.5 -53t8.5 -27.5h2l124 351h117q-50 -126 -87.5 -217.5t-66 -156t-50 -107t-38.5 -70t-31.5 -44t-29.5 -30.5q-15 -13 -32 -24.5t-34.5 -20.5t-34 -15.5t-28.5 -9.5l-35 86q17 5 38.5 15.5t42.5 26.5q19 14 39.5 35t35.5 53
q3 7 5.5 12.5t2.5 10.5q0 8 -7 25l-190 431h121z" />
    <glyph glyph-name="uni0444" unicode="&#x444;" horiz-adv-x="703" 
d="M402 717v-199q56 -5 104 -24.5t83.5 -53t55.5 -81t20 -108.5q0 -64 -21 -112.5t-56.5 -82t-83.5 -52t-102 -22.5v-182h-103v42.5t0.5 48t0.5 48.5v43q-56 3 -103.5 22t-83 53t-55.5 81.5t-20 107.5q0 64 20.5 112.5t56 82t83.5 52.5t102 24v47t-0.5 53t-0.5 53v47h103z
M302 444q-37 -6 -66 -23t-48.5 -42.5t-29.5 -59t-10 -70.5q0 -76 40.5 -129t113.5 -64v388zM401 56q36 6 65 23t48.5 42.5t30 58.5t10.5 71q0 75 -40.5 128t-113.5 65v-388z" />
    <glyph glyph-name="uni0445" unicode="&#x445;" horiz-adv-x="508" 
d="M137 489l118 -187h3l114 187h121l-175 -249l178 -268h-125l-121 198h-3l-119 -198h-121l181 264l-174 253h123z" />
    <glyph glyph-name="uni0446" unicode="&#x446;" horiz-adv-x="596" 
d="M182 489v-431h218v431h111v-436l55 -2l-6 -243h-85l-4 164h-399v517h110z" />
    <glyph glyph-name="uni0447" unicode="&#x447;" horiz-adv-x="560" 
d="M176 489v-172q0 -48 21.5 -75.5t78.5 -27.5q28 0 55 8.5t46 22.5v244h110v-524h-110v205h-1q-26 -17 -64 -27t-74 -10q-38 0 -69.5 10.5t-54 31.5t-35 53.5t-12.5 76.5v184h109z" />
    <glyph glyph-name="uni0448" unicode="&#x448;" horiz-adv-x="805" 
d="M181 489v-431h167v431h110v-431h166v431h109v-517h-661v517h109z" />
    <glyph glyph-name="uni0449" unicode="&#x449;" horiz-adv-x="818" 
d="M181 489v-431h167v431h110v-431h166v431h109v-436l54 -2l-5 -243h-85l-4 164h-621v517h109z" />
    <glyph glyph-name="uni044A" unicode="&#x44a;" horiz-adv-x="635" 
d="M276 47q14 -1 29 -2t38 -1q27 0 53 5t46 16.5t32.5 30.5t12.5 48q0 31 -13.5 51t-35 32t-48 16.5t-52.5 4.5q-32 0 -62 -6v-195zM277 489v-169q18 2 40.5 3.5t48.5 1.5q40 0 81.5 -8.5t75 -29t54.5 -54.5t21 -85q0 -42 -16 -72t-42 -51q-22 -18 -49.5 -29t-57 -17.5
t-60.5 -9t-59 -2.5q-40 0 -77.5 2t-69.5 5v429h-151v86h261z" />
    <glyph glyph-name="uni044B" unicode="&#x44b;" horiz-adv-x="737" 
d="M665 489v-517h-110v517h110zM181 47q27 -3 61 -3q25 0 50 5.5t45 17.5t32 31.5t12 47.5q0 29 -12 48.5t-30.5 31t-42.5 16.5t-48 5q-20 0 -36.5 -2t-30.5 -4v-194zM182 489v-171q15 3 36 5t47 2q42 0 82.5 -9t73 -30t52 -54.5t19.5 -81.5q0 -44 -16.5 -73.5t-42.5 -51.5
q-45 -35 -102.5 -46.5t-110.5 -11.5q-41 0 -78.5 2.5t-69.5 4.5v515h110z" />
    <glyph glyph-name="uni044C" unicode="&#x44c;" horiz-adv-x="545" 
d="M182 47q25 -3 65 -3q25 0 51.5 4.5t48.5 16t36 31t14 49.5q0 31 -14.5 51.5t-37 31.5t-49.5 15.5t-51 4.5q-33 0 -63 -6v-195zM183 489v-171q16 4 39.5 5.5t44.5 1.5q44 0 87 -8t77.5 -28t56 -54t21.5 -86q0 -42 -17 -72t-43 -52q-22 -18 -49.5 -29t-58 -17.5t-62 -9
t-59.5 -2.5q-41 0 -78.5 2t-69.5 5v515h111z" />
    <glyph glyph-name="uni044D" unicode="&#x44d;" horiz-adv-x="500" 
d="M97 271h252q-4 30 -15.5 56.5t-32.5 46.5t-51 31.5t-70 11.5t-70.5 -9.5t-50.5 -18.5l-23 72q34 19 77 29t85 10q57 0 105 -17.5t83 -53.5q35 -35 54.5 -85t19.5 -115q0 -57 -19 -106.5t-54.5 -85.5t-87.5 -56.5t-118 -20.5q-42 0 -81.5 9t-70.5 26l19 78
q17 -8 49.5 -17.5t76.5 -9.5q73 0 119 40.5t54 110.5h-250v74z" />
    <glyph glyph-name="uni044E" unicode="&#x44e;" horiz-adv-x="768" 
d="M494 41q32 0 55.5 16.5t39 43.5t23 61.5t7.5 70.5q0 34 -7.5 67.5t-23 60t-39 42.5t-54.5 16q-32 0 -56 -16t-39.5 -42.5t-23.5 -61t-8 -71.5q0 -36 7.5 -69.5t23.5 -60t39 -42t55 -15.5h1zM181 489v-211h84q7 50 26.5 91t49.5 70t69.5 45t86.5 16q52 0 94.5 -19t73 -54
t47 -83.5t16.5 -108.5q0 -65 -18.5 -116t-50.5 -86t-75 -54t-92 -19q-47 0 -87 16.5t-70 46.5t-49 73.5t-24 97.5h-81v-222h-109v517h109z" />
    <glyph glyph-name="uni044F" unicode="&#x44f;" horiz-adv-x="543" 
d="M362 419q-17 2 -33 3t-39 1t-46 -4t-41.5 -13.5t-30 -25.5t-11.5 -41q0 -23 12.5 -39t31 -26.5t41 -15t42.5 -4.5h43t31 1v164zM471 -28h-109v212h-61q-28 0 -48 -9t-34 -23q-14 -11 -24 -27.5t-17.5 -35t-14 -37.5t-13.5 -37q-8 -21 -21 -43h-118q17 25 32 59
q8 18 15 38.5t16 41t20.5 39.5t27.5 33q25 23 60 32v2q-24 3 -48.5 12t-43.5 25t-31 39t-12 53q0 42 20.5 70t52.5 45q32 18 79 26t99 8q49 0 94 -3t79 -8v-512z" />
    <glyph glyph-name="uni0451" unicode="&#x451;" horiz-adv-x="541" 
d="M389 575q-25 0 -41.5 17.5t-16.5 42.5q0 24 17 41t43 17q24 0 40.5 -16.5t16.5 -41.5t-16 -42.5t-41 -17.5h-2zM186 575q-26 0 -42 17.5t-16 42.5q0 24 17 41t44 17q23 0 39 -16.5t16 -41.5t-15.5 -42.5t-41.5 -17.5h-1zM397 282v1v9t-2 10q-2 19 -8 40t-19.5 39
t-35.5 29.5t-54 11.5q-33 0 -57 -13.5t-40 -34t-25 -45.5t-12 -47h253zM144 204q1 -42 15 -72t37 -49.5t53 -28.5t63 -9q49 0 82.5 7.5t61.5 17.5q5 -19 9 -38t9 -38q-29 -13 -73 -23t-104 -10q-61 0 -109 18.5t-81.5 53t-51 82t-17.5 106.5q0 56 16.5 106.5t48 89t78 61
t105.5 22.5q63 0 105 -24t66.5 -61t35 -80t10.5 -82q0 -34 -4 -49h-355z" />
    <glyph glyph-name="uni2010" unicode="&#x2010;" horiz-adv-x="438" 
d="M414 275h-390v73h390v-73z" />
    <glyph glyph-name="emdash" unicode="&#x2014;" horiz-adv-x="864" 
d="M861 283h-858v63h858v-63z" />
    <glyph glyph-name="emdash" unicode="&#x2015;" horiz-adv-x="864" 
d="M861 283h-858v63h858v-63z" />
    <glyph glyph-name="uni2016" unicode="&#x2016;" horiz-adv-x="900" 
d="M395 -178h-64v957h64v-957zM569 -178h-65v957h65v-957z" />
    <glyph glyph-name="quoteleft" unicode="&#x2018;" horiz-adv-x="220" 
d="M185 527h-125v89q0 70 31.5 111.5t85.5 56.5l20 -49q-33 -12 -48.5 -33.5t-17.5 -54.5h54v-120z" />
    <glyph glyph-name="quoteright" unicode="&#x2019;" horiz-adv-x="220" 
d="M35 758h125v-89q0 -70 -31.5 -111.5t-85.5 -56.5l-20 49q33 12 48.5 33.5t17.5 54.5h-54v120z" />
    <glyph glyph-name="quotedblleft" unicode="&#x201c;" horiz-adv-x="390" 
d="M183 527h-123v89q0 70 31.5 111.5t85.5 56.5l20 -49q-33 -12 -48.5 -33.5t-17.5 -54.5h52v-120zM356 527h-123v89q0 70 31.5 111.5t85.5 56.5l20 -49q-33 -12 -48.5 -33.5t-17.5 -54.5h52v-120z" />
    <glyph glyph-name="quotedblright" unicode="&#x201d;" horiz-adv-x="390" 
d="M207 758h123v-89q0 -70 -31.5 -111.5t-85.5 -56.5l-20 49q33 12 48.5 33.5t17.5 54.5h-52v120zM34 758h123v-89q0 -70 -31.5 -111.5t-85.5 -56.5l-20 49q33 12 48.5 33.5t17.5 54.5h-52v120z" />
    <glyph glyph-name="dagger" unicode="&#x2020;" horiz-adv-x="499" 
d="M201 411h-166v89h166v203h98v-203h165v-89h-165v-508h-98v508z" />
    <glyph glyph-name="daggerdbl" unicode="&#x2021;" horiz-adv-x="505" 
d="M38 313h166v98h-166v89h166v203h98v-203h164v-89h-164v-98h164v-88h-164v-322h-98v322h-166v88z" />
    <glyph glyph-name="bullet" unicode="&#x2022;" horiz-adv-x="920" 
d="M594 305q0 -27 -10.5 -51t-28.5 -42t-42.5 -28.5t-51.5 -10.5t-51.5 10.5t-42.5 28.5t-28.5 42t-10.5 51t10.5 51.5t28.5 42.5t42.5 28.5t51.5 10.5t51.5 -10.5t42.5 -28.5t28.5 -42.5t10.5 -51.5z" />
    <glyph glyph-name="twodotenleader" unicode="&#x2025;" horiz-adv-x="850" 
d="M553 374h117v-115h-117v115zM180 374h117v-115h-117v115z" />
    <glyph glyph-name="uni22EF" unicode="&#x2026;" horiz-adv-x="920" 
d="M711 375h117v-115h-117v115zM403 375h117v-115h-117v115zM91 375h117v-115h-117v115z" />
    <glyph glyph-name="uni22EF" unicode="&#x22ef;" horiz-adv-x="920" 
d="M711 375h117v-115h-117v115zM403 375h117v-115h-117v115zM91 375h117v-115h-117v115z" />
    <glyph glyph-name="perthousand" unicode="&#x2030;" horiz-adv-x="1177" 
d="M578 715h105l-436 -775h-106zM360 495q0 -48 -11.5 -87t-32 -66.5t-49.5 -42t-63 -14.5q-35 0 -63.5 14.5t-49 42t-32 66.5t-11.5 87t11.5 87t32 66.5t49 42t63.5 14.5q34 0 63 -14.5t49.5 -42t32 -66.5t11.5 -87zM267 495q0 62 -16 94.5t-47 32.5q-32 0 -47.5 -32.5
t-15.5 -94.5t15.5 -94.5t47.5 -32.5q31 0 47 32.5t16 94.5zM783 165q0 -48 -11.5 -87t-32 -66.5t-49.5 -42t-63 -14.5q-35 0 -63.5 14.5t-49 42t-32 66.5t-11.5 87t11.5 87t32 66.5t49 42t63.5 14.5q34 0 63 -14.5t49.5 -42t32 -66.5t11.5 -87zM690 165q0 62 -16 94.5
t-47 32.5q-32 0 -47.5 -32.5t-15.5 -94.5t15.5 -94.5t47.5 -32.5q31 0 47 32.5t16 94.5zM1129 165q0 -48 -11.5 -87t-32 -66.5t-49.5 -42t-63 -14.5q-35 0 -63.5 14.5t-49 42t-32 66.5t-11.5 87t11.5 87t32 66.5t49 42t63.5 14.5q34 0 63 -14.5t49.5 -42t32 -66.5t11.5 -87z
M1036 165q0 62 -16 94.5t-47 32.5q-32 0 -47.5 -32.5t-15.5 -94.5t15.5 -94.5t47.5 -32.5q31 0 47 32.5t16 94.5z" />
    <glyph glyph-name="minute" unicode="&#x2032;" horiz-adv-x="459" 
d="M199 741l121 1l-129 -272h-69z" />
    <glyph glyph-name="second" unicode="&#x2033;" horiz-adv-x="515" 
d="M323 741h121l-128 -271h-69zM141 741h120l-128 -271h-69z" />
    <glyph glyph-name="uni203B" unicode="&#x203b;" horiz-adv-x="920" 
d="M849 -13l-62 -60l-324 320q-81 -81 -161.5 -160t-161.5 -160l-61 59q82 79 164.5 157.5t164.5 158.5l-327 317l57 61l324 -323l327 323l57 -60l-327 -318zM244 301q0 -15 -6.5 -29.5t-18 -26t-27 -18t-32.5 -6.5q-16 0 -31 6.5t-27 17.5t-19 25.5t-7 30.5q0 17 7 32
t18.5 26t26.5 17.5t31 6.5t31.5 -6.5t27.5 -17.5t19 -26t7 -32zM544 604q0 -16 -6.5 -30.5t-18 -26t-26.5 -18t-32 -6.5t-32 6.5t-26.5 18t-18.5 26t-7 30.5q0 33 24.5 57t58.5 24q17 0 32.5 -6.5t27 -17.5t18 -26t6.5 -31zM865 301q0 -16 -6.5 -30.5t-18 -25t-26.5 -17
t-32 -6.5t-32 6.5t-26 17t-18 25t-7 30.5q0 17 6.5 32t18 26t26 17.5t30.5 6.5q35 0 60 -23.5t25 -58.5zM544 -10q0 -32 -24 -55.5t-59 -23.5q-17 0 -32 6.5t-26 17t-18 25t-7 30.5q0 33 24 56.5t58 23.5q35 0 59.5 -23.5t24.5 -56.5z" />
    <glyph glyph-name="uniFFE3" unicode="&#x203e;" horiz-adv-x="920" 
d="M256 684v59h403v-59h-403z" />
    <glyph glyph-name="uniFFE3" unicode="&#xffe3;" horiz-adv-x="920" 
d="M256 684v59h403v-59h-403z" />
    <glyph glyph-name="uni204E" unicode="&#x204e;" horiz-adv-x="920" 
d="M489 356l90 72l46 -79l-107 -43l107 -43l-45 -79l-91 71l16 -114h-91l16 114l-90 -71l-46 79l107 43l-107 43l45 79l91 -71l-16 114h91z" />
    <glyph glyph-name="uni2074" unicode="&#x2074;" horiz-adv-x="345" 
d="M200 414v119l-28 -37l-58 -82h86zM199 344h-184v55l198 279h68v-264h59v-70h-59v-81h-82v81z" />
    <glyph glyph-name="uni207F" unicode="&#x207f;" horiz-adv-x="353" 
d="M33 672h79l1 -20q35 27 76 27q28 0 52.5 -8t42.5 -25t28 -44t10 -64v-196h-83v193q0 42 -16 56.5t-42 14.5q-11 0 -22 -4.5t-20.5 -13t-15.5 -21t-6 -28.5v-197h-84v330z" />
    <glyph glyph-name="uni2081" unicode="&#x2081;" horiz-adv-x="240" 
d="M89 216l-25 -6l-43 -9v66l100 31h52v-415h-84v333z" />
    <glyph glyph-name="uni2082" unicode="&#x2082;" horiz-adv-x="325" 
d="M24 -64l123 131q29 29 51 56t22 52q0 35 -20.5 46t-58.5 11q-21 0 -45.5 -7.5t-46.5 -18.5l-18 68q25 11 57 20.5t67 9.5q72 0 109.5 -33t37.5 -94q0 -20 -7 -39t-19 -37t-27 -35.5t-31 -33.5l-18 -20l-53 -57h160v-72h-283v53z" />
    <glyph glyph-name="uni2083" unicode="&#x2083;" horiz-adv-x="323" 
d="M141 -122q-37 0 -70.5 9t-54.5 21l15 68q22 -11 51 -19t49 -8q89 0 89 58q0 29 -25 41.5t-64 12.5h-48v72h45q35 0 57.5 13.5t22.5 38.5q0 26 -18 37.5t-50 11.5q-19 0 -40.5 -7t-51.5 -19l-17 66q23 11 58 20.5t66 9.5q63 0 99 -29t36 -80q0 -29 -12.5 -52.5
t-32.5 -37.5q29 -12 44.5 -35.5t15.5 -64.5q0 -58 -43 -92.5t-121 -34.5z" />
    <glyph glyph-name="uni2084" unicode="&#x2084;" horiz-adv-x="345" 
d="M200 34v119l-28 -37l-58 -82h86zM199 -36h-184v55l198 279h68v-264h59v-70h-59v-81h-82v81z" />
    <glyph glyph-name="uni20A9" unicode="&#x20a9;" horiz-adv-x="920" 
d="M44 328v80h75l-71 285h113l61 -285h121l62 285h112l63 -285h120l61 285h110l-71 -285h75v-80h-94l-90 -363h-105l-79 363h-95l-78 -363h-105l-90 363h-95zM282 130l43 198h-86zM641 130l42 198h-86zM430 408h60l-30 140z" />
    <glyph glyph-name="uni2103" unicode="&#x2103;" horiz-adv-x="819" 
d="M596 -44q-159 0 -244.5 90t-85.5 278q0 187 85 277t245 90q59 0 105.5 -12t73.5 -26l-24 -84q-22 8 -41 13t-37 8t-36.5 4.5t-39.5 1.5q-60 0 -101 -17.5t-67 -52t-37.5 -85t-11.5 -117.5t11.5 -118t37.5 -85.5t67 -52t101 -17.5q46 0 85 5.5t83 22.5l23 -85
q-26 -14 -78 -26t-114 -12zM86 607q0 -20 13.5 -33t33.5 -13t33.5 13t13.5 33t-13.5 33t-33.5 13t-33.5 -13t-13.5 -33zM14 607q0 25 9 45.5t25 35.5t37.5 23t47.5 8q25 0 47 -8t38 -23t25 -35.5t9 -45.5t-9 -45.5t-25 -35.5t-38 -23t-47 -8q-26 0 -47.5 8t-37.5 23
t-25 35.5t-9 45.5z" />
    <glyph glyph-name="uni2109" unicode="&#x2109;" horiz-adv-x="826" 
d="M432 -35h-109v714h441v-93h-332v-213h294v-93h-294v-315zM86 607q0 -20 13.5 -33t33.5 -13t33.5 13t13.5 33t-13.5 33t-33.5 13t-33.5 -13t-13.5 -33zM14 607q0 25 9 45.5t25 35.5t37.5 23t47.5 8q25 0 47 -8t38 -23t25 -35.5t9 -45.5t-9 -45.5t-25 -35.5t-38 -23t-47 -8
q-26 0 -47.5 8t-37.5 23t-25 35.5t-9 45.5z" />
    <glyph glyph-name="uni2113" unicode="&#x2113;" horiz-adv-x="485" 
d="M364 82q-29 -61 -60 -88.5t-74 -27.5h-5q-39 2 -62.5 24t-35.5 57q-11 -10 -27 -21.5t-33 -21.5q-11 16 -20 31.5t-20 32.5q23 15 46.5 31.5t39.5 31.5q-3 49 -3 100q1 66 5.5 126t18.5 120q23 106 64.5 161t101.5 55t84.5 -43.5t24.5 -114.5q0 -46 -15 -103t-43 -116.5
t-66.5 -117t-85.5 -102.5q3 -23 11 -37t22 -16h3q18 0 36.5 21.5t31.5 50.5zM194 208q27 34 49.5 74t39 82t26 82.5t9.5 75.5q0 44 -6.5 62t-18.5 18q-17 0 -36.5 -37t-32.5 -94q-14 -61 -21 -129.5t-9 -133.5z" />
    <glyph glyph-name="uni2116" unicode="&#x2116;" horiz-adv-x="1203" 
d="M85 693h105l234 -479v479h102v-728h-92l-247 511v-511h-102v728zM803 45q50 0 80.5 47t30.5 144t-30.5 144.5t-80.5 47.5t-81 -47.5t-31 -144.5t31 -144t81 -47zM803 -45q-45 0 -83.5 18t-67 53.5t-45 88t-16.5 121.5t16.5 121.5t45 88.5t67 54t83.5 18q44 0 82.5 -18
t67 -54t45 -88.5t16.5 -121.5t-16.5 -121.5t-45 -88t-67 -53.5t-82.5 -18zM1040 90h103v-125h-103v125z" />
    <glyph glyph-name="uni2121" unicode="&#x2121;" horiz-adv-x="1243" 
d="M194 594h-169v99h448v-99h-168v-629h-111v629zM639 -45q-109 0 -169 72t-60 209q0 134 57 208t156 74q95 0 146 -73.5t51 -208.5v-46h-303q6 -78 42 -111.5t95 -33.5q74 0 139 36l19 -87q-32 -18 -78.5 -28.5t-94.5 -10.5zM618 429q-38 0 -67.5 -39t-33.5 -117h196
q-4 78 -30.5 117t-64.5 39zM894 734h104v-769h-104v769zM1075 90h103v-125h-103v125z" />
    <glyph glyph-name="trademark" unicode="&#x2122;" horiz-adv-x="786" 
d="M350 705h98l92 -228l89 228h97v-350h-76v218l-78 -195h-68l-78 195v-218h-76v350zM131 633h-106v72h288v-72h-102v-278h-80v278z" />
    <glyph glyph-name="Omega" unicode="&#x2126;" horiz-adv-x="771" 
d="M541 81h143v-81h-264v64q29 20 55 49t45.5 65.5t31 80t11.5 92.5q0 45 -13 90t-38.5 80t-63.5 57t-87 22q-50 0 -88.5 -21t-65 -56t-40.5 -80t-14 -93q0 -46 11.5 -89.5t31.5 -81t45.5 -67.5t54.5 -48v-64h-266v81h143v3q-24 20 -47.5 48t-41.5 63t-29 76.5t-11 89.5
q0 70 24 129.5t66.5 103t101 67.5t127.5 24q72 0 129 -25t96.5 -68t61 -100.5t21.5 -121.5q0 -51 -11.5 -94.5t-30 -79.5t-41.5 -64t-47 -48v-3z" />
    <glyph glyph-name="uni212B" unicode="&#x212b;" horiz-adv-x="626" 
d="M194 656q0 25 9 45.5t25 35.5t37.5 23t47.5 8q25 0 47 -8t38 -23t25 -35.5t9 -45.5q0 -35 -17 -60.5t-46 -38.5l232 -592h-114l-62 168h-227l-62 -168h-111l232 591q-29 14 -46 39.5t-17 60.5zM312 441l-81 -219h161zM266 656q0 -20 13.5 -33t33.5 -13t33.5 13t13.5 33
t-13.5 33t-33.5 13t-33.5 -13t-13.5 -33z" />
    <glyph glyph-name="onethird" unicode="&#x2153;" horiz-adv-x="856" 
d="M627 -73q-40 0 -76.5 10t-59.5 23l17 71q11 -5 25 -10t28.5 -9t28.5 -6.5t26 -2.5q101 0 101 65q0 33 -28 47.5t-73 14.5h-52v77h48q39 0 65 15t26 44q0 30 -20 42.5t-58 12.5q-23 0 -44 -7t-41 -15l-14 -2l-18 66q25 12 63 23t71 11q69 0 108.5 -31.5t39.5 -88.5
q0 -33 -14.5 -58.5t-37.5 -41.5q30 -14 49 -40.5t19 -70.5q0 -63 -47 -101t-132 -38zM556 705h107l-442 -775h-108zM126 603q-18 -4 -39 -9t-37 -8v71l110 33h54v-457h-88v370z" />
    <glyph glyph-name="twothirds" unicode="&#x2154;" horiz-adv-x="977" 
d="M50 291l137 144q32 32 56 62t24 58q0 40 -23 52t-66 12q-24 0 -50.5 -7.5t-49.5 -18.5l-19 71q26 11 60 22t74 11q78 0 119.5 -37t41.5 -103q0 -23 -8 -43.5t-21 -40t-29.5 -38.5t-34.5 -38h1l-20 -21l-61 -66h179v-77h-310v58zM677 705h107l-442 -775h-108zM748 -73
q-40 0 -76.5 10t-59.5 23l17 71q11 -5 25 -10t28.5 -9t28.5 -6.5t26 -2.5q101 0 101 65q0 33 -28 47.5t-73 14.5h-52v77h48q39 0 65 15t26 44q0 30 -20 42.5t-58 12.5q-23 0 -44 -7t-41 -15l-14 -2l-18 66q25 12 63 23t71 11q69 0 108.5 -31.5t39.5 -88.5q0 -33 -14.5 -58.5
t-37.5 -41.5q30 -14 49 -40.5t19 -70.5q0 -63 -47 -101t-132 -38z" />
    <glyph glyph-name="oneeighth" unicode="&#x215b;" horiz-adv-x="874" 
d="M586 275q0 -23 21.5 -38.5t51.5 -29.5q24 14 42 31t18 35q0 22 -16.5 35.5t-49.5 13.5q-31 0 -49 -12t-18 -35zM736 56q0 26 -25 42.5t-63 33.5q-32 -14 -56.5 -33.5t-24.5 -39.5q0 -28 24.5 -42.5t61.5 -14.5q36 0 59.5 14t23.5 40zM653 -73q-79 0 -124.5 35t-45.5 93
q0 38 25 67t59 47q-28 17 -48.5 42.5t-20.5 60.5q0 27 11 50t31 39.5t49 26t64 9.5q70 0 110.5 -32.5t40.5 -87.5q0 -33 -20.5 -59t-48.5 -45q17 -9 33 -19.5t28.5 -24t20 -30.5t7.5 -38q0 -29 -12 -53.5t-34.5 -42.5t-54 -28t-70.5 -10zM556 705h107l-442 -775h-108z
M126 603q-18 -4 -39 -9t-37 -8v71l110 33h54v-457h-88v370z" />
    <glyph glyph-name="threeeighths" unicode="&#x215c;" horiz-adv-x="943" 
d="M655 275q0 -23 21.5 -38.5t51.5 -29.5q24 14 42 31t18 35q0 22 -16.5 35.5t-49.5 13.5q-31 0 -49 -12t-18 -35zM805 56q0 26 -25 42.5t-63 33.5q-32 -14 -56.5 -33.5t-24.5 -39.5q0 -28 24.5 -42.5t61.5 -14.5q36 0 59.5 14t23.5 40zM722 -73q-79 0 -124.5 35t-45.5 93
q0 38 25 67t59 47q-28 17 -48.5 42.5t-20.5 60.5q0 27 11 50t31 39.5t49 26t64 9.5q70 0 110.5 -32.5t40.5 -87.5q0 -33 -20.5 -59t-48.5 -45q17 -9 33 -19.5t28.5 -24t20 -30.5t7.5 -38q0 -29 -12 -53.5t-34.5 -42.5t-54 -28t-70.5 -10zM625 705h107l-442 -775h-108z
M186 227q-40 0 -76.5 10t-59.5 23l17 71q11 -5 25 -10t28.5 -9t28.5 -6.5t26 -2.5q101 0 101 65q0 33 -28 47.5t-73 14.5h-52v77h48q39 0 65 15t26 44q0 30 -20 42.5t-58 12.5q-23 0 -44 -7t-41 -15l-14 -2l-18 66q25 12 63 23t71 11q69 0 108.5 -31.5t39.5 -88.5
q0 -33 -14.5 -58.5t-37.5 -41.5q30 -14 49 -40.5t19 -70.5q0 -63 -47 -101t-132 -38z" />
    <glyph glyph-name="fiveeighths" unicode="&#x215d;" horiz-adv-x="943" 
d="M186 227q-40 0 -76.5 10t-59.5 23l17 71q11 -5 25 -10t28.5 -9t28.5 -6.5t26 -2.5q51 0 76 20t25 58q0 19 -7.5 31t-21 19.5t-31.5 10.5t-38 3q-21 0 -45 -3t-54 -8l17 256h246v-77h-167l-4 -46t-4 -49q8 1 15.5 1h16.5q73 0 119.5 -32.5t46.5 -106.5q0 -32 -12 -60
t-35.5 -48.5t-56.5 -32.5t-75 -12zM655 275q0 -23 21.5 -38.5t51.5 -29.5q24 14 42 31t18 35q0 22 -16.5 35.5t-49.5 13.5q-31 0 -49 -12t-18 -35zM805 56q0 26 -25 42.5t-63 33.5q-32 -14 -56.5 -33.5t-24.5 -39.5q0 -28 24.5 -42.5t61.5 -14.5q36 0 59.5 14t23.5 40z
M722 -73q-79 0 -124.5 35t-45.5 93q0 38 25 67t59 47q-28 17 -48.5 42.5t-20.5 60.5q0 27 11 50t31 39.5t49 26t64 9.5q70 0 110.5 -32.5t40.5 -87.5q0 -33 -20.5 -59t-48.5 -45q17 -9 33 -19.5t28.5 -24t20 -30.5t7.5 -38q0 -29 -12 -53.5t-34.5 -42.5t-54 -28t-70.5 -10z
M625 705h107l-442 -775h-108z" />
    <glyph glyph-name="seveneighths" unicode="&#x215e;" horiz-adv-x="905" 
d="M262 612h-202v78h299v-56l-165 -401h-94zM617 275q0 -23 21.5 -38.5t51.5 -29.5q24 14 42 31t18 35q0 22 -16.5 35.5t-49.5 13.5q-31 0 -49 -12t-18 -35zM767 56q0 26 -25 42.5t-63 33.5q-32 -14 -56.5 -33.5t-24.5 -39.5q0 -28 24.5 -42.5t61.5 -14.5q36 0 59.5 14
t23.5 40zM684 -73q-79 0 -124.5 35t-45.5 93q0 38 25 67t59 47q-28 17 -48.5 42.5t-20.5 60.5q0 27 11 50t31 39.5t49 26t64 9.5q70 0 110.5 -32.5t40.5 -87.5q0 -33 -20.5 -59t-48.5 -45q17 -9 33 -19.5t28.5 -24t20 -30.5t7.5 -38q0 -29 -12 -53.5t-34.5 -42.5t-54 -28
t-70.5 -10zM582 705h107l-442 -775h-108z" />
    <glyph glyph-name="uni2160" unicode="&#x2160;" horiz-adv-x="915" 
d="M511 686v-717h-109v717h109z" />
    <glyph glyph-name="uni2161" unicode="&#x2161;" horiz-adv-x="915" 
d="M643 686v-717h-108v717h108zM377 686v-717h-107v717h107z" />
    <glyph glyph-name="uni2162" unicode="&#x2162;" horiz-adv-x="915" 
d="M727 686v-717h-104v717h104zM281 686v-717h-104v717h104zM501 686v-717h-105v717h105z" />
    <glyph glyph-name="uni2163" unicode="&#x2163;" horiz-adv-x="915" 
d="M836 686l-208 -717h-127l-202 717h118l150 -604h1l153 604h115zM242 -31h-105v717h105v-717z" />
    <glyph glyph-name="uni2164" unicode="&#x2164;" horiz-adv-x="915" 
d="M763 686l-250 -717h-124l-238 717h119l184 -607h1l193 607h115z" />
    <glyph glyph-name="uni2165" unicode="&#x2165;" horiz-adv-x="915" 
d="M801 -31h-104v717h104v-717zM624 686l-209 -717h-127l-201 717h117l150 -604h2l152 604h116z" />
    <glyph glyph-name="uni2166" unicode="&#x2166;" horiz-adv-x="915" 
d="M867 -31h-97v717h97v-717zM682 -31h-98v717h98v-717zM539 686l-166 -717h-109l-163 717h104l115 -601h3l112 601h104z" />
    <glyph glyph-name="uni2167" unicode="&#x2167;" horiz-adv-x="915" 
d="M413 686l-129 -717h-104q-33 180 -65.5 358.5t-65.5 358.5h98q11 -81 23.5 -161t23.5 -160q9 -62 20.5 -134.5t18.5 -143.5h3q7 72 16.5 143t18.5 137l45 319h97zM695 -31h-90v717h90v-717zM545 -31h-90v717h90v-717zM844 -31h-90v717h90v-717z" />
    <glyph glyph-name="uni2168" unicode="&#x2168;" horiz-adv-x="915" 
d="M638 335l194 -366h-117l-142 289h-2l-135 -289h-116l192 364l-183 353h116l132 -276h3l127 276h115zM248 -31h-105v717h105v-717z" />
    <glyph glyph-name="uni2169" unicode="&#x2169;" horiz-adv-x="915" 
d="M520 336l227 -367h-127l-168 290h-1l-160 -290h-125l223 363l-214 354h126l155 -278h3l153 278h125z" />
    <glyph glyph-name="uni2170" unicode="&#x2170;" horiz-adv-x="915" 
d="M402 575v120h110v-120h-110zM402 -28v518h110v-518h-110z" />
    <glyph glyph-name="uni2171" unicode="&#x2171;" horiz-adv-x="915" 
d="M640 575h-106v120h106v-120zM380 575h-106v120h106v-120zM640 -31h-106v517h106v-517zM380 -31h-106v517h106v-517z" />
    <glyph glyph-name="uni2172" unicode="&#x2172;" horiz-adv-x="915" 
d="M725 575h-103v120h103v-120zM508 575h-103v120h103v-120zM291 575h-103v120h103v-120zM725 -31h-103v517h103v-517zM508 -31h-103v517h103v-517zM291 -31h-103v517h103v-517z" />
    <glyph glyph-name="uni2173" unicode="&#x2173;" horiz-adv-x="915" 
d="M293 575h-103v120h103v-120zM800 486l-170 -517h-107l-168 517h114l110 -411h2l108 411h111zM293 -31h-103v517h103v-517z" />
    <glyph glyph-name="uni2174" unicode="&#x2174;" horiz-adv-x="915" 
d="M709 486l-196 -517h-107l-192 517h116l131 -412h3l131 412h114z" />
    <glyph glyph-name="uni2175" unicode="&#x2175;" horiz-adv-x="915" 
d="M727 575h-103v120h103v-120zM727 -31h-103v517h103v-517zM563 486l-170 -517h-107l-169 517h115l110 -411h2l108 411h111z" />
    <glyph glyph-name="uni2176" unicode="&#x2176;" horiz-adv-x="915" 
d="M800 575h-97v120h97v-120zM611 575h-97v120h97v-120zM799 -31h-96v517h96v-517zM611 -31h-97v517h97v-517zM457 486l-139 -517h-101l-141 517h107l86 -411h2l85 411h101z" />
    <glyph glyph-name="uni2177" unicode="&#x2177;" horiz-adv-x="915" 
d="M832 575h-89v120h89v-120zM679 575h-89v120h89v-120zM526 575h-89v120h89v-120zM832 -31h-89v517h89v-517zM679 -31h-89v517h89v-517zM526 -31h-89v517h89v-517zM393 486l-119 -517h-90l-124 517h99l71 -411h1l70 411h92z" />
    <glyph glyph-name="uni2178" unicode="&#x2178;" horiz-adv-x="915" 
d="M285 575h-103v120h103v-120zM641 236l156 -267h-118l-105 200h-2l-103 -200h-112l155 264l-149 253h118l98 -190h2l96 190h114zM285 -31h-103v517h103v-517z" />
    <glyph glyph-name="uni2179" unicode="&#x2179;" horiz-adv-x="915" 
d="M521 238l182 -269h-122l-125 200h-2l-124 -200h-119l184 266l-175 251h121l119 -185h2l115 185h119z" />
    <glyph glyph-name="arrowleft" unicode="&#x2190;" horiz-adv-x="750" 
d="M749 313h-564l76 -128l-15 -17l-212 176l212 176l15 -17l-76 -129h564v-61z" />
    <glyph glyph-name="arrowup" unicode="&#x2191;" horiz-adv-x="586" 
d="M263 -7v564l-129 -76l-17 15l176 212l176 -212l-17 -15l-129 76v-564h-60z" />
    <glyph glyph-name="arrowright" unicode="&#x2192;" horiz-adv-x="750" 
d="M0 374h564l-76 129l15 17l212 -176l-212 -176l-15 17l76 128h-564v61z" />
    <glyph glyph-name="arrowdown" unicode="&#x2193;" horiz-adv-x="586" 
d="M323 694v-563l129 75l17 -15l-176 -212l-176 212l17 15l129 -75v563h60z" />
    <glyph glyph-name="arrowboth" unicode="&#x2194;" horiz-adv-x="819" 
d="M229 185l-16 -17l-212 176l212 176l16 -17l-77 -129h506l-77 129l16 17l212 -176l-212 -176l-16 17l77 128h-506z" />
    <glyph glyph-name="arrowupdn" unicode="&#x2195;" horiz-adv-x="586" 
d="M323 557v-426l129 75l17 -15l-176 -212l-176 212l17 15l129 -75v426l-129 -76l-17 15l176 212l176 -212l-17 -15z" />
    <glyph glyph-name="uni2196" unicode="&#x2196;" horiz-adv-x="805" 
d="M721 -18l-593 593l-37 -145l-24 -1l-25 274l274 -25l-1 -24l-145 -37l593 -592z" />
    <glyph glyph-name="uni2197" unicode="&#x2197;" horiz-adv-x="805" 
d="M42 25l593 592l-145 37l-1 24l274 25l-25 -274l-24 1l-37 145l-593 -593z" />
    <glyph glyph-name="uni2198" unicode="&#x2198;" horiz-adv-x="806" 
d="M84 705l593 -593l38 145l24 2l25 -275l-275 25l2 24l145 38l-594 592z" />
    <glyph glyph-name="uni2199" unicode="&#x2199;" horiz-adv-x="806" 
d="M764 663l-594 -592l145 -38l2 -24l-275 -25l25 275l24 -2l38 -145l593 593z" />
    <glyph glyph-name="arrowdblright" unicode="&#x21d2;" horiz-adv-x="948" 
d="M938 299l-273 -275l-41 40l112 113h-731v58h788l67 64l-67 65h-788v58h730l-111 111l41 40z" />
    <glyph glyph-name="arrowdblboth" unicode="&#x21d4;" horiz-adv-x="940" 
d="M856 299l-67 65h-643l-67 -65l67 -64h643zM934 299l-273 -275l-41 40l112 113h-529l112 -113l-41 -40l-273 275l273 274l41 -40l-111 -111h527l-111 111l41 40z" />
    <glyph glyph-name="universal" unicode="&#x2200;" horiz-adv-x="666" 
d="M132 693l70 -208h257l72 208h120l-262 -728h-110l-264 728h117zM426 391h-193l96 -283z" />
    <glyph glyph-name="partialdiff" unicode="&#x2202;" horiz-adv-x="541" 
d="M238 67q32 0 59 17t47.5 45.5t34 65.5t18.5 77q-7 18 -19 34.5t-29.5 29.5t-39 21t-46.5 8q-29 0 -54 -12.5t-43.5 -34.5t-29 -52.5t-10.5 -65.5q0 -63 31.5 -98t80.5 -35zM51 679q26 18 71 37t111 19q55 0 105.5 -24t88.5 -70t60.5 -114t22.5 -155q0 -97 -23 -170
t-62 -122t-90.5 -73.5t-107.5 -24.5q-53 0 -92 19t-64.5 49.5t-38 69.5t-12.5 79q0 52 17 97.5t47 79.5t71 53.5t89 19.5q31 0 57.5 -8t47 -20.5t35 -28t22.5 -29.5h1q1 7 1 14.5v15.5q0 62 -15 109.5t-40.5 80t-59 49.5t-69.5 17q-48 0 -82 -13t-59 -27z" />
    <glyph glyph-name="existential" unicode="&#x2203;" horiz-adv-x="604" 
d="M408 598h-368v95h479v-728h-457v95h346v212h-307v94h307v232z" />
    <glyph glyph-name="gradient" unicode="&#x2207;" horiz-adv-x="900" 
d="M854 606l-404 -639l-404 639h808zM723 534h-546l273 -437z" />
    <glyph glyph-name="element" unicode="&#x2208;" horiz-adv-x="920" 
d="M772 278h-608q10 -59 57.5 -97.5t142.5 -38.5h410v-83h-406q-76 0 -131 20.5t-91 56t-53.5 83t-17.5 101.5q0 51 16.5 95.5t51.5 78.5t89.5 53.5t131.5 19.5h410v-83h-410q-47 0 -81.5 -9.5t-58.5 -26.5t-38 -40t-20 -49h606v-81z" />
    <glyph glyph-name="suchthat" unicode="&#x220b;" horiz-adv-x="920" 
d="M118 360h605q-6 25 -20 48t-37.5 39.5t-58 26.5t-80.5 10h-410v83h410q76 0 130.5 -20t90 -53.5t52 -78.5t16.5 -95q0 -53 -17.5 -100.5t-53.5 -83t-91.5 -56.5t-131.5 -21h-405v83h410q47 0 82 10.5t59 28.5t38 43t19 54h-607v82z" />
    <glyph glyph-name="product" unicode="&#x220f;" horiz-adv-x="696" 
d="M568 582v-693h-104v693h-232v-693h-104v693h-113v92h666v-92h-113z" />
    <glyph glyph-name="summation" unicode="&#x2211;" horiz-adv-x="582" 
d="M571 -111h-550v68l263 325q-63 79 -125.5 157.5t-124.5 157.5v77h512v-92h-367v-2l231 -295q-60 -76 -121 -150.5t-122 -149.5v-4h404v-92z" />
    <glyph glyph-name="radical" unicode="&#x221a;" horiz-adv-x="568" 
d="M358 -130h-74l-163 432l-76 -31l-22 52l151 62l122 -340q6 -17 11 -36t8 -33h2q3 13 6.5 32.5t8.5 37.5l183 751h78z" />
    <glyph glyph-name="proportional" unicode="&#x221d;" horiz-adv-x="920" 
d="M303 193q30 0 54 11t43 29t33.5 39.5t26.5 42.5q-12 21 -26.5 42.5t-34 39.5t-43 29.5t-53.5 11.5q-54 0 -86.5 -34t-32.5 -88q0 -56 30.5 -89.5t88.5 -33.5zM771 408q-20 14 -42 23t-42 9q-51 0 -87.5 -33t-68.5 -92q32 -59 68 -92t88 -33q17 0 36.5 6t39.5 17l32 -58
q-27 -16 -54.5 -24.5t-53.5 -8.5q-33 0 -61 10.5t-52 27.5t-43.5 40t-35.5 49q-14 -22 -32 -44.5t-41.5 -40.5t-54 -29.5t-68.5 -11.5q-35 0 -68.5 12t-60 36t-42.5 60t-16 85q0 46 16 82t42 60.5t59.5 37t68.5 12.5q39 0 69 -11.5t54 -30t42 -41.5t32 -45q16 25 35.5 48.5
t43.5 41t52 28t61 10.5q30 0 60 -12t59 -32z" />
    <glyph glyph-name="infinity" unicode="&#x221e;" horiz-adv-x="769" 
d="M192 186q22 0 41.5 8.5t37.5 21.5t34 29.5t31 31.5q-15 13 -30.5 29t-33 30t-37 23t-41.5 9q-19 0 -35.5 -7.5t-28.5 -20t-19 -29t-7 -34.5q0 -40 24.5 -65.5t62.5 -25.5h1zM577 186q38 0 62.5 26.5t24.5 64.5q0 39 -23.5 65t-61.5 26q-22 0 -42 -8.5t-38 -21.5
t-34.5 -29.5l-31.5 -31.5q15 -14 31 -30t33.5 -29.5t36.5 -22.5t42 -9h1zM574 114q-30 0 -56 10.5t-49 26.5t-44 36t-40 40q-21 -20 -42 -40.5t-45 -36.5t-51.5 -26t-60.5 -10q-35 0 -64 12t-50 34t-32.5 51.5t-11.5 65.5q0 33 12 62t34 51.5t52.5 35.5t67.5 13
q30 0 56.5 -10.5t49.5 -26.5t44 -36t41 -39q20 20 41 40t45 36t51.5 26t60.5 10q36 0 65 -12t50 -33.5t32.5 -51.5t11.5 -65q0 -33 -12.5 -62.5t-34.5 -52t-52.5 -35.5t-67.5 -13h-1z" />
    <glyph glyph-name="angle" unicode="&#x2220;" horiz-adv-x="900" 
d="M762 -6h-624v53l479 558l59 -49l-421 -488h507v-74z" />
    <glyph glyph-name="logicaland" unicode="&#x2227;" horiz-adv-x="920" 
d="M778 18l-60 -29l-268 518l-268 -518l-60 29l299 580h58z" />
    <glyph glyph-name="logicalor" unicode="&#x2228;" horiz-adv-x="920" 
d="M778 576l-299 -579h-58l-299 579l60 29l268 -518l268 518z" />
    <glyph glyph-name="intersection" unicode="&#x2229;" horiz-adv-x="656" 
d="M328 644q54 0 100 -17.5t79.5 -53.5t53 -91.5t19.5 -131.5v-406h-87v411q0 54 -12 93.5t-34 65t-52.5 37.5t-66.5 12t-66.5 -12t-52.5 -37.5t-34 -65t-12 -93.5v-411h-87v406q0 76 19.5 131.5t53 91.5t79.5 53.5t100 17.5z" />
    <glyph glyph-name="union" unicode="&#x222a;" horiz-adv-x="656" 
d="M162 644v-410q0 -56 13 -95t35.5 -63.5t51.5 -36t62 -11.5q36 0 67.5 11.5t54 36.5t35.5 64t13 94v410h87v-405q0 -76 -20.5 -131.5t-56 -92t-83 -54t-100.5 -17.5q-50 0 -94.5 16.5t-78.5 52t-53.5 90t-19.5 131.5v410h87z" />
    <glyph glyph-name="integral" unicode="&#x222b;" horiz-adv-x="336" 
d="M308 713q-8 2 -16 3t-17 1q-14 0 -26.5 -6t-20.5 -18q-14 -19 -20.5 -55t-6.5 -102q0 -113 6.5 -234t6.5 -240q0 -73 -11.5 -119t-30.5 -71q-18 -29 -46 -43t-60 -14q-18 0 -34.5 3.5t-24.5 7.5l13 67q7 -2 16.5 -4t20.5 -2q27 0 45 21q6 8 11.5 20t9.5 29.5t6.5 43
t2.5 60.5q0 120 -7 243.5t-7 238.5q0 79 13.5 126t42.5 78q39 40 97 40q14 0 27.5 -2.5t21.5 -5.5z" />
    <glyph glyph-name="uni222C" unicode="&#x222c;" horiz-adv-x="573" 
d="M544 713q-8 2 -16 3t-16 1q-14 0 -26.5 -6t-20.5 -18q-15 -19 -21.5 -55t-6.5 -102q0 -113 6.5 -234t6.5 -240q0 -73 -11.5 -119t-29.5 -71q-19 -29 -47 -43t-60 -14q-18 0 -34.5 3.5t-24.5 7.5l13 67q8 -2 17 -4t20 -2q27 0 45 21q6 8 11.5 20t9.5 29.5t6.5 43t2.5 60.5
q0 120 -7 243.5t-7 238.5q0 79 14 126t43 78q18 20 43 30t53 10q15 0 28 -2.5t20 -5.5zM305 713q-8 2 -15.5 3t-16.5 1q-31 0 -47 -24q-14 -19 -21 -55t-7 -102q0 -113 7 -234t7 -240q0 -73 -12 -119t-30 -71q-19 -29 -46.5 -43t-59.5 -14q-19 0 -35 3.5t-24 7.5l13 67
q7 -2 16.5 -4t20.5 -2q26 0 44 21q7 8 12.5 20t9.5 29.5t6.5 43t2.5 60.5q0 120 -7 243.5t-7 238.5q0 79 13.5 126t42.5 78q19 20 44 30t53 10q14 0 27.5 -2.5t21.5 -5.5z" />
    <glyph glyph-name="uni222E" unicode="&#x222e;" horiz-adv-x="900" 
d="M424 412q-32 -12 -53.5 -41.5t-25.5 -71.5q-4 -45 14 -75t53 -40q4 52 6 116q1 30 2.5 57.5t3.5 54.5zM563 299q4 43 -16.5 76t-60.5 41q-4 -52 -6 -116q-1 -32 -2.5 -61t-5.5 -56q38 9 62.5 40t28.5 76zM615 635q-8 19 -20.5 29.5t-30.5 10.5q-22 0 -42.5 -59.5
t-32.5 -168.5q27 -3 50.5 -14t41 -29.5t26.5 -45t6 -59.5q-3 -32 -15.5 -57.5t-32 -44.5t-44.5 -30t-52 -15q-14 -113 -43 -185q-17 -39 -41 -63t-54 -24q-63 0 -94 60l45 26q9 -19 21.5 -30t30.5 -11q22 0 43 59t32 169q-25 4 -47 15.5t-38 30t-24 43.5t-5 57
q3 31 14.5 55.5t29.5 42.5t41 30t48 17q14 115 44 189q17 39 40.5 63t54.5 24q65 0 96 -64z" />
    <glyph glyph-name="therefore" unicode="&#x2234;" horiz-adv-x="657" 
d="M401 490q0 -32 -20.5 -51.5t-52.5 -19.5t-52.5 19.5t-20.5 51.5q0 31 20.5 50t52.5 19t52.5 -19t20.5 -50zM208 116q0 -32 -20.5 -51.5t-52.5 -19.5t-52.5 19.5t-20.5 51.5q0 31 20.5 50t52.5 19t52.5 -19t20.5 -50zM594 116q0 -32 -20.5 -51.5t-52.5 -19.5t-52.5 19.5
t-20.5 51.5q0 31 20.5 50t52.5 19t52.5 -19t20.5 -50z" />
    <glyph glyph-name="uni2235" unicode="&#x2235;" horiz-adv-x="657" 
d="M401 114q0 -31 -20.5 -50t-52.5 -19t-52.5 19t-20.5 50q0 32 20.5 51.5t52.5 19.5t52.5 -19.5t20.5 -51.5zM208 488q0 -31 -20.5 -50t-52.5 -19t-52.5 19t-20.5 50q0 32 20.5 51.5t52.5 19.5t52.5 -19.5t20.5 -51.5zM594 488q0 -31 -20.5 -50t-52.5 -19t-52.5 19
t-20.5 50q0 32 20.5 51.5t52.5 19.5t52.5 -19.5t20.5 -51.5z" />
    <glyph glyph-name="uni301C" unicode="&#x223c;" horiz-adv-x="900" 
d="M739 340q-12 -19 -29.5 -36.5t-38 -31t-43 -22t-44.5 -8.5q-43 0 -73.5 9t-62.5 26q-26 14 -60.5 27t-71.5 13q-36 0 -63 -17.5t-45 -45.5l-47 31q12 19 29.5 36.5t38 31t43 22t44.5 8.5q44 0 74 -9t62 -26t63 -29t69 -12q36 0 63 18t45 46z" />
    <glyph glyph-name="uni301C" unicode="&#xff5e;" horiz-adv-x="900" 
d="M739 340q-12 -19 -29.5 -36.5t-38 -31t-43 -22t-44.5 -8.5q-43 0 -73.5 9t-62.5 26q-26 14 -60.5 27t-71.5 13q-36 0 -63 -17.5t-45 -45.5l-47 31q12 19 29.5 36.5t38 31t43 22t44.5 8.5q44 0 74 -9t62 -26t63 -29t69 -12q36 0 63 18t45 46z" />
    <glyph glyph-name="uni301C" unicode="&#x301c;" horiz-adv-x="900" 
d="M739 340q-12 -19 -29.5 -36.5t-38 -31t-43 -22t-44.5 -8.5q-43 0 -73.5 9t-62.5 26q-26 14 -60.5 27t-71.5 13q-36 0 -63 -17.5t-45 -45.5l-47 31q12 19 29.5 36.5t38 31t43 22t44.5 8.5q44 0 74 -9t62 -26t63 -29t69 -12q36 0 63 18t45 46z" />
    <glyph glyph-name="uni223D" unicode="&#x223d;" horiz-adv-x="920" 
d="M839 316q0 -39 -14 -74t-38.5 -62t-59 -42.5t-75.5 -15.5q-32 0 -63 12t-62 34l33 54q24 -17 46 -24.5t46 -7.5q26 0 47.5 9.5t37.5 26.5t24.5 40t8.5 50q0 24 -8.5 46t-24 39.5t-37 28t-47.5 10.5q-55 0 -91 -35t-70 -99q-12 -23 -30.5 -54.5t-45.5 -60t-65 -48.5
t-89 -20q-35 0 -68.5 12t-59.5 36t-42 60.5t-16 84.5q0 46 15.5 82t41.5 60.5t59 37t69 12.5q35 0 66.5 -12.5t60.5 -30.5l-33 -56q-23 14 -44.5 21.5t-42.5 7.5q-55 0 -88 -34t-33 -88q0 -55 31.5 -89t88.5 -34q37 0 65 16.5t49 41t36 52t26 48.5q16 30 36 58.5t45.5 50.5
t57 35t69.5 13q41 0 75.5 -16t59.5 -42.5t39 -61.5t14 -72z" />
    <glyph glyph-name="uni2252" unicode="&#x2252;" horiz-adv-x="660" 
d="M412 85q0 25 18 43.5t44 18.5t44 -18.5t18 -43.5q0 -26 -18 -44.5t-44 -18.5t-44 18.5t-18 44.5zM121 540q0 26 18.5 44.5t43.5 18.5q26 0 44.5 -18.5t18.5 -44.5t-18.5 -44t-44.5 -18q-25 0 -43.5 18t-18.5 44zM56 427h547v-66h-547v66zM56 266h547v-66h-547v66z" />
    <glyph glyph-name="notequal" unicode="&#x2260;" horiz-adv-x="596" 
d="M255 164q-7 -11 -17.5 -28.5t-22 -35.5t-22.5 -35t-17 -27h-86l79 126h-138v76h187q6 9 16 23.5t20.5 31t21 32.5t16.5 26h-261v78h309l79 125h86l-80 -125h140v-78h-189q-7 -10 -16.5 -25t-19.5 -30.5l-20 -31t-17 -26.5h262v-76h-310z" />
    <glyph glyph-name="equivalence" unicode="&#x2261;" horiz-adv-x="660" 
d="M56 281v67h547v-67h-547zM56 434v66h547v-66h-547zM56 127v66h547v-66h-547z" />
    <glyph glyph-name="lessequal" unicode="&#x2264;" horiz-adv-x="625" 
d="M61 330v74q126 51 251 100.5t251 100.5v-82l-398 -156v-2l398 -154v-83zM63 19v72h500v-72h-500z" />
    <glyph glyph-name="greaterequal" unicode="&#x2265;" horiz-adv-x="625" 
d="M61 19v72h500v-72h-500zM61 128v83q100 38 198.5 77t199.5 78v1l-398 156v82q126 -51 251 -100.5t251 -100.5v-74z" />
    <glyph glyph-name="propersubset" unicode="&#x2282;" horiz-adv-x="920" 
d="M774 478h-410q-56 0 -94.5 -13t-62.5 -34.5t-34.5 -51t-10.5 -62.5q0 -36 11 -67t35.5 -53.5t63 -35.5t92.5 -13h410v-83h-406q-76 0 -131 20t-91 54.5t-53.5 81t-17.5 99.5q0 50 16.5 94t51.5 76.5t89.5 51.5t131.5 19h410v-83z" />
    <glyph glyph-name="propersuperset" unicode="&#x2283;" horiz-adv-x="920" 
d="M117 561h410q76 0 130.5 -19t90 -51.5t52 -76.5t16.5 -94q0 -53 -17.5 -99.5t-53.5 -81t-91.5 -54.5t-131.5 -20h-405v83h410q54 0 92.5 13t62.5 35.5t35 53.5t11 67q0 33 -10.5 62.5t-34.5 51t-62.5 34.5t-93.5 13h-410v83z" />
    <glyph glyph-name="reflexsubset" unicode="&#x2286;" horiz-adv-x="920" 
d="M772 -53h-661v82h661v-82zM774 500h-410q-56 0 -94.5 -11.5t-62.5 -32t-34.5 -47.5t-10.5 -57q0 -35 11 -63.5t35.5 -49t63 -32t92.5 -11.5h410v-83h-406q-76 0 -131 18.5t-91 51t-53.5 77t-17.5 95.5q0 48 16.5 89t51.5 72t89.5 48.5t131.5 17.5h410v-82z" />
    <glyph glyph-name="reflexsuperset" unicode="&#x2287;" horiz-adv-x="920" 
d="M117 582h410q76 0 130.5 -17.5t90 -48.5t52 -72t16.5 -89q0 -51 -17.5 -95.5t-53.5 -77t-91.5 -51t-131.5 -18.5h-405v83h410q54 0 92.5 11.5t62.5 32t35 49t11 63.5q0 30 -10.5 57t-34.5 47.5t-62.5 32t-93.5 11.5h-410v82zM118 29h662v-82h-662v82z" />
    <glyph glyph-name="uni25C9" unicode="&#x2299;" horiz-adv-x="920" 
d="M874 299q0 -84 -32 -157.5t-86.5 -128t-128 -86.5t-157.5 -32q-83 0 -156 32t-128.5 86.5t-87.5 128t-32 157.5t32 157.5t87.5 128t128.5 86.5t156 32q84 0 157.5 -32t128 -86.5t86.5 -128t32 -157.5zM809 299q0 70 -27 131.5t-73 107.5t-107.5 73t-131.5 27t-131.5 -27
t-107.5 -73t-72.5 -107.5t-26.5 -131.5t26.5 -131.5t72.5 -107.5t107.5 -72.5t131.5 -26.5t131.5 26.5t107.5 72.5t73 107.5t27 131.5zM628 299q0 -33 -12.5 -62t-33.5 -50t-50 -33.5t-62 -12.5q-32 0 -61 12.5t-50.5 33.5t-34 50t-12.5 62t12.5 62t34 50t50.5 33.5t61 12.5
q33 0 62 -12.5t50 -33.5t33.5 -50t12.5 -62z" />
    <glyph glyph-name="uni25C9" unicode="&#x25c9;" horiz-adv-x="920" 
d="M874 299q0 -84 -32 -157.5t-86.5 -128t-128 -86.5t-157.5 -32q-83 0 -156 32t-128.5 86.5t-87.5 128t-32 157.5t32 157.5t87.5 128t128.5 86.5t156 32q84 0 157.5 -32t128 -86.5t86.5 -128t32 -157.5zM809 299q0 70 -27 131.5t-73 107.5t-107.5 73t-131.5 27t-131.5 -27
t-107.5 -73t-72.5 -107.5t-26.5 -131.5t26.5 -131.5t72.5 -107.5t107.5 -72.5t131.5 -26.5t131.5 26.5t107.5 72.5t73 107.5t27 131.5zM628 299q0 -33 -12.5 -62t-33.5 -50t-50 -33.5t-62 -12.5q-32 0 -61 12.5t-50.5 33.5t-34 50t-12.5 62t12.5 62t34 50t50.5 33.5t61 12.5
q33 0 62 -12.5t50 -33.5t33.5 -50t12.5 -62z" />
    <glyph glyph-name="perpendicular" unicode="&#x22a5;" horiz-adv-x="900" 
d="M775 -6h-650v77h286v511h78v-511h286v-77z" />
    <glyph glyph-name="uni2312" unicode="&#x2312;" horiz-adv-x="900" 
d="M638 572q-26 47 -73.5 79t-119.5 32t-121 -32t-75 -79h-75q19 37 45 67.5t59 52.5t74 34t91 12q51 0 92 -12t74 -34t58.5 -52.5t45.5 -67.5h-75z" />
    <glyph glyph-name="uni2460" unicode="&#x2460;" horiz-adv-x="920" 
d="M431 490q-23 -5 -48 -10t-47 -10v72l131 39h57v-554h-93v463zM19 306q0 93 34 173.5t93.5 140t140 93.5t173.5 34t173.5 -34t140 -93.5t93.5 -140t34 -173.5t-34 -173.5t-93.5 -140t-140 -93.5t-173.5 -34t-173.5 34t-140 93.5t-93.5 140t-34 173.5zM94 306
q0 -77 28 -144.5t77.5 -117.5t116.5 -79t144 -29t144 29t116.5 79t77.5 117.5t28 144.5t-28 144.5t-77.5 117.5t-116.5 79t-144 29t-144 -29t-116.5 -79t-77.5 -117.5t-28 -144.5z" />
    <glyph glyph-name="uni2461" unicode="&#x2461;" horiz-adv-x="920" 
d="M294 90l169 176q20 21 38.5 41t32.5 39.5t22.5 38.5t8.5 37q0 28 -8 45.5t-23 27t-37.5 13t-51.5 3.5q-30 0 -61 -8.5t-58 -20.5l-19 72q29 14 69 25.5t88 11.5q95 0 144 -43.5t49 -122.5q0 -27 -10.5 -53t-27 -50.5t-37.5 -48t-42 -46.5l-112 -119h237v-80h-371v62z
M19 306q0 93 34 173.5t93.5 140t140 93.5t173.5 34t173.5 -34t140 -93.5t93.5 -140t34 -173.5t-34 -173.5t-93.5 -140t-140 -93.5t-173.5 -34t-173.5 34t-140 93.5t-93.5 140t-34 173.5zM94 306q0 -77 28 -144.5t77.5 -117.5t116.5 -79t144 -29t144 29t116.5 79t77.5 117.5
t28 144.5t-28 144.5t-77.5 117.5t-116.5 79t-144 29t-144 -29t-116.5 -79t-77.5 -117.5t-28 -144.5z" />
    <glyph glyph-name="uni2462" unicode="&#x2462;" horiz-adv-x="920" 
d="M449 14q-49 0 -91.5 11t-68.5 25l17 73q25 -12 62.5 -21.5t67.5 -9.5q134 0 134 90q0 45 -37.5 65.5t-96.5 20.5h-57v79h51q53 0 87.5 21.5t34.5 60.5q0 42 -27 59.5t-78 17.5q-29 0 -55 -8.5t-50 -18.5l-13 -5l-19 73q13 6 31.5 13t39.5 12t43 8.5t43 3.5
q82 0 129.5 -37t47.5 -104q0 -93 -77 -127q45 -13 71 -45.5t26 -91.5q0 -75 -56 -120t-159 -45zM19 306q0 93 34 173.5t93.5 140t140 93.5t173.5 34t173.5 -34t140 -93.5t93.5 -140t34 -173.5t-34 -173.5t-93.5 -140t-140 -93.5t-173.5 -34t-173.5 34t-140 93.5t-93.5 140
t-34 173.5zM94 306q0 -77 28 -144.5t77.5 -117.5t116.5 -79t144 -29t144 29t116.5 79t77.5 117.5t28 144.5t-28 144.5t-77.5 117.5t-116.5 79t-144 29t-144 -29t-116.5 -79t-77.5 -117.5t-28 -144.5z" />
    <glyph glyph-name="uni2463" unicode="&#x2463;" horiz-adv-x="920" 
d="M482 211v212l-148 -212h148zM482 133h-255v64l269 379h75v-365h81v-78h-81v-111h-89v111zM19 306q0 93 34 173.5t93.5 140t140 93.5t173.5 34t173.5 -34t140 -93.5t93.5 -140t34 -173.5t-34 -173.5t-93.5 -140t-140 -93.5t-173.5 -34t-173.5 34t-140 93.5t-93.5 140
t-34 173.5zM94 306q0 -77 28 -144.5t77.5 -117.5t116.5 -79t144 -29t144 29t116.5 79t77.5 117.5t28 144.5t-28 144.5t-77.5 117.5t-116.5 79t-144 29t-144 -29t-116.5 -79t-77.5 -117.5t-28 -144.5z" />
    <glyph glyph-name="uni2464" unicode="&#x2464;" horiz-adv-x="920" 
d="M435 8q-49 0 -91.5 11.5t-68.5 25.5l17 73q25 -12 62.5 -21.5t67.5 -9.5q66 0 100 27t34 78q0 26 -10 43t-28 27t-42 14t-51 4q-26 0 -53 -2.5t-62 -9.5l20 302h291v-80h-208l-10 -137q22 3 49 3q43 0 79.5 -9.5t62.5 -29.5t41 -51t15 -75q0 -38 -14.5 -71.5t-42 -58
t-67.5 -39t-91 -14.5zM19 306q0 93 34 173.5t93.5 140t140 93.5t173.5 34t173.5 -34t140 -93.5t93.5 -140t34 -173.5t-34 -173.5t-93.5 -140t-140 -93.5t-173.5 -34t-173.5 34t-140 93.5t-93.5 140t-34 173.5zM94 306q0 -77 28 -144.5t77.5 -117.5t116.5 -79t144 -29t144 29
t116.5 79t77.5 117.5t28 144.5t-28 144.5t-77.5 117.5t-116.5 79t-144 29t-144 -29t-116.5 -79t-77.5 -117.5t-28 -144.5z" />
    <glyph glyph-name="uni2465" unicode="&#x2465;" horiz-adv-x="920" 
d="M456 289q-32 0 -58.5 -11.5t-46.5 -28.5q5 -89 32 -124.5t74 -35.5q46 0 72.5 25t26.5 77q0 56 -28.5 77t-71.5 21zM492 503q-29 0 -53.5 -8.5t-43 -28.5t-30 -53t-14.5 -81q23 14 51.5 24t75.5 10q35 0 66 -11.5t54 -33t36.5 -52.5t13.5 -71t-13 -74t-37.5 -59.5
t-60 -40t-79.5 -14.5q-49 0 -86 15.5t-62.5 49.5t-38.5 88.5t-13 131.5q0 76 17.5 130t48 88.5t72.5 50.5t91 16q42 0 76.5 -10t57.5 -21l-20 -73q-23 10 -53 18.5t-56 8.5zM19 306q0 93 34 173.5t93.5 140t140 93.5t173.5 34t173.5 -34t140 -93.5t93.5 -140t34 -173.5
t-34 -173.5t-93.5 -140t-140 -93.5t-173.5 -34t-173.5 34t-140 93.5t-93.5 140t-34 173.5zM94 306q0 -77 28 -144.5t77.5 -117.5t116.5 -79t144 -29t144 29t116.5 79t77.5 117.5t28 144.5t-28 144.5t-77.5 117.5t-116.5 79t-144 29t-144 -29t-116.5 -79t-77.5 -117.5
t-28 -144.5z" />
    <glyph glyph-name="uni2466" unicode="&#x2466;" horiz-adv-x="920" 
d="M547 481h-256v80h358v-61l-204 -493h-100zM19 306q0 93 34 173.5t93.5 140t140 93.5t173.5 34t173.5 -34t140 -93.5t93.5 -140t34 -173.5t-34 -173.5t-93.5 -140t-140 -93.5t-173.5 -34t-173.5 34t-140 93.5t-93.5 140t-34 173.5zM94 306q0 -77 28 -144.5t77.5 -117.5
t116.5 -79t144 -29t144 29t116.5 79t77.5 117.5t28 144.5t-28 144.5t-77.5 117.5t-116.5 79t-144 29t-144 -29t-116.5 -79t-77.5 -117.5t-28 -144.5z" />
    <glyph glyph-name="uni2467" unicode="&#x2467;" horiz-adv-x="920" 
d="M369 440q0 -17 8 -30t22 -24t32 -21t39 -19q31 17 56.5 41t25.5 51q0 31 -23 50t-69 19q-42 0 -66.5 -17.5t-24.5 -49.5zM452 270q-2 0 -2.5 0.5t-1.5 0.5q-20 -8 -38.5 -19t-33 -23.5t-23 -27.5t-8.5 -30q0 -39 32.5 -59.5t82.5 -20.5t81.5 20t31.5 56q0 19 -9 33.5
t-25.5 26t-38.5 22t-48 21.5zM460 14q-94 0 -148.5 41.5t-54.5 109.5q0 25 9.5 46.5t25 39.5t36 32t41.5 24q-36 20 -64.5 53t-28.5 77q0 31 13 58t37 47t58 31t76 11q85 0 133 -38t48 -103q0 -43 -28.5 -76t-65.5 -56q21 -11 42.5 -24t38.5 -29.5t27.5 -37.5t10.5 -47
q0 -34 -14.5 -63t-41.5 -50.5t-65 -33.5t-85 -12zM19 306q0 93 34 173.5t93.5 140t140 93.5t173.5 34t173.5 -34t140 -93.5t93.5 -140t34 -173.5t-34 -173.5t-93.5 -140t-140 -93.5t-173.5 -34t-173.5 34t-140 93.5t-93.5 140t-34 173.5zM94 306q0 -77 28 -144.5
t77.5 -117.5t116.5 -79t144 -29t144 29t116.5 79t77.5 117.5t28 144.5t-28 144.5t-77.5 117.5t-116.5 79t-144 29t-144 -29t-116.5 -79t-77.5 -117.5t-28 -144.5z" />
    <glyph glyph-name="uni2468" unicode="&#x2468;" horiz-adv-x="920" 
d="M468 301q30 0 57 11.5t47 28.5q-5 93 -32 130t-73 37t-72.5 -25.5t-26.5 -79.5q0 -29 7.5 -48.5t21 -31.5t32 -17t39.5 -5zM432 94q28 0 52 8t42 27.5t29.5 50.5t15.5 78q-23 -14 -51.5 -23.5t-73.5 -9.5q-35 0 -66 11.5t-54 33t-36.5 53.5t-13.5 73t13 76t37 60.5
t59.5 40t80.5 14.5q48 0 85.5 -15.5t63 -49.5t38.5 -88.5t13 -131.5q0 -76 -17.5 -130t-48.5 -88.5t-72.5 -50.5t-90.5 -16q-45 0 -80 9.5t-58 21.5l20 72q23 -10 53.5 -18t59.5 -8zM19 306q0 93 34 173.5t93.5 140t140 93.5t173.5 34t173.5 -34t140 -93.5t93.5 -140
t34 -173.5t-34 -173.5t-93.5 -140t-140 -93.5t-173.5 -34t-173.5 34t-140 93.5t-93.5 140t-34 173.5zM94 306q0 -77 28 -144.5t77.5 -117.5t116.5 -79t144 -29t144 29t116.5 79t77.5 117.5t28 144.5t-28 144.5t-77.5 117.5t-116.5 79t-144 29t-144 -29t-116.5 -79
t-77.5 -117.5t-28 -144.5z" />
    <glyph glyph-name="uni2469" unicode="&#x2469;" horiz-adv-x="920" 
d="M19 306q0 93 34 173.5t93.5 140t140 93.5t173.5 34t173.5 -34t140 -93.5t93.5 -140t34 -173.5t-34 -173.5t-93.5 -140t-140 -93.5t-173.5 -34t-173.5 34t-140 93.5t-93.5 140t-34 173.5zM94 306q0 -77 28 -144.5t77.5 -117.5t116.5 -79t144 -29t144 29t116.5 79
t77.5 117.5t28 144.5t-28 144.5t-77.5 117.5t-116.5 79t-144 29t-144 -29t-116.5 -79t-77.5 -117.5t-28 -144.5zM561 22q-33 0 -62 14.5t-50 47.5t-33.5 86t-12.5 130q0 78 12.5 131t33.5 86t50 47.5t62 14.5t62 -14.5t51.5 -47.5t35.5 -86t13 -131q0 -77 -13 -130
t-35.5 -86t-51.5 -47.5t-62 -14.5zM561 102q17 0 32 10.5t26 33.5t17 61t6 93t-6 93t-17 61.5t-26 34t-32 10.5q-18 0 -32 -10.5t-24 -34t-15.5 -61.5t-5.5 -93t5.5 -93t15.5 -61t24 -33.5t32 -10.5zM276 485l-74 -20v73l105 40h51v-553h-82v460z" />
    <glyph glyph-name="uni246A" unicode="&#x246a;" horiz-adv-x="920" 
d="M313 485l-74 -20v73l105 40h54v-553h-85v460zM19 306q0 93 34 173.5t93.5 140t140 93.5t173.5 34t173.5 -34t140 -93.5t93.5 -140t34 -173.5t-34 -173.5t-93.5 -140t-140 -93.5t-173.5 -34t-173.5 34t-140 93.5t-93.5 140t-34 173.5zM94 306q0 -77 28 -144.5t77.5 -117.5
t116.5 -79t144 -29t144 29t116.5 79t77.5 117.5t28 144.5t-28 144.5t-77.5 117.5t-116.5 79t-144 29t-144 -29t-116.5 -79t-77.5 -117.5t-28 -144.5zM552 485l-74 -20v73l105 40h54v-553h-85v460z" />
    <glyph glyph-name="uni246B" unicode="&#x246b;" horiz-adv-x="920" 
d="M406 89l133 177q15 20 29 40t25 39.5t18 39t7 37.5q0 28 -6 45.5t-17 27t-28 13t-38 3.5q-22 0 -47.5 -9.5t-49.5 -23.5l-15 75q23 14 55.5 26t71.5 12q76 0 116 -43.5t40 -122.5q0 -27 -8 -52.5t-21.5 -50.5t-30 -48.5t-33.5 -46.5l-15 -22l-72 -97h176v-80h-290v61z
M276 485l-74 -20v73l105 40h51v-553h-82v460zM19 306q0 93 34 173.5t93.5 140t140 93.5t173.5 34t173.5 -34t140 -93.5t93.5 -140t34 -173.5t-34 -173.5t-93.5 -140t-140 -93.5t-173.5 -34t-173.5 34t-140 93.5t-93.5 140t-34 173.5zM94 306q0 -77 28 -144.5t77.5 -117.5
t116.5 -79t144 -29t144 29t116.5 79t77.5 117.5t28 144.5t-28 144.5t-77.5 117.5t-116.5 79t-144 29t-144 -29t-116.5 -79t-77.5 -117.5t-28 -144.5z" />
    <glyph glyph-name="uni246C" unicode="&#x246c;" horiz-adv-x="920" 
d="M281 485l-74 -20v73l105 40h51v-553h-82v460zM19 306q0 93 34 173.5t93.5 140t140 93.5t173.5 34t173.5 -34t140 -93.5t93.5 -140t34 -173.5t-34 -173.5t-93.5 -140t-140 -93.5t-173.5 -34t-173.5 34t-140 93.5t-93.5 140t-34 173.5zM94 306q0 -77 28 -144.5t77.5 -117.5
t116.5 -79t144 -29t144 29t116.5 79t77.5 117.5t28 144.5t-28 144.5t-77.5 117.5t-116.5 79t-144 29t-144 -29t-116.5 -79t-77.5 -117.5t-28 -144.5zM537 18q-40 0 -74.5 11.5t-54.5 25.5l14 76q23 -14 53 -24.5t52 -10.5q100 0 100 90q0 45 -28 65.5t-72 20.5h-49v79h45
q38 0 64 21.5t26 60.5q0 42 -20 59.5t-57 17.5q-22 0 -41.5 -8.5t-38.5 -18.5l-17 -7l-15 74q22 13 57.5 25.5t69.5 12.5q66 0 104.5 -37t38.5 -104q0 -43 -17.5 -75.5t-45.5 -51.5q36 -14 57.5 -47t21.5 -90q0 -75 -45.5 -120t-127.5 -45z" />
    <glyph glyph-name="uni246D" unicode="&#x246d;" horiz-adv-x="920" 
d="M595 211v196l-106 -196h106zM595 133h-199v62l211 381h67v-365h64v-78h-64v-111h-79v111zM276 485l-74 -20v73l105 40h51v-553h-82v460zM19 306q0 93 34 173.5t93.5 140t140 93.5t173.5 34t173.5 -34t140 -93.5t93.5 -140t34 -173.5t-34 -173.5t-93.5 -140t-140 -93.5
t-173.5 -34t-173.5 34t-140 93.5t-93.5 140t-34 173.5zM94 306q0 -77 28 -144.5t77.5 -117.5t116.5 -79t144 -29t144 29t116.5 79t77.5 117.5t28 144.5t-28 144.5t-77.5 117.5t-116.5 79t-144 29t-144 -29t-116.5 -79t-77.5 -117.5t-28 -144.5z" />
    <glyph glyph-name="uni246E" unicode="&#x246e;" horiz-adv-x="920" 
d="M540 17q-41 0 -75.5 12t-54.5 26l14 76q23 -14 53 -24.5t53 -10.5q49 0 74 27t25 78q0 26 -7.5 43t-20.5 27t-31 14t-38 4q-19 0 -41 -3t-54 -11l16 303h234v-80h-159l-8 -135q8 1 15.5 1.5t17.5 0.5q35 0 64 -9.5t50 -29.5t33 -51t12 -75q0 -38 -11.5 -71.5t-33.5 -58
t-54 -39t-73 -14.5zM276 485l-74 -20v73l105 40h51v-553h-82v460zM19 306q0 93 34 173.5t93.5 140t140 93.5t173.5 34t173.5 -34t140 -93.5t93.5 -140t34 -173.5t-34 -173.5t-93.5 -140t-140 -93.5t-173.5 -34t-173.5 34t-140 93.5t-93.5 140t-34 173.5zM94 306
q0 -77 28 -144.5t77.5 -117.5t116.5 -79t144 -29t144 29t116.5 79t77.5 117.5t28 144.5t-28 144.5t-77.5 117.5t-116.5 79t-144 29t-144 -29t-116.5 -79t-77.5 -117.5t-28 -144.5z" />
    <glyph glyph-name="uni2474" unicode="&#x2474;" horiz-adv-x="920" 
d="M425 480q-23 -5 -48 -10t-47 -10v72l131 39h57v-554h-93v463zM14 286q0 78 11.5 146.5t32.5 126t49.5 105t62.5 84.5h78q-32 -41 -58.5 -92.5t-46 -110.5t-30.5 -124.5t-11 -134.5t11 -134.5t30.5 -124.5t46 -111t58.5 -92h-78q-34 37 -62.5 84.5t-49.5 105t-32.5 126
t-11.5 146.5zM906 286q0 -78 -11.5 -146.5t-32.5 -126t-49.5 -105t-62.5 -84.5h-78q32 40 58.5 92t46 111t30.5 124.5t11 134.5t-11 134.5t-30.5 124.5t-46 110.5t-58.5 92.5h78q34 -37 62.5 -84.5t49.5 -105t32.5 -126t11.5 -146.5z" />
    <glyph glyph-name="uni2475" unicode="&#x2475;" horiz-adv-x="920" 
d="M274 80l169 176q20 21 38.5 41.5t32.5 39.5t22.5 38t8.5 37q0 28 -8 45.5t-23 27t-37.5 13t-51.5 3.5q-30 0 -61 -8.5t-58 -20.5l-19 72q29 14 69 25.5t88 11.5q95 0 144 -43.5t49 -122.5q0 -27 -10.5 -53t-27 -50.5t-37.5 -48t-42 -46.5l-20 -22l-92 -97h237v-80h-371
v62zM14 286q0 78 11.5 146.5t32.5 126t49.5 105t62.5 84.5h78q-32 -41 -58.5 -92.5t-46 -110.5t-30.5 -124.5t-11 -134.5t11 -134.5t30.5 -124.5t46 -111t58.5 -92h-78q-34 37 -62.5 84.5t-49.5 105t-32.5 126t-11.5 146.5zM906 286q0 -78 -11.5 -146.5t-32.5 -126
t-49.5 -105t-62.5 -84.5h-78q32 40 58.5 92t46 111t30.5 124.5t11 134.5t-11 134.5t-30.5 124.5t-46 110.5t-58.5 92.5h78q34 -37 62.5 -84.5t49.5 -105t32.5 -126t11.5 -146.5z" />
    <glyph glyph-name="uni2476" unicode="&#x2476;" horiz-adv-x="920" 
d="M432 10q-49 0 -91.5 11t-68.5 25l17 73q25 -12 62.5 -21.5t67.5 -9.5q134 0 134 90q0 45 -37.5 65.5t-96.5 20.5h-57v79h51q53 0 87.5 21.5t34.5 60.5q0 42 -27 59.5t-78 17.5q-29 0 -55 -8.5t-50 -18.5l-13 -5l-19 73q13 6 31.5 13t39.5 12t43 8.5t43 3.5
q82 0 129.5 -37t47.5 -104q0 -93 -77 -127q45 -13 71 -45.5t26 -91.5q0 -75 -56 -120t-159 -45zM14 286q0 78 11.5 146.5t32.5 126t49.5 105t62.5 84.5h78q-32 -41 -58.5 -92.5t-46 -110.5t-30.5 -124.5t-11 -134.5t11 -134.5t30.5 -124.5t46 -111t58.5 -92h-78
q-34 37 -62.5 84.5t-49.5 105t-32.5 126t-11.5 146.5zM906 286q0 -78 -11.5 -146.5t-32.5 -126t-49.5 -105t-62.5 -84.5h-78q32 40 58.5 92t46 111t30.5 124.5t11 134.5t-11 134.5t-30.5 124.5t-46 110.5t-58.5 92.5h78q34 -37 62.5 -84.5t49.5 -105t32.5 -126t11.5 -146.5z
" />
    <glyph glyph-name="uni2477" unicode="&#x2477;" horiz-adv-x="920" 
d="M502 206v212l-148 -212h148zM502 128h-255v64l269 379h75v-365h81v-78h-81v-111h-89v111zM14 286q0 78 11.5 146.5t32.5 126t49.5 105t62.5 84.5h78q-32 -41 -58.5 -92.5t-46 -110.5t-30.5 -124.5t-11 -134.5t11 -134.5t30.5 -124.5t46 -111t58.5 -92h-78
q-34 37 -62.5 84.5t-49.5 105t-32.5 126t-11.5 146.5zM906 286q0 -78 -11.5 -146.5t-32.5 -126t-49.5 -105t-62.5 -84.5h-78q32 40 58.5 92t46 111t30.5 124.5t11 134.5t-11 134.5t-30.5 124.5t-46 110.5t-58.5 92.5h78q34 -37 62.5 -84.5t49.5 -105t32.5 -126t11.5 -146.5z
" />
    <glyph glyph-name="uni2478" unicode="&#x2478;" horiz-adv-x="920" 
d="M432 8q-49 0 -91.5 11.5t-68.5 25.5l17 73q25 -12 62.5 -21.5t67.5 -9.5q66 0 100 27t34 78q0 26 -10 43t-28 27t-42 14t-51 4q-26 0 -53 -2.5t-62 -9.5l20 302h291v-80h-208l-10 -137q22 3 49 3q43 0 79.5 -9.5t62.5 -29.5t41 -51t15 -75q0 -38 -14.5 -71.5t-42 -58
t-67.5 -39t-91 -14.5zM14 286q0 78 11.5 146.5t32.5 126t49.5 105t62.5 84.5h78q-32 -41 -58.5 -92.5t-46 -110.5t-30.5 -124.5t-11 -134.5t11 -134.5t30.5 -124.5t46 -111t58.5 -92h-78q-34 37 -62.5 84.5t-49.5 105t-32.5 126t-11.5 146.5zM906 286q0 -78 -11.5 -146.5
t-32.5 -126t-49.5 -105t-62.5 -84.5h-78q32 40 58.5 92t46 111t30.5 124.5t11 134.5t-11 134.5t-30.5 124.5t-46 110.5t-58.5 92.5h78q34 -37 62.5 -84.5t49.5 -105t32.5 -126t11.5 -146.5z" />
    <glyph glyph-name="uni2479" unicode="&#x2479;" horiz-adv-x="920" 
d="M463 289q-32 0 -58.5 -11.5t-46.5 -28.5q5 -89 32 -124.5t74 -35.5q46 0 72.5 25t26.5 77q0 56 -28.5 77t-71.5 21zM499 503q-29 0 -53.5 -8.5t-43 -28.5t-30 -53t-14.5 -81q23 14 51.5 24t75.5 10q35 0 66 -11.5t54 -33t36.5 -52.5t13.5 -71t-13 -74t-37.5 -59.5
t-60 -40t-79.5 -14.5q-49 0 -86 15.5t-62.5 49.5t-38.5 88.5t-13 131.5q0 76 17.5 130t48 88.5t72.5 50.5t91 16q42 0 76.5 -10t57.5 -21l-20 -73q-23 10 -53 18.5t-56 8.5zM14 286q0 78 11.5 146.5t32.5 126t49.5 105t62.5 84.5h78q-32 -41 -58.5 -92.5t-46 -110.5
t-30.5 -124.5t-11 -134.5t11 -134.5t30.5 -124.5t46 -111t58.5 -92h-78q-34 37 -62.5 84.5t-49.5 105t-32.5 126t-11.5 146.5zM906 286q0 -78 -11.5 -146.5t-32.5 -126t-49.5 -105t-62.5 -84.5h-78q32 40 58.5 92t46 111t30.5 124.5t11 134.5t-11 134.5t-30.5 124.5
t-46 110.5t-58.5 92.5h78q34 -37 62.5 -84.5t49.5 -105t32.5 -126t11.5 -146.5z" />
    <glyph glyph-name="uni247A" unicode="&#x247a;" horiz-adv-x="920" 
d="M537 491h-256v80h358v-61l-204 -493h-100zM14 286q0 78 11.5 146.5t32.5 126t49.5 105t62.5 84.5h78q-32 -41 -58.5 -92.5t-46 -110.5t-30.5 -124.5t-11 -134.5t11 -134.5t30.5 -124.5t46 -111t58.5 -92h-78q-34 37 -62.5 84.5t-49.5 105t-32.5 126t-11.5 146.5zM906 286
q0 -78 -11.5 -146.5t-32.5 -126t-49.5 -105t-62.5 -84.5h-78q32 40 58.5 92t46 111t30.5 124.5t11 134.5t-11 134.5t-30.5 124.5t-46 110.5t-58.5 92.5h78q34 -37 62.5 -84.5t49.5 -105t32.5 -126t11.5 -146.5z" />
    <glyph glyph-name="uni247B" unicode="&#x247b;" horiz-adv-x="920" 
d="M367 436q0 -17 8 -30t22 -24t32 -21t39 -19q31 17 56.5 41t25.5 51q0 31 -23 50t-69 19q-42 0 -66.5 -17.5t-24.5 -49.5zM450 266q-2 0 -2.5 0.5t-1.5 0.5q-20 -8 -38.5 -19t-33 -23.5t-23 -27.5t-8.5 -30q0 -39 32.5 -59.5t82.5 -20.5t81.5 20t31.5 56q0 19 -9 33.5
t-25.5 26t-38.5 22t-48 21.5zM458 10q-94 0 -148.5 41.5t-54.5 109.5q0 25 9.5 46.5t25 39.5t36 32t41.5 24q-36 20 -64.5 53t-28.5 77q0 31 13 58t37 47t58 31t76 11q85 0 133 -38t48 -103q0 -43 -28.5 -76t-65.5 -56q21 -11 42.5 -24t38.5 -29.5t27.5 -37.5t10.5 -47
q0 -34 -14.5 -63t-41.5 -50.5t-65 -33.5t-85 -12zM14 286q0 78 11.5 146.5t32.5 126t49.5 105t62.5 84.5h78q-32 -41 -58.5 -92.5t-46 -110.5t-30.5 -124.5t-11 -134.5t11 -134.5t30.5 -124.5t46 -111t58.5 -92h-78q-34 37 -62.5 84.5t-49.5 105t-32.5 126t-11.5 146.5z
M906 286q0 -78 -11.5 -146.5t-32.5 -126t-49.5 -105t-62.5 -84.5h-78q32 40 58.5 92t46 111t30.5 124.5t11 134.5t-11 134.5t-30.5 124.5t-46 110.5t-58.5 92.5h78q34 -37 62.5 -84.5t49.5 -105t32.5 -126t11.5 -146.5z" />
    <glyph glyph-name="uni247C" unicode="&#x247c;" horiz-adv-x="920" 
d="M457 294q30 0 57 11.5t47 28.5q-5 93 -32 130t-73 37t-72.5 -25.5t-26.5 -79.5q0 -29 7.5 -48.5t21 -31.5t32 -17t39.5 -5zM421 87q28 0 52 8t42 27.5t29.5 50.5t15.5 78q-23 -14 -51.5 -23.5t-73.5 -9.5q-35 0 -66 11.5t-54 33t-36.5 53.5t-13.5 73t13 76t37 60.5
t59.5 40t80.5 14.5q48 0 85.5 -15.5t63 -49.5t38.5 -88.5t13 -131.5q0 -76 -17.5 -130t-48.5 -88.5t-72.5 -50.5t-90.5 -16q-45 0 -80 9.5t-58 21.5l20 72q23 -10 53.5 -18t59.5 -8zM14 286q0 78 11.5 146.5t32.5 126t49.5 105t62.5 84.5h78q-32 -41 -58.5 -92.5t-46 -110.5
t-30.5 -124.5t-11 -134.5t11 -134.5t30.5 -124.5t46 -111t58.5 -92h-78q-34 37 -62.5 84.5t-49.5 105t-32.5 126t-11.5 146.5zM906 286q0 -78 -11.5 -146.5t-32.5 -126t-49.5 -105t-62.5 -84.5h-78q32 40 58.5 92t46 111t30.5 124.5t11 134.5t-11 134.5t-30.5 124.5
t-46 110.5t-58.5 92.5h78q34 -37 62.5 -84.5t49.5 -105t32.5 -126t11.5 -146.5z" />
    <glyph glyph-name="uni247D" unicode="&#x247d;" horiz-adv-x="920" 
d="M557 22q-33 0 -62 14.5t-50 47.5t-33.5 86t-12.5 130q0 78 12.5 131t33.5 86t50 47.5t62 14.5t62 -14.5t51.5 -47.5t35.5 -86t13 -131q0 -77 -13 -130t-35.5 -86t-51.5 -47.5t-62 -14.5zM557 102q17 0 32 10.5t26 33.5t17 61t6 93t-6 93t-17 61.5t-26 34t-32 10.5
q-18 0 -32 -10.5t-24 -34t-15.5 -61.5t-5.5 -93t5.5 -93t15.5 -61t24 -33.5t32 -10.5zM271 485l-74 -20v73l105 40h51v-553h-82v460zM14 286q0 78 11.5 146.5t32.5 126t49.5 105t62.5 84.5h78q-32 -41 -58.5 -92.5t-46 -110.5t-30.5 -124.5t-11 -134.5t11 -134.5
t30.5 -124.5t46 -111t58.5 -92h-78q-34 37 -62.5 84.5t-49.5 105t-32.5 126t-11.5 146.5zM906 286q0 -78 -11.5 -146.5t-32.5 -126t-49.5 -105t-62.5 -84.5h-78q32 40 58.5 92t46 111t30.5 124.5t11 134.5t-11 134.5t-30.5 124.5t-46 110.5t-58.5 92.5h78q34 -37 62.5 -84.5
t49.5 -105t32.5 -126t11.5 -146.5z" />
    <glyph glyph-name="uni247E" unicode="&#x247e;" horiz-adv-x="920" 
d="M313 485l-74 -20v73l105 40h54v-553h-85v460zM552 485l-74 -20v73l105 40h54v-553h-85v460zM14 286q0 78 11.5 146.5t32.5 126t49.5 105t62.5 84.5h78q-32 -41 -58.5 -92.5t-46 -110.5t-30.5 -124.5t-11 -134.5t11 -134.5t30.5 -124.5t46 -111t58.5 -92h-78
q-34 37 -62.5 84.5t-49.5 105t-32.5 126t-11.5 146.5zM906 286q0 -78 -11.5 -146.5t-32.5 -126t-49.5 -105t-62.5 -84.5h-78q32 40 58.5 92t46 111t30.5 124.5t11 134.5t-11 134.5t-30.5 124.5t-46 110.5t-58.5 92.5h78q34 -37 62.5 -84.5t49.5 -105t32.5 -126t11.5 -146.5z
" />
    <glyph glyph-name="uni247F" unicode="&#x247f;" horiz-adv-x="920" 
d="M406 89l133 177q15 20 29 40t25 39.5t18 39t7 37.5q0 28 -6 45.5t-17 27t-28 13t-38 3.5q-22 0 -47.5 -9.5t-49.5 -23.5l-15 75q23 14 55.5 26t71.5 12q76 0 116 -43.5t40 -122.5q0 -27 -8 -52.5t-21.5 -50.5t-30 -48.5t-33.5 -46.5l-15 -22l-72 -97h176v-80h-290v61z
M276 485l-74 -20v73l105 40h51v-553h-82v460zM14 286q0 78 11.5 146.5t32.5 126t49.5 105t62.5 84.5h78q-32 -41 -58.5 -92.5t-46 -110.5t-30.5 -124.5t-11 -134.5t11 -134.5t30.5 -124.5t46 -111t58.5 -92h-78q-34 37 -62.5 84.5t-49.5 105t-32.5 126t-11.5 146.5zM906 286
q0 -78 -11.5 -146.5t-32.5 -126t-49.5 -105t-62.5 -84.5h-78q32 40 58.5 92t46 111t30.5 124.5t11 134.5t-11 134.5t-30.5 124.5t-46 110.5t-58.5 92.5h78q34 -37 62.5 -84.5t49.5 -105t32.5 -126t11.5 -146.5z" />
    <glyph glyph-name="uni2480" unicode="&#x2480;" horiz-adv-x="920" 
d="M281 485l-74 -20v73l105 40h51v-553h-82v460zM537 21q-40 0 -74.5 11.5t-54.5 25.5l14 76q23 -14 53 -24.5t52 -10.5q100 0 100 90q0 45 -28 65.5t-72 20.5h-49v79h45q38 0 64 21.5t26 60.5q0 42 -20 59.5t-57 17.5q-22 0 -41.5 -8.5t-38.5 -18.5l-17 -7l-15 74
q22 13 57.5 25.5t69.5 12.5q66 0 104.5 -37t38.5 -104q0 -43 -17.5 -75.5t-45.5 -51.5q36 -14 57.5 -47t21.5 -90q0 -75 -45.5 -120t-127.5 -45zM14 286q0 78 11.5 146.5t32.5 126t49.5 105t62.5 84.5h78q-32 -41 -58.5 -92.5t-46 -110.5t-30.5 -124.5t-11 -134.5t11 -134.5
t30.5 -124.5t46 -111t58.5 -92h-78q-34 37 -62.5 84.5t-49.5 105t-32.5 126t-11.5 146.5zM906 286q0 -78 -11.5 -146.5t-32.5 -126t-49.5 -105t-62.5 -84.5h-78q32 40 58.5 92t46 111t30.5 124.5t11 134.5t-11 134.5t-30.5 124.5t-46 110.5t-58.5 92.5h78q34 -37 62.5 -84.5
t49.5 -105t32.5 -126t11.5 -146.5z" />
    <glyph glyph-name="uni2481" unicode="&#x2481;" horiz-adv-x="920" 
d="M595 211v196l-106 -196h106zM595 133h-199v62l211 381h67v-365h64v-78h-64v-111h-79v111zM276 485l-74 -20v73l105 40h51v-553h-82v460zM14 286q0 78 11.5 146.5t32.5 126t49.5 105t62.5 84.5h78q-32 -41 -58.5 -92.5t-46 -110.5t-30.5 -124.5t-11 -134.5t11 -134.5
t30.5 -124.5t46 -111t58.5 -92h-78q-34 37 -62.5 84.5t-49.5 105t-32.5 126t-11.5 146.5zM906 286q0 -78 -11.5 -146.5t-32.5 -126t-49.5 -105t-62.5 -84.5h-78q32 40 58.5 92t46 111t30.5 124.5t11 134.5t-11 134.5t-30.5 124.5t-46 110.5t-58.5 92.5h78q34 -37 62.5 -84.5
t49.5 -105t32.5 -126t11.5 -146.5z" />
    <glyph glyph-name="uni2482" unicode="&#x2482;" horiz-adv-x="920" 
d="M540 20q-41 0 -75.5 12t-54.5 26l14 76q23 -14 53 -24.5t53 -10.5q49 0 74 27t25 78q0 26 -7.5 43t-20.5 27t-31 14t-38 4q-19 0 -41 -3t-54 -11l16 304h234v-80h-159l-8 -136q8 1 15.5 1.5t17.5 0.5q35 0 64 -9.5t50 -29.5t33 -51t12 -75q0 -38 -11.5 -71.5t-33.5 -58
t-54 -39t-73 -14.5zM276 485l-74 -20v73l105 40h51v-553h-82v460zM14 286q0 78 11.5 146.5t32.5 126t49.5 105t62.5 84.5h78q-32 -41 -58.5 -92.5t-46 -110.5t-30.5 -124.5t-11 -134.5t11 -134.5t30.5 -124.5t46 -111t58.5 -92h-78q-34 37 -62.5 84.5t-49.5 105t-32.5 126
t-11.5 146.5zM906 286q0 -78 -11.5 -146.5t-32.5 -126t-49.5 -105t-62.5 -84.5h-78q32 40 58.5 92t46 111t30.5 124.5t11 134.5t-11 134.5t-30.5 124.5t-46 110.5t-58.5 92.5h78q34 -37 62.5 -84.5t49.5 -105t32.5 -126t11.5 -146.5z" />
    <glyph glyph-name="uni249C" unicode="&#x249c;" horiz-adv-x="920" 
d="M14 286q0 78 11.5 146.5t32.5 126t49.5 105t62.5 84.5h78q-32 -41 -58.5 -92.5t-46 -110.5t-30.5 -124.5t-11 -134.5t11 -134.5t30.5 -124.5t46 -111t58.5 -92h-78q-34 37 -62.5 84.5t-49.5 105t-32.5 126t-11.5 146.5zM906 286q0 -78 -11.5 -146.5t-32.5 -126
t-49.5 -105t-62.5 -84.5h-78q32 40 58.5 92t46 111t30.5 124.5t11 134.5t-11 134.5t-30.5 124.5t-46 110.5t-58.5 92.5h78q34 -37 62.5 -84.5t49.5 -105t32.5 -126t11.5 -146.5zM553 289h-90q-17 0 -34.5 -2.5t-31.5 -9t-22.5 -18t-8.5 -29.5q0 -20 7 -33t19 -20.5t28 -10
t34 -2.5q16 0 33.5 5t32 15t24 23.5t9.5 31.5v50zM640 99h-80l-6 39q-18 -23 -46.5 -35t-61.5 -12q-34 0 -64 7.5t-52.5 23.5t-36 42t-13.5 63t15 62.5t39.5 41.5t55 22.5t62.5 6.5h101v7q0 44 -26 62.5t-68 18.5q-29 0 -61 -6.5t-65 -18.5l-18 69q35 14 70.5 22t80.5 8
q36 0 67.5 -8t55.5 -26.5t37.5 -49.5t13.5 -76v-263z" />
    <glyph glyph-name="uni249D" unicode="&#x249d;" horiz-adv-x="920" 
d="M482 89q50 0 80 34t30 105t-30 105.5t-80 34.5q-15 0 -32 -6.5t-31.5 -19t-23.5 -31t-9 -41.5v-88q0 -23 9 -40.5t23.5 -29t31.5 -17.5t32 -6zM493 13q-32 0 -61 9.5t-47 34.5q-2 -8 -3.5 -18t-2.5 -18h-80v585h87v-210q19 23 48 35.5t59 12.5q38 0 72.5 -14t60 -41
t40.5 -67.5t15 -93.5t-15 -93t-40.5 -67t-60 -41t-72.5 -14zM14 286q0 78 11.5 146.5t32.5 126t49.5 105t62.5 84.5h78q-32 -41 -58.5 -92.5t-46 -110.5t-30.5 -124.5t-11 -134.5t11 -134.5t30.5 -124.5t46 -111t58.5 -92h-78q-34 37 -62.5 84.5t-49.5 105t-32.5 126
t-11.5 146.5zM906 286q0 -78 -11.5 -146.5t-32.5 -126t-49.5 -105t-62.5 -84.5h-78q32 40 58.5 92t46 111t30.5 124.5t11 134.5t-11 134.5t-30.5 124.5t-46 110.5t-58.5 92.5h78q34 -37 62.5 -84.5t49.5 -105t32.5 -126t11.5 -146.5z" />
    <glyph glyph-name="uni249E" unicode="&#x249e;" horiz-adv-x="920" 
d="M488 91q-47 0 -85 14t-66 41t-43 67t-15 93t15 93.5t43 67.5t66 41t85 14q42 0 71 -8t52 -17l-19 -70q-18 6 -45 12.5t-59 6.5q-57 0 -88.5 -34.5t-31.5 -105.5t31.5 -105t88.5 -34q35 0 65 5.5t50 13.5l18 -69q-25 -10 -56.5 -18t-76.5 -8zM14 286q0 78 11.5 146.5
t32.5 126t49.5 105t62.5 84.5h78q-32 -41 -58.5 -92.5t-46 -110.5t-30.5 -124.5t-11 -134.5t11 -134.5t30.5 -124.5t46 -111t58.5 -92h-78q-34 37 -62.5 84.5t-49.5 105t-32.5 126t-11.5 146.5zM906 286q0 -78 -11.5 -146.5t-32.5 -126t-49.5 -105t-62.5 -84.5h-78
q32 40 58.5 92t46 111t30.5 124.5t11 134.5t-11 134.5t-30.5 124.5t-46 110.5t-58.5 92.5h78q34 -37 62.5 -84.5t49.5 -105t32.5 -126t11.5 -146.5z" />
    <glyph glyph-name="uni249F" unicode="&#x249f;" horiz-adv-x="920" 
d="M544 265q0 23 -9 40.5t-23.5 29t-31.5 17.5t-32 6q-50 0 -80 -34.5t-30 -105.5t30 -105t80 -34q15 0 32 6.5t31.5 19t23.5 31t9 41.5v88zM545 51q-19 -27 -48 -37.5t-60 -10.5q-39 0 -73 14t-59.5 41t-40.5 67t-15 93t15 93.5t40.5 67.5t59.5 41t73 14q30 0 59 -10.5
t48 -32.5v205h87v-585h-80zM14 286q0 78 11.5 146.5t32.5 126t49.5 105t62.5 84.5h78q-32 -41 -58.5 -92.5t-46 -110.5t-30.5 -124.5t-11 -134.5t11 -134.5t30.5 -124.5t46 -111t58.5 -92h-78q-34 37 -62.5 84.5t-49.5 105t-32.5 126t-11.5 146.5zM906 286
q0 -78 -11.5 -146.5t-32.5 -126t-49.5 -105t-62.5 -84.5h-78q32 40 58.5 92t46 111t30.5 124.5t11 134.5t-11 134.5t-30.5 124.5t-46 110.5t-58.5 92.5h78q34 -37 62.5 -84.5t49.5 -105t32.5 -126t11.5 -146.5z" />
    <glyph glyph-name="uni24A0" unicode="&#x24a0;" horiz-adv-x="920" 
d="M482 91q-102 0 -155.5 55t-53.5 160q0 103 52 159.5t142 56.5q87 0 133 -56.5t46 -159.5v-38h-284q6 -58 41 -79.5t93 -21.5q35 0 66 6.5t58 17.5l17 -72q-28 -13 -69 -20.5t-86 -7.5zM462 447q-38 0 -67 -27t-33 -82h194q-3 55 -29.5 82t-64.5 27zM14 286
q0 78 11.5 146.5t32.5 126t49.5 105t62.5 84.5h78q-32 -41 -58.5 -92.5t-46 -110.5t-30.5 -124.5t-11 -134.5t11 -134.5t30.5 -124.5t46 -111t58.5 -92h-78q-34 37 -62.5 84.5t-49.5 105t-32.5 126t-11.5 146.5zM906 286q0 -78 -11.5 -146.5t-32.5 -126t-49.5 -105
t-62.5 -84.5h-78q32 40 58.5 92t46 111t30.5 124.5t11 134.5t-11 134.5t-30.5 124.5t-46 110.5t-58.5 92.5h78q34 -37 62.5 -84.5t49.5 -105t32.5 -126t11.5 -146.5z" />
    <glyph glyph-name="uni24A1" unicode="&#x24a1;" horiz-adv-x="920" 
d="M408 352h-68v72h68v44q0 71 38 104.5t96 33.5q28 0 46.5 -4t32.5 -8l-14 -71q-27 7 -54 7t-42.5 -16t-15.5 -54v-36h97v-72h-97v-343h-87v343zM14 286q0 78 11.5 146.5t32.5 126t49.5 105t62.5 84.5h78q-32 -41 -58.5 -92.5t-46 -110.5t-30.5 -124.5t-11 -134.5
t11 -134.5t30.5 -124.5t46 -111t58.5 -92h-78q-34 37 -62.5 84.5t-49.5 105t-32.5 126t-11.5 146.5zM906 286q0 -78 -11.5 -146.5t-32.5 -126t-49.5 -105t-62.5 -84.5h-78q32 40 58.5 92t46 111t30.5 124.5t11 134.5t-11 134.5t-30.5 124.5t-46 110.5t-58.5 92.5h78
q34 -37 62.5 -84.5t49.5 -105t32.5 -126t11.5 -146.5z" />
    <glyph glyph-name="uni24A2" unicode="&#x24a2;" horiz-adv-x="920" 
d="M458 501q-50 0 -80 -33t-30 -98q0 -66 30 -99t80 -33q15 0 32 6.5t31.5 19t23.5 31t9 41.5v72q0 23 -9 40.5t-23.5 29t-31.5 17.5t-32 6zM554 209q-17 -26 -46.5 -36.5t-60.5 -10.5q-39 0 -73 13.5t-59.5 40t-40.5 65t-15 89.5q0 50 15 88.5t40.5 64.5t59.5 39.5t73 13.5
q32 0 60.5 -9.5t47.5 -33.5q2 8 3.5 18t2.5 17h80v-371q0 -106 -44 -155t-143 -49q-54 0 -92 8.5t-66 21.5l17 72q29 -11 58.5 -19t71.5 -8q28 0 48.5 4.5t34.5 18t21 37.5t7 63v18zM14 286q0 78 11.5 146.5t32.5 126t49.5 105t62.5 84.5h78q-32 -41 -58.5 -92.5t-46 -110.5
t-30.5 -124.5t-11 -134.5t11 -134.5t30.5 -124.5t46 -111t58.5 -92h-78q-34 37 -62.5 84.5t-49.5 105t-32.5 126t-11.5 146.5zM906 286q0 -78 -11.5 -146.5t-32.5 -126t-49.5 -105t-62.5 -84.5h-78q32 40 58.5 92t46 111t30.5 124.5t11 134.5t-11 134.5t-30.5 124.5
t-46 110.5t-58.5 92.5h78q34 -37 62.5 -84.5t49.5 -105t32.5 -126t11.5 -146.5z" />
    <glyph glyph-name="uni24A3" unicode="&#x24a3;" horiz-adv-x="920" 
d="M291 612h87v-210q18 25 47 36.5t60 11.5q35 0 65 -10t51.5 -31t34 -54.5t12.5 -79.5v-248h-87v244q0 60 -23 81.5t-64 21.5q-15 0 -32 -6.5t-31.5 -19t-23.5 -30.5t-9 -42v-249h-87v585zM14 286q0 78 11.5 146.5t32.5 126t49.5 105t62.5 84.5h78q-32 -41 -58.5 -92.5
t-46 -110.5t-30.5 -124.5t-11 -134.5t11 -134.5t30.5 -124.5t46 -111t58.5 -92h-78q-34 37 -62.5 84.5t-49.5 105t-32.5 126t-11.5 146.5zM906 286q0 -78 -11.5 -146.5t-32.5 -126t-49.5 -105t-62.5 -84.5h-78q32 40 58.5 92t46 111t30.5 124.5t11 134.5t-11 134.5
t-30.5 124.5t-46 110.5t-58.5 92.5h78q34 -37 62.5 -84.5t49.5 -105t32.5 -126t11.5 -146.5z" />
    <glyph glyph-name="uni24A4" unicode="&#x24a4;" horiz-adv-x="920" 
d="M416 436h88v-414h-88v414zM415 576h90v-91h-90v91zM14 286q0 78 11.5 146.5t32.5 126t49.5 105t62.5 84.5h78q-32 -41 -58.5 -92.5t-46 -110.5t-30.5 -124.5t-11 -134.5t11 -134.5t30.5 -124.5t46 -111t58.5 -92h-78q-34 37 -62.5 84.5t-49.5 105t-32.5 126t-11.5 146.5z
M906 286q0 -78 -11.5 -146.5t-32.5 -126t-49.5 -105t-62.5 -84.5h-78q32 40 58.5 92t46 111t30.5 124.5t11 134.5t-11 134.5t-30.5 124.5t-46 110.5t-58.5 92.5h78q34 -37 62.5 -84.5t49.5 -105t32.5 -126t11.5 -146.5z" />
    <glyph glyph-name="uni24A5" unicode="&#x24a5;" horiz-adv-x="920" 
d="M424 609h90v-90h-90v90zM513 91q0 -100 -34.5 -148t-109.5 -48q-23 0 -35 2t-29 7l8 72q15 -4 24 -5t20 -1q15 0 27.5 4.5t22 17t14.5 35.5t5 60v383h87v-379zM14 286q0 78 11.5 146.5t32.5 126t49.5 105t62.5 84.5h78q-32 -41 -58.5 -92.5t-46 -110.5t-30.5 -124.5
t-11 -134.5t11 -134.5t30.5 -124.5t46 -111t58.5 -92h-78q-34 37 -62.5 84.5t-49.5 105t-32.5 126t-11.5 146.5zM906 286q0 -78 -11.5 -146.5t-32.5 -126t-49.5 -105t-62.5 -84.5h-78q32 40 58.5 92t46 111t30.5 124.5t11 134.5t-11 134.5t-30.5 124.5t-46 110.5t-58.5 92.5
h78q34 -37 62.5 -84.5t49.5 -105t32.5 -126t11.5 -146.5z" />
    <glyph glyph-name="uni24A6" unicode="&#x24a6;" horiz-adv-x="920" 
d="M309 622h87v-343l165 173h103l-178 -182l189 -233h-105l-138 178l-36 -38v-140h-87v585zM906 286q0 -78 -11.5 -146.5t-32.5 -126t-49.5 -105t-62.5 -84.5h-78q32 40 58.5 92t46 111t30.5 124.5t11 134.5t-11 134.5t-30.5 124.5t-46 110.5t-58.5 92.5h78
q34 -37 62.5 -84.5t49.5 -105t32.5 -126t11.5 -146.5zM14 286q0 78 11.5 146.5t32.5 126t49.5 105t62.5 84.5h78q-32 -41 -58.5 -92.5t-46 -110.5t-30.5 -124.5t-11 -134.5t11 -134.5t30.5 -124.5t46 -111t58.5 -92h-78q-34 37 -62.5 84.5t-49.5 105t-32.5 126t-11.5 146.5z
" />
    <glyph glyph-name="uni24A7" unicode="&#x24a7;" horiz-adv-x="920" 
d="M416 602h88v-585h-88v585zM14 286q0 78 11.5 146.5t32.5 126t49.5 105t62.5 84.5h78q-32 -41 -58.5 -92.5t-46 -110.5t-30.5 -124.5t-11 -134.5t11 -134.5t30.5 -124.5t46 -111t58.5 -92h-78q-34 37 -62.5 84.5t-49.5 105t-32.5 126t-11.5 146.5zM906 286
q0 -78 -11.5 -146.5t-32.5 -126t-49.5 -105t-62.5 -84.5h-78q32 40 58.5 92t46 111t30.5 124.5t11 134.5t-11 134.5t-30.5 124.5t-46 110.5t-58.5 92.5h78q34 -37 62.5 -84.5t49.5 -105t32.5 -126t11.5 -146.5z" />
    <glyph glyph-name="uni24A8" unicode="&#x24a8;" horiz-adv-x="920" 
d="M189 515h79l5 -42q36 50 96 50q36 0 67.5 -15.5t51.5 -49.5q27 38 58 51.5t60 13.5q30 0 56 -10t46 -31t31.5 -54.5t11.5 -79.5v-248h-86v244q0 60 -19.5 81.5t-50.5 21.5q-14 0 -28.5 -6.5t-26.5 -19t-19.5 -31t-7.5 -42.5v-248h-86v244q0 60 -19.5 81.5t-50.5 21.5
q-14 0 -28.5 -6.5t-26.5 -19t-19.5 -30.5t-7.5 -42v-249h-86v415zM906 286q0 -78 -11.5 -146.5t-32.5 -126t-49.5 -105t-62.5 -84.5h-78q32 40 58.5 92t46 111t30.5 124.5t11 134.5t-11 134.5t-30.5 124.5t-46 110.5t-58.5 92.5h78q34 -37 62.5 -84.5t49.5 -105t32.5 -126
t11.5 -146.5zM14 286q0 78 11.5 146.5t32.5 126t49.5 105t62.5 84.5h78q-32 -41 -58.5 -92.5t-46 -110.5t-30.5 -124.5t-11 -134.5t11 -134.5t30.5 -124.5t46 -111t58.5 -92h-78q-34 37 -62.5 84.5t-49.5 105t-32.5 126t-11.5 146.5z" />
    <glyph glyph-name="uni24A9" unicode="&#x24a9;" horiz-adv-x="920" 
d="M281 515h80l6 -41q19 23 48.5 36t59.5 13q35 0 65 -10t52 -31t34.5 -54.5t12.5 -79.5v-248h-88v244q0 60 -23 81.5t-64 21.5q-15 0 -32 -6.5t-31 -19t-23 -30.5t-9 -42v-249h-88v415zM14 286q0 78 11.5 146.5t32.5 126t49.5 105t62.5 84.5h78q-32 -41 -58.5 -92.5
t-46 -110.5t-30.5 -124.5t-11 -134.5t11 -134.5t30.5 -124.5t46 -111t58.5 -92h-78q-34 37 -62.5 84.5t-49.5 105t-32.5 126t-11.5 146.5zM906 286q0 -78 -11.5 -146.5t-32.5 -126t-49.5 -105t-62.5 -84.5h-78q32 40 58.5 92t46 111t30.5 124.5t11 134.5t-11 134.5
t-30.5 124.5t-46 110.5t-58.5 92.5h78q34 -37 62.5 -84.5t49.5 -105t32.5 -126t11.5 -146.5z" />
    <glyph glyph-name="uni24AA" unicode="&#x24aa;" horiz-adv-x="920" 
d="M460 167q52 0 82.5 34t30.5 105t-30.5 105.5t-82.5 34.5t-82.5 -34.5t-30.5 -105.5t30.5 -105t82.5 -34zM460 91q-44 0 -81 14t-64 41t-42 67t-15 93t15 93.5t42 67.5t64 41t81 14t81 -14t64 -41t42 -67.5t15 -93.5t-15 -93t-42 -67t-64 -41t-81 -14zM14 286
q0 78 11.5 146.5t32.5 126t49.5 105t62.5 84.5h78q-32 -41 -58.5 -92.5t-46 -110.5t-30.5 -124.5t-11 -134.5t11 -134.5t30.5 -124.5t46 -111t58.5 -92h-78q-34 37 -62.5 84.5t-49.5 105t-32.5 126t-11.5 146.5zM906 286q0 -78 -11.5 -146.5t-32.5 -126t-49.5 -105
t-62.5 -84.5h-78q32 40 58.5 92t46 111t30.5 124.5t11 134.5t-11 134.5t-30.5 124.5t-46 110.5t-58.5 92.5h78q34 -37 62.5 -84.5t49.5 -105t32.5 -126t11.5 -146.5z" />
    <glyph glyph-name="uni24AB" unicode="&#x24ab;" horiz-adv-x="920" 
d="M396 2h-87v567h80l6 -40q19 22 48.5 35t59.5 13q38 0 72.5 -14t60 -41t40.5 -67t15 -93t-15 -93t-40.5 -67t-60 -41t-72.5 -14q-30 0 -59 10.5t-48 32.5v-188zM492 223q50 0 80 34t30 105t-30 105.5t-80 34.5q-15 0 -32 -6.5t-31.5 -19t-23.5 -31t-9 -41.5v-89
q0 -23 9 -40t23.5 -28.5t31.5 -17.5t32 -6zM14 286q0 78 11.5 146.5t32.5 126t49.5 105t62.5 84.5h78q-32 -41 -58.5 -92.5t-46 -110.5t-30.5 -124.5t-11 -134.5t11 -134.5t30.5 -124.5t46 -111t58.5 -92h-78q-34 37 -62.5 84.5t-49.5 105t-32.5 126t-11.5 146.5zM906 286
q0 -78 -11.5 -146.5t-32.5 -126t-49.5 -105t-62.5 -84.5h-78q32 40 58.5 92t46 111t30.5 124.5t11 134.5t-11 134.5t-30.5 124.5t-46 110.5t-58.5 92.5h78q34 -37 62.5 -84.5t49.5 -105t32.5 -126t11.5 -146.5z" />
    <glyph glyph-name="uni24AC" unicode="&#x24ac;" horiz-adv-x="920" 
d="M524 399q0 23 -9 40.5t-23.5 29t-31.5 17.5t-32 6q-50 0 -80 -34.5t-30 -105.5t30 -105t80 -34q15 0 32 6.5t31.5 19t23.5 30.5t9 42v88zM524 183q-19 -28 -47 -37t-60 -9q-39 0 -73 14t-59.5 41t-40.5 67t-15 93t15 93t40.5 67t59.5 41t73 14q32 0 60.5 -9.5t47.5 -33.5
q2 8 3.5 18t2.5 17h80v-567h-87v191zM14 286q0 78 11.5 146.5t32.5 126t49.5 105t62.5 84.5h78q-32 -41 -58.5 -92.5t-46 -110.5t-30.5 -124.5t-11 -134.5t11 -134.5t30.5 -124.5t46 -111t58.5 -92h-78q-34 37 -62.5 84.5t-49.5 105t-32.5 126t-11.5 146.5zM906 286
q0 -78 -11.5 -146.5t-32.5 -126t-49.5 -105t-62.5 -84.5h-78q32 40 58.5 92t46 111t30.5 124.5t11 134.5t-11 134.5t-30.5 124.5t-46 110.5t-58.5 92.5h78q34 -37 62.5 -84.5t49.5 -105t32.5 -126t11.5 -146.5z" />
    <glyph glyph-name="uni24AD" unicode="&#x24ad;" horiz-adv-x="920" 
d="M549 503q25 0 39 -2t28 -7l-7 -74q-11 2 -26.5 3.5t-33.5 1.5q-39 0 -69 -25.5t-30 -76.5v-243h-87v415h80l6 -50q17 24 42.5 41t57.5 17zM14 286q0 78 11.5 146.5t32.5 126t49.5 105t62.5 84.5h78q-32 -41 -58.5 -92.5t-46 -110.5t-30.5 -124.5t-11 -134.5t11 -134.5
t30.5 -124.5t46 -111t58.5 -92h-78q-34 37 -62.5 84.5t-49.5 105t-32.5 126t-11.5 146.5zM906 286q0 -78 -11.5 -146.5t-32.5 -126t-49.5 -105t-62.5 -84.5h-78q32 40 58.5 92t46 111t30.5 124.5t11 134.5t-11 134.5t-30.5 124.5t-46 110.5t-58.5 92.5h78q34 -37 62.5 -84.5
t49.5 -105t32.5 -126t11.5 -146.5z" />
    <glyph glyph-name="uni24AE" unicode="&#x24ae;" horiz-adv-x="920" 
d="M452 91q-42 0 -86 7.5t-72 20.5l16 72q28 -11 62.5 -18.5t68.5 -7.5q52 0 74 12t22 35q0 24 -23.5 36t-55.5 20l-37 10q-23 6 -44.5 15t-38 23t-27 34t-10.5 48q0 53 39 88.5t126 35.5q39 0 77.5 -9.5t63.5 -19.5l-17 -69q-20 8 -53.5 16t-64.5 8q-47 0 -66 -12t-19 -33
q0 -22 18.5 -32.5t47.5 -16.5l36 -9q30 -7 54.5 -17t42.5 -25t28 -35.5t10 -49.5q0 -63 -45 -95t-127 -32zM14 286q0 78 11.5 146.5t32.5 126t49.5 105t62.5 84.5h78q-32 -41 -58.5 -92.5t-46 -110.5t-30.5 -124.5t-11 -134.5t11 -134.5t30.5 -124.5t46 -111t58.5 -92h-78
q-34 37 -62.5 84.5t-49.5 105t-32.5 126t-11.5 146.5zM906 286q0 -78 -11.5 -146.5t-32.5 -126t-49.5 -105t-62.5 -84.5h-78q32 40 58.5 92t46 111t30.5 124.5t11 134.5t-11 134.5t-30.5 124.5t-46 110.5t-58.5 92.5h78q34 -37 62.5 -84.5t49.5 -105t32.5 -126t11.5 -146.5z
" />
    <glyph glyph-name="uni24AF" unicode="&#x24af;" horiz-adv-x="920" 
d="M388 557h87v-99h106v-71h-106v-205q0 -38 13.5 -54t38.5 -16q18 0 32 1.5t28 5.5l14 -71q-14 -4 -33.5 -8t-51.5 -4q-57 0 -92.5 33.5t-35.5 105.5v212h-68v71h68v99zM14 286q0 78 11.5 146.5t32.5 126t49.5 105t62.5 84.5h78q-32 -41 -58.5 -92.5t-46 -110.5
t-30.5 -124.5t-11 -134.5t11 -134.5t30.5 -124.5t46 -111t58.5 -92h-78q-34 37 -62.5 84.5t-49.5 105t-32.5 126t-11.5 146.5zM906 286q0 -78 -11.5 -146.5t-32.5 -126t-49.5 -105t-62.5 -84.5h-78q32 40 58.5 92t46 111t30.5 124.5t11 134.5t-11 134.5t-30.5 124.5
t-46 110.5t-58.5 92.5h78q34 -37 62.5 -84.5t49.5 -105t32.5 -126t11.5 -146.5z" />
    <glyph glyph-name="uni24B0" unicode="&#x24b0;" horiz-adv-x="920" 
d="M630 82h-80l-6 41q-19 -23 -48.5 -36t-59.5 -13q-35 0 -65.5 10t-53 31t-35 54t-12.5 80v248h87v-244q0 -60 24 -81.5t67 -21.5q15 0 31.5 6.5t31 19t23.5 30.5t9 42v249h87v-415zM14 286q0 78 11.5 146.5t32.5 126t49.5 105t62.5 84.5h78q-32 -41 -58.5 -92.5
t-46 -110.5t-30.5 -124.5t-11 -134.5t11 -134.5t30.5 -124.5t46 -111t58.5 -92h-78q-34 37 -62.5 84.5t-49.5 105t-32.5 126t-11.5 146.5zM906 286q0 -78 -11.5 -146.5t-32.5 -126t-49.5 -105t-62.5 -84.5h-78q32 40 58.5 92t46 111t30.5 124.5t11 134.5t-11 134.5
t-30.5 124.5t-46 110.5t-58.5 92.5h78q34 -37 62.5 -84.5t49.5 -105t32.5 -126t11.5 -146.5z" />
    <glyph glyph-name="uni24B1" unicode="&#x24b1;" horiz-adv-x="920" 
d="M507 74h-95l-162 414h97l114 -307l115 307h93zM14 286q0 78 11.5 146.5t32.5 126t49.5 105t62.5 84.5h78q-32 -41 -58.5 -92.5t-46 -110.5t-30.5 -124.5t-11 -134.5t11 -134.5t30.5 -124.5t46 -111t58.5 -92h-78q-34 37 -62.5 84.5t-49.5 105t-32.5 126t-11.5 146.5z
M906 286q0 -78 -11.5 -146.5t-32.5 -126t-49.5 -105t-62.5 -84.5h-78q32 40 58.5 92t46 111t30.5 124.5t11 134.5t-11 134.5t-30.5 124.5t-46 110.5t-58.5 92.5h78q34 -37 62.5 -84.5t49.5 -105t32.5 -126t11.5 -146.5z" />
    <glyph glyph-name="uni24B2" unicode="&#x24b2;" horiz-adv-x="920" 
d="M638 71h-95l-83 289l-83 -289h-96l-130 414h95l85 -301l85 301h92l85 -303l84 303h92zM14 286q0 78 11.5 146.5t32.5 126t49.5 105t62.5 84.5h78q-32 -41 -58.5 -92.5t-46 -110.5t-30.5 -124.5t-11 -134.5t11 -134.5t30.5 -124.5t46 -111t58.5 -92h-78q-34 37 -62.5 84.5
t-49.5 105t-32.5 126t-11.5 146.5zM906 286q0 -78 -11.5 -146.5t-32.5 -126t-49.5 -105t-62.5 -84.5h-78q32 40 58.5 92t46 111t30.5 124.5t11 134.5t-11 134.5t-30.5 124.5t-46 110.5t-58.5 92.5h78q34 -37 62.5 -84.5t49.5 -105t32.5 -126t11.5 -146.5z" />
    <glyph glyph-name="uni24B3" unicode="&#x24b3;" horiz-adv-x="920" 
d="M906 286q0 -78 -11.5 -146.5t-32.5 -126t-49.5 -105t-62.5 -84.5h-78q32 40 58.5 92t46 111t30.5 124.5t11 134.5t-11 134.5t-30.5 124.5t-46 110.5t-58.5 92.5h78q34 -37 62.5 -84.5t49.5 -105t32.5 -126t11.5 -146.5zM14 286q0 78 11.5 146.5t32.5 126t49.5 105
t62.5 84.5h78q-32 -41 -58.5 -92.5t-46 -110.5t-30.5 -124.5t-11 -134.5t11 -134.5t30.5 -124.5t46 -111t58.5 -92h-78q-34 37 -62.5 84.5t-49.5 105t-32.5 126t-11.5 146.5zM666 94h-102l-107 147l-103 -147h-100l155 213l-144 201h102l96 -134l92 134h100l-144 -201z" />
    <glyph glyph-name="uni24B4" unicode="&#x24b4;" horiz-adv-x="920" 
d="M259 538h96l119 -273l112 273h94l-240 -567h-93l80 193zM906 286q0 -78 -11.5 -146.5t-32.5 -126t-49.5 -105t-62.5 -84.5h-78q32 40 58.5 92t46 111t30.5 124.5t11 134.5t-11 134.5t-30.5 124.5t-46 110.5t-58.5 92.5h78q34 -37 62.5 -84.5t49.5 -105t32.5 -126
t11.5 -146.5zM14 286q0 78 11.5 146.5t32.5 126t49.5 105t62.5 84.5h78q-32 -41 -58.5 -92.5t-46 -110.5t-30.5 -124.5t-11 -134.5t11 -134.5t30.5 -124.5t46 -111t58.5 -92h-78q-34 37 -62.5 84.5t-49.5 105t-32.5 126t-11.5 146.5z" />
    <glyph glyph-name="uni24B5" unicode="&#x24b5;" horiz-adv-x="920" 
d="M289 159l225 271h-215v73h324v-69l-227 -272h234v-73h-341v70zM14 286q0 78 11.5 146.5t32.5 126t49.5 105t62.5 84.5h78q-32 -41 -58.5 -92.5t-46 -110.5t-30.5 -124.5t-11 -134.5t11 -134.5t30.5 -124.5t46 -111t58.5 -92h-78q-34 37 -62.5 84.5t-49.5 105t-32.5 126
t-11.5 146.5zM906 286q0 -78 -11.5 -146.5t-32.5 -126t-49.5 -105t-62.5 -84.5h-78q32 40 58.5 92t46 111t30.5 124.5t11 134.5t-11 134.5t-30.5 124.5t-46 110.5t-58.5 92.5h78q34 -37 62.5 -84.5t49.5 -105t32.5 -126t11.5 -146.5z" />
    <glyph glyph-name="uni24D0" unicode="&#x24d0;" horiz-adv-x="920" 
d="M553 289h-90q-17 0 -34.5 -2.5t-31.5 -9t-22.5 -18t-8.5 -29.5q0 -20 7 -33t19 -20.5t28 -10t34 -2.5q16 0 33.5 5t32 15t24 23.5t9.5 31.5v50zM640 99h-80l-6 39q-18 -23 -46.5 -35t-61.5 -12q-34 0 -64 7.5t-52.5 23.5t-36 42t-13.5 63t15 62.5t39.5 41.5t55 22.5
t62.5 6.5h101v7q0 44 -26 62.5t-68 18.5q-29 0 -61 -6.5t-65 -18.5l-18 69q35 14 70.5 22t80.5 8q36 0 67.5 -8t55.5 -26.5t37.5 -49.5t13.5 -76v-263zM19 306q0 93 34 173.5t93.5 140t140 93.5t173.5 34t173.5 -34t140 -93.5t93.5 -140t34 -173.5t-34 -173.5t-93.5 -140
t-140 -93.5t-173.5 -34t-173.5 34t-140 93.5t-93.5 140t-34 173.5zM94 306q0 -77 28 -144.5t77.5 -117.5t116.5 -79t144 -29t144 29t116.5 79t77.5 117.5t28 144.5t-28 144.5t-77.5 117.5t-116.5 79t-144 29t-144 -29t-116.5 -79t-77.5 -117.5t-28 -144.5z" />
    <glyph glyph-name="uni24D1" unicode="&#x24d1;" horiz-adv-x="920" 
d="M482 89q50 0 80 34t30 105t-30 105.5t-80 34.5q-15 0 -32 -6.5t-31.5 -19t-23.5 -31t-9 -41.5v-88q0 -23 9 -40.5t23.5 -29t31.5 -17.5t32 -6zM493 13q-32 0 -61 9.5t-47 34.5q-2 -8 -3.5 -18t-2.5 -18h-80v585h87v-210q19 23 48 35.5t59 12.5q38 0 72.5 -14t60 -41
t40.5 -67.5t15 -93.5t-15 -93t-40.5 -67t-60 -41t-72.5 -14zM19 306q0 93 34 173.5t93.5 140t140 93.5t173.5 34t173.5 -34t140 -93.5t93.5 -140t34 -173.5t-34 -173.5t-93.5 -140t-140 -93.5t-173.5 -34t-173.5 34t-140 93.5t-93.5 140t-34 173.5zM94 306q0 -77 28 -144.5
t77.5 -117.5t116.5 -79t144 -29t144 29t116.5 79t77.5 117.5t28 144.5t-28 144.5t-77.5 117.5t-116.5 79t-144 29t-144 -29t-116.5 -79t-77.5 -117.5t-28 -144.5z" />
    <glyph glyph-name="uni24D2" unicode="&#x24d2;" horiz-adv-x="920" 
d="M488 91q-47 0 -85 14t-66 41t-43 67t-15 93t15 93.5t43 67.5t66 41t85 14q42 0 71 -8t52 -17l-19 -70q-18 6 -45 12.5t-59 6.5q-57 0 -88.5 -34.5t-31.5 -105.5t31.5 -105t88.5 -34q35 0 65 5.5t50 13.5l18 -69q-25 -10 -56.5 -18t-76.5 -8zM19 306q0 93 34 173.5
t93.5 140t140 93.5t173.5 34t173.5 -34t140 -93.5t93.5 -140t34 -173.5t-34 -173.5t-93.5 -140t-140 -93.5t-173.5 -34t-173.5 34t-140 93.5t-93.5 140t-34 173.5zM94 306q0 -77 28 -144.5t77.5 -117.5t116.5 -79t144 -29t144 29t116.5 79t77.5 117.5t28 144.5t-28 144.5
t-77.5 117.5t-116.5 79t-144 29t-144 -29t-116.5 -79t-77.5 -117.5t-28 -144.5z" />
    <glyph glyph-name="uni24D3" unicode="&#x24d3;" horiz-adv-x="920" 
d="M544 265q0 23 -9 40.5t-23.5 29t-31.5 17.5t-32 6q-50 0 -80 -34.5t-30 -105.5t30 -105t80 -34q15 0 32 6.5t31.5 19t23.5 31t9 41.5v88zM545 51q-19 -27 -48 -37.5t-60 -10.5q-39 0 -73 14t-59.5 41t-40.5 67t-15 93t15 93.5t40.5 67.5t59.5 41t73 14q30 0 59 -10.5
t48 -32.5v205h87v-585h-80zM19 306q0 93 34 173.5t93.5 140t140 93.5t173.5 34t173.5 -34t140 -93.5t93.5 -140t34 -173.5t-34 -173.5t-93.5 -140t-140 -93.5t-173.5 -34t-173.5 34t-140 93.5t-93.5 140t-34 173.5zM94 306q0 -77 28 -144.5t77.5 -117.5t116.5 -79t144 -29
t144 29t116.5 79t77.5 117.5t28 144.5t-28 144.5t-77.5 117.5t-116.5 79t-144 29t-144 -29t-116.5 -79t-77.5 -117.5t-28 -144.5z" />
    <glyph glyph-name="uni24D4" unicode="&#x24d4;" horiz-adv-x="920" 
d="M482 91q-102 0 -155.5 55t-53.5 160q0 103 52 159.5t142 56.5q87 0 133 -56.5t46 -159.5v-38h-284q6 -58 41 -79.5t93 -21.5q35 0 66 6.5t58 17.5l17 -72q-28 -13 -69 -20.5t-86 -7.5zM462 447q-38 0 -67 -27t-33 -82h194q-3 55 -29.5 82t-64.5 27zM19 306q0 93 34 173.5
t93.5 140t140 93.5t173.5 34t173.5 -34t140 -93.5t93.5 -140t34 -173.5t-34 -173.5t-93.5 -140t-140 -93.5t-173.5 -34t-173.5 34t-140 93.5t-93.5 140t-34 173.5zM94 306q0 -77 28 -144.5t77.5 -117.5t116.5 -79t144 -29t144 29t116.5 79t77.5 117.5t28 144.5t-28 144.5
t-77.5 117.5t-116.5 79t-144 29t-144 -29t-116.5 -79t-77.5 -117.5t-28 -144.5z" />
    <glyph glyph-name="uni24D5" unicode="&#x24d5;" horiz-adv-x="920" 
d="M400 342h-68v72h68v44q0 71 38 104.5t96 33.5q28 0 46.5 -4t32.5 -8l-14 -71q-27 7 -54 7t-42.5 -16t-15.5 -54v-36h97v-72h-97v-343h-87v343zM19 306q0 93 34 173.5t93.5 140t140 93.5t173.5 34t173.5 -34t140 -93.5t93.5 -140t34 -173.5t-34 -173.5t-93.5 -140
t-140 -93.5t-173.5 -34t-173.5 34t-140 93.5t-93.5 140t-34 173.5zM94 306q0 -77 28 -144.5t77.5 -117.5t116.5 -79t144 -29t144 29t116.5 79t77.5 117.5t28 144.5t-28 144.5t-77.5 117.5t-116.5 79t-144 29t-144 -29t-116.5 -79t-77.5 -117.5t-28 -144.5z" />
    <glyph glyph-name="uni24D6" unicode="&#x24d6;" horiz-adv-x="920" 
d="M458 501q-50 0 -80 -33t-30 -98q0 -66 30 -99t80 -33q15 0 32 6.5t31.5 19t23.5 31t9 41.5v72q0 23 -9 40.5t-23.5 29t-31.5 17.5t-32 6zM554 209q-17 -26 -46.5 -36.5t-60.5 -10.5q-39 0 -73 13.5t-59.5 40t-40.5 65t-15 89.5q0 50 15 88.5t40.5 64.5t59.5 39.5t73 13.5
q32 0 60.5 -9.5t47.5 -33.5q2 8 3.5 18t2.5 17h80v-371q0 -106 -44 -155t-143 -49q-54 0 -92 8.5t-66 21.5l17 72q29 -11 58.5 -19t71.5 -8q28 0 48.5 4.5t34.5 18t21 37.5t7 63v18zM19 306q0 93 34 173.5t93.5 140t140 93.5t173.5 34t173.5 -34t140 -93.5t93.5 -140
t34 -173.5t-34 -173.5t-93.5 -140t-140 -93.5t-173.5 -34t-173.5 34t-140 93.5t-93.5 140t-34 173.5zM94 306q0 -77 28 -144.5t77.5 -117.5t116.5 -79t144 -29t144 29t116.5 79t77.5 117.5t28 144.5t-28 144.5t-77.5 117.5t-116.5 79t-144 29t-144 -29t-116.5 -79
t-77.5 -117.5t-28 -144.5z" />
    <glyph glyph-name="uni24D7" unicode="&#x24d7;" horiz-adv-x="920" 
d="M291 612h87v-210q18 25 47 36.5t60 11.5q35 0 65 -10t51.5 -31t34 -54.5t12.5 -79.5v-248h-87v244q0 60 -23 81.5t-64 21.5q-15 0 -32 -6.5t-31.5 -19t-23.5 -30.5t-9 -42v-249h-87v585zM19 306q0 93 34 173.5t93.5 140t140 93.5t173.5 34t173.5 -34t140 -93.5t93.5 -140
t34 -173.5t-34 -173.5t-93.5 -140t-140 -93.5t-173.5 -34t-173.5 34t-140 93.5t-93.5 140t-34 173.5zM94 306q0 -77 28 -144.5t77.5 -117.5t116.5 -79t144 -29t144 29t116.5 79t77.5 117.5t28 144.5t-28 144.5t-77.5 117.5t-116.5 79t-144 29t-144 -29t-116.5 -79
t-77.5 -117.5t-28 -144.5z" />
    <glyph glyph-name="uni24D8" unicode="&#x24d8;" horiz-adv-x="920" 
d="M416 436h88v-414h-88v414zM415 576h90v-91h-90v91zM19 306q0 93 34 173.5t93.5 140t140 93.5t173.5 34t173.5 -34t140 -93.5t93.5 -140t34 -173.5t-34 -173.5t-93.5 -140t-140 -93.5t-173.5 -34t-173.5 34t-140 93.5t-93.5 140t-34 173.5zM94 306q0 -77 28 -144.5
t77.5 -117.5t116.5 -79t144 -29t144 29t116.5 79t77.5 117.5t28 144.5t-28 144.5t-77.5 117.5t-116.5 79t-144 29t-144 -29t-116.5 -79t-77.5 -117.5t-28 -144.5z" />
    <glyph glyph-name="uni24D9" unicode="&#x24d9;" horiz-adv-x="920" 
d="M436 609h90v-90h-90v90zM525 181q0 -100 -34.5 -148t-109.5 -48q-23 0 -35 2t-29 7l8 72q15 -4 24 -5t20 -1q15 0 27.5 4.5t22 17t14.5 35.5t5 60v293h87v-289zM19 306q0 93 34 173.5t93.5 140t140 93.5t173.5 34t173.5 -34t140 -93.5t93.5 -140t34 -173.5t-34 -173.5
t-93.5 -140t-140 -93.5t-173.5 -34t-173.5 34t-140 93.5t-93.5 140t-34 173.5zM94 306q0 -77 28 -144.5t77.5 -117.5t116.5 -79t144 -29t144 29t116.5 79t77.5 117.5t28 144.5t-28 144.5t-77.5 117.5t-116.5 79t-144 29t-144 -29t-116.5 -79t-77.5 -117.5t-28 -144.5z" />
    <glyph glyph-name="uni24DA" unicode="&#x24da;" horiz-adv-x="920" 
d="M19 306q0 93 34 173.5t93.5 140t140 93.5t173.5 34t173.5 -34t140 -93.5t93.5 -140t34 -173.5t-34 -173.5t-93.5 -140t-140 -93.5t-173.5 -34t-173.5 34t-140 93.5t-93.5 140t-34 173.5zM94 306q0 -77 28 -144.5t77.5 -117.5t116.5 -79t144 -29t144 29t116.5 79
t77.5 117.5t28 144.5t-28 144.5t-77.5 117.5t-116.5 79t-144 29t-144 -29t-116.5 -79t-77.5 -117.5t-28 -144.5zM309 622h87v-343l165 173h103l-178 -182l189 -233h-105l-138 178l-36 -38v-140h-87v585z" />
    <glyph glyph-name="uni24DB" unicode="&#x24db;" horiz-adv-x="920" 
d="M416 602h88v-585h-88v585zM19 306q0 93 34 173.5t93.5 140t140 93.5t173.5 34t173.5 -34t140 -93.5t93.5 -140t34 -173.5t-34 -173.5t-93.5 -140t-140 -93.5t-173.5 -34t-173.5 34t-140 93.5t-93.5 140t-34 173.5zM94 306q0 -77 28 -144.5t77.5 -117.5t116.5 -79t144 -29
t144 29t116.5 79t77.5 117.5t28 144.5t-28 144.5t-77.5 117.5t-116.5 79t-144 29t-144 -29t-116.5 -79t-77.5 -117.5t-28 -144.5z" />
    <glyph glyph-name="uni24DC" unicode="&#x24dc;" horiz-adv-x="920" 
d="M19 306q0 93 34 173.5t93.5 140t140 93.5t173.5 34t173.5 -34t140 -93.5t93.5 -140t34 -173.5t-34 -173.5t-93.5 -140t-140 -93.5t-173.5 -34t-173.5 34t-140 93.5t-93.5 140t-34 173.5zM94 306q0 -77 28 -144.5t77.5 -117.5t116.5 -79t144 -29t144 29t116.5 79
t77.5 117.5t28 144.5t-28 144.5t-77.5 117.5t-116.5 79t-144 29t-144 -29t-116.5 -79t-77.5 -117.5t-28 -144.5zM191 515h79l5 -42q36 50 95 50q36 0 67 -15.5t51 -49.5q27 38 57.5 51.5t59.5 13.5q30 0 56 -10t45.5 -31t31 -54.5t11.5 -79.5v-248h-86v244q0 60 -19 81.5
t-50 21.5q-14 0 -28.5 -6.5t-26 -19t-19 -31t-7.5 -42.5v-248h-86v244q0 60 -19 81.5t-50 21.5q-14 0 -28.5 -6.5t-26 -19t-19 -30.5t-7.5 -42v-249h-86v415z" />
    <glyph glyph-name="uni24DD" unicode="&#x24dd;" horiz-adv-x="920" 
d="M281 515h80l6 -41q19 23 48.5 36t59.5 13q35 0 65 -10t52 -31t34.5 -54.5t12.5 -79.5v-248h-88v244q0 60 -23 81.5t-64 21.5q-15 0 -32 -6.5t-31 -19t-23 -30.5t-9 -42v-249h-88v415zM19 306q0 93 34 173.5t93.5 140t140 93.5t173.5 34t173.5 -34t140 -93.5t93.5 -140
t34 -173.5t-34 -173.5t-93.5 -140t-140 -93.5t-173.5 -34t-173.5 34t-140 93.5t-93.5 140t-34 173.5zM94 306q0 -77 28 -144.5t77.5 -117.5t116.5 -79t144 -29t144 29t116.5 79t77.5 117.5t28 144.5t-28 144.5t-77.5 117.5t-116.5 79t-144 29t-144 -29t-116.5 -79
t-77.5 -117.5t-28 -144.5z" />
    <glyph glyph-name="uni24DE" unicode="&#x24de;" horiz-adv-x="920" 
d="M460 167q52 0 82.5 34t30.5 105t-30.5 105.5t-82.5 34.5t-82.5 -34.5t-30.5 -105.5t30.5 -105t82.5 -34zM460 91q-44 0 -81 14t-64 41t-42 67t-15 93t15 93.5t42 67.5t64 41t81 14t81 -14t64 -41t42 -67.5t15 -93.5t-15 -93t-42 -67t-64 -41t-81 -14zM19 306
q0 93 34 173.5t93.5 140t140 93.5t173.5 34t173.5 -34t140 -93.5t93.5 -140t34 -173.5t-34 -173.5t-93.5 -140t-140 -93.5t-173.5 -34t-173.5 34t-140 93.5t-93.5 140t-34 173.5zM94 306q0 -77 28 -144.5t77.5 -117.5t116.5 -79t144 -29t144 29t116.5 79t77.5 117.5
t28 144.5t-28 144.5t-77.5 117.5t-116.5 79t-144 29t-144 -29t-116.5 -79t-77.5 -117.5t-28 -144.5z" />
    <glyph glyph-name="uni24DF" unicode="&#x24df;" horiz-adv-x="920" 
d="M396 311q0 -24 9 -42t23.5 -30.5t31.5 -19t32 -6.5q50 0 80 34t30 105t-30 105.5t-80 34.5q-15 0 -32 -6t-31.5 -17.5t-23.5 -29t-9 -40.5v-88zM396 -8h-87v567h80q1 -7 2.5 -17t3.5 -18q19 24 47.5 33.5t60.5 9.5q39 0 73 -14t59.5 -41t40.5 -67t15 -93t-15 -93
t-40.5 -67t-59.5 -41t-73 -14q-32 0 -60 9t-47 37v-191zM901 306q0 -93 -34 -173.5t-93.5 -140t-140 -93.5t-173.5 -34t-173.5 34t-140 93.5t-93.5 140t-34 173.5t34 173.5t93.5 140t140 93.5t173.5 34t173.5 -34t140 -93.5t93.5 -140t34 -173.5zM826 306q0 77 -28 144.5
t-77.5 117.5t-116.5 79t-144 29t-144 -29t-116.5 -79t-77.5 -117.5t-28 -144.5t28 -144.5t77.5 -117.5t116.5 -79t144 -29t144 29t116.5 79t77.5 117.5t28 144.5z" />
    <glyph glyph-name="uni24E0" unicode="&#x24e0;" horiz-adv-x="920" 
d="M524 399q0 23 -9 40.5t-23.5 29t-31.5 17.5t-32 6q-50 0 -80 -34.5t-30 -105.5t30 -105t80 -34q15 0 32 6.5t31.5 19t23.5 30.5t9 42v88zM524 183q-19 -28 -47 -37t-60 -9q-39 0 -73 14t-59.5 41t-40.5 67t-15 93t15 93t40.5 67t59.5 41t73 14q32 0 60.5 -9.5t47.5 -33.5
q2 8 3.5 18t2.5 17h80v-567h-87v191zM19 306q0 93 34 173.5t93.5 140t140 93.5t173.5 34t173.5 -34t140 -93.5t93.5 -140t34 -173.5t-34 -173.5t-93.5 -140t-140 -93.5t-173.5 -34t-173.5 34t-140 93.5t-93.5 140t-34 173.5zM94 306q0 -77 28 -144.5t77.5 -117.5t116.5 -79
t144 -29t144 29t116.5 79t77.5 117.5t28 144.5t-28 144.5t-77.5 117.5t-116.5 79t-144 29t-144 -29t-116.5 -79t-77.5 -117.5t-28 -144.5z" />
    <glyph glyph-name="uni24E1" unicode="&#x24e1;" horiz-adv-x="920" 
d="M549 503q25 0 39 -2t28 -7l-7 -74q-11 2 -26.5 3.5t-33.5 1.5q-39 0 -69 -25.5t-30 -76.5v-243h-87v415h80l6 -50q17 24 42.5 41t57.5 17zM19 306q0 93 34 173.5t93.5 140t140 93.5t173.5 34t173.5 -34t140 -93.5t93.5 -140t34 -173.5t-34 -173.5t-93.5 -140t-140 -93.5
t-173.5 -34t-173.5 34t-140 93.5t-93.5 140t-34 173.5zM94 306q0 -77 28 -144.5t77.5 -117.5t116.5 -79t144 -29t144 29t116.5 79t77.5 117.5t28 144.5t-28 144.5t-77.5 117.5t-116.5 79t-144 29t-144 -29t-116.5 -79t-77.5 -117.5t-28 -144.5z" />
    <glyph glyph-name="uni24E2" unicode="&#x24e2;" horiz-adv-x="920" 
d="M452 91q-42 0 -86 7.5t-72 20.5l16 72q28 -11 62.5 -18.5t68.5 -7.5q52 0 74 12t22 35q0 24 -23.5 36t-55.5 20l-37 10q-23 6 -44.5 15t-38 23t-27 34t-10.5 48q0 53 39 88.5t126 35.5q39 0 77.5 -9.5t63.5 -19.5l-17 -69q-20 8 -53.5 16t-64.5 8q-47 0 -66 -12t-19 -33
q0 -22 18.5 -32.5t47.5 -16.5l36 -9q30 -7 54.5 -17t42.5 -25t28 -35.5t10 -49.5q0 -63 -45 -95t-127 -32zM19 306q0 93 34 173.5t93.5 140t140 93.5t173.5 34t173.5 -34t140 -93.5t93.5 -140t34 -173.5t-34 -173.5t-93.5 -140t-140 -93.5t-173.5 -34t-173.5 34t-140 93.5
t-93.5 140t-34 173.5zM94 306q0 -77 28 -144.5t77.5 -117.5t116.5 -79t144 -29t144 29t116.5 79t77.5 117.5t28 144.5t-28 144.5t-77.5 117.5t-116.5 79t-144 29t-144 -29t-116.5 -79t-77.5 -117.5t-28 -144.5z" />
    <glyph glyph-name="uni24E3" unicode="&#x24e3;" horiz-adv-x="920" 
d="M388 557h87v-99h106v-71h-106v-205q0 -38 13.5 -54t38.5 -16q18 0 32 1.5t28 5.5l14 -71q-14 -4 -33.5 -8t-51.5 -4q-57 0 -92.5 33.5t-35.5 105.5v212h-68v71h68v99zM19 306q0 93 34 173.5t93.5 140t140 93.5t173.5 34t173.5 -34t140 -93.5t93.5 -140t34 -173.5
t-34 -173.5t-93.5 -140t-140 -93.5t-173.5 -34t-173.5 34t-140 93.5t-93.5 140t-34 173.5zM94 306q0 -77 28 -144.5t77.5 -117.5t116.5 -79t144 -29t144 29t116.5 79t77.5 117.5t28 144.5t-28 144.5t-77.5 117.5t-116.5 79t-144 29t-144 -29t-116.5 -79t-77.5 -117.5
t-28 -144.5z" />
    <glyph glyph-name="uni24E4" unicode="&#x24e4;" horiz-adv-x="920" 
d="M630 82h-80l-6 41q-19 -23 -48.5 -36t-59.5 -13q-35 0 -65.5 10t-53 31t-35 54t-12.5 80v248h87v-244q0 -60 24 -81.5t67 -21.5q15 0 31.5 6.5t31 19t23.5 30.5t9 42v249h87v-415zM19 306q0 93 34 173.5t93.5 140t140 93.5t173.5 34t173.5 -34t140 -93.5t93.5 -140
t34 -173.5t-34 -173.5t-93.5 -140t-140 -93.5t-173.5 -34t-173.5 34t-140 93.5t-93.5 140t-34 173.5zM94 306q0 -77 28 -144.5t77.5 -117.5t116.5 -79t144 -29t144 29t116.5 79t77.5 117.5t28 144.5t-28 144.5t-77.5 117.5t-116.5 79t-144 29t-144 -29t-116.5 -79
t-77.5 -117.5t-28 -144.5z" />
    <glyph glyph-name="uni24E5" unicode="&#x24e5;" horiz-adv-x="920" 
d="M507 69h-95l-162 414h97l114 -307l115 307h93zM19 306q0 93 34 173.5t93.5 140t140 93.5t173.5 34t173.5 -34t140 -93.5t93.5 -140t34 -173.5t-34 -173.5t-93.5 -140t-140 -93.5t-173.5 -34t-173.5 34t-140 93.5t-93.5 140t-34 173.5zM94 306q0 -77 28 -144.5
t77.5 -117.5t116.5 -79t144 -29t144 29t116.5 79t77.5 117.5t28 144.5t-28 144.5t-77.5 117.5t-116.5 79t-144 29t-144 -29t-116.5 -79t-77.5 -117.5t-28 -144.5z" />
    <glyph glyph-name="uni24E6" unicode="&#x24e6;" horiz-adv-x="920" 
d="M635 79h-95l-80 289l-80 -289h-96l-127 410h95l82 -297l82 297h92l82 -299l81 299h92zM19 306q0 93 34 173.5t93.5 140t140 93.5t173.5 34t173.5 -34t140 -93.5t93.5 -140t34 -173.5t-34 -173.5t-93.5 -140t-140 -93.5t-173.5 -34t-173.5 34t-140 93.5t-93.5 140
t-34 173.5zM94 306q0 -77 28 -144.5t77.5 -117.5t116.5 -79t144 -29t144 29t116.5 79t77.5 117.5t28 144.5t-28 144.5t-77.5 117.5t-116.5 79t-144 29t-144 -29t-116.5 -79t-77.5 -117.5t-28 -144.5z" />
    <glyph glyph-name="uni24E7" unicode="&#x24e7;" horiz-adv-x="920" 
d="M19 306q0 93 34 173.5t93.5 140t140 93.5t173.5 34t173.5 -34t140 -93.5t93.5 -140t34 -173.5t-34 -173.5t-93.5 -140t-140 -93.5t-173.5 -34t-173.5 34t-140 93.5t-93.5 140t-34 173.5zM94 306q0 -77 28 -144.5t77.5 -117.5t116.5 -79t144 -29t144 29t116.5 79
t77.5 117.5t28 144.5t-28 144.5t-77.5 117.5t-116.5 79t-144 29t-144 -29t-116.5 -79t-77.5 -117.5t-28 -144.5zM666 99h-102l-107 147l-103 -147h-100l155 213l-144 201h102l96 -134l92 134h100l-144 -201z" />
    <glyph glyph-name="uni24E8" unicode="&#x24e8;" horiz-adv-x="920" 
d="M19 306q0 93 34 173.5t93.5 140t140 93.5t173.5 34t173.5 -34t140 -93.5t93.5 -140t34 -173.5t-34 -173.5t-93.5 -140t-140 -93.5t-173.5 -34t-173.5 34t-140 93.5t-93.5 140t-34 173.5zM94 306q0 -77 28 -144.5t77.5 -117.5t116.5 -79t144 -29t144 29t116.5 79
t77.5 117.5t28 144.5t-28 144.5t-77.5 117.5t-116.5 79t-144 29t-144 -29t-116.5 -79t-77.5 -117.5t-28 -144.5zM259 538h96l119 -273l112 273h94l-236 -557h-93l76 183z" />
    <glyph glyph-name="uni24E9" unicode="&#x24e9;" horiz-adv-x="920" 
d="M289 169l225 271h-215v73h324v-69l-227 -272h234v-73h-341v70zM19 306q0 93 34 173.5t93.5 140t140 93.5t173.5 34t173.5 -34t140 -93.5t93.5 -140t34 -173.5t-34 -173.5t-93.5 -140t-140 -93.5t-173.5 -34t-173.5 34t-140 93.5t-93.5 140t-34 173.5zM94 306
q0 -77 28 -144.5t77.5 -117.5t116.5 -79t144 -29t144 29t116.5 79t77.5 117.5t28 144.5t-28 144.5t-77.5 117.5t-116.5 79t-144 29t-144 -29t-116.5 -79t-77.5 -117.5t-28 -144.5z" />
    <glyph glyph-name="SF100000" unicode="&#x2500;" horiz-adv-x="920" 
d="M920 286h-920v29h920v-29z" />
    <glyph glyph-name="uni2501" unicode="&#x2501;" horiz-adv-x="920" 
d="M920 271h-920v54h920v-54z" />
    <glyph glyph-name="SF110000" unicode="&#x2502;" horiz-adv-x="920" 
d="M475 -200h-29v1000h29v-1000z" />
    <glyph glyph-name="uni2503" unicode="&#x2503;" horiz-adv-x="920" 
d="M487 -200h-54v1000h54v-1000z" />
    <glyph glyph-name="SF010000" unicode="&#x250c;" horiz-adv-x="920" 
d="M920 286h-445v-486h-29v515h474v-29z" />
    <glyph glyph-name="uni250D" unicode="&#x250d;" horiz-adv-x="920" 
d="M920 264h-441v-464h-38v536h479v-72z" />
    <glyph glyph-name="uni250E" unicode="&#x250e;" horiz-adv-x="920" 
d="M920 282h-422v-482h-76v518h498v-36z" />
    <glyph glyph-name="uni250F" unicode="&#x250f;" horiz-adv-x="920" 
d="M920 271h-433v-471h-54v525h487v-54z" />
    <glyph glyph-name="SF030000" unicode="&#x2510;" horiz-adv-x="920" 
d="M475 -200h-29v486h-446v29h475v-515z" />
    <glyph glyph-name="uni2511" unicode="&#x2511;" horiz-adv-x="920" 
d="M479 -200h-38v464h-441v72h479v-536z" />
    <glyph glyph-name="uni2512" unicode="&#x2512;" horiz-adv-x="920" 
d="M498 -200h-76v482h-422v36h498v-518z" />
    <glyph glyph-name="uni2513" unicode="&#x2513;" horiz-adv-x="920" 
d="M487 -200h-54v471h-433v54h487v-525z" />
    <glyph glyph-name="SF020000" unicode="&#x2514;" horiz-adv-x="920" 
d="M920 286h-474v514h29v-485h445v-29z" />
    <glyph glyph-name="uni2515" unicode="&#x2515;" horiz-adv-x="920" 
d="M920 264h-479v536h38v-464h441v-72z" />
    <glyph glyph-name="uni2516" unicode="&#x2516;" horiz-adv-x="920" 
d="M920 282h-498v518h76v-482h422v-36z" />
    <glyph glyph-name="uni2517" unicode="&#x2517;" horiz-adv-x="920" 
d="M920 271h-487v529h54v-475h433v-54z" />
    <glyph glyph-name="SF040000" unicode="&#x2518;" horiz-adv-x="920" 
d="M475 286h-475v29h446v485h29v-514z" />
    <glyph glyph-name="uni2519" unicode="&#x2519;" horiz-adv-x="920" 
d="M479 264h-479v72h441v464h38v-536z" />
    <glyph glyph-name="uni251A" unicode="&#x251a;" horiz-adv-x="920" 
d="M498 282h-498v36h422v482h76v-518z" />
    <glyph glyph-name="uni251B" unicode="&#x251b;" horiz-adv-x="920" 
d="M487 271h-487v54h433v475h54v-529z" />
    <glyph glyph-name="SF080000" unicode="&#x251c;" horiz-adv-x="920" 
d="M920 286h-445v-486h-29v1000h29v-485h445v-29z" />
    <glyph glyph-name="uni251D" unicode="&#x251d;" horiz-adv-x="920" 
d="M920 264h-441v-464h-38v1000h38v-464h441v-72z" />
    <glyph glyph-name="uni251E" unicode="&#x251e;" horiz-adv-x="920" 
d="M920 282h-442l1 -482h-38v500h-19v500h76v-482h422v-36z" />
    <glyph glyph-name="uni251F" unicode="&#x251f;" horiz-adv-x="920" 
d="M920 282h-422v-482h-76v500h19v500h38v-482h441v-36z" />
    <glyph glyph-name="uni2520" unicode="&#x2520;" horiz-adv-x="920" 
d="M920 282h-423v-482h-76v1000h76v-482h423v-36z" />
    <glyph glyph-name="uni2521" unicode="&#x2521;" horiz-adv-x="920" 
d="M920 264h-441v-464h-38v500h-19v500h76v-464h422v-72z" />
    <glyph glyph-name="uni2522" unicode="&#x2522;" horiz-adv-x="920" 
d="M920 264h-422v-464h-76v500h19v500h38v-464h441v-72z" />
    <glyph glyph-name="uni2523" unicode="&#x2523;" horiz-adv-x="920" 
d="M920 271h-433v-471h-54v1000h54v-475h433v-54z" />
    <glyph glyph-name="SF090000" unicode="&#x2524;" horiz-adv-x="920" 
d="M475 -200h-29v486h-446v29h446v485h29v-1000z" />
    <glyph glyph-name="uni2525" unicode="&#x2525;" horiz-adv-x="920" 
d="M479 -200h-38v464h-441v72h441v464h38v-1000z" />
    <glyph glyph-name="uni2526" unicode="&#x2526;" horiz-adv-x="920" 
d="M498 300h-19v-500h-38v482h-441v36h422v482h76v-500z" />
    <glyph glyph-name="uni2527" unicode="&#x2527;" horiz-adv-x="920" 
d="M498 -200h-76v482h-422v36h441v482h38v-500h19v-500z" />
    <glyph glyph-name="uni2528" unicode="&#x2528;" horiz-adv-x="920" 
d="M498 -200h-76v482h-422v36h422v482h76v-1000z" />
    <glyph glyph-name="uni2529" unicode="&#x2529;" horiz-adv-x="920" 
d="M498 300h-19v-500h-38v464h-441v72h422v464h76v-500z" />
    <glyph glyph-name="uni252A" unicode="&#x252a;" horiz-adv-x="920" 
d="M498 -200h-76v464h-422v72h441v464h38v-500h19v-500z" />
    <glyph glyph-name="uni252B" unicode="&#x252b;" horiz-adv-x="920" 
d="M487 -200h-54v471h-433v54h433v475h54v-1000z" />
    <glyph glyph-name="SF060000" unicode="&#x252c;" horiz-adv-x="920" 
d="M920 286h-445v-486h-29v486h-446v29h920v-29z" />
    <glyph glyph-name="uni252D" unicode="&#x252d;" horiz-adv-x="920" 
d="M920 282h-441v-482h-38v464h-441v72h460v-18h460v-36z" />
    <glyph glyph-name="uni252E" unicode="&#x252e;" horiz-adv-x="920" 
d="M920 264h-441v-464h-38v482h-441v36h460v18h460v-72z" />
    <glyph glyph-name="uni252F" unicode="&#x252f;" horiz-adv-x="920" 
d="M920 264h-441v-464h-38v464h-441v72h920v-72z" />
    <glyph glyph-name="uni2530" unicode="&#x2530;" horiz-adv-x="920" 
d="M920 282h-422v-482h-76v482h-422v36h920v-36z" />
    <glyph glyph-name="uni2531" unicode="&#x2531;" horiz-adv-x="920" 
d="M920 282h-422v-482h-76v464h-422v72h460v-18h460v-36z" />
    <glyph glyph-name="uni2532" unicode="&#x2532;" horiz-adv-x="920" 
d="M920 264h-422v-464h-76v482h-422v36h460v18h460v-72z" />
    <glyph glyph-name="uni2533" unicode="&#x2533;" horiz-adv-x="920" 
d="M920 271h-433v-471h-54v471h-433v54h920v-54z" />
    <glyph glyph-name="SF070000" unicode="&#x2534;" horiz-adv-x="920" 
d="M920 286h-920v29h446v485h29v-485h445v-29z" />
    <glyph glyph-name="uni2535" unicode="&#x2535;" horiz-adv-x="920" 
d="M920 282h-460v-18h-460v72h441v464h38v-482h441v-36z" />
    <glyph glyph-name="uni2536" unicode="&#x2536;" horiz-adv-x="920" 
d="M920 264h-460v18h-460v36h441v482h38v-464h441v-72z" />
    <glyph glyph-name="uni2537" unicode="&#x2537;" horiz-adv-x="920" 
d="M920 264h-920v72h441v464h38v-464h441v-72z" />
    <glyph glyph-name="uni2538" unicode="&#x2538;" horiz-adv-x="920" 
d="M920 282h-920v36h422v482h76v-482h422v-36z" />
    <glyph glyph-name="uni2539" unicode="&#x2539;" horiz-adv-x="920" 
d="M920 282h-460v-18h-460v72h422v464h76v-482h422v-36z" />
    <glyph glyph-name="uni253A" unicode="&#x253a;" horiz-adv-x="920" 
d="M920 264h-460v18h-460v36h422v482h76v-464h422v-72z" />
    <glyph glyph-name="uni253B" unicode="&#x253b;" horiz-adv-x="920" 
d="M920 271h-920v54h433v475h54v-475h433v-54z" />
    <glyph glyph-name="SF050000" unicode="&#x253c;" horiz-adv-x="920" 
d="M920 285h-445v-485h-29v485h-446v29h446v486h29v-486h445v-29z" />
    <glyph glyph-name="uni253D" unicode="&#x253d;" horiz-adv-x="920" 
d="M920 282h-441v-482h-38v464h-441v76h441v460h38v-482h441v-36z" />
    <glyph glyph-name="uni253E" unicode="&#x253e;" horiz-adv-x="920" 
d="M920 264h-441v-464h-38v482h-441v36h441v482h38v-464h441v-72z" />
    <glyph glyph-name="uni253F" unicode="&#x253f;" horiz-adv-x="920" 
d="M920 264h-441v-464h-38v464h-441v72h441v464h38v-464h441v-72z" />
    <glyph glyph-name="uni2540" unicode="&#x2540;" horiz-adv-x="920" 
d="M920 282h-441v-482h-38v482h-441v36h422v482h76v-482h422v-36z" />
    <glyph glyph-name="uni2541" unicode="&#x2541;" horiz-adv-x="920" 
d="M920 282h-422v-482h-76v482h-422v36h441v482h38v-482h441v-36z" />
    <glyph glyph-name="uni2542" unicode="&#x2542;" horiz-adv-x="920" 
d="M920 282h-422v-482h-76v482h-422v36h422v482h76v-482h422v-36z" />
    <glyph glyph-name="uni2543" unicode="&#x2543;" horiz-adv-x="920" 
d="M920 282h-441v-482h-38v464h-441v72h422v464h76v-482h422v-36z" />
    <glyph glyph-name="uni2544" unicode="&#x2544;" horiz-adv-x="920" 
d="M920 264h-441v-464h-38v482h-441v36h422v482h76v-464h422v-72z" />
    <glyph glyph-name="uni2545" unicode="&#x2545;" horiz-adv-x="920" 
d="M920 282h-422v-482h-76v464h-422v72h441v464h38v-482h441v-36z" />
    <glyph glyph-name="uni2546" unicode="&#x2546;" horiz-adv-x="920" 
d="M920 264h-422v-464h-76v482h-422v36h441v482h38v-464h441v-72z" />
    <glyph glyph-name="uni2547" unicode="&#x2547;" horiz-adv-x="920" 
d="M920 264h-441v-464h-38v464h-441v72h422v464h76v-464h422v-72z" />
    <glyph glyph-name="uni2548" unicode="&#x2548;" horiz-adv-x="920" 
d="M920 264h-422v-464h-76v464h-422v72h441v464h38v-464h441v-72z" />
    <glyph glyph-name="uni2549" unicode="&#x2549;" horiz-adv-x="920" 
d="M920 282h-422v-482h-76v464h-422v72h422v464h76v-482h422v-36z" />
    <glyph glyph-name="uni254A" unicode="&#x254a;" horiz-adv-x="920" 
d="M920 264h-422v-464h-76v482h-422v36h422v482h76v-464h422v-72z" />
    <glyph glyph-name="uni254B" unicode="&#x254b;" horiz-adv-x="920" 
d="M920 271h-433v-471h-54v471h-433v54h433v475h54v-475h433v-54z" />
    <glyph glyph-name="shade" unicode="&#x2592;" horiz-adv-x="920" 
d="M849 -81h-758v757h758v-757zM816 -48v691h-692v-691h692zM783 587q0 -12 -7.5 -19t-18.5 -7q-26 0 -26 26q0 11 7 18.5t19 7.5q11 0 18.5 -7.5t7.5 -18.5zM687 587q0 -26 -25 -26q-26 0 -26 26q0 11 7 18.5t19 7.5q11 0 18 -7.5t7 -18.5zM783 491q0 -10 -7.5 -17.5
t-18.5 -7.5q-12 0 -19 7.5t-7 17.5q0 11 7 18.5t19 7.5q11 0 18.5 -7.5t7.5 -18.5zM687 491q0 -10 -7 -17.5t-18 -7.5q-12 0 -19 7.5t-7 17.5q0 11 7 18.5t19 7.5q11 0 18 -7.5t7 -18.5zM592 587q0 -12 -7.5 -19t-18.5 -7t-19 7t-8 19q0 11 8 18.5t19 7.5t18.5 -7.5
t7.5 -18.5zM783 396q0 -11 -7.5 -19t-18.5 -8q-12 0 -19 8t-7 19t7 18.5t19 7.5q11 0 18.5 -7.5t7.5 -18.5zM592 491q0 -10 -7.5 -17.5t-18.5 -7.5t-19 7.5t-8 17.5q0 11 8 18.5t19 7.5t18.5 -7.5t7.5 -18.5zM687 396q0 -11 -7 -19t-18 -8q-12 0 -19 8t-7 19t7 18.5t19 7.5
q11 0 18 -7.5t7 -18.5zM495 587q0 -26 -25 -26q-10 0 -18 7t-8 19q0 11 8 18.5t18 7.5q11 0 18 -7.5t7 -18.5zM783 300q0 -10 -7.5 -17.5t-18.5 -7.5q-12 0 -19 7.5t-7 17.5q0 26 26 26q11 0 18.5 -7.5t7.5 -18.5zM495 491q0 -10 -7 -17.5t-18 -7.5q-10 0 -18 7.5t-8 17.5
q0 11 8 18.5t18 7.5q11 0 18 -7.5t7 -18.5zM592 396q0 -11 -7.5 -19t-18.5 -8t-19 8t-8 19t8 18.5t19 7.5t18.5 -7.5t7.5 -18.5zM687 300q0 -10 -7 -17.5t-18 -7.5q-12 0 -19 7.5t-7 17.5q0 26 26 26q25 0 25 -26zM401 587q0 -12 -8 -19t-19 -7q-25 0 -25 26q0 11 7 18.5
t18 7.5t19 -7.5t8 -18.5zM783 204q0 -11 -7.5 -18.5t-18.5 -7.5q-12 0 -19 7.5t-7 18.5t7 19t19 8q11 0 18.5 -8t7.5 -19zM401 491q0 -10 -8 -17.5t-19 -7.5t-18 7.5t-7 17.5q0 11 7 18.5t18 7.5t19 -7.5t8 -18.5zM495 396q0 -11 -7 -19t-18 -8q-10 0 -18 8t-8 19t8 18.5
t18 7.5q11 0 18 -7.5t7 -18.5zM592 300q0 -10 -7.5 -17.5t-18.5 -7.5t-19 7.5t-8 17.5q0 11 8 18.5t19 7.5t18.5 -7.5t7.5 -18.5zM687 204q0 -11 -7 -18.5t-18 -7.5q-12 0 -19 7.5t-7 18.5t7 19t19 8q11 0 18 -8t7 -19zM305 587q0 -12 -7.5 -19t-18.5 -7t-18.5 7t-7.5 19
q0 11 7.5 18.5t18.5 7.5t18.5 -7.5t7.5 -18.5zM783 109q0 -11 -7.5 -18.5t-18.5 -7.5q-12 0 -19 7.5t-7 18.5t7 18t19 7q11 0 18.5 -7t7.5 -18zM209 587q0 -26 -25 -26q-11 0 -18.5 7t-7.5 19q0 11 7.5 18.5t18.5 7.5q12 0 18.5 -7.5t6.5 -18.5zM305 491q0 -10 -7.5 -17.5
t-18.5 -7.5t-18.5 7.5t-7.5 17.5q0 11 7.5 18.5t18.5 7.5t18.5 -7.5t7.5 -18.5zM401 396q0 -11 -8 -19t-19 -8t-18 8t-7 19t7 18.5t18 7.5t19 -7.5t8 -18.5zM495 300q0 -10 -7 -17.5t-18 -7.5q-10 0 -18 7.5t-8 17.5q0 11 8 18.5t18 7.5q25 0 25 -26zM592 204
q0 -11 -7.5 -18.5t-18.5 -7.5t-19 7.5t-8 18.5t8 19t19 8t18.5 -8t7.5 -19zM687 109q0 -11 -7 -18.5t-18 -7.5q-12 0 -19 7.5t-7 18.5t7 18t19 7q11 0 18 -7t7 -18zM783 13q0 -11 -7.5 -18.5t-18.5 -7.5q-12 0 -19 7.5t-7 18.5q0 26 26 26q11 0 18.5 -7t7.5 -19zM209 491
q0 -10 -6.5 -17.5t-18.5 -7.5q-11 0 -18.5 7.5t-7.5 17.5q0 11 7.5 18.5t18.5 7.5q12 0 18.5 -7.5t6.5 -18.5zM687 13q0 -11 -7 -18.5t-18 -7.5q-12 0 -19 7.5t-7 18.5q0 26 26 26q25 0 25 -26zM305 396q0 -11 -7.5 -19t-18.5 -8t-18.5 8t-7.5 19t7.5 18.5t18.5 7.5
t18.5 -7.5t7.5 -18.5zM401 300q0 -10 -8 -17.5t-19 -7.5t-18 7.5t-7 17.5q0 26 25 26q11 0 19 -7.5t8 -18.5zM495 204q0 -11 -7 -18.5t-18 -7.5q-10 0 -18 7.5t-8 18.5t8 19t18 8q11 0 18 -8t7 -19zM592 109q0 -11 -7.5 -18.5t-18.5 -7.5t-19 7.5t-8 18.5t8 18t19 7t18.5 -7
t7.5 -18zM209 396q0 -11 -6.5 -19t-18.5 -8q-11 0 -18.5 8t-7.5 19t7.5 18.5t18.5 7.5q12 0 18.5 -7.5t6.5 -18.5zM592 13q0 -11 -7.5 -18.5t-18.5 -7.5t-19 7.5t-8 18.5q0 12 8 19t19 7t18.5 -7t7.5 -19zM305 300q0 -10 -7.5 -17.5t-18.5 -7.5t-18.5 7.5t-7.5 17.5
q0 11 7.5 18.5t18.5 7.5t18.5 -7.5t7.5 -18.5zM401 204q0 -11 -8 -18.5t-19 -7.5t-18 7.5t-7 18.5t7 19t18 8t19 -8t8 -19zM495 109q0 -11 -7 -18.5t-18 -7.5q-10 0 -18 7.5t-8 18.5t8 18t18 7q11 0 18 -7t7 -18zM209 300q0 -10 -6.5 -17.5t-18.5 -7.5q-11 0 -18.5 7.5
t-7.5 17.5q0 11 7.5 18.5t18.5 7.5q25 0 25 -26zM495 13q0 -11 -7 -18.5t-18 -7.5q-10 0 -18 7.5t-8 18.5q0 12 8 19t18 7q25 0 25 -26zM305 204q0 -11 -7.5 -18.5t-18.5 -7.5t-18.5 7.5t-7.5 18.5t7.5 19t18.5 8t18.5 -8t7.5 -19zM401 109q0 -11 -8 -18.5t-19 -7.5t-18 7.5
t-7 18.5t7 18t18 7t19 -7t8 -18zM209 204q0 -11 -6.5 -18.5t-18.5 -7.5q-11 0 -18.5 7.5t-7.5 18.5t7.5 19t18.5 8q12 0 18.5 -8t6.5 -19zM401 13q0 -11 -8 -18.5t-19 -7.5t-18 7.5t-7 18.5q0 26 25 26q11 0 19 -7t8 -19zM305 109q0 -11 -7.5 -18.5t-18.5 -7.5t-18.5 7.5
t-7.5 18.5t7.5 18t18.5 7t18.5 -7t7.5 -18zM209 109q0 -11 -6.5 -18.5t-18.5 -7.5q-11 0 -18.5 7.5t-7.5 18.5t7.5 18t18.5 7q12 0 18.5 -7t6.5 -18zM305 13q0 -11 -7.5 -18.5t-18.5 -7.5t-18.5 7.5t-7.5 18.5q0 12 7.5 19t18.5 7t18.5 -7t7.5 -19zM209 13q0 -11 -6.5 -18.5
t-18.5 -7.5q-11 0 -18.5 7.5t-7.5 18.5q0 12 7.5 19t18.5 7q25 0 25 -26z" />
    <glyph glyph-name="filledbox" unicode="&#x25a0;" horiz-adv-x="920" 
d="M104 -58v711h712v-711h-712z" />
    <glyph glyph-name="H22073" unicode="&#x25a1;" horiz-adv-x="920" 
d="M174 582v-569h570v569h-570zM104 653h711v-711h-711v711z" />
    <glyph glyph-name="uni25A3" unicode="&#x25a3;" horiz-adv-x="920" 
d="M855 -87h-770v769h770v-769zM806 -38v671h-672v-671h672zM701 66h-462v462h462v-462z" />
    <glyph glyph-name="uni25A4" unicode="&#x25a4;" horiz-adv-x="920" 
d="M849 -81h-758v757h758v-757zM816 573v70h-692v-70h692zM816 466v75h-692v-75h692zM816 366v68h-692v-68h692zM816 261v73h-692v-73h692zM816 155v74h-692v-74h692zM816 53v70h-692v-70h692zM816 -48v69h-692v-69h692z" />
    <glyph glyph-name="uni25A5" unicode="&#x25a5;" horiz-adv-x="920" 
d="M849 -81h-758v757h758v-757zM816 -48v691h-70v-691h70zM714 -48v691h-70v-691h70zM612 -48v691h-74v-691h74zM506 -48v691h-73v-691h73zM401 -48v691h-68v-691h68zM301 -48v691h-75v-691h75zM194 -48v691h-70v-691h70z" />
    <glyph glyph-name="uni25A6" unicode="&#x25a6;" horiz-adv-x="920" 
d="M849 -81h-758v757h758v-757zM816 570v73h-73v-73h73zM816 467v73h-73v-73h73zM712 570v73h-73v-73h73zM816 364v73h-73v-73h73zM609 570v73h-73v-73h73zM712 467v73h-73v-73h73zM816 261v73h-73v-73h73zM506 570v73h-73v-73h73zM609 467v73h-73v-73h73zM712 364v73h-73
v-73h73zM816 158v73h-73v-73h73zM403 570v73h-73v-73h73zM506 467v73h-73v-73h73zM609 364v73h-73v-73h73zM712 261v73h-73v-73h73zM816 55v73h-73v-73h73zM300 570v73h-73v-73h73zM403 467v73h-73v-73h73zM506 364v73h-73v-73h73zM609 261v73h-73v-73h73zM712 158v73h-73
v-73h73zM816 -48v73h-73v-73h73zM197 570v73h-73v-73h73zM300 467v73h-73v-73h73zM403 364v73h-73v-73h73zM506 261v73h-73v-73h73zM609 158v73h-73v-73h73zM712 55v73h-73v-73h73zM712 -48v73h-73v-73h73zM197 467v73h-73v-73h73zM300 364v73h-73v-73h73zM403 261v73h-73
v-73h73zM506 158v73h-73v-73h73zM609 55v73h-73v-73h73zM609 -48v73h-73v-73h73zM197 364v73h-73v-73h73zM300 261v73h-73v-73h73zM403 158v73h-73v-73h73zM506 55v73h-73v-73h73zM506 -48v73h-73v-73h73zM197 261v73h-73v-73h73zM300 158v73h-73v-73h73zM403 55v73h-73v-73
h73zM403 -48v73h-73v-73h73zM197 158v73h-73v-73h73zM300 55v73h-73v-73h73zM300 -48v73h-73v-73h73zM197 55v73h-73v-73h73zM197 -48v73h-73v-73h73z" />
    <glyph glyph-name="uni25A7" unicode="&#x25a7;" horiz-adv-x="920" 
d="M849 -81h-758v757h758v-757zM816 486v157h-158zM816 315v122l-207 206h-122zM816 146v120l-378 377h-120zM816 -23v120l-547 546h-119zM791 -48l-667 667v-120l547 -547h120zM622 -48l-498 498v-120l378 -378h120zM453 -48l-329 329v-121l208 -208h121zM283 -48l-159 159
v-159h159z" />
    <glyph glyph-name="uni25A8" unicode="&#x25a8;" horiz-adv-x="920" 
d="M849 -81h-758v757h758v-757zM816 499v120l-667 -667h120zM816 330v120l-498 -498h120zM816 160v121l-329 -329h121zM816 -48v159l-159 -159h159zM282 643h-158v-157zM453 643h-122l-207 -206v-122zM622 643h-120l-378 -377v-120zM790 643h-119l-547 -546v-120z" />
    <glyph glyph-name="uni25A9" unicode="&#x25a9;" horiz-adv-x="920" 
d="M849 -81h-758v757h758v-757zM816 486v135l-69 -68zM789 643h-131l65 -66zM791 461l-67 69l-62 -62l68 -68zM698 553l-65 65l-61 -60l66 -66zM610 643h-123l62 -61zM816 314v123l-61 -61zM524 558l-61 60l-60 -60l60 -60zM614 468l-66 65l-61 -60l67 -65zM706 377l-68 67
l-60 -60l67 -69zM791 291l-61 60l-60 -60l61 -60zM438 643h-120l60 -60zM816 146v120l-60 -60zM622 291l-69 68l-60 -60l68 -67zM354 558l-61 61l-60 -60l61 -60zM528 384l-65 65l-59 -60l65 -65zM707 206l-62 60l-59 -59l60 -61zM791 122l-60 60l-60 -60l60 -61zM438 473
l-61 61l-59 -60l61 -61zM269 643h-119l59 -59zM816 -23v120l-60 -60zM791 -48l-60 60l-60 -60h120zM184 559l-60 60v-120zM537 206l-68 70l-60 -62l67 -67zM269 474l-60 61l-60 -61l60 -60zM354 390l-60 60l-61 -60l61 -60zM443 299l-65 66l-60 -60l66 -65zM622 122l-60 60
l-60 -60l60 -61zM707 37l-61 60l-60 -60l60 -60zM622 -48l-60 60l-60 -60h120zM184 390l-60 60v-120zM269 305l-60 60l-60 -60l60 -60zM359 215l-65 66l-61 -61l66 -65zM453 122l-69 69l-61 -60l68 -70zM537 37l-60 60l-60 -60l60 -60zM184 220l-60 61v-120zM453 -48l-61 60
l-61 -60h122zM274 131l-65 65l-60 -60l65 -65zM367 38l-68 68l-61 -60l70 -69zM189 46l-65 65v-130zM283 -48l-69 70l-68 -70h137z" />
    <glyph glyph-name="triagup" unicode="&#x25b2;" horiz-adv-x="920" 
d="M81 -58l379 755l379 -755h-758z" />
    <glyph glyph-name="uni25B3" unicode="&#x25b3;" horiz-adv-x="920" 
d="M733 4l-275 550l-275 -550h550zM80 -58l380 756l380 -756h-760z" />
    <glyph glyph-name="uni25B6" unicode="&#x25b6;" horiz-adv-x="920" 
d="M789 300l-639 -402v806z" />
    <glyph glyph-name="uni25B7" unicode="&#x25b7;" horiz-adv-x="920" 
d="M789 300l-639 -402v806zM683 300l-475 299v-596z" />
    <glyph glyph-name="triagdn" unicode="&#x25bc;" horiz-adv-x="920" 
d="M839 653l-379 -755l-379 755h758z" />
    <glyph glyph-name="uni25BD" unicode="&#x25bd;" horiz-adv-x="920" 
d="M185 591l275 -551l275 551h-550zM840 653l-380 -755l-380 755h760z" />
    <glyph glyph-name="uni25C0" unicode="&#x25c0;" horiz-adv-x="920" 
d="M789 -102l-639 402l639 404v-806z" />
    <glyph glyph-name="uni25C1" unicode="&#x25c1;" horiz-adv-x="920" 
d="M789 -102l-639 402l639 404v-806zM731 3v596l-475 -299z" />
    <glyph glyph-name="uni25C6" unicode="&#x25c6;" horiz-adv-x="920" 
d="M57 299l403 402l403 -403l-402 -403z" />
    <glyph glyph-name="uni25C7" unicode="&#x25c7;" horiz-adv-x="920" 
d="M460 602l-304 -303l304 -305l303 304zM460 701l402 -403l-402 -403l-403 403z" />
    <glyph glyph-name="uni25C8" unicode="&#x25c8;" horiz-adv-x="920" 
d="M920 298l-451 -450l-449 449l450 451zM856 298l-386 385l-387 -386l386 -386zM739 297l-269 -269l-270 269l270 269z" />
    <glyph glyph-name="circle" unicode="&#x25cb;" horiz-adv-x="920" 
d="M159 298q0 -62 23.5 -117t64 -95.5t95.5 -64t117 -23.5q63 0 117.5 23.5t95.5 64t64.5 95.5t23.5 117t-23.5 116.5t-64.5 95.5t-95.5 65t-117.5 24q-62 0 -117 -24t-95.5 -65t-64 -95.5t-23.5 -116.5zM89 298q0 76 29 144t79 118t117.5 79.5t144.5 29.5t144.5 -29.5
t118 -79.5t79.5 -118t29 -144q0 -77 -29 -145t-79.5 -118t-118 -79t-144.5 -29t-144.5 29t-117.5 79t-79 118t-29 145z" />
    <glyph glyph-name="uni25CE" unicode="&#x25ce;" horiz-adv-x="920" 
d="M304 298q0 -32 12 -60.5t33 -49.5t49.5 -33t60.5 -12q33 0 61.5 12t49.5 33t33 49.5t12 60.5t-12 60.5t-33 49.5t-49.5 33.5t-61.5 12.5q-32 0 -60.5 -12.5t-49.5 -33.5t-33 -49.5t-12 -60.5zM240 298q0 45 17 85t47 69.5t70 47t85 17.5t85 -17.5t70 -47t47 -69.5t17 -85
t-17 -85t-47 -70t-70 -47t-85 -17t-85 17t-70 47t-47 70t-17 85zM160 298q0 -62 23.5 -116.5t64 -95t95 -64t116.5 -23.5t116.5 23.5t95 64t64 95t23.5 116.5q0 61 -23.5 115.5t-64 95t-95 64.5t-116.5 24t-116.5 -24t-95 -64.5t-64 -95t-23.5 -115.5zM89 298q0 76 29 144
t79 118t117.5 79.5t144.5 29.5t144.5 -29.5t118 -79.5t79.5 -118t29 -144q0 -77 -29 -145t-79.5 -118t-118 -79t-144.5 -29t-144.5 29t-117.5 79t-79 118t-29 145z" />
    <glyph glyph-name="H18533" unicode="&#x25cf;" horiz-adv-x="920" 
d="M89 298q0 76 29 144t79 118t117.5 79.5t144.5 29.5t144.5 -29.5t118 -79.5t79.5 -118t29 -144q0 -77 -29 -145t-79.5 -118t-118 -79t-144.5 -29t-144.5 29t-117.5 79t-79 118t-29 145z" />
    <glyph glyph-name="uni25D0" unicode="&#x25d0;" horiz-adv-x="920" 
d="M868 299q0 -83 -31.5 -155.5t-85.5 -126.5t-126.5 -85t-154.5 -31q-81 0 -153.5 31t-127 85t-86 126.5t-31.5 155.5q0 82 31.5 154.5t86 126.5t127 85.5t153.5 31.5q82 0 154.5 -31.5t126.5 -85.5t85.5 -126.5t31.5 -154.5zM828 299q0 73 -28.5 138.5t-77 114t-114 77
t-138.5 28.5v-715q73 0 138.5 28t114 77t77 113.5t28.5 138.5z" />
    <glyph glyph-name="uni25D1" unicode="&#x25d1;" horiz-adv-x="920" 
d="M868 299q0 -83 -31.5 -155.5t-86 -126.5t-127 -85t-153.5 -31q-83 0 -155.5 31t-126.5 85t-85 126.5t-31 155.5q0 82 31 154.5t85 126.5t126.5 85.5t155.5 31.5q81 0 153.5 -31.5t127 -85.5t86 -126.5t31.5 -154.5zM470 657q-74 0 -139 -28.5t-113.5 -77t-77 -114
t-28.5 -138.5q0 -74 28.5 -138.5t77 -113.5t113.5 -77t139 -28v715z" />
    <glyph glyph-name="uni2605" unicode="&#x2605;" horiz-adv-x="920" 
d="M573 433h350l-283 -210l106 -333l-284 201l-290 -201l111 333l-286 210h354l111 331z" />
    <glyph glyph-name="uni2606" unicode="&#x2606;" horiz-adv-x="920" 
d="M461 586l-69 -209h-225l180 -133l-71 -211l185 129l179 -129l-66 211l179 133h-222zM573 433h350l-283 -210l106 -333l-284 201l-290 -201l111 333l-286 210h354l111 331z" />
    <glyph glyph-name="uni260E" unicode="&#x260e;" horiz-adv-x="920" 
d="M901 329q-6 -11 -20 -13.5t-33 -0.5t-40 7t-40 10q-32 9 -57.5 22.5t-29.5 32.5q-2 7 0.5 18t6.5 22.5t7 22t2 17.5q-4 21 -20 28t-36 10q-3 -23 -3 -52t15 -77q7 -27 16.5 -46t21.5 -34t25.5 -27.5t29.5 -25.5q26 -21 40.5 -45.5t21.5 -47.5t8.5 -43.5t1.5 -35.5
q8 -3 12.5 -12.5t7 -21.5t2.5 -25t-1 -23q-1 -9 -10 -12.5t-24 -3.5h-670q-15 0 -24 3.5t-10 12.5q-1 10 -1 23t2.5 25t7 21.5t12.5 12.5q0 15 1.5 35.5t8.5 43.5t21.5 47.5t40.5 45.5q16 13 29.5 25.5t25.5 27.5t21.5 34t16.5 46q14 48 14.5 77t-2.5 52q-20 -3 -36 -10
t-20 -28q-2 -7 1 -17.5t7 -22t7 -22.5t1 -18q-4 -19 -29.5 -32.5t-57.5 -22.5q-20 -5 -40.5 -10t-39.5 -7t-33 0.5t-20 13.5q-6 10 -8 29.5t1.5 42t12 46t22.5 41.5q25 32 68 55.5t97 38.5t115.5 22t122.5 7t122.5 -7t115.5 -22t97 -38.5t68 -55.5q14 -18 22.5 -41.5t12 -46
t1.5 -42t-8 -29.5zM550 442v66q-15 -4 -36 -7t-44 -3t-44 3t-36 7v-66h160zM620 206q0 31 -12 58.5t-32 47.5t-47.5 32t-58.5 12t-58.5 -12t-47.5 -32t-32 -47.5t-12 -58.5t12 -58t32 -47.5t47.5 -32t58.5 -11.5t58.5 11.5t47.5 32t32 47.5t12 58z" />
    <glyph glyph-name="uni260F" unicode="&#x260f;" horiz-adv-x="920" 
d="M901 329q-6 -11 -20 -13.5t-33 -0.5t-40 7t-40 10q-32 9 -57.5 22.5t-29.5 32.5q-2 7 0 18t5.5 22.5t6 22t1.5 17.5q-4 21 -18.5 25t-34.5 5q-2 -12 -3 -23.5t0 -25t4 -31t11 -41.5q7 -27 16.5 -46t21.5 -34t25.5 -27.5t29.5 -25.5q26 -21 40.5 -45.5t21.5 -47.5
t8.5 -43.5t1.5 -35.5q8 -3 12.5 -12.5t7 -21.5t2.5 -25t-1 -23q-1 -9 -10 -12.5t-24 -3.5h-670q-15 0 -24 3.5t-10 12.5q-1 10 -1 23t2.5 25t7 21.5t12.5 12.5q0 15 1.5 35.5t8.5 43.5t21.5 47.5t40.5 45.5q16 13 29.5 25.5t25.5 27.5t21.5 34t16.5 46q7 24 10 41.5t4 31
t0 25t-2 23.5q-20 -1 -34.5 -5t-18.5 -25q-2 -7 0.5 -17.5t6 -22t6 -22.5t0.5 -18q-4 -19 -29.5 -32.5t-57.5 -22.5q-20 -5 -40.5 -10t-39.5 -7t-33 0.5t-20 13.5q-6 10 -8 29.5t1.5 42t12 45.5t22.5 41q25 32 68 55.5t97 38.5t115.5 22.5t122.5 7.5t122.5 -7.5t115.5 -22.5
t97 -38.5t68 -55.5q14 -18 22.5 -41t12 -45.5t1.5 -42t-8 -29.5zM537 437v58q-12 -5 -30.5 -7.5t-36.5 -2.5q-20 0 -37.5 2.5t-29.5 7.5v-58h134zM864 351q6 1 9 16.5t-1.5 38t-19 49t-42.5 48.5q-22 18 -63 32.5t-89.5 25t-98.5 16t-89 5.5q-52 0 -103.5 -5.5t-97 -16
t-82 -25t-58.5 -32.5q-29 -22 -43 -48t-18.5 -49t-1.5 -38.5t9 -16.5q19 -2 40 0.5t40.5 8.5t36 14t27.5 17q6 4 3.5 14.5t-6 24t-5 29t4.5 29.5q9 20 43.5 31.5t101.5 11.5q11 0 21.5 -2t24.5 -4q17 -4 31.5 -6.5t31.5 -2.5t31.5 2.5t31.5 6.5q13 2 24 4t22 2
q67 0 100.5 -11.5t43.5 -31.5q7 -14 5.5 -29.5t-5 -29t-6 -24t3.5 -14.5q10 -9 26.5 -17t36 -13.5t40.5 -8.5t40 -1zM791 8q3 0 4.5 8t0.5 18.5t-4.5 21.5t-10.5 16q0 11 -2.5 29t-7.5 37t-14 37t-22 30q-23 21 -39 36.5t-27.5 29t-20 27t-15.5 31.5q-17 49 -21.5 92
t-2.5 75h-39v-89h-200v89h-40q3 -32 -1.5 -75t-22.5 -92q-7 -18 -15 -31.5t-20 -27t-28 -29t-38 -36.5q-13 -12 -22 -30t-14 -37t-7.5 -37t-2.5 -29q-8 -5 -11.5 -16t-4 -21.5t1 -18.5t4.5 -8h642zM631 203q0 -33 -13 -62t-34.5 -51t-51 -35t-62.5 -13t-62.5 13t-51 35
t-34.5 51t-13 62t13 62.5t34.5 51t51 34.5t62.5 13t62.5 -13t51 -34.5t34.5 -51t13 -62.5zM593 203q0 26 -9.5 48.5t-26.5 39.5t-39.5 26.5t-47.5 9.5q-26 0 -48.5 -9.5t-39.5 -26.5t-26.5 -39.5t-9.5 -48.5t9.5 -48.5t26.5 -39t39.5 -26t48.5 -9.5q25 0 47.5 9.5t39.5 26
t26.5 39t9.5 48.5z" />
    <glyph glyph-name="uni261C" unicode="&#x261c;" horiz-adv-x="920" 
d="M837 182h-78v21h-29q-27 -16 -66.5 -30.5t-105.5 -25.5q-19 -3 -46 -4t-55 -1t-53.5 1.5t-41.5 3.5q-19 3 -35.5 10t-21.5 24q-2 12 3 19.5t13 12.5q-14 0 -26 9.5t-13 24.5q-1 11 2.5 18t8.5 13q-14 2 -25.5 9t-11.5 24q0 23 19.5 32t64.5 9l-3 8q-24 1 -43.5 1.5l-39 1
t-41.5 1.5t-50 3q-22 1 -44.5 2t-41 5t-30 12.5t-11.5 24.5q0 13 9.5 20.5t25.5 11t38 5t48 3.5q14 1 45.5 2t72 1.5t86.5 1t88 0.5q33 0 66 -0.5t65.5 -5.5t62.5 -17.5t56 -36.5q17 -4 33 -5.5t28 -0.5v32h77v-240zM760 215v157q-8 -1 -21.5 0t-23.5 3q2 -7 3 -8
q2 -10 0 -10.5t-8 5.5q-8 10 -22.5 23t-36.5 27q-16 10 -42 16.5t-54 9.5t-53.5 3.5t-38.5 -1.5q-15 -2 -34 -8.5t-34 -16.5q-8 -5 -12.5 -12t-9.5 -15q-8 -19 -20 -25q-4 -5 3 -9t29 4q10 4 18.5 10.5t14.5 12.5t10 9.5t6 0.5q5 -5 -4 -16q8 -3 21 -4.5t21 0.5
q20 6 30.5 13.5t12.5 3.5q2 -5 -2.5 -12t-12.5 -12q6 -9 27.5 -25.5t53.5 -27.5q20 -7 37.5 -9.5t30 -4t19.5 -3t7 -5.5q0 -3 -9.5 -4t-23 0t-29 3.5t-27.5 5.5q-21 7 -38 16t-30 19t-21.5 18.5t-12.5 14.5q-5 -3 -11.5 -3.5t-12.5 -0.5q-14 1 -25.5 3t-16.5 4l-16 -13
q27 0 45.5 -6.5t21.5 -18.5q4 -14 0 -25t-12 -17q29 -7 32 -29q2 -14 -2.5 -20.5t-12.5 -11.5q29 -8 32 -29q3 -15 -3.5 -24t-9.5 -10q15 -3 36 0q79 7 126.5 25t79.5 39q3 3 5.5 3t1.5 -4l-2 -9h20zM410 440q-50 0 -116.5 -1t-135.5 -3q-50 -2 -77.5 -5.5t-27.5 -19.5
t24 -19.5t81 -7.5q63 -3 105.5 -5t84.5 -4q4 6 9 14t13 19t17 19t23 13zM821 198v207h-45v-207h45zM473 246q1 15 -6 20.5t-23 8.5q-7 1 -23.5 1h-35t-36 -0.5t-26.5 -0.5q-10 -2 -17 -9t-7 -17q0 -16 26 -20q5 -1 23.5 -2t39 -1h36.5h17q10 0 20.5 4.5t11.5 15.5zM490 192
q-1 11 -11.5 14.5t-20.5 3.5q-27 1 -59.5 1t-55.5 -2q-11 -1 -15.5 -8.5t-2.5 -15.5q1 -6 5.5 -11.5t12.5 -7.5q27 -5 59 -5.5t57 1.5q34 1 31 30zM449 316q0 6 -4.5 11.5t-15.5 6.5q-38 2 -71.5 3t-65.5 -3q-10 -2 -15 -8.5t-4 -14.5q0 -7 5 -13t15 -6q16 -1 35 -1h37.5
t35.5 1t29 2q8 2 13.5 6.5t5.5 15.5z" />
    <glyph glyph-name="uni261E" unicode="&#x261e;" horiz-adv-x="920" 
d="M864 411q0 -16 -11.5 -24.5t-30 -12.5t-41 -5t-44.5 -2q-28 -2 -50 -3t-41.5 -1.5l-39 -1t-43.5 -1.5l-3 -8q45 0 64.5 -9t19.5 -32q0 -17 -11.5 -24t-25.5 -9q5 -6 8.5 -13t2.5 -18q-1 -15 -13 -24.5t-26 -9.5q8 -5 13 -12.5t3 -19.5q-5 -17 -21.5 -24t-35.5 -10
q-16 -2 -41.5 -3.5t-53.5 -1.5t-55 1t-46 4q-66 11 -105.5 25.5t-66.5 30.5h-29v-21h-78v240h77v-32q12 -1 28 0.5t33 5.5q26 24 56 36.5t62.5 17.5t65.5 5.5t66 0.5q42 0 88 -0.5t86.5 -1t72 -1.5t45.5 -2q25 -2 47.5 -3.5t38.5 -5t25.5 -11t9.5 -20.5zM547 363
q-12 6 -20 25q-5 8 -9.5 15t-12.5 12q-15 10 -34 16.5t-34 8.5q-14 2 -39 1.5t-53 -3.5t-54 -9.5t-42 -16.5q-22 -14 -36.5 -27t-22.5 -23q-6 -6 -8 -5.5t0 10.5q2 2 2 3.5t1 4.5q-10 -2 -23.5 -3t-21.5 0v-157h20l-2 9q-1 4 1.5 4t5.5 -3q16 -11 35.5 -21t44 -18.5
t55.5 -15t71 -9.5q21 -3 35 0q-2 2 -8.5 10.5t-3.5 23.5q3 21 32 29q-8 5 -12.5 11.5t-2.5 20.5q2 11 9.5 18t22.5 11q-8 6 -12 17t0 25q4 12 22 18.5t45 6.5l-16 13q-5 -2 -16.5 -4t-25.5 -3q-6 0 -12.5 0.5t-11.5 3.5q-4 -6 -12.5 -14.5t-21.5 -18.5t-30 -19t-38 -16
q-12 -3 -27.5 -5.5t-29 -3.5t-23 0t-9.5 4q0 4 7 5.5t19.5 3t30 4t37.5 9.5q32 11 53.5 27.5t27.5 25.5q-8 5 -12.5 12t-2.5 12q2 4 12.5 -3.5t30.5 -13.5q8 -2 21 -0.5t21 4.5q-9 11 -4 16q2 3 6 -0.5t10 -9.5t14 -12.5t19 -10.5q22 -8 29 -4t3 9zM847 411q0 16 -27.5 19.5
t-77.5 5.5q-69 2 -135.5 3t-116.5 1q14 -5 23 -13t17 -19t13 -19t9 -14q42 2 84.5 4t105.5 5q57 4 81 7.5t24 19.5zM124 198v207h-45v-207h45zM601 249q0 10 -7 17t-17 9q-9 0 -26.5 0.5t-36.5 0.5h-35t-23 -1q-15 -3 -22.5 -8.5t-6.5 -20.5q1 -11 11.5 -15.5t20.5 -4.5h17
h36.5t39 1t23.5 2q26 4 26 20zM575 185q2 8 -2.5 15.5t-15.5 8.5q-23 2 -55.5 2t-59.5 -1q-10 0 -20.5 -3.5t-11.5 -14.5q-3 -29 31 -30q25 -2 57 -1.5t59 5.5q8 2 12.5 7.5t5.5 11.5zM627 311q1 8 -4 14.5t-15 8.5q-32 4 -65.5 3t-71.5 -3q-11 -1 -15.5 -6.5t-4.5 -11.5
q0 -11 5.5 -15.5t13.5 -6.5q12 -1 29 -2t35.5 -1h37.5t35 1q10 0 15 6t5 13z" />
    <glyph glyph-name="female" unicode="&#x2640;" horiz-adv-x="652" 
d="M124 465q0 -42 15.5 -79.5t42.5 -66t64 -45t80 -16.5q42 0 78.5 16.5t64 45t43 66t15.5 79.5t-15.5 79.5t-43 65.5t-64 44.5t-78.5 16.5q-43 0 -80 -16.5t-64 -44.5t-42.5 -65.5t-15.5 -79.5zM289 185q-52 7 -97 31t-78 61t-52 85t-19 103q0 58 22 110t60 90t90 60.5
t111 22.5q58 0 110 -22.5t90 -60.5t60.5 -90t22.5 -110q0 -55 -19 -103.5t-52 -85.5t-78 -61t-97 -30v-130h143v-73h-143v-140h-74v140h-144v73h144v130z" />
    <glyph glyph-name="male" unicode="&#x2642;" horiz-adv-x="776" 
d="M123 261q0 -42 15.5 -79.5t42.5 -66t64 -45t80 -16.5q42 0 78.5 16.5t64 45t43 66t15.5 79.5t-15.5 79.5t-43 65.5t-64 44.5t-78.5 16.5q-43 0 -80 -16.5t-64 -44.5t-42.5 -65.5t-15.5 -79.5zM42 261q0 58 22 109.5t60 90t90 60.5t111 22q50 0 92.5 -15t79.5 -44l114 114
h-105v72h229v-228h-73v106l-115 -115q29 -36 44.5 -79t15.5 -93q0 -59 -22 -110.5t-60.5 -89.5t-90 -60.5t-109.5 -22.5q-59 0 -111 22.5t-90 60.5t-60 89.5t-22 110.5z" />
    <glyph glyph-name="spade" unicode="&#x2660;" horiz-adv-x="920" 
d="M809 197q0 -34 -10.5 -62.5t-29 -49.5t-45 -32.5t-59.5 -11.5q-31 0 -60 13t-68 36q1 -20 5.5 -45t12 -52t16.5 -52.5t19 -45.5q9 -19 -14 -22q-20 -2 -49 -4t-57 -2q-31 0 -58.5 2t-48.5 4q-24 3 -14 22q10 22 19 47.5t16 51.5t12 50.5t7 45.5q-40 -23 -68.5 -36
t-59.5 -13q-33 0 -59.5 11.5t-45 32.5t-29 49.5t-10.5 62.5q0 45 31 107.5t79.5 134t109 147.5t119.5 150q59 -74 119.5 -150t109 -147.5t79.5 -134t31 -107.5z" />
    <glyph glyph-name="uni2661" unicode="&#x2661;" horiz-adv-x="920" 
d="M758 460q0 33 -9 60.5t-27 48t-45 32t-63 11.5q-23 0 -40.5 -11.5t-30.5 -29t-22 -38t-15 -39.5q-5 -17 -12.5 -33t-23.5 -16q-17 0 -24 16t-12 33q-6 19 -15 39.5t-22.5 38t-31 29t-39.5 11.5q-37 0 -64 -11.5t-45 -32t-27 -48t-9 -60.5q0 -56 28 -119.5t71 -127.5
t94 -123t96 -106q45 47 96 106t93.5 123t70.5 127.5t28 119.5zM832 484q0 -49 -16.5 -102.5t-44.5 -107t-64.5 -106.5t-76.5 -102.5t-81.5 -93.5t-78.5 -80q-37 36 -78.5 80t-81.5 93.5t-76.5 102.5t-64.5 106.5t-44.5 106.5t-16.5 103q0 43 14 80t39 64.5t58.5 43
t71.5 15.5q66 0 111 -43.5t68 -143.5q23 100 67.5 143.5t110.5 43.5q38 0 71.5 -15.5t58.5 -43t39.5 -64.5t14.5 -80z" />
    </font>
</defs>
</svg>
