<svg width="166" height="165" viewBox="0 0 166 165" xmlns="http://www.w3.org/2000/svg">
    <g fill="none" fill-rule="evenodd">
        <path d="M83 165C37.436 165 .5 128.064.5 82.5S37.436 0 83 0s82.5 36.936 82.5 82.5S128.564 165 83 165z" fill="#FFF"/>
        <g stroke="#0091FF" stroke-linecap="round" stroke-linejoin="round" stroke-width="2">
            <path d="M41.5 99a19.56 19.56 0 0 0 5.217-6.577l9.393-19.247L59.5 66M57.5 88.61l10.628-22.3C71.976 58.225 80.148 53 88.948 53c2.63 0 5.206.464 7.66 1.383 6.019 2.254 10.846 7.003 13.242 13.03a23.44 23.44 0 0 1-.616 18.695L99.28 107M44.5 107l4-4"/>
            <path d="m53.5 117.92 3.124-2.131a22.982 22.982 0 0 0 7.755-9.013l16.459-34.158c1.736-3.603 5.907-5.555 9.648-4.17 4.292 1.588 6.196 6.505 4.253 10.536L78.13 113.453A38.326 38.326 0 0 1 68.447 126M87.5 77l-16 33M54.5 93l-4 6M100.5 126l-2.445-4.667c-1.842-3.516-1.963-7.66-.807-11.333"/>
            <path d="M117.389 116c-1.651-3.244-1.472-7.063-.17-10.3l6.444-13.199c4.722-9.797 5.104-21.215 1.044-31.326a38.709 38.709 0 0 0-22.415-21.829A37.62 37.62 0 0 0 89.178 37c-14.817 0-28.567 8.684-35.027 22.118L39.5 89.532"/>
            <path d="m108.962 122-1.732-2.602c-2.214-3.325-2.372-7.56-1.081-11.067l9.32-19.246c3.731-7.784 4.031-16.853.824-24.886-3.208-8.022-9.665-14.343-17.72-17.343A29.462 29.462 0 0 0 88.251 45c-11.734 0-22.63 6.92-27.751 17.626M91.5 129l-3.16-5.356c-1.243-2.11-1.847-4.546-1.84-6.922L88.73 111M68.5 113c-1.705 2.626-4.642 6.06-7 8 2.358-1.938 5.295-5.373 7-8z"/>
            <path d="m49.5 112 4.274-2.917a15.357 15.357 0 0 0 5.162-6.008l16.437-34.15c3.458-7.192 11.86-10.717 19.137-8.02a15.345 15.345 0 0 1 8.884 8.651 15.42 15.42 0 0 1-.412 12.407l-7.96 16.54-4.641 9.64M87.5 115a47.674 47.674 0 0 1-8 12l8-12z"/>
        </g>
    </g>
</svg>
