<svg width="146" height="145" viewBox="0 0 146 145" xmlns="http://www.w3.org/2000/svg">
    <g fill="none" fill-rule="evenodd">
        <g stroke="#0091FF" stroke-linecap="round" stroke-linejoin="round" stroke-width="2">
            <path d="M36.53 87a17.189 17.189 0 0 0 4.585-5.78l8.254-16.914L52.35 58M50.59 77.869l9.34-19.597c3.382-7.105 10.564-11.696 18.297-11.696 2.31 0 4.575.408 6.731 1.215 5.29 1.98 9.532 6.155 11.637 11.451a20.6 20.6 0 0 1-.54 16.429l-8.75 18.36M39.167 94.03l3.515-3.515"/>
            <path d="m47.076 103.626 2.745-1.872a20.196 20.196 0 0 0 6.815-7.92L71.1 63.814c1.526-3.166 5.191-4.881 8.478-3.664 3.772 1.396 5.445 5.716 3.738 9.26L68.72 99.7a33.68 33.68 0 0 1-8.51 11.026M76.955 67.667l-14.061 29M47.955 81.727 44.44 87M88.379 110.727l-2.149-4.101c-1.618-3.09-1.725-6.732-.709-9.96"/>
            <path d="M103.22 101.94c-1.45-2.851-1.293-6.207-.149-9.052l5.663-11.599a34.194 34.194 0 0 0 .918-27.529 34.017 34.017 0 0 0-19.699-19.183 33.06 33.06 0 0 0-11.524-2.062c-13.02 0-25.104 7.631-30.78 19.437L34.772 78.68"/>
            <path d="m95.815 107.212-1.522-2.287c-1.945-2.921-2.084-6.643-.95-9.725l8.19-16.913a27.3 27.3 0 0 0 .725-21.87c-2.82-7.05-8.494-12.604-15.572-15.24a25.89 25.89 0 0 0-9.071-1.632c-10.312 0-19.887 6.082-24.388 15.49M80.47 113.364l-2.777-4.707c-1.093-1.854-1.623-3.995-1.617-6.083l1.96-5.029M60.258 99.303c-1.499 2.308-4.08 5.326-6.152 7.03 2.072-1.703 4.653-4.721 6.152-7.03z"/>
            <path d="m43.56 98.424 3.757-2.563a13.495 13.495 0 0 0 4.536-5.28l14.444-30.01c3.04-6.32 10.423-9.418 16.818-7.05a13.485 13.485 0 0 1 7.807 7.604 13.55 13.55 0 0 1-.362 10.903l-6.996 14.535-4.078 8.472M76.955 101.06a41.895 41.895 0 0 1-7.03 10.546l7.03-10.545z"/>
        </g>
        <path d="M114.742 101.94c0 7.764-6.295 14.06-14.06 14.06-7.766 0-14.06-6.296-14.06-14.06 0-7.766 6.294-14.061 14.06-14.061 7.765 0 14.06 6.295 14.06 14.06z" fill="#FFF"/>
        <path d="m108.029 95.963.73.73-11.612 11.612-5.042-5.042.73-.73 4.312 4.312 10.882-10.882z" stroke="#0A7AFF" fill="#0A7AFF"/>
    </g>
</svg>
