<svg width="80" height="80" viewBox="0 0 80 80" xmlns="http://www.w3.org/2000/svg">
    <g fill="none" fill-rule="evenodd">
        <circle fill="#FFF" cx="40" cy="40" r="40"/>
        <path d="M19 19h42v42H19z"/>
        <path d="M40.013 29.388c-1.297 0-2.348-1.002-2.348-2.243v-5.902c0-1.24 1.051-2.243 2.348-2.243 1.295 0 2.344 1.004 2.344 2.243v5.902c0 1.24-1.05 2.243-2.344 2.243" fill="#17235E"/>
        <path d="M32.11 31.842a2.38 2.38 0 0 1-1.897-.922l-3.633-4.778c-.763-1-.53-2.403.518-3.13 1.044-.729 2.515-.508 3.277.496l3.632 4.775c.76 1.003.528 2.403-.52 3.133a2.4 2.4 0 0 1-1.376.426" fill="#23348A"/>
        <path d="M27.223 38.27c-.24 0-.486-.037-.724-.11l-5.876-1.826c-1.232-.381-1.908-1.647-1.508-2.824.403-1.18 1.724-1.823 2.956-1.44l5.876 1.824c1.234.383 1.908 1.647 1.51 2.826-.325.945-1.243 1.55-2.234 1.55" fill="#2E45B7"/>
        <path d="M21.345 48.038c-.988 0-1.907-.604-2.23-1.55-.4-1.179.276-2.442 1.508-2.826L26.5 41.84c1.228-.383 2.556.26 2.957 1.44.4 1.176-.275 2.44-1.51 2.823l-5.875 1.826c-.242.074-.484.11-.726.11" fill="#3666DA"/>
        <path d="M27.098 56.987c-1.047-.727-1.281-2.13-.518-3.13l3.633-4.779c.76-1 2.225-1.221 3.275-.496 1.047.73 1.279 2.13.519 3.131l-3.632 4.778a2.38 2.38 0 0 1-1.9.924c-.478 0-.959-.139-1.377-.428z" fill="#3789EF"/>
        <path d="M40.013 60.998c-1.297 0-2.348-1.003-2.348-2.243V52.85c0-1.24 1.051-2.243 2.348-2.243 1.295 0 2.344 1.003 2.344 2.243v5.905c0 1.24-1.05 2.243-2.344 2.243" fill="#41A5F1"/>
        <path d="M51.55 57.415c-.72 0-1.435-.32-1.897-.924l-3.634-4.778c-.758-1.001-.528-2.401.52-3.131 1.047-.728 2.514-.504 3.278.496l3.632 4.778c.76 1 .526 2.404-.521 3.131a2.405 2.405 0 0 1-1.377.428" fill="#6BBFFF"/>
        <path d="M58.68 48.038c-.241 0-.485-.036-.728-.11l-5.875-1.826c-1.232-.383-1.905-1.647-1.504-2.824.4-1.179 1.724-1.822 2.954-1.439l5.877 1.823c1.234.384 1.907 1.647 1.51 2.826-.325.946-1.243 1.55-2.233 1.55" fill="#BDE2FF"/>
        <path d="M52.802 38.27c-.99 0-1.906-.602-2.23-1.548-.4-1.179.273-2.445 1.505-2.828l5.875-1.823c1.233-.384 2.557.26 2.962 1.44.397 1.176-.276 2.442-1.51 2.823l-5.877 1.825a2.4 2.4 0 0 1-.725.11" fill="#DBEFFF"/>
        <path d="M47.919 31.845c-.481 0-.962-.14-1.38-.429-1.048-.727-1.278-2.13-.52-3.13l3.634-4.778c.763-1.004 2.229-1.225 3.275-.497 1.047.728 1.28 2.13.52 3.131l-3.631 4.778a2.385 2.385 0 0 1-1.898.925" fill="#EBF6FF"/>
    </g>
</svg>
